%TF.GenerationSoftware,KiCad,Pcbnew,(6.0.1)*%
%TF.CreationDate,2022-04-29T11:40:25-05:00*%
%TF.ProjectId,Power_KiCAD_Project,506f7765-725f-44b6-9943-41445f50726f,rev?*%
%TF.SameCoordinates,Original*%
%TF.FileFunction,Soldermask,Bot*%
%TF.FilePolarity,Negative*%
%FSLAX46Y46*%
G04 Gerber Fmt 4.6, Leading zero omitted, Abs format (unit mm)*
G04 Created by KiCad (PCBNEW (6.0.1)) date 2022-04-29 11:40:25*
%MOMM*%
%LPD*%
G01*
G04 APERTURE LIST*
G04 Aperture macros list*
%AMRoundRect*
0 Rectangle with rounded corners*
0 $1 Rounding radius*
0 $2 $3 $4 $5 $6 $7 $8 $9 X,Y pos of 4 corners*
0 Add a 4 corners polygon primitive as box body*
4,1,4,$2,$3,$4,$5,$6,$7,$8,$9,$2,$3,0*
0 Add four circle primitives for the rounded corners*
1,1,$1+$1,$2,$3*
1,1,$1+$1,$4,$5*
1,1,$1+$1,$6,$7*
1,1,$1+$1,$8,$9*
0 Add four rect primitives between the rounded corners*
20,1,$1+$1,$2,$3,$4,$5,0*
20,1,$1+$1,$4,$5,$6,$7,0*
20,1,$1+$1,$6,$7,$8,$9,0*
20,1,$1+$1,$8,$9,$2,$3,0*%
G04 Aperture macros list end*
%ADD10RoundRect,0.051000X-0.825000X0.825000X-0.825000X-0.825000X0.825000X-0.825000X0.825000X0.825000X0*%
%ADD11C,1.752000*%
%ADD12C,4.902000*%
%ADD13RoundRect,0.051000X-2.758000X2.758000X-2.758000X-2.758000X2.758000X-2.758000X2.758000X2.758000X0*%
%ADD14C,5.618000*%
%ADD15C,1.302000*%
%ADD16RoundRect,0.051000X1.300000X1.300000X-1.300000X1.300000X-1.300000X-1.300000X1.300000X-1.300000X0*%
%ADD17C,2.702000*%
%ADD18RoundRect,0.051000X2.758000X-2.758000X2.758000X2.758000X-2.758000X2.758000X-2.758000X-2.758000X0*%
%ADD19RoundRect,0.051000X2.758000X2.758000X-2.758000X2.758000X-2.758000X-2.758000X2.758000X-2.758000X0*%
%ADD20RoundRect,0.051000X0.850000X-0.850000X0.850000X0.850000X-0.850000X0.850000X-0.850000X-0.850000X0*%
%ADD21O,1.802000X1.802000*%
G04 APERTURE END LIST*
D10*
%TO.C,J8*%
X93000000Y-73650000D03*
D11*
X93000000Y-76420000D03*
X93000000Y-79190000D03*
X93000000Y-81960000D03*
X93000000Y-84730000D03*
X93000000Y-87500000D03*
X93000000Y-90270000D03*
X93000000Y-93040000D03*
X93000000Y-95810000D03*
X93000000Y-98580000D03*
X93000000Y-101350000D03*
X93000000Y-104120000D03*
X93000000Y-106890000D03*
X93000000Y-109660000D03*
X93000000Y-112430000D03*
X93000000Y-115200000D03*
X93000000Y-117970000D03*
X93000000Y-120740000D03*
X93000000Y-123510000D03*
X90460000Y-75035000D03*
X90460000Y-77805000D03*
X90460000Y-80575000D03*
X90460000Y-83345000D03*
X90460000Y-86115000D03*
X90460000Y-88885000D03*
X90460000Y-91655000D03*
X90460000Y-94425000D03*
X90460000Y-97195000D03*
X90460000Y-99965000D03*
X90460000Y-102735000D03*
X90460000Y-105505000D03*
X90460000Y-108275000D03*
X90460000Y-111045000D03*
X90460000Y-113815000D03*
X90460000Y-116585000D03*
X90460000Y-119355000D03*
X90460000Y-122125000D03*
D12*
X91730000Y-66830000D03*
X91730000Y-130330000D03*
%TD*%
D13*
%TO.C,J4*%
X120850000Y-59125000D03*
D14*
X120850000Y-66325000D03*
%TD*%
D13*
%TO.C,J2*%
X140200000Y-59125000D03*
D14*
X140200000Y-66325000D03*
%TD*%
D13*
%TO.C,J6*%
X101500000Y-59125000D03*
D14*
X101500000Y-66325000D03*
%TD*%
D15*
%TO.C,RV1*%
X132860000Y-79425000D03*
X135400000Y-79425000D03*
X137940000Y-79425000D03*
%TD*%
D16*
%TO.C,J1*%
X151200000Y-68875000D03*
D17*
X151200000Y-62875000D03*
X146500000Y-65875000D03*
%TD*%
D18*
%TO.C,J5*%
X111175000Y-66325000D03*
D14*
X111175000Y-59125000D03*
%TD*%
D18*
%TO.C,J3*%
X130525000Y-66325000D03*
D14*
X130525000Y-59125000D03*
%TD*%
D19*
%TO.C,J7*%
X153600000Y-76025000D03*
D14*
X146400000Y-76025000D03*
%TD*%
D20*
%TO.C,JP1*%
X109160000Y-134015000D03*
D21*
X111700000Y-134015000D03*
X114240000Y-134015000D03*
%TD*%
M02*
