%TF.GenerationSoftware,KiCad,Pcbnew,(6.0.1)*%
%TF.CreationDate,2022-04-29T11:40:25-05:00*%
%TF.ProjectId,Power_KiCAD_Project,506f7765-725f-44b6-9943-41445f50726f,rev?*%
%TF.SameCoordinates,Original*%
%TF.FileFunction,Soldermask,Top*%
%TF.FilePolarity,Negative*%
%FSLAX46Y46*%
G04 Gerber Fmt 4.6, Leading zero omitted, Abs format (unit mm)*
G04 Created by KiCad (PCBNEW (6.0.1)) date 2022-04-29 11:40:25*
%MOMM*%
%LPD*%
G01*
G04 APERTURE LIST*
G04 Aperture macros list*
%AMRoundRect*
0 Rectangle with rounded corners*
0 $1 Rounding radius*
0 $2 $3 $4 $5 $6 $7 $8 $9 X,Y pos of 4 corners*
0 Add a 4 corners polygon primitive as box body*
4,1,4,$2,$3,$4,$5,$6,$7,$8,$9,$2,$3,0*
0 Add four circle primitives for the rounded corners*
1,1,$1+$1,$2,$3*
1,1,$1+$1,$4,$5*
1,1,$1+$1,$6,$7*
1,1,$1+$1,$8,$9*
0 Add four rect primitives between the rounded corners*
20,1,$1+$1,$2,$3,$4,$5,0*
20,1,$1+$1,$4,$5,$6,$7,0*
20,1,$1+$1,$6,$7,$8,$9,0*
20,1,$1+$1,$8,$9,$2,$3,0*%
%AMFreePoly0*
4,1,43,1.580355,1.210355,1.595000,1.175000,1.595000,0.775000,1.580355,0.739645,1.545000,0.725000,0.975000,0.725000,0.975000,0.575000,1.545000,0.575000,1.580355,0.560355,1.595000,0.525000,1.595000,0.125000,1.580355,0.089645,1.545000,0.075000,0.975000,0.075000,0.975000,-0.075000,1.545000,-0.075000,1.580355,-0.089645,1.595000,-0.125000,1.595000,-0.525000,1.580355,-0.560355,
1.545000,-0.575000,0.975000,-0.575000,0.975000,-0.725000,1.545000,-0.725000,1.580355,-0.739645,1.595000,-0.775000,1.595000,-1.175000,1.580355,-1.210355,1.545000,-1.225000,0.925000,-1.225000,0.889645,-1.210355,0.875000,-1.175000,-0.925000,-1.175000,-0.960355,-1.160355,-0.975000,-1.125000,-0.975000,1.125000,-0.960355,1.160355,-0.925000,1.175000,0.875000,1.175000,0.889645,1.210355,
0.925000,1.225000,1.545000,1.225000,1.580355,1.210355,1.580355,1.210355,$1*%
G04 Aperture macros list end*
%ADD10RoundRect,0.051000X-0.825000X0.825000X-0.825000X-0.825000X0.825000X-0.825000X0.825000X0.825000X0*%
%ADD11C,1.752000*%
%ADD12C,4.902000*%
%ADD13RoundRect,0.288500X-0.237500X0.300000X-0.237500X-0.300000X0.237500X-0.300000X0.237500X0.300000X0*%
%ADD14RoundRect,0.288500X-0.300000X-0.237500X0.300000X-0.237500X0.300000X0.237500X-0.300000X0.237500X0*%
%ADD15RoundRect,0.051000X2.075000X-0.950000X2.075000X0.950000X-2.075000X0.950000X-2.075000X-0.950000X0*%
%ADD16RoundRect,0.051000X0.510000X0.735000X-0.510000X0.735000X-0.510000X-0.735000X0.510000X-0.735000X0*%
%ADD17RoundRect,0.288500X0.237500X-0.300000X0.237500X0.300000X-0.237500X0.300000X-0.237500X-0.300000X0*%
%ADD18RoundRect,0.288500X-0.237500X0.287500X-0.237500X-0.287500X0.237500X-0.287500X0.237500X0.287500X0*%
%ADD19RoundRect,0.051000X1.100000X0.600000X-1.100000X0.600000X-1.100000X-0.600000X1.100000X-0.600000X0*%
%ADD20RoundRect,0.051000X3.200000X2.900000X-3.200000X2.900000X-3.200000X-2.900000X3.200000X-2.900000X0*%
%ADD21RoundRect,0.051000X0.600000X-0.450000X0.600000X0.450000X-0.600000X0.450000X-0.600000X-0.450000X0*%
%ADD22RoundRect,0.269750X0.256250X-0.218750X0.256250X0.218750X-0.256250X0.218750X-0.256250X-0.218750X0*%
%ADD23RoundRect,0.050000X-0.415000X-0.200000X0.415000X-0.200000X0.415000X0.200000X-0.415000X0.200000X0*%
%ADD24FreePoly0,0.000000*%
%ADD25RoundRect,0.051000X0.400000X-0.450000X0.400000X0.450000X-0.400000X0.450000X-0.400000X-0.450000X0*%
%ADD26RoundRect,0.050000X0.415000X0.200000X-0.415000X0.200000X-0.415000X-0.200000X0.415000X-0.200000X0*%
%ADD27FreePoly0,180.000000*%
%ADD28RoundRect,0.288500X-0.287500X-0.237500X0.287500X-0.237500X0.287500X0.237500X-0.287500X0.237500X0*%
%ADD29RoundRect,0.051000X-0.400000X2.300000X-0.400000X-2.300000X0.400000X-2.300000X0.400000X2.300000X0*%
%ADD30RoundRect,0.051000X-5.400000X4.700000X-5.400000X-4.700000X5.400000X-4.700000X5.400000X4.700000X0*%
%ADD31RoundRect,0.126000X0.725000X0.075000X-0.725000X0.075000X-0.725000X-0.075000X0.725000X-0.075000X0*%
%ADD32RoundRect,0.126000X0.075000X0.725000X-0.075000X0.725000X-0.075000X-0.725000X0.075000X-0.725000X0*%
%ADD33RoundRect,0.288500X0.237500X-0.287500X0.237500X0.287500X-0.237500X0.287500X-0.237500X-0.287500X0*%
%ADD34RoundRect,0.051000X-2.758000X2.758000X-2.758000X-2.758000X2.758000X-2.758000X2.758000X2.758000X0*%
%ADD35C,5.618000*%
%ADD36RoundRect,0.301001X-0.624999X0.462499X-0.624999X-0.462499X0.624999X-0.462499X0.624999X0.462499X0*%
%ADD37C,1.302000*%
%ADD38RoundRect,0.301001X0.624999X-0.462499X0.624999X0.462499X-0.624999X0.462499X-0.624999X-0.462499X0*%
%ADD39RoundRect,0.051000X1.300000X1.300000X-1.300000X1.300000X-1.300000X-1.300000X1.300000X-1.300000X0*%
%ADD40C,2.702000*%
%ADD41RoundRect,0.301001X0.462499X0.624999X-0.462499X0.624999X-0.462499X-0.624999X0.462499X-0.624999X0*%
%ADD42RoundRect,0.051000X2.758000X-2.758000X2.758000X2.758000X-2.758000X2.758000X-2.758000X-2.758000X0*%
%ADD43RoundRect,0.288500X0.287500X0.237500X-0.287500X0.237500X-0.287500X-0.237500X0.287500X-0.237500X0*%
%ADD44RoundRect,0.151000X0.100000X-0.637500X0.100000X0.637500X-0.100000X0.637500X-0.100000X-0.637500X0*%
%ADD45RoundRect,0.301001X-0.462499X-0.624999X0.462499X-0.624999X0.462499X0.624999X-0.462499X0.624999X0*%
%ADD46RoundRect,0.051000X-0.950000X-2.200000X0.950000X-2.200000X0.950000X2.200000X-0.950000X2.200000X0*%
%ADD47RoundRect,0.051000X2.758000X2.758000X-2.758000X2.758000X-2.758000X-2.758000X2.758000X-2.758000X0*%
%ADD48RoundRect,0.051000X0.950000X2.075000X-0.950000X2.075000X-0.950000X-2.075000X0.950000X-2.075000X0*%
%ADD49RoundRect,0.051000X-0.310000X-0.735000X0.310000X-0.735000X0.310000X0.735000X-0.310000X0.735000X0*%
%ADD50RoundRect,0.051000X-0.600000X1.100000X-0.600000X-1.100000X0.600000X-1.100000X0.600000X1.100000X0*%
%ADD51RoundRect,0.051000X-2.900000X3.200000X-2.900000X-3.200000X2.900000X-3.200000X2.900000X3.200000X0*%
%ADD52RoundRect,0.051000X0.800000X1.750000X-0.800000X1.750000X-0.800000X-1.750000X0.800000X-1.750000X0*%
%ADD53RoundRect,0.051000X-0.735000X0.510000X-0.735000X-0.510000X0.735000X-0.510000X0.735000X0.510000X0*%
%ADD54RoundRect,0.051000X0.735000X-0.310000X0.735000X0.310000X-0.735000X0.310000X-0.735000X-0.310000X0*%
%ADD55RoundRect,0.051000X-1.700000X-1.800000X1.700000X-1.800000X1.700000X1.800000X-1.700000X1.800000X0*%
%ADD56RoundRect,0.051000X-2.300000X-0.400000X2.300000X-0.400000X2.300000X0.400000X-2.300000X0.400000X0*%
%ADD57RoundRect,0.051000X-4.700000X-5.400000X4.700000X-5.400000X4.700000X5.400000X-4.700000X5.400000X0*%
%ADD58RoundRect,0.051000X-0.622300X-0.177800X0.622300X-0.177800X0.622300X0.177800X-0.622300X0.177800X0*%
%ADD59RoundRect,0.051000X0.850000X-0.850000X0.850000X0.850000X-0.850000X0.850000X-0.850000X-0.850000X0*%
%ADD60O,1.802000X1.802000*%
%ADD61RoundRect,0.051000X0.650000X-0.775000X0.650000X0.775000X-0.650000X0.775000X-0.650000X-0.775000X0*%
%ADD62RoundRect,0.051000X1.300000X-0.950000X1.300000X0.950000X-1.300000X0.950000X-1.300000X-0.950000X0*%
%ADD63RoundRect,0.051000X-0.711200X-3.556000X0.711200X-3.556000X0.711200X3.556000X-0.711200X3.556000X0*%
%ADD64RoundRect,0.051000X1.612900X-2.476500X1.612900X2.476500X-1.612900X2.476500X-1.612900X-2.476500X0*%
%ADD65RoundRect,0.051000X-1.050000X0.700000X-1.050000X-0.700000X1.050000X-0.700000X1.050000X0.700000X0*%
G04 APERTURE END LIST*
D10*
%TO.C,J8*%
X93000000Y-73650000D03*
D11*
X93000000Y-76420000D03*
X93000000Y-79190000D03*
X93000000Y-81960000D03*
X93000000Y-84730000D03*
X93000000Y-87500000D03*
X93000000Y-90270000D03*
X93000000Y-93040000D03*
X93000000Y-95810000D03*
X93000000Y-98580000D03*
X93000000Y-101350000D03*
X93000000Y-104120000D03*
X93000000Y-106890000D03*
X93000000Y-109660000D03*
X93000000Y-112430000D03*
X93000000Y-115200000D03*
X93000000Y-117970000D03*
X93000000Y-120740000D03*
X93000000Y-123510000D03*
X90460000Y-75035000D03*
X90460000Y-77805000D03*
X90460000Y-80575000D03*
X90460000Y-83345000D03*
X90460000Y-86115000D03*
X90460000Y-88885000D03*
X90460000Y-91655000D03*
X90460000Y-94425000D03*
X90460000Y-97195000D03*
X90460000Y-99965000D03*
X90460000Y-102735000D03*
X90460000Y-105505000D03*
X90460000Y-108275000D03*
X90460000Y-111045000D03*
X90460000Y-113815000D03*
X90460000Y-116585000D03*
X90460000Y-119355000D03*
X90460000Y-122125000D03*
D12*
X91730000Y-66830000D03*
X91730000Y-130330000D03*
%TD*%
D13*
%TO.C,C1*%
X106505000Y-133307500D03*
X106505000Y-135032500D03*
%TD*%
D14*
%TO.C,C2*%
X136800000Y-83625000D03*
X138525000Y-83625000D03*
%TD*%
D15*
%TO.C,C3*%
X141150000Y-113625000D03*
X148100000Y-113625000D03*
%TD*%
D16*
%TO.C,C5*%
X139625000Y-117025000D03*
X138025000Y-117025000D03*
%TD*%
D17*
%TO.C,C17*%
X99320000Y-91967500D03*
X99320000Y-90242500D03*
%TD*%
D18*
%TO.C,C18*%
X118785000Y-79345000D03*
X118785000Y-81095000D03*
%TD*%
D17*
%TO.C,C23*%
X97850000Y-90160000D03*
X97850000Y-88435000D03*
%TD*%
D14*
%TO.C,C26*%
X113660001Y-128055000D03*
X115385001Y-128055000D03*
%TD*%
D17*
%TO.C,C28*%
X97900000Y-111924999D03*
X97900000Y-110199999D03*
%TD*%
D13*
%TO.C,C30*%
X116400000Y-124725000D03*
X116400000Y-126450000D03*
%TD*%
D14*
%TO.C,C33*%
X112780000Y-129575000D03*
X114505000Y-129575000D03*
%TD*%
D13*
%TO.C,C35*%
X116400000Y-114762500D03*
X116400000Y-116487500D03*
%TD*%
D19*
%TO.C,D1*%
X152800000Y-124980000D03*
D20*
X146500000Y-122700000D03*
D19*
X152800000Y-120420000D03*
%TD*%
D21*
%TO.C,D4*%
X126200000Y-83625000D03*
X126200000Y-80325000D03*
%TD*%
D22*
%TO.C,D5*%
X121800000Y-111100001D03*
X121800000Y-109525001D03*
%TD*%
%TO.C,D6*%
X120300000Y-111100001D03*
X120300000Y-109525001D03*
%TD*%
D23*
%TO.C,Q1*%
X116465001Y-85750000D03*
X116465001Y-86400000D03*
X116465001Y-87050000D03*
X116465001Y-87700000D03*
D24*
X118405001Y-86725000D03*
%TD*%
D25*
%TO.C,Q2*%
X120390000Y-79785000D03*
X122290000Y-79785000D03*
X121340000Y-77785000D03*
%TD*%
D26*
%TO.C,Q3*%
X124035000Y-87699999D03*
X124035000Y-87049999D03*
X124035000Y-86399999D03*
X124035000Y-85749999D03*
D27*
X122095000Y-86724999D03*
%TD*%
D18*
%TO.C,R8*%
X117185000Y-79345000D03*
X117185000Y-81095000D03*
%TD*%
%TO.C,R16*%
X121800000Y-112625000D03*
X121800000Y-114375000D03*
%TD*%
%TO.C,R17*%
X120300000Y-112625000D03*
X120300000Y-114375000D03*
%TD*%
D28*
%TO.C,R18*%
X101725000Y-129925000D03*
X103475000Y-129925000D03*
%TD*%
D29*
%TO.C,U3*%
X138060000Y-126500000D03*
X136790000Y-126500000D03*
X135520000Y-126500000D03*
X134250000Y-126500000D03*
X132980000Y-126500000D03*
X131710000Y-126500000D03*
X130440000Y-126500000D03*
D30*
X134250000Y-135650000D03*
%TD*%
D31*
%TO.C,U6*%
X114075000Y-125625000D03*
X114075000Y-125125000D03*
X114075000Y-124625000D03*
X114075000Y-124125000D03*
X114075000Y-123625000D03*
X114075000Y-123125000D03*
X114075000Y-122625000D03*
X114075000Y-122125000D03*
X114075000Y-121625000D03*
X114075000Y-121125000D03*
X114075000Y-120625000D03*
X114075000Y-120125000D03*
X114075000Y-119625000D03*
X114075000Y-119125000D03*
X114075000Y-118625000D03*
X114075000Y-118125000D03*
X114075000Y-117625000D03*
X114075000Y-117125000D03*
X114075000Y-116625000D03*
X114075000Y-116125000D03*
X114075000Y-115625000D03*
X114075000Y-115125000D03*
X114075000Y-114625000D03*
X114075000Y-114125000D03*
X114075000Y-113625000D03*
D32*
X112400000Y-111950000D03*
X111900000Y-111950000D03*
X111400000Y-111950000D03*
X110900000Y-111950000D03*
X110400000Y-111950000D03*
X109900000Y-111950000D03*
X109400000Y-111950000D03*
X108900000Y-111950000D03*
X108400000Y-111950000D03*
X107900000Y-111950000D03*
X107400000Y-111950000D03*
X106900000Y-111950000D03*
X106400000Y-111950000D03*
X105900000Y-111950000D03*
X105400000Y-111950000D03*
X104900000Y-111950000D03*
X104400000Y-111950000D03*
X103900000Y-111950000D03*
X103400000Y-111950000D03*
X102900000Y-111950000D03*
X102400000Y-111950000D03*
X101900000Y-111950000D03*
X101400000Y-111950000D03*
X100900000Y-111950000D03*
X100400000Y-111950000D03*
D31*
X98725000Y-113625000D03*
X98725000Y-114125000D03*
X98725000Y-114625000D03*
X98725000Y-115125000D03*
X98725000Y-115625000D03*
X98725000Y-116125000D03*
X98725000Y-116625000D03*
X98725000Y-117125000D03*
X98725000Y-117625000D03*
X98725000Y-118125000D03*
X98725000Y-118625000D03*
X98725000Y-119125000D03*
X98725000Y-119625000D03*
X98725000Y-120125000D03*
X98725000Y-120625000D03*
X98725000Y-121125000D03*
X98725000Y-121625000D03*
X98725000Y-122125000D03*
X98725000Y-122625000D03*
X98725000Y-123125000D03*
X98725000Y-123625000D03*
X98725000Y-124125000D03*
X98725000Y-124625000D03*
X98725000Y-125125000D03*
X98725000Y-125625000D03*
D32*
X100400000Y-127300000D03*
X100900000Y-127300000D03*
X101400000Y-127300000D03*
X101900000Y-127300000D03*
X102400000Y-127300000D03*
X102900000Y-127300000D03*
X103400000Y-127300000D03*
X103900000Y-127300000D03*
X104400000Y-127300000D03*
X104900000Y-127300000D03*
X105400000Y-127300000D03*
X105900000Y-127300000D03*
X106400000Y-127300000D03*
X106900000Y-127300000D03*
X107400000Y-127300000D03*
X107900000Y-127300000D03*
X108400000Y-127300000D03*
X108900000Y-127300000D03*
X109400000Y-127300000D03*
X109900000Y-127300000D03*
X110400000Y-127300000D03*
X110900000Y-127300000D03*
X111400000Y-127300000D03*
X111900000Y-127300000D03*
X112400000Y-127300000D03*
%TD*%
D18*
%TO.C,R7*%
X100830000Y-90230000D03*
X100830000Y-91980000D03*
%TD*%
D33*
%TO.C,C21*%
X109540000Y-88275000D03*
X109540000Y-86525000D03*
%TD*%
D28*
%TO.C,R11*%
X111110000Y-86485000D03*
X112860000Y-86485000D03*
%TD*%
D34*
%TO.C,J4*%
X120850000Y-59125000D03*
D35*
X120850000Y-66325000D03*
%TD*%
D34*
%TO.C,J2*%
X140200000Y-59125000D03*
D35*
X140200000Y-66325000D03*
%TD*%
D34*
%TO.C,J6*%
X101500000Y-59125000D03*
D35*
X101500000Y-66325000D03*
%TD*%
D36*
%TO.C,R3*%
X125800000Y-71725000D03*
X125800000Y-74700000D03*
%TD*%
D37*
%TO.C,RV1*%
X132860000Y-79425000D03*
X135400000Y-79425000D03*
X137940000Y-79425000D03*
%TD*%
D36*
%TO.C,R5*%
X106200000Y-71725000D03*
X106200000Y-74700000D03*
%TD*%
D38*
%TO.C,R1*%
X140800000Y-74700000D03*
X140800000Y-71725000D03*
%TD*%
D36*
%TO.C,R2*%
X135400000Y-71725000D03*
X135400000Y-74700000D03*
%TD*%
%TO.C,R4*%
X116200000Y-71725000D03*
X116200000Y-74700000D03*
%TD*%
D39*
%TO.C,J1*%
X151200000Y-68875000D03*
D40*
X151200000Y-62875000D03*
X146500000Y-65875000D03*
%TD*%
D36*
%TO.C,C16*%
X98800000Y-71750000D03*
X98800000Y-74725000D03*
%TD*%
D38*
%TO.C,C15*%
X103600000Y-74725000D03*
X103600000Y-71750000D03*
%TD*%
D41*
%TO.C,C14*%
X112687500Y-71925000D03*
X109712500Y-71925000D03*
%TD*%
%TO.C,C13*%
X122487500Y-71925000D03*
X119512500Y-71925000D03*
%TD*%
%TO.C,C12*%
X132087500Y-71925000D03*
X129112500Y-71925000D03*
%TD*%
D36*
%TO.C,C11*%
X137800000Y-71725000D03*
X137800000Y-74700000D03*
%TD*%
D42*
%TO.C,J5*%
X111175000Y-66325000D03*
D35*
X111175000Y-59125000D03*
%TD*%
D42*
%TO.C,J3*%
X130525000Y-66325000D03*
D35*
X130525000Y-59125000D03*
%TD*%
D13*
%TO.C,C27*%
X97800000Y-127325000D03*
X97800000Y-129050000D03*
%TD*%
D43*
%TO.C,R12*%
X118249999Y-84025000D03*
X116499999Y-84025000D03*
%TD*%
D17*
%TO.C,C36*%
X117890000Y-118624999D03*
X117890000Y-116899999D03*
%TD*%
D13*
%TO.C,C32*%
X116400000Y-121325000D03*
X116400000Y-123050000D03*
%TD*%
D17*
%TO.C,C34*%
X101500000Y-109624999D03*
X101500000Y-107899999D03*
%TD*%
D41*
%TO.C,R9*%
X106087500Y-88735000D03*
X103112500Y-88735000D03*
%TD*%
D43*
%TO.C,R19*%
X108100001Y-129925000D03*
X106350001Y-129925000D03*
%TD*%
D33*
%TO.C,R13*%
X124100000Y-83575000D03*
X124100000Y-81825000D03*
%TD*%
D17*
%TO.C,C31*%
X96700000Y-123534999D03*
X96700000Y-121809999D03*
%TD*%
D18*
%TO.C,C20*%
X96800000Y-71380000D03*
X96800000Y-73130000D03*
%TD*%
D44*
%TO.C,U5*%
X96300000Y-84850000D03*
X96950000Y-84850000D03*
X97600000Y-84850000D03*
X98250000Y-84850000D03*
X98900000Y-84850000D03*
X99550000Y-84850000D03*
X100200000Y-84850000D03*
X100850000Y-84850000D03*
X101500000Y-84850000D03*
X102150000Y-84850000D03*
X102150000Y-79125000D03*
X101500000Y-79125000D03*
X100850000Y-79125000D03*
X100200000Y-79125000D03*
X99550000Y-79125000D03*
X98900000Y-79125000D03*
X98250000Y-79125000D03*
X97600000Y-79125000D03*
X96950000Y-79125000D03*
X96300000Y-79125000D03*
%TD*%
D45*
%TO.C,C22*%
X110002500Y-76905000D03*
X112977500Y-76905000D03*
%TD*%
D41*
%TO.C,C19*%
X106087500Y-91035000D03*
X103112500Y-91035000D03*
%TD*%
D22*
%TO.C,D3*%
X100280000Y-88482500D03*
X100280000Y-86907500D03*
%TD*%
D18*
%TO.C,R15*%
X128200000Y-83625000D03*
X128200000Y-85375000D03*
%TD*%
D33*
%TO.C,R14*%
X96510000Y-65410000D03*
X96510000Y-63660000D03*
%TD*%
D14*
%TO.C,C29*%
X114600000Y-110925000D03*
X116325000Y-110925000D03*
%TD*%
D46*
%TO.C,C10*%
X122250000Y-137125000D03*
X122250000Y-128425000D03*
%TD*%
D36*
%TO.C,R6*%
X101200000Y-71750000D03*
X101200000Y-74725000D03*
%TD*%
D47*
%TO.C,J7*%
X153600000Y-76025000D03*
D35*
X146400000Y-76025000D03*
%TD*%
D48*
%TO.C,C4*%
X130500000Y-97825000D03*
X130500000Y-90875000D03*
%TD*%
D49*
%TO.C,C7*%
X138750001Y-119025000D03*
X140750001Y-119025000D03*
%TD*%
D50*
%TO.C,D2*%
X141480000Y-86125000D03*
D51*
X139200000Y-92425000D03*
D50*
X136920000Y-86125000D03*
%TD*%
D52*
%TO.C,C9*%
X134000000Y-104025000D03*
X134000000Y-109625000D03*
%TD*%
D53*
%TO.C,C6*%
X135800000Y-99625000D03*
X135800000Y-101225000D03*
%TD*%
D54*
%TO.C,C8*%
X137825000Y-100125000D03*
X137825000Y-98125000D03*
%TD*%
D55*
%TO.C,L2*%
X150400000Y-82375000D03*
X150400000Y-93675000D03*
%TD*%
D56*
%TO.C,U4*%
X141625000Y-97855000D03*
X141625000Y-99125000D03*
X141625000Y-100395000D03*
X141625000Y-101665000D03*
X141625000Y-102935000D03*
X141625000Y-104205000D03*
X141625000Y-105475000D03*
D57*
X150775000Y-101665000D03*
%TD*%
D13*
%TO.C,C25*%
X124474470Y-117220838D03*
X124474470Y-118945838D03*
%TD*%
D58*
%TO.C,U1*%
X130095000Y-83752501D03*
X130095000Y-84402499D03*
X130095000Y-85052501D03*
X130095000Y-85702499D03*
X134616200Y-85702499D03*
X134616200Y-85052501D03*
X134616200Y-84402499D03*
X134616200Y-83752501D03*
%TD*%
D59*
%TO.C,JP1*%
X109160000Y-134015000D03*
D60*
X111700000Y-134015000D03*
X114240000Y-134015000D03*
%TD*%
D61*
%TO.C,SW1*%
X100630000Y-103515000D03*
X100630000Y-95555000D03*
X105130000Y-103515000D03*
X105130000Y-95555000D03*
%TD*%
D62*
%TO.C,Y1*%
X121663721Y-121939861D03*
X121663721Y-117639861D03*
%TD*%
D58*
%TO.C,U2*%
X100005000Y-133220000D03*
X100005000Y-133869998D03*
X100005000Y-134520000D03*
X100005000Y-135169998D03*
X104526200Y-135169998D03*
X104526200Y-134520000D03*
X104526200Y-133869998D03*
X104526200Y-133220000D03*
%TD*%
D17*
%TO.C,C24*%
X124474470Y-122347361D03*
X124474470Y-120622361D03*
%TD*%
D63*
%TO.C,R10*%
X103776000Y-81885000D03*
X114444000Y-81885000D03*
%TD*%
D64*
%TO.C,L1*%
X142102500Y-133525000D03*
X152897500Y-133525000D03*
%TD*%
D65*
%TO.C,IC1*%
X93820000Y-61700000D03*
X84720000Y-61700000D03*
X93820000Y-57200000D03*
%TD*%
G36*
X100646188Y-134744023D02*
G01*
X100646578Y-134745985D01*
X100646219Y-134746625D01*
X100605003Y-134795945D01*
X100596372Y-134864660D01*
X100626335Y-134927289D01*
X100644228Y-134942792D01*
X100644882Y-134944682D01*
X100643572Y-134946194D01*
X100642528Y-134946266D01*
X100627101Y-134943198D01*
X99382899Y-134943198D01*
X99365706Y-134946618D01*
X99363812Y-134945975D01*
X99363422Y-134944013D01*
X99363781Y-134943373D01*
X99404997Y-134894053D01*
X99413628Y-134825338D01*
X99383665Y-134762709D01*
X99365772Y-134747206D01*
X99365118Y-134745316D01*
X99366428Y-134743804D01*
X99367472Y-134743732D01*
X99382899Y-134746800D01*
X100627101Y-134746800D01*
X100644294Y-134743380D01*
X100646188Y-134744023D01*
G37*
G36*
X105167388Y-134744023D02*
G01*
X105167778Y-134745985D01*
X105167419Y-134746625D01*
X105126203Y-134795945D01*
X105117572Y-134864660D01*
X105147535Y-134927289D01*
X105165428Y-134942792D01*
X105166082Y-134944682D01*
X105164772Y-134946194D01*
X105163728Y-134946266D01*
X105148301Y-134943198D01*
X103904099Y-134943198D01*
X103886906Y-134946618D01*
X103885012Y-134945975D01*
X103884622Y-134944013D01*
X103884981Y-134943373D01*
X103926197Y-134894053D01*
X103934828Y-134825338D01*
X103904865Y-134762709D01*
X103886972Y-134747206D01*
X103886318Y-134745316D01*
X103887628Y-134743804D01*
X103888672Y-134743732D01*
X103904099Y-134746800D01*
X105148301Y-134746800D01*
X105165494Y-134743380D01*
X105167388Y-134744023D01*
G37*
G36*
X100646187Y-134094022D02*
G01*
X100646577Y-134095984D01*
X100646218Y-134096624D01*
X100605000Y-134145945D01*
X100596369Y-134214660D01*
X100626332Y-134277289D01*
X100644227Y-134292794D01*
X100644881Y-134294684D01*
X100643571Y-134296196D01*
X100642527Y-134296268D01*
X100627101Y-134293200D01*
X99382899Y-134293200D01*
X99365707Y-134296619D01*
X99363813Y-134295976D01*
X99363423Y-134294014D01*
X99363782Y-134293374D01*
X99405000Y-134244053D01*
X99413631Y-134175338D01*
X99383668Y-134112709D01*
X99365773Y-134097204D01*
X99365119Y-134095314D01*
X99366429Y-134093802D01*
X99367473Y-134093730D01*
X99382899Y-134096798D01*
X100627101Y-134096798D01*
X100644293Y-134093379D01*
X100646187Y-134094022D01*
G37*
G36*
X105167387Y-134094022D02*
G01*
X105167777Y-134095984D01*
X105167418Y-134096624D01*
X105126200Y-134145945D01*
X105117569Y-134214660D01*
X105147532Y-134277289D01*
X105165427Y-134292794D01*
X105166081Y-134294684D01*
X105164771Y-134296196D01*
X105163727Y-134296268D01*
X105148301Y-134293200D01*
X103904099Y-134293200D01*
X103886907Y-134296619D01*
X103885013Y-134295976D01*
X103884623Y-134294014D01*
X103884982Y-134293374D01*
X103926200Y-134244053D01*
X103934831Y-134175338D01*
X103904868Y-134112709D01*
X103886973Y-134097204D01*
X103886319Y-134095314D01*
X103887629Y-134093802D01*
X103888673Y-134093730D01*
X103904099Y-134096798D01*
X105148301Y-134096798D01*
X105165493Y-134093379D01*
X105167387Y-134094022D01*
G37*
G36*
X105167388Y-133444023D02*
G01*
X105167778Y-133445985D01*
X105167419Y-133446625D01*
X105126203Y-133495945D01*
X105117572Y-133564660D01*
X105147535Y-133627289D01*
X105165428Y-133642792D01*
X105166082Y-133644682D01*
X105164772Y-133646194D01*
X105163728Y-133646266D01*
X105148301Y-133643198D01*
X103904099Y-133643198D01*
X103886906Y-133646618D01*
X103885012Y-133645975D01*
X103884622Y-133644013D01*
X103884981Y-133643373D01*
X103926197Y-133594053D01*
X103934828Y-133525338D01*
X103904865Y-133462709D01*
X103886972Y-133447206D01*
X103886318Y-133445316D01*
X103887628Y-133443804D01*
X103888672Y-133443732D01*
X103904099Y-133446800D01*
X105148301Y-133446800D01*
X105165494Y-133443380D01*
X105167388Y-133444023D01*
G37*
G36*
X100646188Y-133444023D02*
G01*
X100646578Y-133445985D01*
X100646219Y-133446625D01*
X100605003Y-133495945D01*
X100596372Y-133564660D01*
X100626335Y-133627289D01*
X100644228Y-133642792D01*
X100644882Y-133644682D01*
X100643572Y-133646194D01*
X100642528Y-133646266D01*
X100627101Y-133643198D01*
X99382899Y-133643198D01*
X99365706Y-133646618D01*
X99363812Y-133645975D01*
X99363422Y-133644013D01*
X99363781Y-133643373D01*
X99404997Y-133594053D01*
X99413628Y-133525338D01*
X99383665Y-133462709D01*
X99365772Y-133447206D01*
X99365118Y-133445316D01*
X99366428Y-133443804D01*
X99367472Y-133443732D01*
X99382899Y-133446800D01*
X100627101Y-133446800D01*
X100644294Y-133443380D01*
X100646188Y-133444023D01*
G37*
G36*
X105568693Y-126489460D02*
G01*
X105581425Y-126497967D01*
X105647789Y-126518747D01*
X105718589Y-126497958D01*
X105731307Y-126489460D01*
X105733303Y-126489329D01*
X105734414Y-126490992D01*
X105734081Y-126492234D01*
X105710476Y-126527561D01*
X105701000Y-126575199D01*
X105701000Y-128024801D01*
X105710476Y-128072439D01*
X105734081Y-128107766D01*
X105734212Y-128109762D01*
X105732549Y-128110873D01*
X105731307Y-128110540D01*
X105718575Y-128102033D01*
X105652211Y-128081253D01*
X105581411Y-128102042D01*
X105568693Y-128110540D01*
X105566697Y-128110671D01*
X105565586Y-128109008D01*
X105565919Y-128107766D01*
X105589524Y-128072439D01*
X105599000Y-128024801D01*
X105599000Y-126575199D01*
X105589524Y-126527561D01*
X105565919Y-126492234D01*
X105565788Y-126490238D01*
X105567451Y-126489127D01*
X105568693Y-126489460D01*
G37*
G36*
X112068693Y-126489460D02*
G01*
X112081425Y-126497967D01*
X112147789Y-126518747D01*
X112218589Y-126497958D01*
X112231307Y-126489460D01*
X112233303Y-126489329D01*
X112234414Y-126490992D01*
X112234081Y-126492234D01*
X112210476Y-126527561D01*
X112201000Y-126575199D01*
X112201000Y-128024801D01*
X112210476Y-128072439D01*
X112234081Y-128107766D01*
X112234212Y-128109762D01*
X112232549Y-128110873D01*
X112231307Y-128110540D01*
X112218575Y-128102033D01*
X112152211Y-128081253D01*
X112081411Y-128102042D01*
X112068693Y-128110540D01*
X112066697Y-128110671D01*
X112065586Y-128109008D01*
X112065919Y-128107766D01*
X112089524Y-128072439D01*
X112099000Y-128024801D01*
X112099000Y-126575199D01*
X112089524Y-126527561D01*
X112065919Y-126492234D01*
X112065788Y-126490238D01*
X112067451Y-126489127D01*
X112068693Y-126489460D01*
G37*
G36*
X111568693Y-126489460D02*
G01*
X111581425Y-126497967D01*
X111647789Y-126518747D01*
X111718589Y-126497958D01*
X111731307Y-126489460D01*
X111733303Y-126489329D01*
X111734414Y-126490992D01*
X111734081Y-126492234D01*
X111710476Y-126527561D01*
X111701000Y-126575199D01*
X111701000Y-128024801D01*
X111710476Y-128072439D01*
X111734081Y-128107766D01*
X111734212Y-128109762D01*
X111732549Y-128110873D01*
X111731307Y-128110540D01*
X111718575Y-128102033D01*
X111652211Y-128081253D01*
X111581411Y-128102042D01*
X111568693Y-128110540D01*
X111566697Y-128110671D01*
X111565586Y-128109008D01*
X111565919Y-128107766D01*
X111589524Y-128072439D01*
X111599000Y-128024801D01*
X111599000Y-126575199D01*
X111589524Y-126527561D01*
X111565919Y-126492234D01*
X111565788Y-126490238D01*
X111567451Y-126489127D01*
X111568693Y-126489460D01*
G37*
G36*
X110068693Y-126489460D02*
G01*
X110081425Y-126497967D01*
X110147789Y-126518747D01*
X110218589Y-126497958D01*
X110231307Y-126489460D01*
X110233303Y-126489329D01*
X110234414Y-126490992D01*
X110234081Y-126492234D01*
X110210476Y-126527561D01*
X110201000Y-126575199D01*
X110201000Y-128024801D01*
X110210476Y-128072439D01*
X110234081Y-128107766D01*
X110234212Y-128109762D01*
X110232549Y-128110873D01*
X110231307Y-128110540D01*
X110218575Y-128102033D01*
X110152211Y-128081253D01*
X110081411Y-128102042D01*
X110068693Y-128110540D01*
X110066697Y-128110671D01*
X110065586Y-128109008D01*
X110065919Y-128107766D01*
X110089524Y-128072439D01*
X110099000Y-128024801D01*
X110099000Y-126575199D01*
X110089524Y-126527561D01*
X110065919Y-126492234D01*
X110065788Y-126490238D01*
X110067451Y-126489127D01*
X110068693Y-126489460D01*
G37*
G36*
X100568693Y-126489460D02*
G01*
X100581425Y-126497967D01*
X100647789Y-126518747D01*
X100718589Y-126497958D01*
X100731307Y-126489460D01*
X100733303Y-126489329D01*
X100734414Y-126490992D01*
X100734081Y-126492234D01*
X100710476Y-126527561D01*
X100701000Y-126575199D01*
X100701000Y-128024801D01*
X100710476Y-128072439D01*
X100734081Y-128107766D01*
X100734212Y-128109762D01*
X100732549Y-128110873D01*
X100731307Y-128110540D01*
X100718575Y-128102033D01*
X100652211Y-128081253D01*
X100581411Y-128102042D01*
X100568693Y-128110540D01*
X100566697Y-128110671D01*
X100565586Y-128109008D01*
X100565919Y-128107766D01*
X100589524Y-128072439D01*
X100599000Y-128024801D01*
X100599000Y-126575199D01*
X100589524Y-126527561D01*
X100565919Y-126492234D01*
X100565788Y-126490238D01*
X100567451Y-126489127D01*
X100568693Y-126489460D01*
G37*
G36*
X111068693Y-126489460D02*
G01*
X111081425Y-126497967D01*
X111147789Y-126518747D01*
X111218589Y-126497958D01*
X111231307Y-126489460D01*
X111233303Y-126489329D01*
X111234414Y-126490992D01*
X111234081Y-126492234D01*
X111210476Y-126527561D01*
X111201000Y-126575199D01*
X111201000Y-128024801D01*
X111210476Y-128072439D01*
X111234081Y-128107766D01*
X111234212Y-128109762D01*
X111232549Y-128110873D01*
X111231307Y-128110540D01*
X111218575Y-128102033D01*
X111152211Y-128081253D01*
X111081411Y-128102042D01*
X111068693Y-128110540D01*
X111066697Y-128110671D01*
X111065586Y-128109008D01*
X111065919Y-128107766D01*
X111089524Y-128072439D01*
X111099000Y-128024801D01*
X111099000Y-126575199D01*
X111089524Y-126527561D01*
X111065919Y-126492234D01*
X111065788Y-126490238D01*
X111067451Y-126489127D01*
X111068693Y-126489460D01*
G37*
G36*
X101568693Y-126489460D02*
G01*
X101581425Y-126497967D01*
X101647789Y-126518747D01*
X101718589Y-126497958D01*
X101731307Y-126489460D01*
X101733303Y-126489329D01*
X101734414Y-126490992D01*
X101734081Y-126492234D01*
X101710476Y-126527561D01*
X101701000Y-126575199D01*
X101701000Y-128024801D01*
X101710476Y-128072439D01*
X101734081Y-128107766D01*
X101734212Y-128109762D01*
X101732549Y-128110873D01*
X101731307Y-128110540D01*
X101718575Y-128102033D01*
X101652211Y-128081253D01*
X101581411Y-128102042D01*
X101568693Y-128110540D01*
X101566697Y-128110671D01*
X101565586Y-128109008D01*
X101565919Y-128107766D01*
X101589524Y-128072439D01*
X101599000Y-128024801D01*
X101599000Y-126575199D01*
X101589524Y-126527561D01*
X101565919Y-126492234D01*
X101565788Y-126490238D01*
X101567451Y-126489127D01*
X101568693Y-126489460D01*
G37*
G36*
X104568693Y-126489460D02*
G01*
X104581425Y-126497967D01*
X104647789Y-126518747D01*
X104718589Y-126497958D01*
X104731307Y-126489460D01*
X104733303Y-126489329D01*
X104734414Y-126490992D01*
X104734081Y-126492234D01*
X104710476Y-126527561D01*
X104701000Y-126575199D01*
X104701000Y-128024801D01*
X104710476Y-128072439D01*
X104734081Y-128107766D01*
X104734212Y-128109762D01*
X104732549Y-128110873D01*
X104731307Y-128110540D01*
X104718575Y-128102033D01*
X104652211Y-128081253D01*
X104581411Y-128102042D01*
X104568693Y-128110540D01*
X104566697Y-128110671D01*
X104565586Y-128109008D01*
X104565919Y-128107766D01*
X104589524Y-128072439D01*
X104599000Y-128024801D01*
X104599000Y-126575199D01*
X104589524Y-126527561D01*
X104565919Y-126492234D01*
X104565788Y-126490238D01*
X104567451Y-126489127D01*
X104568693Y-126489460D01*
G37*
G36*
X104068693Y-126489460D02*
G01*
X104081425Y-126497967D01*
X104147789Y-126518747D01*
X104218589Y-126497958D01*
X104231307Y-126489460D01*
X104233303Y-126489329D01*
X104234414Y-126490992D01*
X104234081Y-126492234D01*
X104210476Y-126527561D01*
X104201000Y-126575199D01*
X104201000Y-128024801D01*
X104210476Y-128072439D01*
X104234081Y-128107766D01*
X104234212Y-128109762D01*
X104232549Y-128110873D01*
X104231307Y-128110540D01*
X104218575Y-128102033D01*
X104152211Y-128081253D01*
X104081411Y-128102042D01*
X104068693Y-128110540D01*
X104066697Y-128110671D01*
X104065586Y-128109008D01*
X104065919Y-128107766D01*
X104089524Y-128072439D01*
X104099000Y-128024801D01*
X104099000Y-126575199D01*
X104089524Y-126527561D01*
X104065919Y-126492234D01*
X104065788Y-126490238D01*
X104067451Y-126489127D01*
X104068693Y-126489460D01*
G37*
G36*
X108568693Y-126489460D02*
G01*
X108581425Y-126497967D01*
X108647789Y-126518747D01*
X108718589Y-126497958D01*
X108731307Y-126489460D01*
X108733303Y-126489329D01*
X108734414Y-126490992D01*
X108734081Y-126492234D01*
X108710476Y-126527561D01*
X108701000Y-126575199D01*
X108701000Y-128024801D01*
X108710476Y-128072439D01*
X108734081Y-128107766D01*
X108734212Y-128109762D01*
X108732549Y-128110873D01*
X108731307Y-128110540D01*
X108718575Y-128102033D01*
X108652211Y-128081253D01*
X108581411Y-128102042D01*
X108568693Y-128110540D01*
X108566697Y-128110671D01*
X108565586Y-128109008D01*
X108565919Y-128107766D01*
X108589524Y-128072439D01*
X108599000Y-128024801D01*
X108599000Y-126575199D01*
X108589524Y-126527561D01*
X108565919Y-126492234D01*
X108565788Y-126490238D01*
X108567451Y-126489127D01*
X108568693Y-126489460D01*
G37*
G36*
X105068693Y-126489460D02*
G01*
X105081425Y-126497967D01*
X105147789Y-126518747D01*
X105218589Y-126497958D01*
X105231307Y-126489460D01*
X105233303Y-126489329D01*
X105234414Y-126490992D01*
X105234081Y-126492234D01*
X105210476Y-126527561D01*
X105201000Y-126575199D01*
X105201000Y-128024801D01*
X105210476Y-128072439D01*
X105234081Y-128107766D01*
X105234212Y-128109762D01*
X105232549Y-128110873D01*
X105231307Y-128110540D01*
X105218575Y-128102033D01*
X105152211Y-128081253D01*
X105081411Y-128102042D01*
X105068693Y-128110540D01*
X105066697Y-128110671D01*
X105065586Y-128109008D01*
X105065919Y-128107766D01*
X105089524Y-128072439D01*
X105099000Y-128024801D01*
X105099000Y-126575199D01*
X105089524Y-126527561D01*
X105065919Y-126492234D01*
X105065788Y-126490238D01*
X105067451Y-126489127D01*
X105068693Y-126489460D01*
G37*
G36*
X108068693Y-126489460D02*
G01*
X108081425Y-126497967D01*
X108147789Y-126518747D01*
X108218589Y-126497958D01*
X108231307Y-126489460D01*
X108233303Y-126489329D01*
X108234414Y-126490992D01*
X108234081Y-126492234D01*
X108210476Y-126527561D01*
X108201000Y-126575199D01*
X108201000Y-128024801D01*
X108210476Y-128072439D01*
X108234081Y-128107766D01*
X108234212Y-128109762D01*
X108232549Y-128110873D01*
X108231307Y-128110540D01*
X108218575Y-128102033D01*
X108152211Y-128081253D01*
X108081411Y-128102042D01*
X108068693Y-128110540D01*
X108066697Y-128110671D01*
X108065586Y-128109008D01*
X108065919Y-128107766D01*
X108089524Y-128072439D01*
X108099000Y-128024801D01*
X108099000Y-126575199D01*
X108089524Y-126527561D01*
X108065919Y-126492234D01*
X108065788Y-126490238D01*
X108067451Y-126489127D01*
X108068693Y-126489460D01*
G37*
G36*
X110568693Y-126489460D02*
G01*
X110581425Y-126497967D01*
X110647789Y-126518747D01*
X110718589Y-126497958D01*
X110731307Y-126489460D01*
X110733303Y-126489329D01*
X110734414Y-126490992D01*
X110734081Y-126492234D01*
X110710476Y-126527561D01*
X110701000Y-126575199D01*
X110701000Y-128024801D01*
X110710476Y-128072439D01*
X110734081Y-128107766D01*
X110734212Y-128109762D01*
X110732549Y-128110873D01*
X110731307Y-128110540D01*
X110718575Y-128102033D01*
X110652211Y-128081253D01*
X110581411Y-128102042D01*
X110568693Y-128110540D01*
X110566697Y-128110671D01*
X110565586Y-128109008D01*
X110565919Y-128107766D01*
X110589524Y-128072439D01*
X110599000Y-128024801D01*
X110599000Y-126575199D01*
X110589524Y-126527561D01*
X110565919Y-126492234D01*
X110565788Y-126490238D01*
X110567451Y-126489127D01*
X110568693Y-126489460D01*
G37*
G36*
X109568693Y-126489460D02*
G01*
X109581425Y-126497967D01*
X109647789Y-126518747D01*
X109718589Y-126497958D01*
X109731307Y-126489460D01*
X109733303Y-126489329D01*
X109734414Y-126490992D01*
X109734081Y-126492234D01*
X109710476Y-126527561D01*
X109701000Y-126575199D01*
X109701000Y-128024801D01*
X109710476Y-128072439D01*
X109734081Y-128107766D01*
X109734212Y-128109762D01*
X109732549Y-128110873D01*
X109731307Y-128110540D01*
X109718575Y-128102033D01*
X109652211Y-128081253D01*
X109581411Y-128102042D01*
X109568693Y-128110540D01*
X109566697Y-128110671D01*
X109565586Y-128109008D01*
X109565919Y-128107766D01*
X109589524Y-128072439D01*
X109599000Y-128024801D01*
X109599000Y-126575199D01*
X109589524Y-126527561D01*
X109565919Y-126492234D01*
X109565788Y-126490238D01*
X109567451Y-126489127D01*
X109568693Y-126489460D01*
G37*
G36*
X103568693Y-126489460D02*
G01*
X103581425Y-126497967D01*
X103647789Y-126518747D01*
X103718589Y-126497958D01*
X103731307Y-126489460D01*
X103733303Y-126489329D01*
X103734414Y-126490992D01*
X103734081Y-126492234D01*
X103710476Y-126527561D01*
X103701000Y-126575199D01*
X103701000Y-128024801D01*
X103710476Y-128072439D01*
X103734081Y-128107766D01*
X103734212Y-128109762D01*
X103732549Y-128110873D01*
X103731307Y-128110540D01*
X103718575Y-128102033D01*
X103652211Y-128081253D01*
X103581411Y-128102042D01*
X103568693Y-128110540D01*
X103566697Y-128110671D01*
X103565586Y-128109008D01*
X103565919Y-128107766D01*
X103589524Y-128072439D01*
X103599000Y-128024801D01*
X103599000Y-126575199D01*
X103589524Y-126527561D01*
X103565919Y-126492234D01*
X103565788Y-126490238D01*
X103567451Y-126489127D01*
X103568693Y-126489460D01*
G37*
G36*
X103068693Y-126489460D02*
G01*
X103081425Y-126497967D01*
X103147789Y-126518747D01*
X103218589Y-126497958D01*
X103231307Y-126489460D01*
X103233303Y-126489329D01*
X103234414Y-126490992D01*
X103234081Y-126492234D01*
X103210476Y-126527561D01*
X103201000Y-126575199D01*
X103201000Y-128024801D01*
X103210476Y-128072439D01*
X103234081Y-128107766D01*
X103234212Y-128109762D01*
X103232549Y-128110873D01*
X103231307Y-128110540D01*
X103218575Y-128102033D01*
X103152211Y-128081253D01*
X103081411Y-128102042D01*
X103068693Y-128110540D01*
X103066697Y-128110671D01*
X103065586Y-128109008D01*
X103065919Y-128107766D01*
X103089524Y-128072439D01*
X103099000Y-128024801D01*
X103099000Y-126575199D01*
X103089524Y-126527561D01*
X103065919Y-126492234D01*
X103065788Y-126490238D01*
X103067451Y-126489127D01*
X103068693Y-126489460D01*
G37*
G36*
X107568693Y-126489460D02*
G01*
X107581425Y-126497967D01*
X107647789Y-126518747D01*
X107718589Y-126497958D01*
X107731307Y-126489460D01*
X107733303Y-126489329D01*
X107734414Y-126490992D01*
X107734081Y-126492234D01*
X107710476Y-126527561D01*
X107701000Y-126575199D01*
X107701000Y-128024801D01*
X107710476Y-128072439D01*
X107734081Y-128107766D01*
X107734212Y-128109762D01*
X107732549Y-128110873D01*
X107731307Y-128110540D01*
X107718575Y-128102033D01*
X107652211Y-128081253D01*
X107581411Y-128102042D01*
X107568693Y-128110540D01*
X107566697Y-128110671D01*
X107565586Y-128109008D01*
X107565919Y-128107766D01*
X107589524Y-128072439D01*
X107599000Y-128024801D01*
X107599000Y-126575199D01*
X107589524Y-126527561D01*
X107565919Y-126492234D01*
X107565788Y-126490238D01*
X107567451Y-126489127D01*
X107568693Y-126489460D01*
G37*
G36*
X106568693Y-126489460D02*
G01*
X106581425Y-126497967D01*
X106647789Y-126518747D01*
X106718589Y-126497958D01*
X106731307Y-126489460D01*
X106733303Y-126489329D01*
X106734414Y-126490992D01*
X106734081Y-126492234D01*
X106710476Y-126527561D01*
X106701000Y-126575199D01*
X106701000Y-128024801D01*
X106710476Y-128072439D01*
X106734081Y-128107766D01*
X106734212Y-128109762D01*
X106732549Y-128110873D01*
X106731307Y-128110540D01*
X106718575Y-128102033D01*
X106652211Y-128081253D01*
X106581411Y-128102042D01*
X106568693Y-128110540D01*
X106566697Y-128110671D01*
X106565586Y-128109008D01*
X106565919Y-128107766D01*
X106589524Y-128072439D01*
X106599000Y-128024801D01*
X106599000Y-126575199D01*
X106589524Y-126527561D01*
X106565919Y-126492234D01*
X106565788Y-126490238D01*
X106567451Y-126489127D01*
X106568693Y-126489460D01*
G37*
G36*
X107068693Y-126489460D02*
G01*
X107081425Y-126497967D01*
X107147789Y-126518747D01*
X107218589Y-126497958D01*
X107231307Y-126489460D01*
X107233303Y-126489329D01*
X107234414Y-126490992D01*
X107234081Y-126492234D01*
X107210476Y-126527561D01*
X107201000Y-126575199D01*
X107201000Y-128024801D01*
X107210476Y-128072439D01*
X107234081Y-128107766D01*
X107234212Y-128109762D01*
X107232549Y-128110873D01*
X107231307Y-128110540D01*
X107218575Y-128102033D01*
X107152211Y-128081253D01*
X107081411Y-128102042D01*
X107068693Y-128110540D01*
X107066697Y-128110671D01*
X107065586Y-128109008D01*
X107065919Y-128107766D01*
X107089524Y-128072439D01*
X107099000Y-128024801D01*
X107099000Y-126575199D01*
X107089524Y-126527561D01*
X107065919Y-126492234D01*
X107065788Y-126490238D01*
X107067451Y-126489127D01*
X107068693Y-126489460D01*
G37*
G36*
X101068693Y-126489460D02*
G01*
X101081425Y-126497967D01*
X101147789Y-126518747D01*
X101218589Y-126497958D01*
X101231307Y-126489460D01*
X101233303Y-126489329D01*
X101234414Y-126490992D01*
X101234081Y-126492234D01*
X101210476Y-126527561D01*
X101201000Y-126575199D01*
X101201000Y-128024801D01*
X101210476Y-128072439D01*
X101234081Y-128107766D01*
X101234212Y-128109762D01*
X101232549Y-128110873D01*
X101231307Y-128110540D01*
X101218575Y-128102033D01*
X101152211Y-128081253D01*
X101081411Y-128102042D01*
X101068693Y-128110540D01*
X101066697Y-128110671D01*
X101065586Y-128109008D01*
X101065919Y-128107766D01*
X101089524Y-128072439D01*
X101099000Y-128024801D01*
X101099000Y-126575199D01*
X101089524Y-126527561D01*
X101065919Y-126492234D01*
X101065788Y-126490238D01*
X101067451Y-126489127D01*
X101068693Y-126489460D01*
G37*
G36*
X102568693Y-126489460D02*
G01*
X102581425Y-126497967D01*
X102647789Y-126518747D01*
X102718589Y-126497958D01*
X102731307Y-126489460D01*
X102733303Y-126489329D01*
X102734414Y-126490992D01*
X102734081Y-126492234D01*
X102710476Y-126527561D01*
X102701000Y-126575199D01*
X102701000Y-128024801D01*
X102710476Y-128072439D01*
X102734081Y-128107766D01*
X102734212Y-128109762D01*
X102732549Y-128110873D01*
X102731307Y-128110540D01*
X102718575Y-128102033D01*
X102652211Y-128081253D01*
X102581411Y-128102042D01*
X102568693Y-128110540D01*
X102566697Y-128110671D01*
X102565586Y-128109008D01*
X102565919Y-128107766D01*
X102589524Y-128072439D01*
X102599000Y-128024801D01*
X102599000Y-126575199D01*
X102589524Y-126527561D01*
X102565919Y-126492234D01*
X102565788Y-126490238D01*
X102567451Y-126489127D01*
X102568693Y-126489460D01*
G37*
G36*
X109068693Y-126489460D02*
G01*
X109081425Y-126497967D01*
X109147789Y-126518747D01*
X109218589Y-126497958D01*
X109231307Y-126489460D01*
X109233303Y-126489329D01*
X109234414Y-126490992D01*
X109234081Y-126492234D01*
X109210476Y-126527561D01*
X109201000Y-126575199D01*
X109201000Y-128024801D01*
X109210476Y-128072439D01*
X109234081Y-128107766D01*
X109234212Y-128109762D01*
X109232549Y-128110873D01*
X109231307Y-128110540D01*
X109218575Y-128102033D01*
X109152211Y-128081253D01*
X109081411Y-128102042D01*
X109068693Y-128110540D01*
X109066697Y-128110671D01*
X109065586Y-128109008D01*
X109065919Y-128107766D01*
X109089524Y-128072439D01*
X109099000Y-128024801D01*
X109099000Y-126575199D01*
X109089524Y-126527561D01*
X109065919Y-126492234D01*
X109065788Y-126490238D01*
X109067451Y-126489127D01*
X109068693Y-126489460D01*
G37*
G36*
X102068693Y-126489460D02*
G01*
X102081425Y-126497967D01*
X102147789Y-126518747D01*
X102218589Y-126497958D01*
X102231307Y-126489460D01*
X102233303Y-126489329D01*
X102234414Y-126490992D01*
X102234081Y-126492234D01*
X102210476Y-126527561D01*
X102201000Y-126575199D01*
X102201000Y-128024801D01*
X102210476Y-128072439D01*
X102234081Y-128107766D01*
X102234212Y-128109762D01*
X102232549Y-128110873D01*
X102231307Y-128110540D01*
X102218575Y-128102033D01*
X102152211Y-128081253D01*
X102081411Y-128102042D01*
X102068693Y-128110540D01*
X102066697Y-128110671D01*
X102065586Y-128109008D01*
X102065919Y-128107766D01*
X102089524Y-128072439D01*
X102099000Y-128024801D01*
X102099000Y-126575199D01*
X102089524Y-126527561D01*
X102065919Y-126492234D01*
X102065788Y-126490238D01*
X102067451Y-126489127D01*
X102068693Y-126489460D01*
G37*
G36*
X106068693Y-126489460D02*
G01*
X106081425Y-126497967D01*
X106147789Y-126518747D01*
X106218589Y-126497958D01*
X106231307Y-126489460D01*
X106233303Y-126489329D01*
X106234414Y-126490992D01*
X106234081Y-126492234D01*
X106210476Y-126527561D01*
X106201000Y-126575199D01*
X106201000Y-128024801D01*
X106210476Y-128072439D01*
X106234081Y-128107766D01*
X106234212Y-128109762D01*
X106232549Y-128110873D01*
X106231307Y-128110540D01*
X106218575Y-128102033D01*
X106152211Y-128081253D01*
X106081411Y-128102042D01*
X106068693Y-128110540D01*
X106066697Y-128110671D01*
X106065586Y-128109008D01*
X106065919Y-128107766D01*
X106089524Y-128072439D01*
X106099000Y-128024801D01*
X106099000Y-126575199D01*
X106089524Y-126527561D01*
X106065919Y-126492234D01*
X106065788Y-126490238D01*
X106067451Y-126489127D01*
X106068693Y-126489460D01*
G37*
G36*
X113267234Y-125290919D02*
G01*
X113302561Y-125314524D01*
X113350199Y-125324000D01*
X114799801Y-125324000D01*
X114847439Y-125314524D01*
X114882766Y-125290919D01*
X114884762Y-125290788D01*
X114885873Y-125292451D01*
X114885540Y-125293693D01*
X114877033Y-125306425D01*
X114856253Y-125372789D01*
X114877042Y-125443589D01*
X114885540Y-125456307D01*
X114885671Y-125458303D01*
X114884008Y-125459414D01*
X114882766Y-125459081D01*
X114847439Y-125435476D01*
X114799801Y-125426000D01*
X113350199Y-125426000D01*
X113302561Y-125435476D01*
X113267234Y-125459081D01*
X113265238Y-125459212D01*
X113264127Y-125457549D01*
X113264460Y-125456307D01*
X113272967Y-125443575D01*
X113293747Y-125377211D01*
X113272958Y-125306411D01*
X113264460Y-125293693D01*
X113264329Y-125291697D01*
X113265992Y-125290586D01*
X113267234Y-125290919D01*
G37*
G36*
X97917234Y-125290919D02*
G01*
X97952561Y-125314524D01*
X98000199Y-125324000D01*
X99449801Y-125324000D01*
X99497439Y-125314524D01*
X99532766Y-125290919D01*
X99534762Y-125290788D01*
X99535873Y-125292451D01*
X99535540Y-125293693D01*
X99527033Y-125306425D01*
X99506253Y-125372789D01*
X99527042Y-125443589D01*
X99535540Y-125456307D01*
X99535671Y-125458303D01*
X99534008Y-125459414D01*
X99532766Y-125459081D01*
X99497439Y-125435476D01*
X99449801Y-125426000D01*
X98000199Y-125426000D01*
X97952561Y-125435476D01*
X97917234Y-125459081D01*
X97915238Y-125459212D01*
X97914127Y-125457549D01*
X97914460Y-125456307D01*
X97922967Y-125443575D01*
X97943747Y-125377211D01*
X97922958Y-125306411D01*
X97914460Y-125293693D01*
X97914329Y-125291697D01*
X97915992Y-125290586D01*
X97917234Y-125290919D01*
G37*
G36*
X97917234Y-124790919D02*
G01*
X97952561Y-124814524D01*
X98000199Y-124824000D01*
X99449801Y-124824000D01*
X99497439Y-124814524D01*
X99532766Y-124790919D01*
X99534762Y-124790788D01*
X99535873Y-124792451D01*
X99535540Y-124793693D01*
X99527033Y-124806425D01*
X99506253Y-124872789D01*
X99527042Y-124943589D01*
X99535540Y-124956307D01*
X99535671Y-124958303D01*
X99534008Y-124959414D01*
X99532766Y-124959081D01*
X99497439Y-124935476D01*
X99449801Y-124926000D01*
X98000199Y-124926000D01*
X97952561Y-124935476D01*
X97917234Y-124959081D01*
X97915238Y-124959212D01*
X97914127Y-124957549D01*
X97914460Y-124956307D01*
X97922967Y-124943575D01*
X97943747Y-124877211D01*
X97922958Y-124806411D01*
X97914460Y-124793693D01*
X97914329Y-124791697D01*
X97915992Y-124790586D01*
X97917234Y-124790919D01*
G37*
G36*
X113267234Y-124790919D02*
G01*
X113302561Y-124814524D01*
X113350199Y-124824000D01*
X114799801Y-124824000D01*
X114847439Y-124814524D01*
X114882766Y-124790919D01*
X114884762Y-124790788D01*
X114885873Y-124792451D01*
X114885540Y-124793693D01*
X114877033Y-124806425D01*
X114856253Y-124872789D01*
X114877042Y-124943589D01*
X114885540Y-124956307D01*
X114885671Y-124958303D01*
X114884008Y-124959414D01*
X114882766Y-124959081D01*
X114847439Y-124935476D01*
X114799801Y-124926000D01*
X113350199Y-124926000D01*
X113302561Y-124935476D01*
X113267234Y-124959081D01*
X113265238Y-124959212D01*
X113264127Y-124957549D01*
X113264460Y-124956307D01*
X113272967Y-124943575D01*
X113293747Y-124877211D01*
X113272958Y-124806411D01*
X113264460Y-124793693D01*
X113264329Y-124791697D01*
X113265992Y-124790586D01*
X113267234Y-124790919D01*
G37*
G36*
X113267234Y-124290919D02*
G01*
X113302561Y-124314524D01*
X113350199Y-124324000D01*
X114799801Y-124324000D01*
X114847439Y-124314524D01*
X114882766Y-124290919D01*
X114884762Y-124290788D01*
X114885873Y-124292451D01*
X114885540Y-124293693D01*
X114877033Y-124306425D01*
X114856253Y-124372789D01*
X114877042Y-124443589D01*
X114885540Y-124456307D01*
X114885671Y-124458303D01*
X114884008Y-124459414D01*
X114882766Y-124459081D01*
X114847439Y-124435476D01*
X114799801Y-124426000D01*
X113350199Y-124426000D01*
X113302561Y-124435476D01*
X113267234Y-124459081D01*
X113265238Y-124459212D01*
X113264127Y-124457549D01*
X113264460Y-124456307D01*
X113272967Y-124443575D01*
X113293747Y-124377211D01*
X113272958Y-124306411D01*
X113264460Y-124293693D01*
X113264329Y-124291697D01*
X113265992Y-124290586D01*
X113267234Y-124290919D01*
G37*
G36*
X97917234Y-124290919D02*
G01*
X97952561Y-124314524D01*
X98000199Y-124324000D01*
X99449801Y-124324000D01*
X99497439Y-124314524D01*
X99532766Y-124290919D01*
X99534762Y-124290788D01*
X99535873Y-124292451D01*
X99535540Y-124293693D01*
X99527033Y-124306425D01*
X99506253Y-124372789D01*
X99527042Y-124443589D01*
X99535540Y-124456307D01*
X99535671Y-124458303D01*
X99534008Y-124459414D01*
X99532766Y-124459081D01*
X99497439Y-124435476D01*
X99449801Y-124426000D01*
X98000199Y-124426000D01*
X97952561Y-124435476D01*
X97917234Y-124459081D01*
X97915238Y-124459212D01*
X97914127Y-124457549D01*
X97914460Y-124456307D01*
X97922967Y-124443575D01*
X97943747Y-124377211D01*
X97922958Y-124306411D01*
X97914460Y-124293693D01*
X97914329Y-124291697D01*
X97915992Y-124290586D01*
X97917234Y-124290919D01*
G37*
G36*
X97917234Y-123790919D02*
G01*
X97952561Y-123814524D01*
X98000199Y-123824000D01*
X99449801Y-123824000D01*
X99497439Y-123814524D01*
X99532766Y-123790919D01*
X99534762Y-123790788D01*
X99535873Y-123792451D01*
X99535540Y-123793693D01*
X99527033Y-123806425D01*
X99506253Y-123872789D01*
X99527042Y-123943589D01*
X99535540Y-123956307D01*
X99535671Y-123958303D01*
X99534008Y-123959414D01*
X99532766Y-123959081D01*
X99497439Y-123935476D01*
X99449801Y-123926000D01*
X98000199Y-123926000D01*
X97952561Y-123935476D01*
X97917234Y-123959081D01*
X97915238Y-123959212D01*
X97914127Y-123957549D01*
X97914460Y-123956307D01*
X97922967Y-123943575D01*
X97943747Y-123877211D01*
X97922958Y-123806411D01*
X97914460Y-123793693D01*
X97914329Y-123791697D01*
X97915992Y-123790586D01*
X97917234Y-123790919D01*
G37*
G36*
X113267234Y-123790919D02*
G01*
X113302561Y-123814524D01*
X113350199Y-123824000D01*
X114799801Y-123824000D01*
X114847439Y-123814524D01*
X114882766Y-123790919D01*
X114884762Y-123790788D01*
X114885873Y-123792451D01*
X114885540Y-123793693D01*
X114877033Y-123806425D01*
X114856253Y-123872789D01*
X114877042Y-123943589D01*
X114885540Y-123956307D01*
X114885671Y-123958303D01*
X114884008Y-123959414D01*
X114882766Y-123959081D01*
X114847439Y-123935476D01*
X114799801Y-123926000D01*
X113350199Y-123926000D01*
X113302561Y-123935476D01*
X113267234Y-123959081D01*
X113265238Y-123959212D01*
X113264127Y-123957549D01*
X113264460Y-123956307D01*
X113272967Y-123943575D01*
X113293747Y-123877211D01*
X113272958Y-123806411D01*
X113264460Y-123793693D01*
X113264329Y-123791697D01*
X113265992Y-123790586D01*
X113267234Y-123790919D01*
G37*
G36*
X97917234Y-123290919D02*
G01*
X97952561Y-123314524D01*
X98000199Y-123324000D01*
X99449801Y-123324000D01*
X99497439Y-123314524D01*
X99532766Y-123290919D01*
X99534762Y-123290788D01*
X99535873Y-123292451D01*
X99535540Y-123293693D01*
X99527033Y-123306425D01*
X99506253Y-123372789D01*
X99527042Y-123443589D01*
X99535540Y-123456307D01*
X99535671Y-123458303D01*
X99534008Y-123459414D01*
X99532766Y-123459081D01*
X99497439Y-123435476D01*
X99449801Y-123426000D01*
X98000199Y-123426000D01*
X97952561Y-123435476D01*
X97917234Y-123459081D01*
X97915238Y-123459212D01*
X97914127Y-123457549D01*
X97914460Y-123456307D01*
X97922967Y-123443575D01*
X97943747Y-123377211D01*
X97922958Y-123306411D01*
X97914460Y-123293693D01*
X97914329Y-123291697D01*
X97915992Y-123290586D01*
X97917234Y-123290919D01*
G37*
G36*
X113267234Y-123290919D02*
G01*
X113302561Y-123314524D01*
X113350199Y-123324000D01*
X114799801Y-123324000D01*
X114847439Y-123314524D01*
X114882766Y-123290919D01*
X114884762Y-123290788D01*
X114885873Y-123292451D01*
X114885540Y-123293693D01*
X114877033Y-123306425D01*
X114856253Y-123372789D01*
X114877042Y-123443589D01*
X114885540Y-123456307D01*
X114885671Y-123458303D01*
X114884008Y-123459414D01*
X114882766Y-123459081D01*
X114847439Y-123435476D01*
X114799801Y-123426000D01*
X113350199Y-123426000D01*
X113302561Y-123435476D01*
X113267234Y-123459081D01*
X113265238Y-123459212D01*
X113264127Y-123457549D01*
X113264460Y-123456307D01*
X113272967Y-123443575D01*
X113293747Y-123377211D01*
X113272958Y-123306411D01*
X113264460Y-123293693D01*
X113264329Y-123291697D01*
X113265992Y-123290586D01*
X113267234Y-123290919D01*
G37*
G36*
X113267234Y-122790919D02*
G01*
X113302561Y-122814524D01*
X113350199Y-122824000D01*
X114799801Y-122824000D01*
X114847439Y-122814524D01*
X114882766Y-122790919D01*
X114884762Y-122790788D01*
X114885873Y-122792451D01*
X114885540Y-122793693D01*
X114877033Y-122806425D01*
X114856253Y-122872789D01*
X114877042Y-122943589D01*
X114885540Y-122956307D01*
X114885671Y-122958303D01*
X114884008Y-122959414D01*
X114882766Y-122959081D01*
X114847439Y-122935476D01*
X114799801Y-122926000D01*
X113350199Y-122926000D01*
X113302561Y-122935476D01*
X113267234Y-122959081D01*
X113265238Y-122959212D01*
X113264127Y-122957549D01*
X113264460Y-122956307D01*
X113272967Y-122943575D01*
X113293747Y-122877211D01*
X113272958Y-122806411D01*
X113264460Y-122793693D01*
X113264329Y-122791697D01*
X113265992Y-122790586D01*
X113267234Y-122790919D01*
G37*
G36*
X97917234Y-122790919D02*
G01*
X97952561Y-122814524D01*
X98000199Y-122824000D01*
X99449801Y-122824000D01*
X99497439Y-122814524D01*
X99532766Y-122790919D01*
X99534762Y-122790788D01*
X99535873Y-122792451D01*
X99535540Y-122793693D01*
X99527033Y-122806425D01*
X99506253Y-122872789D01*
X99527042Y-122943589D01*
X99535540Y-122956307D01*
X99535671Y-122958303D01*
X99534008Y-122959414D01*
X99532766Y-122959081D01*
X99497439Y-122935476D01*
X99449801Y-122926000D01*
X98000199Y-122926000D01*
X97952561Y-122935476D01*
X97917234Y-122959081D01*
X97915238Y-122959212D01*
X97914127Y-122957549D01*
X97914460Y-122956307D01*
X97922967Y-122943575D01*
X97943747Y-122877211D01*
X97922958Y-122806411D01*
X97914460Y-122793693D01*
X97914329Y-122791697D01*
X97915992Y-122790586D01*
X97917234Y-122790919D01*
G37*
G36*
X97917234Y-122290919D02*
G01*
X97952561Y-122314524D01*
X98000199Y-122324000D01*
X99449801Y-122324000D01*
X99497439Y-122314524D01*
X99532766Y-122290919D01*
X99534762Y-122290788D01*
X99535873Y-122292451D01*
X99535540Y-122293693D01*
X99527033Y-122306425D01*
X99506253Y-122372789D01*
X99527042Y-122443589D01*
X99535540Y-122456307D01*
X99535671Y-122458303D01*
X99534008Y-122459414D01*
X99532766Y-122459081D01*
X99497439Y-122435476D01*
X99449801Y-122426000D01*
X98000199Y-122426000D01*
X97952561Y-122435476D01*
X97917234Y-122459081D01*
X97915238Y-122459212D01*
X97914127Y-122457549D01*
X97914460Y-122456307D01*
X97922967Y-122443575D01*
X97943747Y-122377211D01*
X97922958Y-122306411D01*
X97914460Y-122293693D01*
X97914329Y-122291697D01*
X97915992Y-122290586D01*
X97917234Y-122290919D01*
G37*
G36*
X113267234Y-122290919D02*
G01*
X113302561Y-122314524D01*
X113350199Y-122324000D01*
X114799801Y-122324000D01*
X114847439Y-122314524D01*
X114882766Y-122290919D01*
X114884762Y-122290788D01*
X114885873Y-122292451D01*
X114885540Y-122293693D01*
X114877033Y-122306425D01*
X114856253Y-122372789D01*
X114877042Y-122443589D01*
X114885540Y-122456307D01*
X114885671Y-122458303D01*
X114884008Y-122459414D01*
X114882766Y-122459081D01*
X114847439Y-122435476D01*
X114799801Y-122426000D01*
X113350199Y-122426000D01*
X113302561Y-122435476D01*
X113267234Y-122459081D01*
X113265238Y-122459212D01*
X113264127Y-122457549D01*
X113264460Y-122456307D01*
X113272967Y-122443575D01*
X113293747Y-122377211D01*
X113272958Y-122306411D01*
X113264460Y-122293693D01*
X113264329Y-122291697D01*
X113265992Y-122290586D01*
X113267234Y-122290919D01*
G37*
G36*
X97917234Y-121790919D02*
G01*
X97952561Y-121814524D01*
X98000199Y-121824000D01*
X99449801Y-121824000D01*
X99497439Y-121814524D01*
X99532766Y-121790919D01*
X99534762Y-121790788D01*
X99535873Y-121792451D01*
X99535540Y-121793693D01*
X99527033Y-121806425D01*
X99506253Y-121872789D01*
X99527042Y-121943589D01*
X99535540Y-121956307D01*
X99535671Y-121958303D01*
X99534008Y-121959414D01*
X99532766Y-121959081D01*
X99497439Y-121935476D01*
X99449801Y-121926000D01*
X98000199Y-121926000D01*
X97952561Y-121935476D01*
X97917234Y-121959081D01*
X97915238Y-121959212D01*
X97914127Y-121957549D01*
X97914460Y-121956307D01*
X97922967Y-121943575D01*
X97943747Y-121877211D01*
X97922958Y-121806411D01*
X97914460Y-121793693D01*
X97914329Y-121791697D01*
X97915992Y-121790586D01*
X97917234Y-121790919D01*
G37*
G36*
X113267234Y-121790919D02*
G01*
X113302561Y-121814524D01*
X113350199Y-121824000D01*
X114799801Y-121824000D01*
X114847439Y-121814524D01*
X114882766Y-121790919D01*
X114884762Y-121790788D01*
X114885873Y-121792451D01*
X114885540Y-121793693D01*
X114877033Y-121806425D01*
X114856253Y-121872789D01*
X114877042Y-121943589D01*
X114885540Y-121956307D01*
X114885671Y-121958303D01*
X114884008Y-121959414D01*
X114882766Y-121959081D01*
X114847439Y-121935476D01*
X114799801Y-121926000D01*
X113350199Y-121926000D01*
X113302561Y-121935476D01*
X113267234Y-121959081D01*
X113265238Y-121959212D01*
X113264127Y-121957549D01*
X113264460Y-121956307D01*
X113272967Y-121943575D01*
X113293747Y-121877211D01*
X113272958Y-121806411D01*
X113264460Y-121793693D01*
X113264329Y-121791697D01*
X113265992Y-121790586D01*
X113267234Y-121790919D01*
G37*
G36*
X97917234Y-121290919D02*
G01*
X97952561Y-121314524D01*
X98000199Y-121324000D01*
X99449801Y-121324000D01*
X99497439Y-121314524D01*
X99532766Y-121290919D01*
X99534762Y-121290788D01*
X99535873Y-121292451D01*
X99535540Y-121293693D01*
X99527033Y-121306425D01*
X99506253Y-121372789D01*
X99527042Y-121443589D01*
X99535540Y-121456307D01*
X99535671Y-121458303D01*
X99534008Y-121459414D01*
X99532766Y-121459081D01*
X99497439Y-121435476D01*
X99449801Y-121426000D01*
X98000199Y-121426000D01*
X97952561Y-121435476D01*
X97917234Y-121459081D01*
X97915238Y-121459212D01*
X97914127Y-121457549D01*
X97914460Y-121456307D01*
X97922967Y-121443575D01*
X97943747Y-121377211D01*
X97922958Y-121306411D01*
X97914460Y-121293693D01*
X97914329Y-121291697D01*
X97915992Y-121290586D01*
X97917234Y-121290919D01*
G37*
G36*
X113267234Y-121290919D02*
G01*
X113302561Y-121314524D01*
X113350199Y-121324000D01*
X114799801Y-121324000D01*
X114847439Y-121314524D01*
X114882766Y-121290919D01*
X114884762Y-121290788D01*
X114885873Y-121292451D01*
X114885540Y-121293693D01*
X114877033Y-121306425D01*
X114856253Y-121372789D01*
X114877042Y-121443589D01*
X114885540Y-121456307D01*
X114885671Y-121458303D01*
X114884008Y-121459414D01*
X114882766Y-121459081D01*
X114847439Y-121435476D01*
X114799801Y-121426000D01*
X113350199Y-121426000D01*
X113302561Y-121435476D01*
X113267234Y-121459081D01*
X113265238Y-121459212D01*
X113264127Y-121457549D01*
X113264460Y-121456307D01*
X113272967Y-121443575D01*
X113293747Y-121377211D01*
X113272958Y-121306411D01*
X113264460Y-121293693D01*
X113264329Y-121291697D01*
X113265992Y-121290586D01*
X113267234Y-121290919D01*
G37*
G36*
X97917234Y-120790919D02*
G01*
X97952561Y-120814524D01*
X98000199Y-120824000D01*
X99449801Y-120824000D01*
X99497439Y-120814524D01*
X99532766Y-120790919D01*
X99534762Y-120790788D01*
X99535873Y-120792451D01*
X99535540Y-120793693D01*
X99527033Y-120806425D01*
X99506253Y-120872789D01*
X99527042Y-120943589D01*
X99535540Y-120956307D01*
X99535671Y-120958303D01*
X99534008Y-120959414D01*
X99532766Y-120959081D01*
X99497439Y-120935476D01*
X99449801Y-120926000D01*
X98000199Y-120926000D01*
X97952561Y-120935476D01*
X97917234Y-120959081D01*
X97915238Y-120959212D01*
X97914127Y-120957549D01*
X97914460Y-120956307D01*
X97922967Y-120943575D01*
X97943747Y-120877211D01*
X97922958Y-120806411D01*
X97914460Y-120793693D01*
X97914329Y-120791697D01*
X97915992Y-120790586D01*
X97917234Y-120790919D01*
G37*
G36*
X113267234Y-120790919D02*
G01*
X113302561Y-120814524D01*
X113350199Y-120824000D01*
X114799801Y-120824000D01*
X114847439Y-120814524D01*
X114882766Y-120790919D01*
X114884762Y-120790788D01*
X114885873Y-120792451D01*
X114885540Y-120793693D01*
X114877033Y-120806425D01*
X114856253Y-120872789D01*
X114877042Y-120943589D01*
X114885540Y-120956307D01*
X114885671Y-120958303D01*
X114884008Y-120959414D01*
X114882766Y-120959081D01*
X114847439Y-120935476D01*
X114799801Y-120926000D01*
X113350199Y-120926000D01*
X113302561Y-120935476D01*
X113267234Y-120959081D01*
X113265238Y-120959212D01*
X113264127Y-120957549D01*
X113264460Y-120956307D01*
X113272967Y-120943575D01*
X113293747Y-120877211D01*
X113272958Y-120806411D01*
X113264460Y-120793693D01*
X113264329Y-120791697D01*
X113265992Y-120790586D01*
X113267234Y-120790919D01*
G37*
G36*
X97917234Y-120290919D02*
G01*
X97952561Y-120314524D01*
X98000199Y-120324000D01*
X99449801Y-120324000D01*
X99497439Y-120314524D01*
X99532766Y-120290919D01*
X99534762Y-120290788D01*
X99535873Y-120292451D01*
X99535540Y-120293693D01*
X99527033Y-120306425D01*
X99506253Y-120372789D01*
X99527042Y-120443589D01*
X99535540Y-120456307D01*
X99535671Y-120458303D01*
X99534008Y-120459414D01*
X99532766Y-120459081D01*
X99497439Y-120435476D01*
X99449801Y-120426000D01*
X98000199Y-120426000D01*
X97952561Y-120435476D01*
X97917234Y-120459081D01*
X97915238Y-120459212D01*
X97914127Y-120457549D01*
X97914460Y-120456307D01*
X97922967Y-120443575D01*
X97943747Y-120377211D01*
X97922958Y-120306411D01*
X97914460Y-120293693D01*
X97914329Y-120291697D01*
X97915992Y-120290586D01*
X97917234Y-120290919D01*
G37*
G36*
X113267234Y-120290919D02*
G01*
X113302561Y-120314524D01*
X113350199Y-120324000D01*
X114799801Y-120324000D01*
X114847439Y-120314524D01*
X114882766Y-120290919D01*
X114884762Y-120290788D01*
X114885873Y-120292451D01*
X114885540Y-120293693D01*
X114877033Y-120306425D01*
X114856253Y-120372789D01*
X114877042Y-120443589D01*
X114885540Y-120456307D01*
X114885671Y-120458303D01*
X114884008Y-120459414D01*
X114882766Y-120459081D01*
X114847439Y-120435476D01*
X114799801Y-120426000D01*
X113350199Y-120426000D01*
X113302561Y-120435476D01*
X113267234Y-120459081D01*
X113265238Y-120459212D01*
X113264127Y-120457549D01*
X113264460Y-120456307D01*
X113272967Y-120443575D01*
X113293747Y-120377211D01*
X113272958Y-120306411D01*
X113264460Y-120293693D01*
X113264329Y-120291697D01*
X113265992Y-120290586D01*
X113267234Y-120290919D01*
G37*
G36*
X97917234Y-119790919D02*
G01*
X97952561Y-119814524D01*
X98000199Y-119824000D01*
X99449801Y-119824000D01*
X99497439Y-119814524D01*
X99532766Y-119790919D01*
X99534762Y-119790788D01*
X99535873Y-119792451D01*
X99535540Y-119793693D01*
X99527033Y-119806425D01*
X99506253Y-119872789D01*
X99527042Y-119943589D01*
X99535540Y-119956307D01*
X99535671Y-119958303D01*
X99534008Y-119959414D01*
X99532766Y-119959081D01*
X99497439Y-119935476D01*
X99449801Y-119926000D01*
X98000199Y-119926000D01*
X97952561Y-119935476D01*
X97917234Y-119959081D01*
X97915238Y-119959212D01*
X97914127Y-119957549D01*
X97914460Y-119956307D01*
X97922967Y-119943575D01*
X97943747Y-119877211D01*
X97922958Y-119806411D01*
X97914460Y-119793693D01*
X97914329Y-119791697D01*
X97915992Y-119790586D01*
X97917234Y-119790919D01*
G37*
G36*
X113267234Y-119790919D02*
G01*
X113302561Y-119814524D01*
X113350199Y-119824000D01*
X114799801Y-119824000D01*
X114847439Y-119814524D01*
X114882766Y-119790919D01*
X114884762Y-119790788D01*
X114885873Y-119792451D01*
X114885540Y-119793693D01*
X114877033Y-119806425D01*
X114856253Y-119872789D01*
X114877042Y-119943589D01*
X114885540Y-119956307D01*
X114885671Y-119958303D01*
X114884008Y-119959414D01*
X114882766Y-119959081D01*
X114847439Y-119935476D01*
X114799801Y-119926000D01*
X113350199Y-119926000D01*
X113302561Y-119935476D01*
X113267234Y-119959081D01*
X113265238Y-119959212D01*
X113264127Y-119957549D01*
X113264460Y-119956307D01*
X113272967Y-119943575D01*
X113293747Y-119877211D01*
X113272958Y-119806411D01*
X113264460Y-119793693D01*
X113264329Y-119791697D01*
X113265992Y-119790586D01*
X113267234Y-119790919D01*
G37*
G36*
X97917234Y-119290919D02*
G01*
X97952561Y-119314524D01*
X98000199Y-119324000D01*
X99449801Y-119324000D01*
X99497439Y-119314524D01*
X99532766Y-119290919D01*
X99534762Y-119290788D01*
X99535873Y-119292451D01*
X99535540Y-119293693D01*
X99527033Y-119306425D01*
X99506253Y-119372789D01*
X99527042Y-119443589D01*
X99535540Y-119456307D01*
X99535671Y-119458303D01*
X99534008Y-119459414D01*
X99532766Y-119459081D01*
X99497439Y-119435476D01*
X99449801Y-119426000D01*
X98000199Y-119426000D01*
X97952561Y-119435476D01*
X97917234Y-119459081D01*
X97915238Y-119459212D01*
X97914127Y-119457549D01*
X97914460Y-119456307D01*
X97922967Y-119443575D01*
X97943747Y-119377211D01*
X97922958Y-119306411D01*
X97914460Y-119293693D01*
X97914329Y-119291697D01*
X97915992Y-119290586D01*
X97917234Y-119290919D01*
G37*
G36*
X113267234Y-119290919D02*
G01*
X113302561Y-119314524D01*
X113350199Y-119324000D01*
X114799801Y-119324000D01*
X114847439Y-119314524D01*
X114882766Y-119290919D01*
X114884762Y-119290788D01*
X114885873Y-119292451D01*
X114885540Y-119293693D01*
X114877033Y-119306425D01*
X114856253Y-119372789D01*
X114877042Y-119443589D01*
X114885540Y-119456307D01*
X114885671Y-119458303D01*
X114884008Y-119459414D01*
X114882766Y-119459081D01*
X114847439Y-119435476D01*
X114799801Y-119426000D01*
X113350199Y-119426000D01*
X113302561Y-119435476D01*
X113267234Y-119459081D01*
X113265238Y-119459212D01*
X113264127Y-119457549D01*
X113264460Y-119456307D01*
X113272967Y-119443575D01*
X113293747Y-119377211D01*
X113272958Y-119306411D01*
X113264460Y-119293693D01*
X113264329Y-119291697D01*
X113265992Y-119290586D01*
X113267234Y-119290919D01*
G37*
G36*
X97917234Y-118790919D02*
G01*
X97952561Y-118814524D01*
X98000199Y-118824000D01*
X99449801Y-118824000D01*
X99497439Y-118814524D01*
X99532766Y-118790919D01*
X99534762Y-118790788D01*
X99535873Y-118792451D01*
X99535540Y-118793693D01*
X99527033Y-118806425D01*
X99506253Y-118872789D01*
X99527042Y-118943589D01*
X99535540Y-118956307D01*
X99535671Y-118958303D01*
X99534008Y-118959414D01*
X99532766Y-118959081D01*
X99497439Y-118935476D01*
X99449801Y-118926000D01*
X98000199Y-118926000D01*
X97952561Y-118935476D01*
X97917234Y-118959081D01*
X97915238Y-118959212D01*
X97914127Y-118957549D01*
X97914460Y-118956307D01*
X97922967Y-118943575D01*
X97943747Y-118877211D01*
X97922958Y-118806411D01*
X97914460Y-118793693D01*
X97914329Y-118791697D01*
X97915992Y-118790586D01*
X97917234Y-118790919D01*
G37*
G36*
X113267234Y-118790919D02*
G01*
X113302561Y-118814524D01*
X113350199Y-118824000D01*
X114799801Y-118824000D01*
X114847439Y-118814524D01*
X114882766Y-118790919D01*
X114884762Y-118790788D01*
X114885873Y-118792451D01*
X114885540Y-118793693D01*
X114877033Y-118806425D01*
X114856253Y-118872789D01*
X114877042Y-118943589D01*
X114885540Y-118956307D01*
X114885671Y-118958303D01*
X114884008Y-118959414D01*
X114882766Y-118959081D01*
X114847439Y-118935476D01*
X114799801Y-118926000D01*
X113350199Y-118926000D01*
X113302561Y-118935476D01*
X113267234Y-118959081D01*
X113265238Y-118959212D01*
X113264127Y-118957549D01*
X113264460Y-118956307D01*
X113272967Y-118943575D01*
X113293747Y-118877211D01*
X113272958Y-118806411D01*
X113264460Y-118793693D01*
X113264329Y-118791697D01*
X113265992Y-118790586D01*
X113267234Y-118790919D01*
G37*
G36*
X113267234Y-118290919D02*
G01*
X113302561Y-118314524D01*
X113350199Y-118324000D01*
X114799801Y-118324000D01*
X114847439Y-118314524D01*
X114882766Y-118290919D01*
X114884762Y-118290788D01*
X114885873Y-118292451D01*
X114885540Y-118293693D01*
X114877033Y-118306425D01*
X114856253Y-118372789D01*
X114877042Y-118443589D01*
X114885540Y-118456307D01*
X114885671Y-118458303D01*
X114884008Y-118459414D01*
X114882766Y-118459081D01*
X114847439Y-118435476D01*
X114799801Y-118426000D01*
X113350199Y-118426000D01*
X113302561Y-118435476D01*
X113267234Y-118459081D01*
X113265238Y-118459212D01*
X113264127Y-118457549D01*
X113264460Y-118456307D01*
X113272967Y-118443575D01*
X113293747Y-118377211D01*
X113272958Y-118306411D01*
X113264460Y-118293693D01*
X113264329Y-118291697D01*
X113265992Y-118290586D01*
X113267234Y-118290919D01*
G37*
G36*
X97917234Y-118290919D02*
G01*
X97952561Y-118314524D01*
X98000199Y-118324000D01*
X99449801Y-118324000D01*
X99497439Y-118314524D01*
X99532766Y-118290919D01*
X99534762Y-118290788D01*
X99535873Y-118292451D01*
X99535540Y-118293693D01*
X99527033Y-118306425D01*
X99506253Y-118372789D01*
X99527042Y-118443589D01*
X99535540Y-118456307D01*
X99535671Y-118458303D01*
X99534008Y-118459414D01*
X99532766Y-118459081D01*
X99497439Y-118435476D01*
X99449801Y-118426000D01*
X98000199Y-118426000D01*
X97952561Y-118435476D01*
X97917234Y-118459081D01*
X97915238Y-118459212D01*
X97914127Y-118457549D01*
X97914460Y-118456307D01*
X97922967Y-118443575D01*
X97943747Y-118377211D01*
X97922958Y-118306411D01*
X97914460Y-118293693D01*
X97914329Y-118291697D01*
X97915992Y-118290586D01*
X97917234Y-118290919D01*
G37*
G36*
X113267234Y-117790919D02*
G01*
X113302561Y-117814524D01*
X113350199Y-117824000D01*
X114799801Y-117824000D01*
X114847439Y-117814524D01*
X114882766Y-117790919D01*
X114884762Y-117790788D01*
X114885873Y-117792451D01*
X114885540Y-117793693D01*
X114877033Y-117806425D01*
X114856253Y-117872789D01*
X114877042Y-117943589D01*
X114885540Y-117956307D01*
X114885671Y-117958303D01*
X114884008Y-117959414D01*
X114882766Y-117959081D01*
X114847439Y-117935476D01*
X114799801Y-117926000D01*
X113350199Y-117926000D01*
X113302561Y-117935476D01*
X113267234Y-117959081D01*
X113265238Y-117959212D01*
X113264127Y-117957549D01*
X113264460Y-117956307D01*
X113272967Y-117943575D01*
X113293747Y-117877211D01*
X113272958Y-117806411D01*
X113264460Y-117793693D01*
X113264329Y-117791697D01*
X113265992Y-117790586D01*
X113267234Y-117790919D01*
G37*
G36*
X97917234Y-117790919D02*
G01*
X97952561Y-117814524D01*
X98000199Y-117824000D01*
X99449801Y-117824000D01*
X99497439Y-117814524D01*
X99532766Y-117790919D01*
X99534762Y-117790788D01*
X99535873Y-117792451D01*
X99535540Y-117793693D01*
X99527033Y-117806425D01*
X99506253Y-117872789D01*
X99527042Y-117943589D01*
X99535540Y-117956307D01*
X99535671Y-117958303D01*
X99534008Y-117959414D01*
X99532766Y-117959081D01*
X99497439Y-117935476D01*
X99449801Y-117926000D01*
X98000199Y-117926000D01*
X97952561Y-117935476D01*
X97917234Y-117959081D01*
X97915238Y-117959212D01*
X97914127Y-117957549D01*
X97914460Y-117956307D01*
X97922967Y-117943575D01*
X97943747Y-117877211D01*
X97922958Y-117806411D01*
X97914460Y-117793693D01*
X97914329Y-117791697D01*
X97915992Y-117790586D01*
X97917234Y-117790919D01*
G37*
G36*
X97917234Y-117290919D02*
G01*
X97952561Y-117314524D01*
X98000199Y-117324000D01*
X99449801Y-117324000D01*
X99497439Y-117314524D01*
X99532766Y-117290919D01*
X99534762Y-117290788D01*
X99535873Y-117292451D01*
X99535540Y-117293693D01*
X99527033Y-117306425D01*
X99506253Y-117372789D01*
X99527042Y-117443589D01*
X99535540Y-117456307D01*
X99535671Y-117458303D01*
X99534008Y-117459414D01*
X99532766Y-117459081D01*
X99497439Y-117435476D01*
X99449801Y-117426000D01*
X98000199Y-117426000D01*
X97952561Y-117435476D01*
X97917234Y-117459081D01*
X97915238Y-117459212D01*
X97914127Y-117457549D01*
X97914460Y-117456307D01*
X97922967Y-117443575D01*
X97943747Y-117377211D01*
X97922958Y-117306411D01*
X97914460Y-117293693D01*
X97914329Y-117291697D01*
X97915992Y-117290586D01*
X97917234Y-117290919D01*
G37*
G36*
X113267234Y-117290919D02*
G01*
X113302561Y-117314524D01*
X113350199Y-117324000D01*
X114799801Y-117324000D01*
X114847439Y-117314524D01*
X114882766Y-117290919D01*
X114884762Y-117290788D01*
X114885873Y-117292451D01*
X114885540Y-117293693D01*
X114877033Y-117306425D01*
X114856253Y-117372789D01*
X114877042Y-117443589D01*
X114885540Y-117456307D01*
X114885671Y-117458303D01*
X114884008Y-117459414D01*
X114882766Y-117459081D01*
X114847439Y-117435476D01*
X114799801Y-117426000D01*
X113350199Y-117426000D01*
X113302561Y-117435476D01*
X113267234Y-117459081D01*
X113265238Y-117459212D01*
X113264127Y-117457549D01*
X113264460Y-117456307D01*
X113272967Y-117443575D01*
X113293747Y-117377211D01*
X113272958Y-117306411D01*
X113264460Y-117293693D01*
X113264329Y-117291697D01*
X113265992Y-117290586D01*
X113267234Y-117290919D01*
G37*
G36*
X97917234Y-116790919D02*
G01*
X97952561Y-116814524D01*
X98000199Y-116824000D01*
X99449801Y-116824000D01*
X99497439Y-116814524D01*
X99532766Y-116790919D01*
X99534762Y-116790788D01*
X99535873Y-116792451D01*
X99535540Y-116793693D01*
X99527033Y-116806425D01*
X99506253Y-116872789D01*
X99527042Y-116943589D01*
X99535540Y-116956307D01*
X99535671Y-116958303D01*
X99534008Y-116959414D01*
X99532766Y-116959081D01*
X99497439Y-116935476D01*
X99449801Y-116926000D01*
X98000199Y-116926000D01*
X97952561Y-116935476D01*
X97917234Y-116959081D01*
X97915238Y-116959212D01*
X97914127Y-116957549D01*
X97914460Y-116956307D01*
X97922967Y-116943575D01*
X97943747Y-116877211D01*
X97922958Y-116806411D01*
X97914460Y-116793693D01*
X97914329Y-116791697D01*
X97915992Y-116790586D01*
X97917234Y-116790919D01*
G37*
G36*
X113267234Y-116790919D02*
G01*
X113302561Y-116814524D01*
X113350199Y-116824000D01*
X114799801Y-116824000D01*
X114847439Y-116814524D01*
X114882766Y-116790919D01*
X114884762Y-116790788D01*
X114885873Y-116792451D01*
X114885540Y-116793693D01*
X114877033Y-116806425D01*
X114856253Y-116872789D01*
X114877042Y-116943589D01*
X114885540Y-116956307D01*
X114885671Y-116958303D01*
X114884008Y-116959414D01*
X114882766Y-116959081D01*
X114847439Y-116935476D01*
X114799801Y-116926000D01*
X113350199Y-116926000D01*
X113302561Y-116935476D01*
X113267234Y-116959081D01*
X113265238Y-116959212D01*
X113264127Y-116957549D01*
X113264460Y-116956307D01*
X113272967Y-116943575D01*
X113293747Y-116877211D01*
X113272958Y-116806411D01*
X113264460Y-116793693D01*
X113264329Y-116791697D01*
X113265992Y-116790586D01*
X113267234Y-116790919D01*
G37*
G36*
X113267234Y-116290919D02*
G01*
X113302561Y-116314524D01*
X113350199Y-116324000D01*
X114799801Y-116324000D01*
X114847439Y-116314524D01*
X114882766Y-116290919D01*
X114884762Y-116290788D01*
X114885873Y-116292451D01*
X114885540Y-116293693D01*
X114877033Y-116306425D01*
X114856253Y-116372789D01*
X114877042Y-116443589D01*
X114885540Y-116456307D01*
X114885671Y-116458303D01*
X114884008Y-116459414D01*
X114882766Y-116459081D01*
X114847439Y-116435476D01*
X114799801Y-116426000D01*
X113350199Y-116426000D01*
X113302561Y-116435476D01*
X113267234Y-116459081D01*
X113265238Y-116459212D01*
X113264127Y-116457549D01*
X113264460Y-116456307D01*
X113272967Y-116443575D01*
X113293747Y-116377211D01*
X113272958Y-116306411D01*
X113264460Y-116293693D01*
X113264329Y-116291697D01*
X113265992Y-116290586D01*
X113267234Y-116290919D01*
G37*
G36*
X97917234Y-116290919D02*
G01*
X97952561Y-116314524D01*
X98000199Y-116324000D01*
X99449801Y-116324000D01*
X99497439Y-116314524D01*
X99532766Y-116290919D01*
X99534762Y-116290788D01*
X99535873Y-116292451D01*
X99535540Y-116293693D01*
X99527033Y-116306425D01*
X99506253Y-116372789D01*
X99527042Y-116443589D01*
X99535540Y-116456307D01*
X99535671Y-116458303D01*
X99534008Y-116459414D01*
X99532766Y-116459081D01*
X99497439Y-116435476D01*
X99449801Y-116426000D01*
X98000199Y-116426000D01*
X97952561Y-116435476D01*
X97917234Y-116459081D01*
X97915238Y-116459212D01*
X97914127Y-116457549D01*
X97914460Y-116456307D01*
X97922967Y-116443575D01*
X97943747Y-116377211D01*
X97922958Y-116306411D01*
X97914460Y-116293693D01*
X97914329Y-116291697D01*
X97915992Y-116290586D01*
X97917234Y-116290919D01*
G37*
G36*
X113267234Y-115790919D02*
G01*
X113302561Y-115814524D01*
X113350199Y-115824000D01*
X114799801Y-115824000D01*
X114847439Y-115814524D01*
X114882766Y-115790919D01*
X114884762Y-115790788D01*
X114885873Y-115792451D01*
X114885540Y-115793693D01*
X114877033Y-115806425D01*
X114856253Y-115872789D01*
X114877042Y-115943589D01*
X114885540Y-115956307D01*
X114885671Y-115958303D01*
X114884008Y-115959414D01*
X114882766Y-115959081D01*
X114847439Y-115935476D01*
X114799801Y-115926000D01*
X113350199Y-115926000D01*
X113302561Y-115935476D01*
X113267234Y-115959081D01*
X113265238Y-115959212D01*
X113264127Y-115957549D01*
X113264460Y-115956307D01*
X113272967Y-115943575D01*
X113293747Y-115877211D01*
X113272958Y-115806411D01*
X113264460Y-115793693D01*
X113264329Y-115791697D01*
X113265992Y-115790586D01*
X113267234Y-115790919D01*
G37*
G36*
X97917234Y-115790919D02*
G01*
X97952561Y-115814524D01*
X98000199Y-115824000D01*
X99449801Y-115824000D01*
X99497439Y-115814524D01*
X99532766Y-115790919D01*
X99534762Y-115790788D01*
X99535873Y-115792451D01*
X99535540Y-115793693D01*
X99527033Y-115806425D01*
X99506253Y-115872789D01*
X99527042Y-115943589D01*
X99535540Y-115956307D01*
X99535671Y-115958303D01*
X99534008Y-115959414D01*
X99532766Y-115959081D01*
X99497439Y-115935476D01*
X99449801Y-115926000D01*
X98000199Y-115926000D01*
X97952561Y-115935476D01*
X97917234Y-115959081D01*
X97915238Y-115959212D01*
X97914127Y-115957549D01*
X97914460Y-115956307D01*
X97922967Y-115943575D01*
X97943747Y-115877211D01*
X97922958Y-115806411D01*
X97914460Y-115793693D01*
X97914329Y-115791697D01*
X97915992Y-115790586D01*
X97917234Y-115790919D01*
G37*
G36*
X97917234Y-115290919D02*
G01*
X97952561Y-115314524D01*
X98000199Y-115324000D01*
X99449801Y-115324000D01*
X99497439Y-115314524D01*
X99532766Y-115290919D01*
X99534762Y-115290788D01*
X99535873Y-115292451D01*
X99535540Y-115293693D01*
X99527033Y-115306425D01*
X99506253Y-115372789D01*
X99527042Y-115443589D01*
X99535540Y-115456307D01*
X99535671Y-115458303D01*
X99534008Y-115459414D01*
X99532766Y-115459081D01*
X99497439Y-115435476D01*
X99449801Y-115426000D01*
X98000199Y-115426000D01*
X97952561Y-115435476D01*
X97917234Y-115459081D01*
X97915238Y-115459212D01*
X97914127Y-115457549D01*
X97914460Y-115456307D01*
X97922967Y-115443575D01*
X97943747Y-115377211D01*
X97922958Y-115306411D01*
X97914460Y-115293693D01*
X97914329Y-115291697D01*
X97915992Y-115290586D01*
X97917234Y-115290919D01*
G37*
G36*
X113267234Y-115290919D02*
G01*
X113302561Y-115314524D01*
X113350199Y-115324000D01*
X114799801Y-115324000D01*
X114847439Y-115314524D01*
X114882766Y-115290919D01*
X114884762Y-115290788D01*
X114885873Y-115292451D01*
X114885540Y-115293693D01*
X114877033Y-115306425D01*
X114856253Y-115372789D01*
X114877042Y-115443589D01*
X114885540Y-115456307D01*
X114885671Y-115458303D01*
X114884008Y-115459414D01*
X114882766Y-115459081D01*
X114847439Y-115435476D01*
X114799801Y-115426000D01*
X113350199Y-115426000D01*
X113302561Y-115435476D01*
X113267234Y-115459081D01*
X113265238Y-115459212D01*
X113264127Y-115457549D01*
X113264460Y-115456307D01*
X113272967Y-115443575D01*
X113293747Y-115377211D01*
X113272958Y-115306411D01*
X113264460Y-115293693D01*
X113264329Y-115291697D01*
X113265992Y-115290586D01*
X113267234Y-115290919D01*
G37*
G36*
X97917234Y-114790919D02*
G01*
X97952561Y-114814524D01*
X98000199Y-114824000D01*
X99449801Y-114824000D01*
X99497439Y-114814524D01*
X99532766Y-114790919D01*
X99534762Y-114790788D01*
X99535873Y-114792451D01*
X99535540Y-114793693D01*
X99527033Y-114806425D01*
X99506253Y-114872789D01*
X99527042Y-114943589D01*
X99535540Y-114956307D01*
X99535671Y-114958303D01*
X99534008Y-114959414D01*
X99532766Y-114959081D01*
X99497439Y-114935476D01*
X99449801Y-114926000D01*
X98000199Y-114926000D01*
X97952561Y-114935476D01*
X97917234Y-114959081D01*
X97915238Y-114959212D01*
X97914127Y-114957549D01*
X97914460Y-114956307D01*
X97922967Y-114943575D01*
X97943747Y-114877211D01*
X97922958Y-114806411D01*
X97914460Y-114793693D01*
X97914329Y-114791697D01*
X97915992Y-114790586D01*
X97917234Y-114790919D01*
G37*
G36*
X113267234Y-114790919D02*
G01*
X113302561Y-114814524D01*
X113350199Y-114824000D01*
X114799801Y-114824000D01*
X114847439Y-114814524D01*
X114882766Y-114790919D01*
X114884762Y-114790788D01*
X114885873Y-114792451D01*
X114885540Y-114793693D01*
X114877033Y-114806425D01*
X114856253Y-114872789D01*
X114877042Y-114943589D01*
X114885540Y-114956307D01*
X114885671Y-114958303D01*
X114884008Y-114959414D01*
X114882766Y-114959081D01*
X114847439Y-114935476D01*
X114799801Y-114926000D01*
X113350199Y-114926000D01*
X113302561Y-114935476D01*
X113267234Y-114959081D01*
X113265238Y-114959212D01*
X113264127Y-114957549D01*
X113264460Y-114956307D01*
X113272967Y-114943575D01*
X113293747Y-114877211D01*
X113272958Y-114806411D01*
X113264460Y-114793693D01*
X113264329Y-114791697D01*
X113265992Y-114790586D01*
X113267234Y-114790919D01*
G37*
G36*
X113267234Y-114290919D02*
G01*
X113302561Y-114314524D01*
X113350199Y-114324000D01*
X114799801Y-114324000D01*
X114847439Y-114314524D01*
X114882766Y-114290919D01*
X114884762Y-114290788D01*
X114885873Y-114292451D01*
X114885540Y-114293693D01*
X114877033Y-114306425D01*
X114856253Y-114372789D01*
X114877042Y-114443589D01*
X114885540Y-114456307D01*
X114885671Y-114458303D01*
X114884008Y-114459414D01*
X114882766Y-114459081D01*
X114847439Y-114435476D01*
X114799801Y-114426000D01*
X113350199Y-114426000D01*
X113302561Y-114435476D01*
X113267234Y-114459081D01*
X113265238Y-114459212D01*
X113264127Y-114457549D01*
X113264460Y-114456307D01*
X113272967Y-114443575D01*
X113293747Y-114377211D01*
X113272958Y-114306411D01*
X113264460Y-114293693D01*
X113264329Y-114291697D01*
X113265992Y-114290586D01*
X113267234Y-114290919D01*
G37*
G36*
X97917234Y-114290919D02*
G01*
X97952561Y-114314524D01*
X98000199Y-114324000D01*
X99449801Y-114324000D01*
X99497439Y-114314524D01*
X99532766Y-114290919D01*
X99534762Y-114290788D01*
X99535873Y-114292451D01*
X99535540Y-114293693D01*
X99527033Y-114306425D01*
X99506253Y-114372789D01*
X99527042Y-114443589D01*
X99535540Y-114456307D01*
X99535671Y-114458303D01*
X99534008Y-114459414D01*
X99532766Y-114459081D01*
X99497439Y-114435476D01*
X99449801Y-114426000D01*
X98000199Y-114426000D01*
X97952561Y-114435476D01*
X97917234Y-114459081D01*
X97915238Y-114459212D01*
X97914127Y-114457549D01*
X97914460Y-114456307D01*
X97922967Y-114443575D01*
X97943747Y-114377211D01*
X97922958Y-114306411D01*
X97914460Y-114293693D01*
X97914329Y-114291697D01*
X97915992Y-114290586D01*
X97917234Y-114290919D01*
G37*
G36*
X113267234Y-113790919D02*
G01*
X113302561Y-113814524D01*
X113350199Y-113824000D01*
X114799801Y-113824000D01*
X114847439Y-113814524D01*
X114882766Y-113790919D01*
X114884762Y-113790788D01*
X114885873Y-113792451D01*
X114885540Y-113793693D01*
X114877033Y-113806425D01*
X114856253Y-113872789D01*
X114877042Y-113943589D01*
X114885540Y-113956307D01*
X114885671Y-113958303D01*
X114884008Y-113959414D01*
X114882766Y-113959081D01*
X114847439Y-113935476D01*
X114799801Y-113926000D01*
X113350199Y-113926000D01*
X113302561Y-113935476D01*
X113267234Y-113959081D01*
X113265238Y-113959212D01*
X113264127Y-113957549D01*
X113264460Y-113956307D01*
X113272967Y-113943575D01*
X113293747Y-113877211D01*
X113272958Y-113806411D01*
X113264460Y-113793693D01*
X113264329Y-113791697D01*
X113265992Y-113790586D01*
X113267234Y-113790919D01*
G37*
G36*
X97917234Y-113790919D02*
G01*
X97952561Y-113814524D01*
X98000199Y-113824000D01*
X99449801Y-113824000D01*
X99497439Y-113814524D01*
X99532766Y-113790919D01*
X99534762Y-113790788D01*
X99535873Y-113792451D01*
X99535540Y-113793693D01*
X99527033Y-113806425D01*
X99506253Y-113872789D01*
X99527042Y-113943589D01*
X99535540Y-113956307D01*
X99535671Y-113958303D01*
X99534008Y-113959414D01*
X99532766Y-113959081D01*
X99497439Y-113935476D01*
X99449801Y-113926000D01*
X98000199Y-113926000D01*
X97952561Y-113935476D01*
X97917234Y-113959081D01*
X97915238Y-113959212D01*
X97914127Y-113957549D01*
X97914460Y-113956307D01*
X97922967Y-113943575D01*
X97943747Y-113877211D01*
X97922958Y-113806411D01*
X97914460Y-113793693D01*
X97914329Y-113791697D01*
X97915992Y-113790586D01*
X97917234Y-113790919D01*
G37*
G36*
X109568693Y-111139460D02*
G01*
X109581425Y-111147967D01*
X109647789Y-111168747D01*
X109718589Y-111147958D01*
X109731307Y-111139460D01*
X109733303Y-111139329D01*
X109734414Y-111140992D01*
X109734081Y-111142234D01*
X109710476Y-111177561D01*
X109701000Y-111225199D01*
X109701000Y-112674801D01*
X109710476Y-112722439D01*
X109734081Y-112757766D01*
X109734212Y-112759762D01*
X109732549Y-112760873D01*
X109731307Y-112760540D01*
X109718575Y-112752033D01*
X109652211Y-112731253D01*
X109581411Y-112752042D01*
X109568693Y-112760540D01*
X109566697Y-112760671D01*
X109565586Y-112759008D01*
X109565919Y-112757766D01*
X109589524Y-112722439D01*
X109599000Y-112674801D01*
X109599000Y-111225199D01*
X109589524Y-111177561D01*
X109565919Y-111142234D01*
X109565788Y-111140238D01*
X109567451Y-111139127D01*
X109568693Y-111139460D01*
G37*
G36*
X107568693Y-111139460D02*
G01*
X107581425Y-111147967D01*
X107647789Y-111168747D01*
X107718589Y-111147958D01*
X107731307Y-111139460D01*
X107733303Y-111139329D01*
X107734414Y-111140992D01*
X107734081Y-111142234D01*
X107710476Y-111177561D01*
X107701000Y-111225199D01*
X107701000Y-112674801D01*
X107710476Y-112722439D01*
X107734081Y-112757766D01*
X107734212Y-112759762D01*
X107732549Y-112760873D01*
X107731307Y-112760540D01*
X107718575Y-112752033D01*
X107652211Y-112731253D01*
X107581411Y-112752042D01*
X107568693Y-112760540D01*
X107566697Y-112760671D01*
X107565586Y-112759008D01*
X107565919Y-112757766D01*
X107589524Y-112722439D01*
X107599000Y-112674801D01*
X107599000Y-111225199D01*
X107589524Y-111177561D01*
X107565919Y-111142234D01*
X107565788Y-111140238D01*
X107567451Y-111139127D01*
X107568693Y-111139460D01*
G37*
G36*
X102568693Y-111139460D02*
G01*
X102581425Y-111147967D01*
X102647789Y-111168747D01*
X102718589Y-111147958D01*
X102731307Y-111139460D01*
X102733303Y-111139329D01*
X102734414Y-111140992D01*
X102734081Y-111142234D01*
X102710476Y-111177561D01*
X102701000Y-111225199D01*
X102701000Y-112674801D01*
X102710476Y-112722439D01*
X102734081Y-112757766D01*
X102734212Y-112759762D01*
X102732549Y-112760873D01*
X102731307Y-112760540D01*
X102718575Y-112752033D01*
X102652211Y-112731253D01*
X102581411Y-112752042D01*
X102568693Y-112760540D01*
X102566697Y-112760671D01*
X102565586Y-112759008D01*
X102565919Y-112757766D01*
X102589524Y-112722439D01*
X102599000Y-112674801D01*
X102599000Y-111225199D01*
X102589524Y-111177561D01*
X102565919Y-111142234D01*
X102565788Y-111140238D01*
X102567451Y-111139127D01*
X102568693Y-111139460D01*
G37*
G36*
X107068693Y-111139460D02*
G01*
X107081425Y-111147967D01*
X107147789Y-111168747D01*
X107218589Y-111147958D01*
X107231307Y-111139460D01*
X107233303Y-111139329D01*
X107234414Y-111140992D01*
X107234081Y-111142234D01*
X107210476Y-111177561D01*
X107201000Y-111225199D01*
X107201000Y-112674801D01*
X107210476Y-112722439D01*
X107234081Y-112757766D01*
X107234212Y-112759762D01*
X107232549Y-112760873D01*
X107231307Y-112760540D01*
X107218575Y-112752033D01*
X107152211Y-112731253D01*
X107081411Y-112752042D01*
X107068693Y-112760540D01*
X107066697Y-112760671D01*
X107065586Y-112759008D01*
X107065919Y-112757766D01*
X107089524Y-112722439D01*
X107099000Y-112674801D01*
X107099000Y-111225199D01*
X107089524Y-111177561D01*
X107065919Y-111142234D01*
X107065788Y-111140238D01*
X107067451Y-111139127D01*
X107068693Y-111139460D01*
G37*
G36*
X104068693Y-111139460D02*
G01*
X104081425Y-111147967D01*
X104147789Y-111168747D01*
X104218589Y-111147958D01*
X104231307Y-111139460D01*
X104233303Y-111139329D01*
X104234414Y-111140992D01*
X104234081Y-111142234D01*
X104210476Y-111177561D01*
X104201000Y-111225199D01*
X104201000Y-112674801D01*
X104210476Y-112722439D01*
X104234081Y-112757766D01*
X104234212Y-112759762D01*
X104232549Y-112760873D01*
X104231307Y-112760540D01*
X104218575Y-112752033D01*
X104152211Y-112731253D01*
X104081411Y-112752042D01*
X104068693Y-112760540D01*
X104066697Y-112760671D01*
X104065586Y-112759008D01*
X104065919Y-112757766D01*
X104089524Y-112722439D01*
X104099000Y-112674801D01*
X104099000Y-111225199D01*
X104089524Y-111177561D01*
X104065919Y-111142234D01*
X104065788Y-111140238D01*
X104067451Y-111139127D01*
X104068693Y-111139460D01*
G37*
G36*
X106568693Y-111139460D02*
G01*
X106581425Y-111147967D01*
X106647789Y-111168747D01*
X106718589Y-111147958D01*
X106731307Y-111139460D01*
X106733303Y-111139329D01*
X106734414Y-111140992D01*
X106734081Y-111142234D01*
X106710476Y-111177561D01*
X106701000Y-111225199D01*
X106701000Y-112674801D01*
X106710476Y-112722439D01*
X106734081Y-112757766D01*
X106734212Y-112759762D01*
X106732549Y-112760873D01*
X106731307Y-112760540D01*
X106718575Y-112752033D01*
X106652211Y-112731253D01*
X106581411Y-112752042D01*
X106568693Y-112760540D01*
X106566697Y-112760671D01*
X106565586Y-112759008D01*
X106565919Y-112757766D01*
X106589524Y-112722439D01*
X106599000Y-112674801D01*
X106599000Y-111225199D01*
X106589524Y-111177561D01*
X106565919Y-111142234D01*
X106565788Y-111140238D01*
X106567451Y-111139127D01*
X106568693Y-111139460D01*
G37*
G36*
X111068693Y-111139460D02*
G01*
X111081425Y-111147967D01*
X111147789Y-111168747D01*
X111218589Y-111147958D01*
X111231307Y-111139460D01*
X111233303Y-111139329D01*
X111234414Y-111140992D01*
X111234081Y-111142234D01*
X111210476Y-111177561D01*
X111201000Y-111225199D01*
X111201000Y-112674801D01*
X111210476Y-112722439D01*
X111234081Y-112757766D01*
X111234212Y-112759762D01*
X111232549Y-112760873D01*
X111231307Y-112760540D01*
X111218575Y-112752033D01*
X111152211Y-112731253D01*
X111081411Y-112752042D01*
X111068693Y-112760540D01*
X111066697Y-112760671D01*
X111065586Y-112759008D01*
X111065919Y-112757766D01*
X111089524Y-112722439D01*
X111099000Y-112674801D01*
X111099000Y-111225199D01*
X111089524Y-111177561D01*
X111065919Y-111142234D01*
X111065788Y-111140238D01*
X111067451Y-111139127D01*
X111068693Y-111139460D01*
G37*
G36*
X111568693Y-111139460D02*
G01*
X111581425Y-111147967D01*
X111647789Y-111168747D01*
X111718589Y-111147958D01*
X111731307Y-111139460D01*
X111733303Y-111139329D01*
X111734414Y-111140992D01*
X111734081Y-111142234D01*
X111710476Y-111177561D01*
X111701000Y-111225199D01*
X111701000Y-112674801D01*
X111710476Y-112722439D01*
X111734081Y-112757766D01*
X111734212Y-112759762D01*
X111732549Y-112760873D01*
X111731307Y-112760540D01*
X111718575Y-112752033D01*
X111652211Y-112731253D01*
X111581411Y-112752042D01*
X111568693Y-112760540D01*
X111566697Y-112760671D01*
X111565586Y-112759008D01*
X111565919Y-112757766D01*
X111589524Y-112722439D01*
X111599000Y-112674801D01*
X111599000Y-111225199D01*
X111589524Y-111177561D01*
X111565919Y-111142234D01*
X111565788Y-111140238D01*
X111567451Y-111139127D01*
X111568693Y-111139460D01*
G37*
G36*
X108568693Y-111139460D02*
G01*
X108581425Y-111147967D01*
X108647789Y-111168747D01*
X108718589Y-111147958D01*
X108731307Y-111139460D01*
X108733303Y-111139329D01*
X108734414Y-111140992D01*
X108734081Y-111142234D01*
X108710476Y-111177561D01*
X108701000Y-111225199D01*
X108701000Y-112674801D01*
X108710476Y-112722439D01*
X108734081Y-112757766D01*
X108734212Y-112759762D01*
X108732549Y-112760873D01*
X108731307Y-112760540D01*
X108718575Y-112752033D01*
X108652211Y-112731253D01*
X108581411Y-112752042D01*
X108568693Y-112760540D01*
X108566697Y-112760671D01*
X108565586Y-112759008D01*
X108565919Y-112757766D01*
X108589524Y-112722439D01*
X108599000Y-112674801D01*
X108599000Y-111225199D01*
X108589524Y-111177561D01*
X108565919Y-111142234D01*
X108565788Y-111140238D01*
X108567451Y-111139127D01*
X108568693Y-111139460D01*
G37*
G36*
X106068693Y-111139460D02*
G01*
X106081425Y-111147967D01*
X106147789Y-111168747D01*
X106218589Y-111147958D01*
X106231307Y-111139460D01*
X106233303Y-111139329D01*
X106234414Y-111140992D01*
X106234081Y-111142234D01*
X106210476Y-111177561D01*
X106201000Y-111225199D01*
X106201000Y-112674801D01*
X106210476Y-112722439D01*
X106234081Y-112757766D01*
X106234212Y-112759762D01*
X106232549Y-112760873D01*
X106231307Y-112760540D01*
X106218575Y-112752033D01*
X106152211Y-112731253D01*
X106081411Y-112752042D01*
X106068693Y-112760540D01*
X106066697Y-112760671D01*
X106065586Y-112759008D01*
X106065919Y-112757766D01*
X106089524Y-112722439D01*
X106099000Y-112674801D01*
X106099000Y-111225199D01*
X106089524Y-111177561D01*
X106065919Y-111142234D01*
X106065788Y-111140238D01*
X106067451Y-111139127D01*
X106068693Y-111139460D01*
G37*
G36*
X112068693Y-111139460D02*
G01*
X112081425Y-111147967D01*
X112147789Y-111168747D01*
X112218589Y-111147958D01*
X112231307Y-111139460D01*
X112233303Y-111139329D01*
X112234414Y-111140992D01*
X112234081Y-111142234D01*
X112210476Y-111177561D01*
X112201000Y-111225199D01*
X112201000Y-112674801D01*
X112210476Y-112722439D01*
X112234081Y-112757766D01*
X112234212Y-112759762D01*
X112232549Y-112760873D01*
X112231307Y-112760540D01*
X112218575Y-112752033D01*
X112152211Y-112731253D01*
X112081411Y-112752042D01*
X112068693Y-112760540D01*
X112066697Y-112760671D01*
X112065586Y-112759008D01*
X112065919Y-112757766D01*
X112089524Y-112722439D01*
X112099000Y-112674801D01*
X112099000Y-111225199D01*
X112089524Y-111177561D01*
X112065919Y-111142234D01*
X112065788Y-111140238D01*
X112067451Y-111139127D01*
X112068693Y-111139460D01*
G37*
G36*
X102068693Y-111139460D02*
G01*
X102081425Y-111147967D01*
X102147789Y-111168747D01*
X102218589Y-111147958D01*
X102231307Y-111139460D01*
X102233303Y-111139329D01*
X102234414Y-111140992D01*
X102234081Y-111142234D01*
X102210476Y-111177561D01*
X102201000Y-111225199D01*
X102201000Y-112674801D01*
X102210476Y-112722439D01*
X102234081Y-112757766D01*
X102234212Y-112759762D01*
X102232549Y-112760873D01*
X102231307Y-112760540D01*
X102218575Y-112752033D01*
X102152211Y-112731253D01*
X102081411Y-112752042D01*
X102068693Y-112760540D01*
X102066697Y-112760671D01*
X102065586Y-112759008D01*
X102065919Y-112757766D01*
X102089524Y-112722439D01*
X102099000Y-112674801D01*
X102099000Y-111225199D01*
X102089524Y-111177561D01*
X102065919Y-111142234D01*
X102065788Y-111140238D01*
X102067451Y-111139127D01*
X102068693Y-111139460D01*
G37*
G36*
X101568693Y-111139460D02*
G01*
X101581425Y-111147967D01*
X101647789Y-111168747D01*
X101718589Y-111147958D01*
X101731307Y-111139460D01*
X101733303Y-111139329D01*
X101734414Y-111140992D01*
X101734081Y-111142234D01*
X101710476Y-111177561D01*
X101701000Y-111225199D01*
X101701000Y-112674801D01*
X101710476Y-112722439D01*
X101734081Y-112757766D01*
X101734212Y-112759762D01*
X101732549Y-112760873D01*
X101731307Y-112760540D01*
X101718575Y-112752033D01*
X101652211Y-112731253D01*
X101581411Y-112752042D01*
X101568693Y-112760540D01*
X101566697Y-112760671D01*
X101565586Y-112759008D01*
X101565919Y-112757766D01*
X101589524Y-112722439D01*
X101599000Y-112674801D01*
X101599000Y-111225199D01*
X101589524Y-111177561D01*
X101565919Y-111142234D01*
X101565788Y-111140238D01*
X101567451Y-111139127D01*
X101568693Y-111139460D01*
G37*
G36*
X100568693Y-111139460D02*
G01*
X100581425Y-111147967D01*
X100647789Y-111168747D01*
X100718589Y-111147958D01*
X100731307Y-111139460D01*
X100733303Y-111139329D01*
X100734414Y-111140992D01*
X100734081Y-111142234D01*
X100710476Y-111177561D01*
X100701000Y-111225199D01*
X100701000Y-112674801D01*
X100710476Y-112722439D01*
X100734081Y-112757766D01*
X100734212Y-112759762D01*
X100732549Y-112760873D01*
X100731307Y-112760540D01*
X100718575Y-112752033D01*
X100652211Y-112731253D01*
X100581411Y-112752042D01*
X100568693Y-112760540D01*
X100566697Y-112760671D01*
X100565586Y-112759008D01*
X100565919Y-112757766D01*
X100589524Y-112722439D01*
X100599000Y-112674801D01*
X100599000Y-111225199D01*
X100589524Y-111177561D01*
X100565919Y-111142234D01*
X100565788Y-111140238D01*
X100567451Y-111139127D01*
X100568693Y-111139460D01*
G37*
G36*
X108068693Y-111139460D02*
G01*
X108081425Y-111147967D01*
X108147789Y-111168747D01*
X108218589Y-111147958D01*
X108231307Y-111139460D01*
X108233303Y-111139329D01*
X108234414Y-111140992D01*
X108234081Y-111142234D01*
X108210476Y-111177561D01*
X108201000Y-111225199D01*
X108201000Y-112674801D01*
X108210476Y-112722439D01*
X108234081Y-112757766D01*
X108234212Y-112759762D01*
X108232549Y-112760873D01*
X108231307Y-112760540D01*
X108218575Y-112752033D01*
X108152211Y-112731253D01*
X108081411Y-112752042D01*
X108068693Y-112760540D01*
X108066697Y-112760671D01*
X108065586Y-112759008D01*
X108065919Y-112757766D01*
X108089524Y-112722439D01*
X108099000Y-112674801D01*
X108099000Y-111225199D01*
X108089524Y-111177561D01*
X108065919Y-111142234D01*
X108065788Y-111140238D01*
X108067451Y-111139127D01*
X108068693Y-111139460D01*
G37*
G36*
X104568693Y-111139460D02*
G01*
X104581425Y-111147967D01*
X104647789Y-111168747D01*
X104718589Y-111147958D01*
X104731307Y-111139460D01*
X104733303Y-111139329D01*
X104734414Y-111140992D01*
X104734081Y-111142234D01*
X104710476Y-111177561D01*
X104701000Y-111225199D01*
X104701000Y-112674801D01*
X104710476Y-112722439D01*
X104734081Y-112757766D01*
X104734212Y-112759762D01*
X104732549Y-112760873D01*
X104731307Y-112760540D01*
X104718575Y-112752033D01*
X104652211Y-112731253D01*
X104581411Y-112752042D01*
X104568693Y-112760540D01*
X104566697Y-112760671D01*
X104565586Y-112759008D01*
X104565919Y-112757766D01*
X104589524Y-112722439D01*
X104599000Y-112674801D01*
X104599000Y-111225199D01*
X104589524Y-111177561D01*
X104565919Y-111142234D01*
X104565788Y-111140238D01*
X104567451Y-111139127D01*
X104568693Y-111139460D01*
G37*
G36*
X103568693Y-111139460D02*
G01*
X103581425Y-111147967D01*
X103647789Y-111168747D01*
X103718589Y-111147958D01*
X103731307Y-111139460D01*
X103733303Y-111139329D01*
X103734414Y-111140992D01*
X103734081Y-111142234D01*
X103710476Y-111177561D01*
X103701000Y-111225199D01*
X103701000Y-112674801D01*
X103710476Y-112722439D01*
X103734081Y-112757766D01*
X103734212Y-112759762D01*
X103732549Y-112760873D01*
X103731307Y-112760540D01*
X103718575Y-112752033D01*
X103652211Y-112731253D01*
X103581411Y-112752042D01*
X103568693Y-112760540D01*
X103566697Y-112760671D01*
X103565586Y-112759008D01*
X103565919Y-112757766D01*
X103589524Y-112722439D01*
X103599000Y-112674801D01*
X103599000Y-111225199D01*
X103589524Y-111177561D01*
X103565919Y-111142234D01*
X103565788Y-111140238D01*
X103567451Y-111139127D01*
X103568693Y-111139460D01*
G37*
G36*
X110568693Y-111139460D02*
G01*
X110581425Y-111147967D01*
X110647789Y-111168747D01*
X110718589Y-111147958D01*
X110731307Y-111139460D01*
X110733303Y-111139329D01*
X110734414Y-111140992D01*
X110734081Y-111142234D01*
X110710476Y-111177561D01*
X110701000Y-111225199D01*
X110701000Y-112674801D01*
X110710476Y-112722439D01*
X110734081Y-112757766D01*
X110734212Y-112759762D01*
X110732549Y-112760873D01*
X110731307Y-112760540D01*
X110718575Y-112752033D01*
X110652211Y-112731253D01*
X110581411Y-112752042D01*
X110568693Y-112760540D01*
X110566697Y-112760671D01*
X110565586Y-112759008D01*
X110565919Y-112757766D01*
X110589524Y-112722439D01*
X110599000Y-112674801D01*
X110599000Y-111225199D01*
X110589524Y-111177561D01*
X110565919Y-111142234D01*
X110565788Y-111140238D01*
X110567451Y-111139127D01*
X110568693Y-111139460D01*
G37*
G36*
X110068693Y-111139460D02*
G01*
X110081425Y-111147967D01*
X110147789Y-111168747D01*
X110218589Y-111147958D01*
X110231307Y-111139460D01*
X110233303Y-111139329D01*
X110234414Y-111140992D01*
X110234081Y-111142234D01*
X110210476Y-111177561D01*
X110201000Y-111225199D01*
X110201000Y-112674801D01*
X110210476Y-112722439D01*
X110234081Y-112757766D01*
X110234212Y-112759762D01*
X110232549Y-112760873D01*
X110231307Y-112760540D01*
X110218575Y-112752033D01*
X110152211Y-112731253D01*
X110081411Y-112752042D01*
X110068693Y-112760540D01*
X110066697Y-112760671D01*
X110065586Y-112759008D01*
X110065919Y-112757766D01*
X110089524Y-112722439D01*
X110099000Y-112674801D01*
X110099000Y-111225199D01*
X110089524Y-111177561D01*
X110065919Y-111142234D01*
X110065788Y-111140238D01*
X110067451Y-111139127D01*
X110068693Y-111139460D01*
G37*
G36*
X109068693Y-111139460D02*
G01*
X109081425Y-111147967D01*
X109147789Y-111168747D01*
X109218589Y-111147958D01*
X109231307Y-111139460D01*
X109233303Y-111139329D01*
X109234414Y-111140992D01*
X109234081Y-111142234D01*
X109210476Y-111177561D01*
X109201000Y-111225199D01*
X109201000Y-112674801D01*
X109210476Y-112722439D01*
X109234081Y-112757766D01*
X109234212Y-112759762D01*
X109232549Y-112760873D01*
X109231307Y-112760540D01*
X109218575Y-112752033D01*
X109152211Y-112731253D01*
X109081411Y-112752042D01*
X109068693Y-112760540D01*
X109066697Y-112760671D01*
X109065586Y-112759008D01*
X109065919Y-112757766D01*
X109089524Y-112722439D01*
X109099000Y-112674801D01*
X109099000Y-111225199D01*
X109089524Y-111177561D01*
X109065919Y-111142234D01*
X109065788Y-111140238D01*
X109067451Y-111139127D01*
X109068693Y-111139460D01*
G37*
G36*
X103068693Y-111139460D02*
G01*
X103081425Y-111147967D01*
X103147789Y-111168747D01*
X103218589Y-111147958D01*
X103231307Y-111139460D01*
X103233303Y-111139329D01*
X103234414Y-111140992D01*
X103234081Y-111142234D01*
X103210476Y-111177561D01*
X103201000Y-111225199D01*
X103201000Y-112674801D01*
X103210476Y-112722439D01*
X103234081Y-112757766D01*
X103234212Y-112759762D01*
X103232549Y-112760873D01*
X103231307Y-112760540D01*
X103218575Y-112752033D01*
X103152211Y-112731253D01*
X103081411Y-112752042D01*
X103068693Y-112760540D01*
X103066697Y-112760671D01*
X103065586Y-112759008D01*
X103065919Y-112757766D01*
X103089524Y-112722439D01*
X103099000Y-112674801D01*
X103099000Y-111225199D01*
X103089524Y-111177561D01*
X103065919Y-111142234D01*
X103065788Y-111140238D01*
X103067451Y-111139127D01*
X103068693Y-111139460D01*
G37*
G36*
X105568693Y-111139460D02*
G01*
X105581425Y-111147967D01*
X105647789Y-111168747D01*
X105718589Y-111147958D01*
X105731307Y-111139460D01*
X105733303Y-111139329D01*
X105734414Y-111140992D01*
X105734081Y-111142234D01*
X105710476Y-111177561D01*
X105701000Y-111225199D01*
X105701000Y-112674801D01*
X105710476Y-112722439D01*
X105734081Y-112757766D01*
X105734212Y-112759762D01*
X105732549Y-112760873D01*
X105731307Y-112760540D01*
X105718575Y-112752033D01*
X105652211Y-112731253D01*
X105581411Y-112752042D01*
X105568693Y-112760540D01*
X105566697Y-112760671D01*
X105565586Y-112759008D01*
X105565919Y-112757766D01*
X105589524Y-112722439D01*
X105599000Y-112674801D01*
X105599000Y-111225199D01*
X105589524Y-111177561D01*
X105565919Y-111142234D01*
X105565788Y-111140238D01*
X105567451Y-111139127D01*
X105568693Y-111139460D01*
G37*
G36*
X101068693Y-111139460D02*
G01*
X101081425Y-111147967D01*
X101147789Y-111168747D01*
X101218589Y-111147958D01*
X101231307Y-111139460D01*
X101233303Y-111139329D01*
X101234414Y-111140992D01*
X101234081Y-111142234D01*
X101210476Y-111177561D01*
X101201000Y-111225199D01*
X101201000Y-112674801D01*
X101210476Y-112722439D01*
X101234081Y-112757766D01*
X101234212Y-112759762D01*
X101232549Y-112760873D01*
X101231307Y-112760540D01*
X101218575Y-112752033D01*
X101152211Y-112731253D01*
X101081411Y-112752042D01*
X101068693Y-112760540D01*
X101066697Y-112760671D01*
X101065586Y-112759008D01*
X101065919Y-112757766D01*
X101089524Y-112722439D01*
X101099000Y-112674801D01*
X101099000Y-111225199D01*
X101089524Y-111177561D01*
X101065919Y-111142234D01*
X101065788Y-111140238D01*
X101067451Y-111139127D01*
X101068693Y-111139460D01*
G37*
G36*
X105068693Y-111139460D02*
G01*
X105081425Y-111147967D01*
X105147789Y-111168747D01*
X105218589Y-111147958D01*
X105231307Y-111139460D01*
X105233303Y-111139329D01*
X105234414Y-111140992D01*
X105234081Y-111142234D01*
X105210476Y-111177561D01*
X105201000Y-111225199D01*
X105201000Y-112674801D01*
X105210476Y-112722439D01*
X105234081Y-112757766D01*
X105234212Y-112759762D01*
X105232549Y-112760873D01*
X105231307Y-112760540D01*
X105218575Y-112752033D01*
X105152211Y-112731253D01*
X105081411Y-112752042D01*
X105068693Y-112760540D01*
X105066697Y-112760671D01*
X105065586Y-112759008D01*
X105065919Y-112757766D01*
X105089524Y-112722439D01*
X105099000Y-112674801D01*
X105099000Y-111225199D01*
X105089524Y-111177561D01*
X105065919Y-111142234D01*
X105065788Y-111140238D01*
X105067451Y-111139127D01*
X105068693Y-111139460D01*
G37*
G36*
X119982134Y-87288711D02*
G01*
X119981801Y-87289953D01*
X119972585Y-87303745D01*
X119974025Y-87304707D01*
X119974910Y-87306501D01*
X119974449Y-87307652D01*
X119959159Y-87325950D01*
X119950532Y-87394668D01*
X119973831Y-87443359D01*
X119973677Y-87445353D01*
X119973138Y-87445885D01*
X119972585Y-87446255D01*
X119981801Y-87460047D01*
X119981932Y-87462043D01*
X119980269Y-87463154D01*
X119979027Y-87462821D01*
X119968356Y-87455691D01*
X119949802Y-87452000D01*
X119380001Y-87452000D01*
X119378269Y-87451000D01*
X119378001Y-87450000D01*
X119378001Y-87300000D01*
X119379001Y-87298268D01*
X119380001Y-87298000D01*
X119949802Y-87298000D01*
X119968356Y-87294309D01*
X119979027Y-87287179D01*
X119981023Y-87287048D01*
X119982134Y-87288711D01*
G37*
G36*
X116020976Y-87287179D02*
G01*
X116031646Y-87294309D01*
X116050200Y-87298000D01*
X116879802Y-87298000D01*
X116898356Y-87294309D01*
X116909027Y-87287179D01*
X116911023Y-87287048D01*
X116912134Y-87288711D01*
X116911801Y-87289953D01*
X116902585Y-87303745D01*
X116904025Y-87304707D01*
X116904910Y-87306501D01*
X116904449Y-87307652D01*
X116889159Y-87325950D01*
X116880532Y-87394668D01*
X116903831Y-87443359D01*
X116903677Y-87445353D01*
X116903138Y-87445885D01*
X116902585Y-87446255D01*
X116911800Y-87460047D01*
X116911931Y-87462043D01*
X116910268Y-87463154D01*
X116909026Y-87462821D01*
X116898356Y-87455691D01*
X116879802Y-87452000D01*
X116050200Y-87452000D01*
X116031646Y-87455691D01*
X116020975Y-87462821D01*
X116018979Y-87462952D01*
X116017868Y-87461289D01*
X116018201Y-87460047D01*
X116027417Y-87446255D01*
X116025977Y-87445293D01*
X116025092Y-87443499D01*
X116025553Y-87442348D01*
X116040843Y-87424050D01*
X116049470Y-87355332D01*
X116026171Y-87306641D01*
X116026325Y-87304647D01*
X116026864Y-87304115D01*
X116027417Y-87303745D01*
X116018202Y-87289953D01*
X116018071Y-87287957D01*
X116019734Y-87286846D01*
X116020976Y-87287179D01*
G37*
G36*
X123590975Y-87287178D02*
G01*
X123601645Y-87294308D01*
X123620199Y-87297999D01*
X124449801Y-87297999D01*
X124468355Y-87294308D01*
X124479026Y-87287178D01*
X124481022Y-87287047D01*
X124482133Y-87288710D01*
X124481800Y-87289952D01*
X124472584Y-87303744D01*
X124474024Y-87304706D01*
X124474909Y-87306500D01*
X124474448Y-87307651D01*
X124459158Y-87325949D01*
X124450531Y-87394667D01*
X124473830Y-87443358D01*
X124473676Y-87445352D01*
X124473137Y-87445884D01*
X124472584Y-87446254D01*
X124481799Y-87460046D01*
X124481930Y-87462042D01*
X124480267Y-87463153D01*
X124479025Y-87462820D01*
X124468355Y-87455690D01*
X124449801Y-87451999D01*
X123620199Y-87451999D01*
X123601645Y-87455690D01*
X123590974Y-87462820D01*
X123588978Y-87462951D01*
X123587867Y-87461288D01*
X123588200Y-87460046D01*
X123597416Y-87446254D01*
X123595976Y-87445292D01*
X123595091Y-87443498D01*
X123595552Y-87442347D01*
X123610842Y-87424049D01*
X123619469Y-87355331D01*
X123596170Y-87306640D01*
X123596324Y-87304646D01*
X123596863Y-87304114D01*
X123597416Y-87303744D01*
X123588201Y-87289952D01*
X123588070Y-87287956D01*
X123589733Y-87286845D01*
X123590975Y-87287178D01*
G37*
G36*
X120520974Y-87287178D02*
G01*
X120531645Y-87294308D01*
X120550199Y-87297999D01*
X121120000Y-87297999D01*
X121121732Y-87298999D01*
X121122000Y-87299999D01*
X121122000Y-87449999D01*
X121121000Y-87451731D01*
X121120000Y-87451999D01*
X120550199Y-87451999D01*
X120531645Y-87455690D01*
X120520974Y-87462820D01*
X120518978Y-87462951D01*
X120517867Y-87461288D01*
X120518200Y-87460046D01*
X120527416Y-87446254D01*
X120525976Y-87445292D01*
X120525091Y-87443498D01*
X120525552Y-87442347D01*
X120540842Y-87424049D01*
X120549469Y-87355331D01*
X120526170Y-87306640D01*
X120526324Y-87304646D01*
X120526863Y-87304114D01*
X120527416Y-87303744D01*
X120518200Y-87289952D01*
X120518069Y-87287956D01*
X120519732Y-87286845D01*
X120520974Y-87287178D01*
G37*
G36*
X119982134Y-86638711D02*
G01*
X119981801Y-86639953D01*
X119972585Y-86653745D01*
X119974025Y-86654707D01*
X119974910Y-86656501D01*
X119974449Y-86657652D01*
X119959159Y-86675950D01*
X119950532Y-86744668D01*
X119973831Y-86793359D01*
X119973677Y-86795353D01*
X119973138Y-86795885D01*
X119972585Y-86796255D01*
X119981801Y-86810047D01*
X119981932Y-86812043D01*
X119980269Y-86813154D01*
X119979027Y-86812821D01*
X119968356Y-86805691D01*
X119949802Y-86802000D01*
X119380001Y-86802000D01*
X119378269Y-86801000D01*
X119378001Y-86800000D01*
X119378001Y-86650000D01*
X119379001Y-86648268D01*
X119380001Y-86648000D01*
X119949802Y-86648000D01*
X119968356Y-86644309D01*
X119979027Y-86637179D01*
X119981023Y-86637048D01*
X119982134Y-86638711D01*
G37*
G36*
X116020976Y-86637179D02*
G01*
X116031646Y-86644309D01*
X116050200Y-86648000D01*
X116879802Y-86648000D01*
X116898356Y-86644309D01*
X116909027Y-86637179D01*
X116911023Y-86637048D01*
X116912134Y-86638711D01*
X116911801Y-86639953D01*
X116902585Y-86653745D01*
X116904025Y-86654707D01*
X116904910Y-86656501D01*
X116904449Y-86657652D01*
X116889159Y-86675950D01*
X116880532Y-86744668D01*
X116903831Y-86793359D01*
X116903677Y-86795353D01*
X116903138Y-86795885D01*
X116902585Y-86796255D01*
X116911800Y-86810047D01*
X116911931Y-86812043D01*
X116910268Y-86813154D01*
X116909026Y-86812821D01*
X116898356Y-86805691D01*
X116879802Y-86802000D01*
X116050200Y-86802000D01*
X116031646Y-86805691D01*
X116020975Y-86812821D01*
X116018979Y-86812952D01*
X116017868Y-86811289D01*
X116018201Y-86810047D01*
X116027417Y-86796255D01*
X116025977Y-86795293D01*
X116025092Y-86793499D01*
X116025553Y-86792348D01*
X116040843Y-86774050D01*
X116049470Y-86705332D01*
X116026171Y-86656641D01*
X116026325Y-86654647D01*
X116026864Y-86654115D01*
X116027417Y-86653745D01*
X116018202Y-86639953D01*
X116018071Y-86637957D01*
X116019734Y-86636846D01*
X116020976Y-86637179D01*
G37*
G36*
X123590975Y-86637178D02*
G01*
X123601645Y-86644308D01*
X123620199Y-86647999D01*
X124449801Y-86647999D01*
X124468355Y-86644308D01*
X124479026Y-86637178D01*
X124481022Y-86637047D01*
X124482133Y-86638710D01*
X124481800Y-86639952D01*
X124472584Y-86653744D01*
X124474024Y-86654706D01*
X124474909Y-86656500D01*
X124474448Y-86657651D01*
X124459158Y-86675949D01*
X124450531Y-86744667D01*
X124473830Y-86793358D01*
X124473676Y-86795352D01*
X124473137Y-86795884D01*
X124472584Y-86796254D01*
X124481799Y-86810046D01*
X124481930Y-86812042D01*
X124480267Y-86813153D01*
X124479025Y-86812820D01*
X124468355Y-86805690D01*
X124449801Y-86801999D01*
X123620199Y-86801999D01*
X123601645Y-86805690D01*
X123590974Y-86812820D01*
X123588978Y-86812951D01*
X123587867Y-86811288D01*
X123588200Y-86810046D01*
X123597416Y-86796254D01*
X123595976Y-86795292D01*
X123595091Y-86793498D01*
X123595552Y-86792347D01*
X123610842Y-86774049D01*
X123619469Y-86705331D01*
X123596170Y-86656640D01*
X123596324Y-86654646D01*
X123596863Y-86654114D01*
X123597416Y-86653744D01*
X123588201Y-86639952D01*
X123588070Y-86637956D01*
X123589733Y-86636845D01*
X123590975Y-86637178D01*
G37*
G36*
X120520974Y-86637178D02*
G01*
X120531645Y-86644308D01*
X120550199Y-86647999D01*
X121120000Y-86647999D01*
X121121732Y-86648999D01*
X121122000Y-86649999D01*
X121122000Y-86799999D01*
X121121000Y-86801731D01*
X121120000Y-86801999D01*
X120550199Y-86801999D01*
X120531645Y-86805690D01*
X120520974Y-86812820D01*
X120518978Y-86812951D01*
X120517867Y-86811288D01*
X120518200Y-86810046D01*
X120527416Y-86796254D01*
X120525976Y-86795292D01*
X120525091Y-86793498D01*
X120525552Y-86792347D01*
X120540842Y-86774049D01*
X120549469Y-86705331D01*
X120526170Y-86656640D01*
X120526324Y-86654646D01*
X120526863Y-86654114D01*
X120527416Y-86653744D01*
X120518200Y-86639952D01*
X120518069Y-86637956D01*
X120519732Y-86636845D01*
X120520974Y-86637178D01*
G37*
G36*
X116020976Y-85987179D02*
G01*
X116031646Y-85994309D01*
X116050200Y-85998000D01*
X116879802Y-85998000D01*
X116898356Y-85994309D01*
X116909027Y-85987179D01*
X116911023Y-85987048D01*
X116912134Y-85988711D01*
X116911801Y-85989953D01*
X116902585Y-86003745D01*
X116904025Y-86004707D01*
X116904910Y-86006501D01*
X116904449Y-86007652D01*
X116889159Y-86025950D01*
X116880532Y-86094668D01*
X116903831Y-86143359D01*
X116903677Y-86145353D01*
X116903138Y-86145885D01*
X116902585Y-86146255D01*
X116911800Y-86160047D01*
X116911931Y-86162043D01*
X116910268Y-86163154D01*
X116909026Y-86162821D01*
X116898356Y-86155691D01*
X116879802Y-86152000D01*
X116050200Y-86152000D01*
X116031646Y-86155691D01*
X116020975Y-86162821D01*
X116018979Y-86162952D01*
X116017868Y-86161289D01*
X116018201Y-86160047D01*
X116027417Y-86146255D01*
X116025977Y-86145293D01*
X116025092Y-86143499D01*
X116025553Y-86142348D01*
X116040843Y-86124050D01*
X116049470Y-86055332D01*
X116026171Y-86006641D01*
X116026325Y-86004647D01*
X116026864Y-86004115D01*
X116027417Y-86003745D01*
X116018202Y-85989953D01*
X116018071Y-85987957D01*
X116019734Y-85986846D01*
X116020976Y-85987179D01*
G37*
G36*
X119982134Y-85988711D02*
G01*
X119981801Y-85989953D01*
X119972585Y-86003745D01*
X119974025Y-86004707D01*
X119974910Y-86006501D01*
X119974449Y-86007652D01*
X119959159Y-86025950D01*
X119950532Y-86094668D01*
X119973831Y-86143359D01*
X119973677Y-86145353D01*
X119973138Y-86145885D01*
X119972585Y-86146255D01*
X119981801Y-86160047D01*
X119981932Y-86162043D01*
X119980269Y-86163154D01*
X119979027Y-86162821D01*
X119968356Y-86155691D01*
X119949802Y-86152000D01*
X119380001Y-86152000D01*
X119378269Y-86151000D01*
X119378001Y-86150000D01*
X119378001Y-86000000D01*
X119379001Y-85998268D01*
X119380001Y-85998000D01*
X119949802Y-85998000D01*
X119968356Y-85994309D01*
X119979027Y-85987179D01*
X119981023Y-85987048D01*
X119982134Y-85988711D01*
G37*
G36*
X123590975Y-85987178D02*
G01*
X123601645Y-85994308D01*
X123620199Y-85997999D01*
X124449801Y-85997999D01*
X124468355Y-85994308D01*
X124479026Y-85987178D01*
X124481022Y-85987047D01*
X124482133Y-85988710D01*
X124481800Y-85989952D01*
X124472584Y-86003744D01*
X124474024Y-86004706D01*
X124474909Y-86006500D01*
X124474448Y-86007651D01*
X124459158Y-86025949D01*
X124450531Y-86094667D01*
X124473830Y-86143358D01*
X124473676Y-86145352D01*
X124473137Y-86145884D01*
X124472584Y-86146254D01*
X124481799Y-86160046D01*
X124481930Y-86162042D01*
X124480267Y-86163153D01*
X124479025Y-86162820D01*
X124468355Y-86155690D01*
X124449801Y-86151999D01*
X123620199Y-86151999D01*
X123601645Y-86155690D01*
X123590974Y-86162820D01*
X123588978Y-86162951D01*
X123587867Y-86161288D01*
X123588200Y-86160046D01*
X123597416Y-86146254D01*
X123595976Y-86145292D01*
X123595091Y-86143498D01*
X123595552Y-86142347D01*
X123610842Y-86124049D01*
X123619469Y-86055331D01*
X123596170Y-86006640D01*
X123596324Y-86004646D01*
X123596863Y-86004114D01*
X123597416Y-86003744D01*
X123588201Y-85989952D01*
X123588070Y-85987956D01*
X123589733Y-85986845D01*
X123590975Y-85987178D01*
G37*
G36*
X120520974Y-85987178D02*
G01*
X120531645Y-85994308D01*
X120550199Y-85997999D01*
X121120000Y-85997999D01*
X121121732Y-85998999D01*
X121122000Y-85999999D01*
X121122000Y-86149999D01*
X121121000Y-86151731D01*
X121120000Y-86151999D01*
X120550199Y-86151999D01*
X120531645Y-86155690D01*
X120520974Y-86162820D01*
X120518978Y-86162951D01*
X120517867Y-86161288D01*
X120518200Y-86160046D01*
X120527416Y-86146254D01*
X120525976Y-86145292D01*
X120525091Y-86143498D01*
X120525552Y-86142347D01*
X120540842Y-86124049D01*
X120549469Y-86055331D01*
X120526170Y-86006640D01*
X120526324Y-86004646D01*
X120526863Y-86004114D01*
X120527416Y-86003744D01*
X120518200Y-85989952D01*
X120518069Y-85987956D01*
X120519732Y-85986845D01*
X120520974Y-85987178D01*
G37*
G36*
X98478891Y-84135374D02*
G01*
X98525944Y-84174697D01*
X98594660Y-84183330D01*
X98657289Y-84153367D01*
X98664800Y-84144697D01*
X98666690Y-84144043D01*
X98668202Y-84145353D01*
X98667975Y-84147118D01*
X98662379Y-84155494D01*
X98651000Y-84212699D01*
X98651000Y-85487301D01*
X98662379Y-85544506D01*
X98674055Y-85561980D01*
X98674186Y-85563976D01*
X98672523Y-85565087D01*
X98671109Y-85564626D01*
X98624056Y-85525303D01*
X98555340Y-85516670D01*
X98492711Y-85546633D01*
X98485200Y-85555303D01*
X98483310Y-85555957D01*
X98481798Y-85554647D01*
X98482025Y-85552882D01*
X98487621Y-85544506D01*
X98499000Y-85487301D01*
X98499000Y-84212699D01*
X98487621Y-84155494D01*
X98475945Y-84138020D01*
X98475814Y-84136024D01*
X98477477Y-84134913D01*
X98478891Y-84135374D01*
G37*
G36*
X100428891Y-84135374D02*
G01*
X100475944Y-84174697D01*
X100544660Y-84183330D01*
X100607289Y-84153367D01*
X100614800Y-84144697D01*
X100616690Y-84144043D01*
X100618202Y-84145353D01*
X100617975Y-84147118D01*
X100612379Y-84155494D01*
X100601000Y-84212699D01*
X100601000Y-85487301D01*
X100612379Y-85544506D01*
X100624055Y-85561980D01*
X100624186Y-85563976D01*
X100622523Y-85565087D01*
X100621109Y-85564626D01*
X100574056Y-85525303D01*
X100505340Y-85516670D01*
X100442711Y-85546633D01*
X100435200Y-85555303D01*
X100433310Y-85555957D01*
X100431798Y-85554647D01*
X100432025Y-85552882D01*
X100437621Y-85544506D01*
X100449000Y-85487301D01*
X100449000Y-84212699D01*
X100437621Y-84155494D01*
X100425945Y-84138020D01*
X100425814Y-84136024D01*
X100427477Y-84134913D01*
X100428891Y-84135374D01*
G37*
G36*
X97178891Y-84135374D02*
G01*
X97225944Y-84174697D01*
X97294660Y-84183330D01*
X97357289Y-84153367D01*
X97364800Y-84144697D01*
X97366690Y-84144043D01*
X97368202Y-84145353D01*
X97367975Y-84147118D01*
X97362379Y-84155494D01*
X97351000Y-84212699D01*
X97351000Y-85487301D01*
X97362379Y-85544506D01*
X97374055Y-85561980D01*
X97374186Y-85563976D01*
X97372523Y-85565087D01*
X97371109Y-85564626D01*
X97324056Y-85525303D01*
X97255340Y-85516670D01*
X97192711Y-85546633D01*
X97185200Y-85555303D01*
X97183310Y-85555957D01*
X97181798Y-85554647D01*
X97182025Y-85552882D01*
X97187621Y-85544506D01*
X97199000Y-85487301D01*
X97199000Y-84212699D01*
X97187621Y-84155494D01*
X97175945Y-84138020D01*
X97175814Y-84136024D01*
X97177477Y-84134913D01*
X97178891Y-84135374D01*
G37*
G36*
X101078891Y-84135374D02*
G01*
X101125944Y-84174697D01*
X101194660Y-84183330D01*
X101257289Y-84153367D01*
X101264800Y-84144697D01*
X101266690Y-84144043D01*
X101268202Y-84145353D01*
X101267975Y-84147118D01*
X101262379Y-84155494D01*
X101251000Y-84212699D01*
X101251000Y-85487301D01*
X101262379Y-85544506D01*
X101274055Y-85561980D01*
X101274186Y-85563976D01*
X101272523Y-85565087D01*
X101271109Y-85564626D01*
X101224056Y-85525303D01*
X101155340Y-85516670D01*
X101092711Y-85546633D01*
X101085200Y-85555303D01*
X101083310Y-85555957D01*
X101081798Y-85554647D01*
X101082025Y-85552882D01*
X101087621Y-85544506D01*
X101099000Y-85487301D01*
X101099000Y-84212699D01*
X101087621Y-84155494D01*
X101075945Y-84138020D01*
X101075814Y-84136024D01*
X101077477Y-84134913D01*
X101078891Y-84135374D01*
G37*
G36*
X99128891Y-84135374D02*
G01*
X99175944Y-84174697D01*
X99244660Y-84183330D01*
X99307289Y-84153367D01*
X99314800Y-84144697D01*
X99316690Y-84144043D01*
X99318202Y-84145353D01*
X99317975Y-84147118D01*
X99312379Y-84155494D01*
X99301000Y-84212699D01*
X99301000Y-85487301D01*
X99312379Y-85544506D01*
X99324055Y-85561980D01*
X99324186Y-85563976D01*
X99322523Y-85565087D01*
X99321109Y-85564626D01*
X99274056Y-85525303D01*
X99205340Y-85516670D01*
X99142711Y-85546633D01*
X99135200Y-85555303D01*
X99133310Y-85555957D01*
X99131798Y-85554647D01*
X99132025Y-85552882D01*
X99137621Y-85544506D01*
X99149000Y-85487301D01*
X99149000Y-84212699D01*
X99137621Y-84155494D01*
X99125945Y-84138020D01*
X99125814Y-84136024D01*
X99127477Y-84134913D01*
X99128891Y-84135374D01*
G37*
G36*
X99778891Y-84135374D02*
G01*
X99825944Y-84174697D01*
X99894660Y-84183330D01*
X99957289Y-84153367D01*
X99964800Y-84144697D01*
X99966690Y-84144043D01*
X99968202Y-84145353D01*
X99967975Y-84147118D01*
X99962379Y-84155494D01*
X99951000Y-84212699D01*
X99951000Y-85487301D01*
X99962379Y-85544506D01*
X99974055Y-85561980D01*
X99974186Y-85563976D01*
X99972523Y-85565087D01*
X99971109Y-85564626D01*
X99924056Y-85525303D01*
X99855340Y-85516670D01*
X99792711Y-85546633D01*
X99785200Y-85555303D01*
X99783310Y-85555957D01*
X99781798Y-85554647D01*
X99782025Y-85552882D01*
X99787621Y-85544506D01*
X99799000Y-85487301D01*
X99799000Y-84212699D01*
X99787621Y-84155494D01*
X99775945Y-84138020D01*
X99775814Y-84136024D01*
X99777477Y-84134913D01*
X99778891Y-84135374D01*
G37*
G36*
X101728891Y-84135374D02*
G01*
X101775944Y-84174697D01*
X101844660Y-84183330D01*
X101907289Y-84153367D01*
X101914800Y-84144697D01*
X101916690Y-84144043D01*
X101918202Y-84145353D01*
X101917975Y-84147118D01*
X101912379Y-84155494D01*
X101901000Y-84212699D01*
X101901000Y-85487301D01*
X101912379Y-85544506D01*
X101924055Y-85561980D01*
X101924186Y-85563976D01*
X101922523Y-85565087D01*
X101921109Y-85564626D01*
X101874056Y-85525303D01*
X101805340Y-85516670D01*
X101742711Y-85546633D01*
X101735200Y-85555303D01*
X101733310Y-85555957D01*
X101731798Y-85554647D01*
X101732025Y-85552882D01*
X101737621Y-85544506D01*
X101749000Y-85487301D01*
X101749000Y-84212699D01*
X101737621Y-84155494D01*
X101725945Y-84138020D01*
X101725814Y-84136024D01*
X101727477Y-84134913D01*
X101728891Y-84135374D01*
G37*
G36*
X96528891Y-84135374D02*
G01*
X96575944Y-84174697D01*
X96644660Y-84183330D01*
X96707289Y-84153367D01*
X96714800Y-84144697D01*
X96716690Y-84144043D01*
X96718202Y-84145353D01*
X96717975Y-84147118D01*
X96712379Y-84155494D01*
X96701000Y-84212699D01*
X96701000Y-85487301D01*
X96712379Y-85544506D01*
X96724055Y-85561980D01*
X96724186Y-85563976D01*
X96722523Y-85565087D01*
X96721109Y-85564626D01*
X96674056Y-85525303D01*
X96605340Y-85516670D01*
X96542711Y-85546633D01*
X96535200Y-85555303D01*
X96533310Y-85555957D01*
X96531798Y-85554647D01*
X96532025Y-85552882D01*
X96537621Y-85544506D01*
X96549000Y-85487301D01*
X96549000Y-84212699D01*
X96537621Y-84155494D01*
X96525945Y-84138020D01*
X96525814Y-84136024D01*
X96527477Y-84134913D01*
X96528891Y-84135374D01*
G37*
G36*
X97828891Y-84135374D02*
G01*
X97875944Y-84174697D01*
X97944660Y-84183330D01*
X98007289Y-84153367D01*
X98014800Y-84144697D01*
X98016690Y-84144043D01*
X98018202Y-84145353D01*
X98017975Y-84147118D01*
X98012379Y-84155494D01*
X98001000Y-84212699D01*
X98001000Y-85487301D01*
X98012379Y-85544506D01*
X98024055Y-85561980D01*
X98024186Y-85563976D01*
X98022523Y-85565087D01*
X98021109Y-85564626D01*
X97974056Y-85525303D01*
X97905340Y-85516670D01*
X97842711Y-85546633D01*
X97835200Y-85555303D01*
X97833310Y-85555957D01*
X97831798Y-85554647D01*
X97832025Y-85552882D01*
X97837621Y-85544506D01*
X97849000Y-85487301D01*
X97849000Y-84212699D01*
X97837621Y-84155494D01*
X97825945Y-84138020D01*
X97825814Y-84136024D01*
X97827477Y-84134913D01*
X97828891Y-84135374D01*
G37*
G36*
X130736188Y-85276524D02*
G01*
X130736578Y-85278486D01*
X130736219Y-85279126D01*
X130695003Y-85328446D01*
X130686372Y-85397161D01*
X130716335Y-85459790D01*
X130734228Y-85475293D01*
X130734882Y-85477183D01*
X130733572Y-85478695D01*
X130732528Y-85478767D01*
X130717101Y-85475699D01*
X129472899Y-85475699D01*
X129455706Y-85479119D01*
X129453812Y-85478476D01*
X129453422Y-85476514D01*
X129453781Y-85475874D01*
X129494997Y-85426554D01*
X129503628Y-85357839D01*
X129473665Y-85295210D01*
X129455772Y-85279707D01*
X129455118Y-85277817D01*
X129456428Y-85276305D01*
X129457472Y-85276233D01*
X129472899Y-85279301D01*
X130717101Y-85279301D01*
X130734294Y-85275881D01*
X130736188Y-85276524D01*
G37*
G36*
X135257388Y-85276524D02*
G01*
X135257778Y-85278486D01*
X135257419Y-85279126D01*
X135216203Y-85328446D01*
X135207572Y-85397161D01*
X135237535Y-85459790D01*
X135255428Y-85475293D01*
X135256082Y-85477183D01*
X135254772Y-85478695D01*
X135253728Y-85478767D01*
X135238301Y-85475699D01*
X133994099Y-85475699D01*
X133976906Y-85479119D01*
X133975012Y-85478476D01*
X133974622Y-85476514D01*
X133974981Y-85475874D01*
X134016197Y-85426554D01*
X134024828Y-85357839D01*
X133994865Y-85295210D01*
X133976972Y-85279707D01*
X133976318Y-85277817D01*
X133977628Y-85276305D01*
X133978672Y-85276233D01*
X133994099Y-85279301D01*
X135238301Y-85279301D01*
X135255494Y-85275881D01*
X135257388Y-85276524D01*
G37*
G36*
X135257387Y-84626523D02*
G01*
X135257777Y-84628485D01*
X135257418Y-84629125D01*
X135216200Y-84678446D01*
X135207569Y-84747161D01*
X135237532Y-84809790D01*
X135255427Y-84825295D01*
X135256081Y-84827185D01*
X135254771Y-84828697D01*
X135253727Y-84828769D01*
X135238301Y-84825701D01*
X133994099Y-84825701D01*
X133976907Y-84829120D01*
X133975013Y-84828477D01*
X133974623Y-84826515D01*
X133974982Y-84825875D01*
X134016200Y-84776554D01*
X134024831Y-84707839D01*
X133994868Y-84645210D01*
X133976973Y-84629705D01*
X133976319Y-84627815D01*
X133977629Y-84626303D01*
X133978673Y-84626231D01*
X133994099Y-84629299D01*
X135238301Y-84629299D01*
X135255493Y-84625880D01*
X135257387Y-84626523D01*
G37*
G36*
X130736187Y-84626523D02*
G01*
X130736577Y-84628485D01*
X130736218Y-84629125D01*
X130695000Y-84678446D01*
X130686369Y-84747161D01*
X130716332Y-84809790D01*
X130734227Y-84825295D01*
X130734881Y-84827185D01*
X130733571Y-84828697D01*
X130732527Y-84828769D01*
X130717101Y-84825701D01*
X129472899Y-84825701D01*
X129455707Y-84829120D01*
X129453813Y-84828477D01*
X129453423Y-84826515D01*
X129453782Y-84825875D01*
X129495000Y-84776554D01*
X129503631Y-84707839D01*
X129473668Y-84645210D01*
X129455773Y-84629705D01*
X129455119Y-84627815D01*
X129456429Y-84626303D01*
X129457473Y-84626231D01*
X129472899Y-84629299D01*
X130717101Y-84629299D01*
X130734293Y-84625880D01*
X130736187Y-84626523D01*
G37*
G36*
X135257388Y-83976524D02*
G01*
X135257778Y-83978486D01*
X135257419Y-83979126D01*
X135216203Y-84028446D01*
X135207572Y-84097161D01*
X135237535Y-84159790D01*
X135255428Y-84175293D01*
X135256082Y-84177183D01*
X135254772Y-84178695D01*
X135253728Y-84178767D01*
X135238301Y-84175699D01*
X133994099Y-84175699D01*
X133976906Y-84179119D01*
X133975012Y-84178476D01*
X133974622Y-84176514D01*
X133974981Y-84175874D01*
X134016197Y-84126554D01*
X134024828Y-84057839D01*
X133994865Y-83995210D01*
X133976972Y-83979707D01*
X133976318Y-83977817D01*
X133977628Y-83976305D01*
X133978672Y-83976233D01*
X133994099Y-83979301D01*
X135238301Y-83979301D01*
X135255494Y-83975881D01*
X135257388Y-83976524D01*
G37*
G36*
X130736188Y-83976524D02*
G01*
X130736578Y-83978486D01*
X130736219Y-83979126D01*
X130695003Y-84028446D01*
X130686372Y-84097161D01*
X130716335Y-84159790D01*
X130734228Y-84175293D01*
X130734882Y-84177183D01*
X130733572Y-84178695D01*
X130732528Y-84178767D01*
X130717101Y-84175699D01*
X129472899Y-84175699D01*
X129455706Y-84179119D01*
X129453812Y-84178476D01*
X129453422Y-84176514D01*
X129453781Y-84175874D01*
X129494997Y-84126554D01*
X129503628Y-84057839D01*
X129473665Y-83995210D01*
X129455772Y-83979707D01*
X129455118Y-83977817D01*
X129456428Y-83976305D01*
X129457472Y-83976233D01*
X129472899Y-83979301D01*
X130717101Y-83979301D01*
X130734294Y-83975881D01*
X130736188Y-83976524D01*
G37*
G36*
X99778891Y-78410374D02*
G01*
X99825944Y-78449697D01*
X99894660Y-78458330D01*
X99957289Y-78428367D01*
X99964800Y-78419697D01*
X99966690Y-78419043D01*
X99968202Y-78420353D01*
X99967975Y-78422118D01*
X99962379Y-78430494D01*
X99951000Y-78487699D01*
X99951000Y-79762301D01*
X99962379Y-79819506D01*
X99974055Y-79836980D01*
X99974186Y-79838976D01*
X99972523Y-79840087D01*
X99971109Y-79839626D01*
X99924056Y-79800303D01*
X99855340Y-79791670D01*
X99792711Y-79821633D01*
X99785200Y-79830303D01*
X99783310Y-79830957D01*
X99781798Y-79829647D01*
X99782025Y-79827882D01*
X99787621Y-79819506D01*
X99799000Y-79762301D01*
X99799000Y-78487699D01*
X99787621Y-78430494D01*
X99775945Y-78413020D01*
X99775814Y-78411024D01*
X99777477Y-78409913D01*
X99778891Y-78410374D01*
G37*
G36*
X99128891Y-78410374D02*
G01*
X99175944Y-78449697D01*
X99244660Y-78458330D01*
X99307289Y-78428367D01*
X99314800Y-78419697D01*
X99316690Y-78419043D01*
X99318202Y-78420353D01*
X99317975Y-78422118D01*
X99312379Y-78430494D01*
X99301000Y-78487699D01*
X99301000Y-79762301D01*
X99312379Y-79819506D01*
X99324055Y-79836980D01*
X99324186Y-79838976D01*
X99322523Y-79840087D01*
X99321109Y-79839626D01*
X99274056Y-79800303D01*
X99205340Y-79791670D01*
X99142711Y-79821633D01*
X99135200Y-79830303D01*
X99133310Y-79830957D01*
X99131798Y-79829647D01*
X99132025Y-79827882D01*
X99137621Y-79819506D01*
X99149000Y-79762301D01*
X99149000Y-78487699D01*
X99137621Y-78430494D01*
X99125945Y-78413020D01*
X99125814Y-78411024D01*
X99127477Y-78409913D01*
X99128891Y-78410374D01*
G37*
G36*
X96528891Y-78410374D02*
G01*
X96575944Y-78449697D01*
X96644660Y-78458330D01*
X96707289Y-78428367D01*
X96714800Y-78419697D01*
X96716690Y-78419043D01*
X96718202Y-78420353D01*
X96717975Y-78422118D01*
X96712379Y-78430494D01*
X96701000Y-78487699D01*
X96701000Y-79762301D01*
X96712379Y-79819506D01*
X96724055Y-79836980D01*
X96724186Y-79838976D01*
X96722523Y-79840087D01*
X96721109Y-79839626D01*
X96674056Y-79800303D01*
X96605340Y-79791670D01*
X96542711Y-79821633D01*
X96535200Y-79830303D01*
X96533310Y-79830957D01*
X96531798Y-79829647D01*
X96532025Y-79827882D01*
X96537621Y-79819506D01*
X96549000Y-79762301D01*
X96549000Y-78487699D01*
X96537621Y-78430494D01*
X96525945Y-78413020D01*
X96525814Y-78411024D01*
X96527477Y-78409913D01*
X96528891Y-78410374D01*
G37*
G36*
X98478891Y-78410374D02*
G01*
X98525944Y-78449697D01*
X98594660Y-78458330D01*
X98657289Y-78428367D01*
X98664800Y-78419697D01*
X98666690Y-78419043D01*
X98668202Y-78420353D01*
X98667975Y-78422118D01*
X98662379Y-78430494D01*
X98651000Y-78487699D01*
X98651000Y-79762301D01*
X98662379Y-79819506D01*
X98674055Y-79836980D01*
X98674186Y-79838976D01*
X98672523Y-79840087D01*
X98671109Y-79839626D01*
X98624056Y-79800303D01*
X98555340Y-79791670D01*
X98492711Y-79821633D01*
X98485200Y-79830303D01*
X98483310Y-79830957D01*
X98481798Y-79829647D01*
X98482025Y-79827882D01*
X98487621Y-79819506D01*
X98499000Y-79762301D01*
X98499000Y-78487699D01*
X98487621Y-78430494D01*
X98475945Y-78413020D01*
X98475814Y-78411024D01*
X98477477Y-78409913D01*
X98478891Y-78410374D01*
G37*
G36*
X97178891Y-78410374D02*
G01*
X97225944Y-78449697D01*
X97294660Y-78458330D01*
X97357289Y-78428367D01*
X97364800Y-78419697D01*
X97366690Y-78419043D01*
X97368202Y-78420353D01*
X97367975Y-78422118D01*
X97362379Y-78430494D01*
X97351000Y-78487699D01*
X97351000Y-79762301D01*
X97362379Y-79819506D01*
X97374055Y-79836980D01*
X97374186Y-79838976D01*
X97372523Y-79840087D01*
X97371109Y-79839626D01*
X97324056Y-79800303D01*
X97255340Y-79791670D01*
X97192711Y-79821633D01*
X97185200Y-79830303D01*
X97183310Y-79830957D01*
X97181798Y-79829647D01*
X97182025Y-79827882D01*
X97187621Y-79819506D01*
X97199000Y-79762301D01*
X97199000Y-78487699D01*
X97187621Y-78430494D01*
X97175945Y-78413020D01*
X97175814Y-78411024D01*
X97177477Y-78409913D01*
X97178891Y-78410374D01*
G37*
G36*
X101078891Y-78410374D02*
G01*
X101125944Y-78449697D01*
X101194660Y-78458330D01*
X101257289Y-78428367D01*
X101264800Y-78419697D01*
X101266690Y-78419043D01*
X101268202Y-78420353D01*
X101267975Y-78422118D01*
X101262379Y-78430494D01*
X101251000Y-78487699D01*
X101251000Y-79762301D01*
X101262379Y-79819506D01*
X101274055Y-79836980D01*
X101274186Y-79838976D01*
X101272523Y-79840087D01*
X101271109Y-79839626D01*
X101224056Y-79800303D01*
X101155340Y-79791670D01*
X101092711Y-79821633D01*
X101085200Y-79830303D01*
X101083310Y-79830957D01*
X101081798Y-79829647D01*
X101082025Y-79827882D01*
X101087621Y-79819506D01*
X101099000Y-79762301D01*
X101099000Y-78487699D01*
X101087621Y-78430494D01*
X101075945Y-78413020D01*
X101075814Y-78411024D01*
X101077477Y-78409913D01*
X101078891Y-78410374D01*
G37*
G36*
X101728891Y-78410374D02*
G01*
X101775944Y-78449697D01*
X101844660Y-78458330D01*
X101907289Y-78428367D01*
X101914800Y-78419697D01*
X101916690Y-78419043D01*
X101918202Y-78420353D01*
X101917975Y-78422118D01*
X101912379Y-78430494D01*
X101901000Y-78487699D01*
X101901000Y-79762301D01*
X101912379Y-79819506D01*
X101924055Y-79836980D01*
X101924186Y-79838976D01*
X101922523Y-79840087D01*
X101921109Y-79839626D01*
X101874056Y-79800303D01*
X101805340Y-79791670D01*
X101742711Y-79821633D01*
X101735200Y-79830303D01*
X101733310Y-79830957D01*
X101731798Y-79829647D01*
X101732025Y-79827882D01*
X101737621Y-79819506D01*
X101749000Y-79762301D01*
X101749000Y-78487699D01*
X101737621Y-78430494D01*
X101725945Y-78413020D01*
X101725814Y-78411024D01*
X101727477Y-78409913D01*
X101728891Y-78410374D01*
G37*
G36*
X97828891Y-78410374D02*
G01*
X97875944Y-78449697D01*
X97944660Y-78458330D01*
X98007289Y-78428367D01*
X98014800Y-78419697D01*
X98016690Y-78419043D01*
X98018202Y-78420353D01*
X98017975Y-78422118D01*
X98012379Y-78430494D01*
X98001000Y-78487699D01*
X98001000Y-79762301D01*
X98012379Y-79819506D01*
X98024055Y-79836980D01*
X98024186Y-79838976D01*
X98022523Y-79840087D01*
X98021109Y-79839626D01*
X97974056Y-79800303D01*
X97905340Y-79791670D01*
X97842711Y-79821633D01*
X97835200Y-79830303D01*
X97833310Y-79830957D01*
X97831798Y-79829647D01*
X97832025Y-79827882D01*
X97837621Y-79819506D01*
X97849000Y-79762301D01*
X97849000Y-78487699D01*
X97837621Y-78430494D01*
X97825945Y-78413020D01*
X97825814Y-78411024D01*
X97827477Y-78409913D01*
X97828891Y-78410374D01*
G37*
G36*
X100428891Y-78410374D02*
G01*
X100475944Y-78449697D01*
X100544660Y-78458330D01*
X100607289Y-78428367D01*
X100614800Y-78419697D01*
X100616690Y-78419043D01*
X100618202Y-78420353D01*
X100617975Y-78422118D01*
X100612379Y-78430494D01*
X100601000Y-78487699D01*
X100601000Y-79762301D01*
X100612379Y-79819506D01*
X100624055Y-79836980D01*
X100624186Y-79838976D01*
X100622523Y-79840087D01*
X100621109Y-79839626D01*
X100574056Y-79800303D01*
X100505340Y-79791670D01*
X100442711Y-79821633D01*
X100435200Y-79830303D01*
X100433310Y-79830957D01*
X100431798Y-79829647D01*
X100432025Y-79827882D01*
X100437621Y-79819506D01*
X100449000Y-79762301D01*
X100449000Y-78487699D01*
X100437621Y-78430494D01*
X100425945Y-78413020D01*
X100425814Y-78411024D01*
X100427477Y-78409913D01*
X100428891Y-78410374D01*
G37*
M02*
