%TF.GenerationSoftware,KiCad,Pcbnew,(6.0.1)*%
%TF.CreationDate,2022-04-29T11:40:25-05:00*%
%TF.ProjectId,Power_KiCAD_Project,506f7765-725f-44b6-9943-41445f50726f,rev?*%
%TF.SameCoordinates,Original*%
%TF.FileFunction,Profile,NP*%
%FSLAX46Y46*%
G04 Gerber Fmt 4.6, Leading zero omitted, Abs format (unit mm)*
G04 Created by KiCad (PCBNEW (6.0.1)) date 2022-04-29 11:40:25*
%MOMM*%
%LPD*%
G01*
G04 APERTURE LIST*
%TA.AperFunction,Profile*%
%ADD10C,0.050000*%
%TD*%
%TA.AperFunction,Profile*%
%ADD11C,0.100000*%
%TD*%
G04 APERTURE END LIST*
D10*
X124500000Y-98500000D02*
G75*
G03*
X124500000Y-98500000I-8000000J0D01*
G01*
X90000000Y-51775000D02*
G75*
G03*
X80000000Y-61775000I-1J-9999999D01*
G01*
D11*
X80000000Y-135025000D02*
X80000000Y-61775000D01*
X160000000Y-61775000D02*
X160000000Y-135025000D01*
D10*
X160000000Y-61775000D02*
G75*
G03*
X150000000Y-51775000I-9999999J1D01*
G01*
D11*
X90000000Y-51775000D02*
X150000000Y-51775000D01*
D10*
X80000000Y-135025000D02*
G75*
G03*
X90000000Y-145025000I9999999J-1D01*
G01*
D11*
X150000000Y-145025000D02*
X90000000Y-145025000D01*
D10*
X150000000Y-145025000D02*
G75*
G03*
X160000000Y-135025000I1J9999999D01*
G01*
X81666666Y-51750000D02*
G75*
G03*
X81666666Y-51750000I-1666666J0D01*
G01*
X77500000Y-51750000D02*
X82500000Y-51750000D01*
X80000000Y-49250000D02*
X80000000Y-54250000D01*
X161666666Y-51750000D02*
G75*
G03*
X161666666Y-51750000I-1666666J0D01*
G01*
X157500000Y-51750000D02*
X162500000Y-51750000D01*
X160000000Y-49250000D02*
X160000000Y-54250000D01*
X83666666Y-54725000D02*
G75*
G03*
X83666666Y-54725000I-666666J0D01*
G01*
X82000000Y-54725000D02*
X84000000Y-54725000D01*
X83000000Y-53725000D02*
X83000000Y-55725000D01*
X118166666Y-98500000D02*
G75*
G03*
X118166666Y-98500000I-1666666J0D01*
G01*
X114000000Y-98500000D02*
X119000000Y-98500000D01*
X116500000Y-96000000D02*
X116500000Y-101000000D01*
X161666666Y-145000000D02*
G75*
G03*
X161666666Y-145000000I-1666666J0D01*
G01*
X157500000Y-145000000D02*
X162500000Y-145000000D01*
X160000000Y-142500000D02*
X160000000Y-147500000D01*
X81666666Y-145000000D02*
G75*
G03*
X81666666Y-145000000I-1666666J0D01*
G01*
X77500000Y-145000000D02*
X82500000Y-145000000D01*
X80000000Y-142500000D02*
X80000000Y-147500000D01*
M02*
