%TF.GenerationSoftware,KiCad,Pcbnew,(6.0.1)*%
%TF.CreationDate,2022-04-29T11:40:25-05:00*%
%TF.ProjectId,Power_KiCAD_Project,506f7765-725f-44b6-9943-41445f50726f,rev?*%
%TF.SameCoordinates,Original*%
%TF.FileFunction,Legend,Top*%
%TF.FilePolarity,Positive*%
%FSLAX46Y46*%
G04 Gerber Fmt 4.6, Leading zero omitted, Abs format (unit mm)*
G04 Created by KiCad (PCBNEW (6.0.1)) date 2022-04-29 11:40:25*
%MOMM*%
%LPD*%
G01*
G04 APERTURE LIST*
G04 Aperture macros list*
%AMRoundRect*
0 Rectangle with rounded corners*
0 $1 Rounding radius*
0 $2 $3 $4 $5 $6 $7 $8 $9 X,Y pos of 4 corners*
0 Add a 4 corners polygon primitive as box body*
4,1,4,$2,$3,$4,$5,$6,$7,$8,$9,$2,$3,0*
0 Add four circle primitives for the rounded corners*
1,1,$1+$1,$2,$3*
1,1,$1+$1,$4,$5*
1,1,$1+$1,$6,$7*
1,1,$1+$1,$8,$9*
0 Add four rect primitives between the rounded corners*
20,1,$1+$1,$2,$3,$4,$5,0*
20,1,$1+$1,$4,$5,$6,$7,0*
20,1,$1+$1,$6,$7,$8,$9,0*
20,1,$1+$1,$8,$9,$2,$3,0*%
%AMFreePoly0*
4,1,43,1.580355,1.210355,1.595000,1.175000,1.595000,0.775000,1.580355,0.739645,1.545000,0.725000,0.975000,0.725000,0.975000,0.575000,1.545000,0.575000,1.580355,0.560355,1.595000,0.525000,1.595000,0.125000,1.580355,0.089645,1.545000,0.075000,0.975000,0.075000,0.975000,-0.075000,1.545000,-0.075000,1.580355,-0.089645,1.595000,-0.125000,1.595000,-0.525000,1.580355,-0.560355,
1.545000,-0.575000,0.975000,-0.575000,0.975000,-0.725000,1.545000,-0.725000,1.580355,-0.739645,1.595000,-0.775000,1.595000,-1.175000,1.580355,-1.210355,1.545000,-1.225000,0.925000,-1.225000,0.889645,-1.210355,0.875000,-1.175000,-0.925000,-1.175000,-0.960355,-1.160355,-0.975000,-1.125000,-0.975000,1.125000,-0.960355,1.160355,-0.925000,1.175000,0.875000,1.175000,0.889645,1.210355,
0.925000,1.225000,1.545000,1.225000,1.580355,1.210355,1.580355,1.210355,$1*%
G04 Aperture macros list end*
%ADD10C,1.000000*%
%ADD11C,0.050000*%
%ADD12C,0.100000*%
%ADD13C,0.120000*%
%ADD14C,0.150000*%
%ADD15C,0.254000*%
%ADD16C,0.125000*%
%ADD17C,0.187500*%
%ADD18C,0.200000*%
%ADD19C,0.127000*%
%ADD20C,0.300000*%
%ADD21C,0.400000*%
%ADD22RoundRect,0.051000X-0.825000X0.825000X-0.825000X-0.825000X0.825000X-0.825000X0.825000X0.825000X0*%
%ADD23C,1.752000*%
%ADD24C,4.902000*%
%ADD25RoundRect,0.288500X-0.237500X0.300000X-0.237500X-0.300000X0.237500X-0.300000X0.237500X0.300000X0*%
%ADD26RoundRect,0.288500X-0.300000X-0.237500X0.300000X-0.237500X0.300000X0.237500X-0.300000X0.237500X0*%
%ADD27RoundRect,0.051000X2.075000X-0.950000X2.075000X0.950000X-2.075000X0.950000X-2.075000X-0.950000X0*%
%ADD28RoundRect,0.051000X0.510000X0.735000X-0.510000X0.735000X-0.510000X-0.735000X0.510000X-0.735000X0*%
%ADD29RoundRect,0.288500X0.237500X-0.300000X0.237500X0.300000X-0.237500X0.300000X-0.237500X-0.300000X0*%
%ADD30RoundRect,0.288500X-0.237500X0.287500X-0.237500X-0.287500X0.237500X-0.287500X0.237500X0.287500X0*%
%ADD31RoundRect,0.051000X1.100000X0.600000X-1.100000X0.600000X-1.100000X-0.600000X1.100000X-0.600000X0*%
%ADD32RoundRect,0.051000X3.200000X2.900000X-3.200000X2.900000X-3.200000X-2.900000X3.200000X-2.900000X0*%
%ADD33RoundRect,0.051000X0.600000X-0.450000X0.600000X0.450000X-0.600000X0.450000X-0.600000X-0.450000X0*%
%ADD34RoundRect,0.269750X0.256250X-0.218750X0.256250X0.218750X-0.256250X0.218750X-0.256250X-0.218750X0*%
%ADD35RoundRect,0.050000X-0.415000X-0.200000X0.415000X-0.200000X0.415000X0.200000X-0.415000X0.200000X0*%
%ADD36FreePoly0,0.000000*%
%ADD37RoundRect,0.051000X0.400000X-0.450000X0.400000X0.450000X-0.400000X0.450000X-0.400000X-0.450000X0*%
%ADD38RoundRect,0.050000X0.415000X0.200000X-0.415000X0.200000X-0.415000X-0.200000X0.415000X-0.200000X0*%
%ADD39FreePoly0,180.000000*%
%ADD40RoundRect,0.288500X-0.287500X-0.237500X0.287500X-0.237500X0.287500X0.237500X-0.287500X0.237500X0*%
%ADD41RoundRect,0.051000X-0.400000X2.300000X-0.400000X-2.300000X0.400000X-2.300000X0.400000X2.300000X0*%
%ADD42RoundRect,0.051000X-5.400000X4.700000X-5.400000X-4.700000X5.400000X-4.700000X5.400000X4.700000X0*%
%ADD43RoundRect,0.126000X0.725000X0.075000X-0.725000X0.075000X-0.725000X-0.075000X0.725000X-0.075000X0*%
%ADD44RoundRect,0.126000X0.075000X0.725000X-0.075000X0.725000X-0.075000X-0.725000X0.075000X-0.725000X0*%
%ADD45RoundRect,0.288500X0.237500X-0.287500X0.237500X0.287500X-0.237500X0.287500X-0.237500X-0.287500X0*%
%ADD46RoundRect,0.051000X-2.758000X2.758000X-2.758000X-2.758000X2.758000X-2.758000X2.758000X2.758000X0*%
%ADD47C,5.618000*%
%ADD48RoundRect,0.301001X-0.624999X0.462499X-0.624999X-0.462499X0.624999X-0.462499X0.624999X0.462499X0*%
%ADD49C,1.302000*%
%ADD50RoundRect,0.301001X0.624999X-0.462499X0.624999X0.462499X-0.624999X0.462499X-0.624999X-0.462499X0*%
%ADD51RoundRect,0.051000X1.300000X1.300000X-1.300000X1.300000X-1.300000X-1.300000X1.300000X-1.300000X0*%
%ADD52C,2.702000*%
%ADD53RoundRect,0.301001X0.462499X0.624999X-0.462499X0.624999X-0.462499X-0.624999X0.462499X-0.624999X0*%
%ADD54RoundRect,0.051000X2.758000X-2.758000X2.758000X2.758000X-2.758000X2.758000X-2.758000X-2.758000X0*%
%ADD55RoundRect,0.288500X0.287500X0.237500X-0.287500X0.237500X-0.287500X-0.237500X0.287500X-0.237500X0*%
%ADD56RoundRect,0.151000X0.100000X-0.637500X0.100000X0.637500X-0.100000X0.637500X-0.100000X-0.637500X0*%
%ADD57RoundRect,0.301001X-0.462499X-0.624999X0.462499X-0.624999X0.462499X0.624999X-0.462499X0.624999X0*%
%ADD58RoundRect,0.051000X-0.950000X-2.200000X0.950000X-2.200000X0.950000X2.200000X-0.950000X2.200000X0*%
%ADD59RoundRect,0.051000X2.758000X2.758000X-2.758000X2.758000X-2.758000X-2.758000X2.758000X-2.758000X0*%
%ADD60RoundRect,0.051000X0.950000X2.075000X-0.950000X2.075000X-0.950000X-2.075000X0.950000X-2.075000X0*%
%ADD61RoundRect,0.051000X-0.310000X-0.735000X0.310000X-0.735000X0.310000X0.735000X-0.310000X0.735000X0*%
%ADD62RoundRect,0.051000X-0.600000X1.100000X-0.600000X-1.100000X0.600000X-1.100000X0.600000X1.100000X0*%
%ADD63RoundRect,0.051000X-2.900000X3.200000X-2.900000X-3.200000X2.900000X-3.200000X2.900000X3.200000X0*%
%ADD64RoundRect,0.051000X0.800000X1.750000X-0.800000X1.750000X-0.800000X-1.750000X0.800000X-1.750000X0*%
%ADD65RoundRect,0.051000X-0.735000X0.510000X-0.735000X-0.510000X0.735000X-0.510000X0.735000X0.510000X0*%
%ADD66RoundRect,0.051000X0.735000X-0.310000X0.735000X0.310000X-0.735000X0.310000X-0.735000X-0.310000X0*%
%ADD67RoundRect,0.051000X-1.700000X-1.800000X1.700000X-1.800000X1.700000X1.800000X-1.700000X1.800000X0*%
%ADD68RoundRect,0.051000X-2.300000X-0.400000X2.300000X-0.400000X2.300000X0.400000X-2.300000X0.400000X0*%
%ADD69RoundRect,0.051000X-4.700000X-5.400000X4.700000X-5.400000X4.700000X5.400000X-4.700000X5.400000X0*%
%ADD70RoundRect,0.051000X-0.622300X-0.177800X0.622300X-0.177800X0.622300X0.177800X-0.622300X0.177800X0*%
%ADD71RoundRect,0.051000X0.850000X-0.850000X0.850000X0.850000X-0.850000X0.850000X-0.850000X-0.850000X0*%
%ADD72O,1.802000X1.802000*%
%ADD73RoundRect,0.051000X0.650000X-0.775000X0.650000X0.775000X-0.650000X0.775000X-0.650000X-0.775000X0*%
%ADD74RoundRect,0.051000X1.300000X-0.950000X1.300000X0.950000X-1.300000X0.950000X-1.300000X-0.950000X0*%
%ADD75RoundRect,0.051000X-0.711200X-3.556000X0.711200X-3.556000X0.711200X3.556000X-0.711200X3.556000X0*%
%ADD76RoundRect,0.051000X1.612900X-2.476500X1.612900X2.476500X-1.612900X2.476500X-1.612900X-2.476500X0*%
%ADD77RoundRect,0.051000X-1.050000X0.700000X-1.050000X-0.700000X1.050000X-0.700000X1.050000X0.700000X0*%
G04 APERTURE END LIST*
D10*
X125150000Y-98500000D02*
G75*
G03*
X125150000Y-98500000I-8650000J0D01*
G01*
D11*
X90000000Y-51775000D02*
G75*
G03*
X80000000Y-61775000I-1J-9999999D01*
G01*
D12*
X89858100Y-145039893D02*
X89048100Y-144999893D01*
X89048100Y-144999893D02*
X87768100Y-144809893D01*
X87768100Y-144809893D02*
X86508100Y-144419893D01*
X86508100Y-144419893D02*
X85918100Y-144209893D01*
X85918100Y-144209893D02*
X84668100Y-143549893D01*
X84668100Y-143549893D02*
X83548100Y-142769893D01*
X83548100Y-142769893D02*
X82648100Y-141929893D01*
X82648100Y-141929893D02*
X82018100Y-141189893D01*
X82018100Y-141189893D02*
X81478100Y-140399893D01*
X81478100Y-140399893D02*
X81128100Y-139839893D01*
X81128100Y-139839893D02*
X80748100Y-139009893D01*
X80748100Y-139009893D02*
X80438100Y-138209893D01*
X80438100Y-138209893D02*
X80148101Y-137159893D01*
X80148101Y-137159893D02*
X80048100Y-136559893D01*
X80048100Y-136559893D02*
X79928100Y-135789893D01*
X79928100Y-135789893D02*
X79908100Y-135049954D01*
X79908100Y-135049954D02*
X82908100Y-135019893D01*
X82908100Y-135019893D02*
X82908101Y-135179179D01*
X82908101Y-135179179D02*
X82928100Y-135659892D01*
X82928100Y-135659892D02*
X83028100Y-136429893D01*
X83028100Y-136429893D02*
X83308100Y-137399893D01*
X83308100Y-137399893D02*
X83558100Y-138019893D01*
X83558100Y-138019893D02*
X83878100Y-138619893D01*
X83878100Y-138619893D02*
X84338100Y-139319893D01*
X84338100Y-139319893D02*
X84708100Y-139759893D01*
X84708100Y-139759893D02*
X85298100Y-140339893D01*
X85298100Y-140339893D02*
X86138100Y-140969893D01*
X86138100Y-140969893D02*
X86948100Y-141409893D01*
X86948100Y-141409893D02*
X87728100Y-141719893D01*
X87728100Y-141719893D02*
X88528100Y-141939893D01*
X88528100Y-141939893D02*
X89128100Y-142029894D01*
X89128100Y-142029894D02*
X89883100Y-142069893D01*
X89883100Y-142069893D02*
X89883100Y-145044893D01*
X89883100Y-145044893D02*
X89858099Y-145044893D01*
X89858099Y-145044893D02*
X89858100Y-145039893D01*
G36*
X82908101Y-135179179D02*
G01*
X82928100Y-135659892D01*
X83028100Y-136429893D01*
X83308100Y-137399893D01*
X83558100Y-138019893D01*
X83878100Y-138619893D01*
X84338100Y-139319893D01*
X84708100Y-139759893D01*
X85298100Y-140339893D01*
X86138100Y-140969893D01*
X86948100Y-141409893D01*
X87728100Y-141719893D01*
X88528100Y-141939893D01*
X89128100Y-142029894D01*
X89883100Y-142069893D01*
X89883100Y-145044893D01*
X89858099Y-145044893D01*
X89858100Y-145039893D01*
X89048100Y-144999893D01*
X87768100Y-144809893D01*
X86508100Y-144419893D01*
X85918100Y-144209893D01*
X84668100Y-143549893D01*
X83548100Y-142769893D01*
X82648100Y-141929893D01*
X82018100Y-141189893D01*
X81478100Y-140399893D01*
X81128100Y-139839893D01*
X80748100Y-139009893D01*
X80438100Y-138209893D01*
X80148101Y-137159893D01*
X80048100Y-136559893D01*
X79928100Y-135789893D01*
X79908100Y-135049954D01*
X82908100Y-135019893D01*
X82908101Y-135179179D01*
G37*
X82908101Y-135179179D02*
X82928100Y-135659892D01*
X83028100Y-136429893D01*
X83308100Y-137399893D01*
X83558100Y-138019893D01*
X83878100Y-138619893D01*
X84338100Y-139319893D01*
X84708100Y-139759893D01*
X85298100Y-140339893D01*
X86138100Y-140969893D01*
X86948100Y-141409893D01*
X87728100Y-141719893D01*
X88528100Y-141939893D01*
X89128100Y-142029894D01*
X89883100Y-142069893D01*
X89883100Y-145044893D01*
X89858099Y-145044893D01*
X89858100Y-145039893D01*
X89048100Y-144999893D01*
X87768100Y-144809893D01*
X86508100Y-144419893D01*
X85918100Y-144209893D01*
X84668100Y-143549893D01*
X83548100Y-142769893D01*
X82648100Y-141929893D01*
X82018100Y-141189893D01*
X81478100Y-140399893D01*
X81128100Y-139839893D01*
X80748100Y-139009893D01*
X80438100Y-138209893D01*
X80148101Y-137159893D01*
X80048100Y-136559893D01*
X79928100Y-135789893D01*
X79908100Y-135049954D01*
X82908100Y-135019893D01*
X82908101Y-135179179D01*
D13*
X157000000Y-61775000D02*
G75*
G03*
X150249841Y-54779460I-7000000J0D01*
G01*
D12*
X159908100Y-135059893D02*
X159878100Y-135719893D01*
X159878100Y-135719893D02*
X159808100Y-136419893D01*
X159808100Y-136419893D02*
X159668100Y-137199893D01*
X159668100Y-137199893D02*
X159478100Y-137959893D01*
X159478100Y-137959893D02*
X159208100Y-138709893D01*
X159208100Y-138709893D02*
X158918100Y-139369893D01*
X158918100Y-139369893D02*
X158588100Y-139989893D01*
X158588100Y-139989893D02*
X158158100Y-140709893D01*
X158158100Y-140709893D02*
X157658100Y-141359893D01*
X157658100Y-141359893D02*
X157278100Y-141789893D01*
X157278100Y-141789893D02*
X156788100Y-142299893D01*
X156788100Y-142299893D02*
X156388100Y-142669893D01*
X156388100Y-142669893D02*
X155948100Y-143009893D01*
X155948100Y-143009893D02*
X155498100Y-143339893D01*
X155498100Y-143339893D02*
X154828100Y-143749893D01*
X154828100Y-143749893D02*
X154268100Y-144039893D01*
X154268100Y-144039893D02*
X153768100Y-144279893D01*
X153768100Y-144279893D02*
X153128100Y-144509893D01*
X153128100Y-144509893D02*
X152408100Y-144729893D01*
X152408100Y-144729893D02*
X151908100Y-144849893D01*
X151908100Y-144849893D02*
X151528100Y-144909893D01*
X151528100Y-144909893D02*
X151098100Y-144969893D01*
X151098100Y-144969893D02*
X150578100Y-145009893D01*
X150578100Y-145009893D02*
X150018100Y-145039893D01*
X150018100Y-145039893D02*
X149888100Y-145039893D01*
X149888100Y-145039893D02*
X149998100Y-142049893D01*
X149998100Y-142049893D02*
X150028100Y-142049893D01*
X150028100Y-142049893D02*
X151008100Y-141949893D01*
X151008100Y-141949893D02*
X151868100Y-141769893D01*
X151868100Y-141769893D02*
X152678100Y-141469893D01*
X152678100Y-141469893D02*
X153228100Y-141189893D01*
X153228100Y-141189893D02*
X153808100Y-140859893D01*
X153808100Y-140859893D02*
X154378100Y-140449893D01*
X154378100Y-140449893D02*
X154948100Y-139929893D01*
X154948100Y-139929893D02*
X155548100Y-139219893D01*
X155548100Y-139219893D02*
X155878100Y-138699893D01*
X155878100Y-138699893D02*
X156268100Y-137979893D01*
X156268100Y-137979893D02*
X156448100Y-137559893D01*
X156448100Y-137559893D02*
X156658100Y-136919893D01*
X156658100Y-136919893D02*
X156828100Y-136169893D01*
X156828100Y-136169893D02*
X156898100Y-135709893D01*
X156898100Y-135709893D02*
X156928100Y-134989893D01*
X156928100Y-134989893D02*
X159908100Y-134989893D01*
X159908100Y-134989893D02*
X159908100Y-135059893D01*
G36*
X159908100Y-135059893D02*
G01*
X159878100Y-135719893D01*
X159808100Y-136419893D01*
X159668100Y-137199893D01*
X159478100Y-137959893D01*
X159208100Y-138709893D01*
X158918100Y-139369893D01*
X158588100Y-139989893D01*
X158158100Y-140709893D01*
X157658100Y-141359893D01*
X157278100Y-141789893D01*
X156788100Y-142299893D01*
X156388100Y-142669893D01*
X155948100Y-143009893D01*
X155498100Y-143339893D01*
X154828100Y-143749893D01*
X154268100Y-144039893D01*
X153768100Y-144279893D01*
X153128100Y-144509893D01*
X152408100Y-144729893D01*
X151908100Y-144849893D01*
X151528100Y-144909893D01*
X151098100Y-144969893D01*
X150578100Y-145009893D01*
X150018100Y-145039893D01*
X149888100Y-145039893D01*
X149998100Y-142049893D01*
X150028100Y-142049893D01*
X151008100Y-141949893D01*
X151868100Y-141769893D01*
X152678100Y-141469893D01*
X153228100Y-141189893D01*
X153808100Y-140859893D01*
X154378100Y-140449893D01*
X154948100Y-139929893D01*
X155548100Y-139219893D01*
X155878100Y-138699893D01*
X156268100Y-137979893D01*
X156448100Y-137559893D01*
X156658100Y-136919893D01*
X156828100Y-136169893D01*
X156898100Y-135709893D01*
X156928100Y-134989893D01*
X159908100Y-134989893D01*
X159908100Y-135059893D01*
G37*
X159908100Y-135059893D02*
X159878100Y-135719893D01*
X159808100Y-136419893D01*
X159668100Y-137199893D01*
X159478100Y-137959893D01*
X159208100Y-138709893D01*
X158918100Y-139369893D01*
X158588100Y-139989893D01*
X158158100Y-140709893D01*
X157658100Y-141359893D01*
X157278100Y-141789893D01*
X156788100Y-142299893D01*
X156388100Y-142669893D01*
X155948100Y-143009893D01*
X155498100Y-143339893D01*
X154828100Y-143749893D01*
X154268100Y-144039893D01*
X153768100Y-144279893D01*
X153128100Y-144509893D01*
X152408100Y-144729893D01*
X151908100Y-144849893D01*
X151528100Y-144909893D01*
X151098100Y-144969893D01*
X150578100Y-145009893D01*
X150018100Y-145039893D01*
X149888100Y-145039893D01*
X149998100Y-142049893D01*
X150028100Y-142049893D01*
X151008100Y-141949893D01*
X151868100Y-141769893D01*
X152678100Y-141469893D01*
X153228100Y-141189893D01*
X153808100Y-140859893D01*
X154378100Y-140449893D01*
X154948100Y-139929893D01*
X155548100Y-139219893D01*
X155878100Y-138699893D01*
X156268100Y-137979893D01*
X156448100Y-137559893D01*
X156658100Y-136919893D01*
X156828100Y-136169893D01*
X156898100Y-135709893D01*
X156928100Y-134989893D01*
X159908100Y-134989893D01*
X159908100Y-135059893D01*
X160041900Y-134955107D02*
X157041900Y-134965107D01*
X157041900Y-134965107D02*
X157041900Y-61805107D01*
X157041900Y-61805107D02*
X160041900Y-61805107D01*
X160041900Y-61805107D02*
X160041900Y-134955107D01*
G36*
X160041900Y-134955107D02*
G01*
X157041900Y-134965107D01*
X157041900Y-61805107D01*
X160041900Y-61805107D01*
X160041900Y-134955107D01*
G37*
X160041900Y-134955107D02*
X157041900Y-134965107D01*
X157041900Y-61805107D01*
X160041900Y-61805107D01*
X160041900Y-134955107D01*
X149933100Y-54769893D02*
X89688100Y-54809893D01*
X89688100Y-54809893D02*
X89903039Y-51794893D01*
X89903039Y-51794893D02*
X149933100Y-51794893D01*
X149933100Y-51794893D02*
X149933100Y-54769893D01*
G36*
X149933100Y-54769893D02*
G01*
X89688100Y-54809893D01*
X89903039Y-51794893D01*
X149933100Y-51794893D01*
X149933100Y-54769893D01*
G37*
X149933100Y-54769893D02*
X89688100Y-54809893D01*
X89903039Y-51794893D01*
X149933100Y-51794893D01*
X149933100Y-54769893D01*
X150050000Y-51780000D02*
X150860000Y-51820000D01*
X150860000Y-51820000D02*
X152140000Y-52010000D01*
X152140000Y-52010000D02*
X153400000Y-52400000D01*
X153400000Y-52400000D02*
X153990000Y-52610000D01*
X153990000Y-52610000D02*
X155240000Y-53270000D01*
X155240000Y-53270000D02*
X156360000Y-54050000D01*
X156360000Y-54050000D02*
X157260000Y-54890000D01*
X157260000Y-54890000D02*
X157890000Y-55630000D01*
X157890000Y-55630000D02*
X158430000Y-56420000D01*
X158430000Y-56420000D02*
X158780000Y-56980000D01*
X158780000Y-56980000D02*
X159160000Y-57810000D01*
X159160000Y-57810000D02*
X159470000Y-58610000D01*
X159470000Y-58610000D02*
X159760000Y-59660000D01*
X159760000Y-59660000D02*
X159860000Y-60260000D01*
X159860000Y-60260000D02*
X159980000Y-61030000D01*
X159980000Y-61030000D02*
X160000000Y-61769939D01*
X160000000Y-61769939D02*
X157000000Y-61800000D01*
X157000000Y-61800000D02*
X156999999Y-61640714D01*
X156999999Y-61640714D02*
X156980000Y-61160000D01*
X156980000Y-61160000D02*
X156880000Y-60390000D01*
X156880000Y-60390000D02*
X156600000Y-59420000D01*
X156600000Y-59420000D02*
X156350000Y-58800000D01*
X156350000Y-58800000D02*
X156030000Y-58200000D01*
X156030000Y-58200000D02*
X155570000Y-57500000D01*
X155570000Y-57500000D02*
X155200000Y-57060000D01*
X155200000Y-57060000D02*
X154610000Y-56480000D01*
X154610000Y-56480000D02*
X153770000Y-55850000D01*
X153770000Y-55850000D02*
X152960000Y-55410000D01*
X152960000Y-55410000D02*
X152180000Y-55100000D01*
X152180000Y-55100000D02*
X151380000Y-54880000D01*
X151380000Y-54880000D02*
X150780000Y-54790000D01*
X150780000Y-54790000D02*
X150025000Y-54750000D01*
X150025000Y-54750000D02*
X150025000Y-51775000D01*
X150025000Y-51775000D02*
X150050000Y-51775000D01*
X150050000Y-51775000D02*
X150050000Y-51780000D01*
G36*
X150050000Y-51780000D02*
G01*
X150860000Y-51820000D01*
X152140000Y-52010000D01*
X153400000Y-52400000D01*
X153990000Y-52610000D01*
X155240000Y-53270000D01*
X156360000Y-54050000D01*
X157260000Y-54890000D01*
X157890000Y-55630000D01*
X158430000Y-56420000D01*
X158780000Y-56980000D01*
X159160000Y-57810000D01*
X159470000Y-58610000D01*
X159760000Y-59660000D01*
X159860000Y-60260000D01*
X159980000Y-61030000D01*
X160000000Y-61769939D01*
X157000000Y-61800000D01*
X156999999Y-61640714D01*
X156980000Y-61160000D01*
X156880000Y-60390000D01*
X156600000Y-59420000D01*
X156350000Y-58800000D01*
X156030000Y-58200000D01*
X155570000Y-57500000D01*
X155200000Y-57060000D01*
X154610000Y-56480000D01*
X153770000Y-55850000D01*
X152960000Y-55410000D01*
X152180000Y-55100000D01*
X151380000Y-54880000D01*
X150780000Y-54790000D01*
X150025000Y-54750000D01*
X150025000Y-51775000D01*
X150050000Y-51775000D01*
X150050000Y-51780000D01*
G37*
X150050000Y-51780000D02*
X150860000Y-51820000D01*
X152140000Y-52010000D01*
X153400000Y-52400000D01*
X153990000Y-52610000D01*
X155240000Y-53270000D01*
X156360000Y-54050000D01*
X157260000Y-54890000D01*
X157890000Y-55630000D01*
X158430000Y-56420000D01*
X158780000Y-56980000D01*
X159160000Y-57810000D01*
X159470000Y-58610000D01*
X159760000Y-59660000D01*
X159860000Y-60260000D01*
X159980000Y-61030000D01*
X160000000Y-61769939D01*
X157000000Y-61800000D01*
X156999999Y-61640714D01*
X156980000Y-61160000D01*
X156880000Y-60390000D01*
X156600000Y-59420000D01*
X156350000Y-58800000D01*
X156030000Y-58200000D01*
X155570000Y-57500000D01*
X155200000Y-57060000D01*
X154610000Y-56480000D01*
X153770000Y-55850000D01*
X152960000Y-55410000D01*
X152180000Y-55100000D01*
X151380000Y-54880000D01*
X150780000Y-54790000D01*
X150025000Y-54750000D01*
X150025000Y-51775000D01*
X150050000Y-51775000D01*
X150050000Y-51780000D01*
D13*
X90000000Y-54775000D02*
G75*
G03*
X83000000Y-61775000I2J-7000002D01*
G01*
X150000000Y-142025000D02*
G75*
G03*
X157000000Y-135025000I-2J7000002D01*
G01*
X83000000Y-135025000D02*
G75*
G03*
X89246577Y-141984336I6999999J-1D01*
G01*
D12*
X150000000Y-145030000D02*
X89975000Y-145025000D01*
X89975000Y-145025000D02*
X90000000Y-142060000D01*
X90000000Y-142060000D02*
X150109286Y-142020000D01*
X150109286Y-142020000D02*
X150000000Y-145030000D01*
G36*
X150000000Y-145030000D02*
G01*
X89975000Y-145025000D01*
X90000000Y-142060000D01*
X150109286Y-142020000D01*
X150000000Y-145030000D01*
G37*
X150000000Y-145030000D02*
X89975000Y-145025000D01*
X90000000Y-142060000D01*
X150109286Y-142020000D01*
X150000000Y-145030000D01*
X80046900Y-61730107D02*
X80086900Y-60920107D01*
X80086900Y-60920107D02*
X80276900Y-59640107D01*
X80276900Y-59640107D02*
X80666900Y-58380107D01*
X80666900Y-58380107D02*
X80876900Y-57790107D01*
X80876900Y-57790107D02*
X81536900Y-56540107D01*
X81536900Y-56540107D02*
X82316900Y-55420107D01*
X82316900Y-55420107D02*
X83156900Y-54520107D01*
X83156900Y-54520107D02*
X83896900Y-53890107D01*
X83896900Y-53890107D02*
X84686900Y-53350107D01*
X84686900Y-53350107D02*
X85246900Y-53000107D01*
X85246900Y-53000107D02*
X86076900Y-52620107D01*
X86076900Y-52620107D02*
X86876900Y-52310107D01*
X86876900Y-52310107D02*
X87926900Y-52020108D01*
X87926900Y-52020108D02*
X88526900Y-51920107D01*
X88526900Y-51920107D02*
X89296900Y-51800107D01*
X89296900Y-51800107D02*
X90036839Y-51780107D01*
X90036839Y-51780107D02*
X90066900Y-54780107D01*
X90066900Y-54780107D02*
X89907614Y-54780108D01*
X89907614Y-54780108D02*
X89426901Y-54800107D01*
X89426901Y-54800107D02*
X88656900Y-54900107D01*
X88656900Y-54900107D02*
X87686900Y-55180107D01*
X87686900Y-55180107D02*
X87066900Y-55430107D01*
X87066900Y-55430107D02*
X86466900Y-55750107D01*
X86466900Y-55750107D02*
X85766900Y-56210107D01*
X85766900Y-56210107D02*
X85326900Y-56580107D01*
X85326900Y-56580107D02*
X84746900Y-57170107D01*
X84746900Y-57170107D02*
X84116900Y-58010107D01*
X84116900Y-58010107D02*
X83676900Y-58820107D01*
X83676900Y-58820107D02*
X83366900Y-59600107D01*
X83366900Y-59600107D02*
X83146900Y-60400107D01*
X83146900Y-60400107D02*
X83056899Y-61000107D01*
X83056899Y-61000107D02*
X83016900Y-61755107D01*
X83016900Y-61755107D02*
X80041900Y-61755107D01*
X80041900Y-61755107D02*
X80041900Y-61730106D01*
X80041900Y-61730106D02*
X80046900Y-61730107D01*
G36*
X90066900Y-54780107D02*
G01*
X89907614Y-54780108D01*
X89426901Y-54800107D01*
X88656900Y-54900107D01*
X87686900Y-55180107D01*
X87066900Y-55430107D01*
X86466900Y-55750107D01*
X85766900Y-56210107D01*
X85326900Y-56580107D01*
X84746900Y-57170107D01*
X84116900Y-58010107D01*
X83676900Y-58820107D01*
X83366900Y-59600107D01*
X83146900Y-60400107D01*
X83056899Y-61000107D01*
X83016900Y-61755107D01*
X80041900Y-61755107D01*
X80041900Y-61730106D01*
X80046900Y-61730107D01*
X80086900Y-60920107D01*
X80276900Y-59640107D01*
X80666900Y-58380107D01*
X80876900Y-57790107D01*
X81536900Y-56540107D01*
X82316900Y-55420107D01*
X83156900Y-54520107D01*
X83896900Y-53890107D01*
X84686900Y-53350107D01*
X85246900Y-53000107D01*
X86076900Y-52620107D01*
X86876900Y-52310107D01*
X87926900Y-52020108D01*
X88526900Y-51920107D01*
X89296900Y-51800107D01*
X90036839Y-51780107D01*
X90066900Y-54780107D01*
G37*
X90066900Y-54780107D02*
X89907614Y-54780108D01*
X89426901Y-54800107D01*
X88656900Y-54900107D01*
X87686900Y-55180107D01*
X87066900Y-55430107D01*
X86466900Y-55750107D01*
X85766900Y-56210107D01*
X85326900Y-56580107D01*
X84746900Y-57170107D01*
X84116900Y-58010107D01*
X83676900Y-58820107D01*
X83366900Y-59600107D01*
X83146900Y-60400107D01*
X83056899Y-61000107D01*
X83016900Y-61755107D01*
X80041900Y-61755107D01*
X80041900Y-61730106D01*
X80046900Y-61730107D01*
X80086900Y-60920107D01*
X80276900Y-59640107D01*
X80666900Y-58380107D01*
X80876900Y-57790107D01*
X81536900Y-56540107D01*
X82316900Y-55420107D01*
X83156900Y-54520107D01*
X83896900Y-53890107D01*
X84686900Y-53350107D01*
X85246900Y-53000107D01*
X86076900Y-52620107D01*
X86876900Y-52310107D01*
X87926900Y-52020108D01*
X88526900Y-51920107D01*
X89296900Y-51800107D01*
X90036839Y-51780107D01*
X90066900Y-54780107D01*
D14*
X144494761Y-71053571D02*
X144828095Y-71053571D01*
X144970952Y-71577380D02*
X144494761Y-71577380D01*
X144494761Y-70577380D01*
X144970952Y-70577380D01*
X145304285Y-71577380D02*
X145828095Y-70910714D01*
X145304285Y-70910714D02*
X145828095Y-71577380D01*
X146066190Y-70910714D02*
X146447142Y-70910714D01*
X146209047Y-70577380D02*
X146209047Y-71434523D01*
X146256666Y-71529761D01*
X146351904Y-71577380D01*
X146447142Y-71577380D01*
X147161428Y-71529761D02*
X147066190Y-71577380D01*
X146875714Y-71577380D01*
X146780476Y-71529761D01*
X146732857Y-71434523D01*
X146732857Y-71053571D01*
X146780476Y-70958333D01*
X146875714Y-70910714D01*
X147066190Y-70910714D01*
X147161428Y-70958333D01*
X147209047Y-71053571D01*
X147209047Y-71148809D01*
X146732857Y-71244047D01*
X147637619Y-71577380D02*
X147637619Y-70910714D01*
X147637619Y-71101190D02*
X147685238Y-71005952D01*
X147732857Y-70958333D01*
X147828095Y-70910714D01*
X147923333Y-70910714D01*
X148256666Y-70910714D02*
X148256666Y-71577380D01*
X148256666Y-71005952D02*
X148304285Y-70958333D01*
X148399523Y-70910714D01*
X148542380Y-70910714D01*
X148637619Y-70958333D01*
X148685238Y-71053571D01*
X148685238Y-71577380D01*
X149590000Y-71577380D02*
X149590000Y-71053571D01*
X149542380Y-70958333D01*
X149447142Y-70910714D01*
X149256666Y-70910714D01*
X149161428Y-70958333D01*
X149590000Y-71529761D02*
X149494761Y-71577380D01*
X149256666Y-71577380D01*
X149161428Y-71529761D01*
X149113809Y-71434523D01*
X149113809Y-71339285D01*
X149161428Y-71244047D01*
X149256666Y-71196428D01*
X149494761Y-71196428D01*
X149590000Y-71148809D01*
X150209047Y-71577380D02*
X150113809Y-71529761D01*
X150066190Y-71434523D01*
X150066190Y-70577380D01*
X151304285Y-71529761D02*
X151447142Y-71577380D01*
X151685238Y-71577380D01*
X151780476Y-71529761D01*
X151828095Y-71482142D01*
X151875714Y-71386904D01*
X151875714Y-71291666D01*
X151828095Y-71196428D01*
X151780476Y-71148809D01*
X151685238Y-71101190D01*
X151494761Y-71053571D01*
X151399523Y-71005952D01*
X151351904Y-70958333D01*
X151304285Y-70863095D01*
X151304285Y-70767857D01*
X151351904Y-70672619D01*
X151399523Y-70625000D01*
X151494761Y-70577380D01*
X151732857Y-70577380D01*
X151875714Y-70625000D01*
X152209047Y-70910714D02*
X152399523Y-71577380D01*
X152590000Y-71101190D01*
X152780476Y-71577380D01*
X152970952Y-70910714D01*
X153351904Y-71577380D02*
X153351904Y-70910714D01*
X153351904Y-70577380D02*
X153304285Y-70625000D01*
X153351904Y-70672619D01*
X153399523Y-70625000D01*
X153351904Y-70577380D01*
X153351904Y-70672619D01*
X153685238Y-70910714D02*
X154066190Y-70910714D01*
X153828095Y-70577380D02*
X153828095Y-71434523D01*
X153875714Y-71529761D01*
X153970952Y-71577380D01*
X154066190Y-71577380D01*
X154828095Y-71529761D02*
X154732857Y-71577380D01*
X154542380Y-71577380D01*
X154447142Y-71529761D01*
X154399523Y-71482142D01*
X154351904Y-71386904D01*
X154351904Y-71101190D01*
X154399523Y-71005952D01*
X154447142Y-70958333D01*
X154542380Y-70910714D01*
X154732857Y-70910714D01*
X154828095Y-70958333D01*
X155256666Y-71577380D02*
X155256666Y-70577380D01*
X155685238Y-71577380D02*
X155685238Y-71053571D01*
X155637619Y-70958333D01*
X155542380Y-70910714D01*
X155399523Y-70910714D01*
X155304285Y-70958333D01*
X155256666Y-71005952D01*
X144494761Y-80893571D02*
X144828095Y-80893571D01*
X144970952Y-81417380D02*
X144494761Y-81417380D01*
X144494761Y-80417380D01*
X144970952Y-80417380D01*
X145304285Y-81417380D02*
X145828095Y-80750714D01*
X145304285Y-80750714D02*
X145828095Y-81417380D01*
X146066190Y-80750714D02*
X146447142Y-80750714D01*
X146209047Y-80417380D02*
X146209047Y-81274523D01*
X146256666Y-81369761D01*
X146351904Y-81417380D01*
X146447142Y-81417380D01*
X147161428Y-81369761D02*
X147066190Y-81417380D01*
X146875714Y-81417380D01*
X146780476Y-81369761D01*
X146732857Y-81274523D01*
X146732857Y-80893571D01*
X146780476Y-80798333D01*
X146875714Y-80750714D01*
X147066190Y-80750714D01*
X147161428Y-80798333D01*
X147209047Y-80893571D01*
X147209047Y-80988809D01*
X146732857Y-81084047D01*
X147637619Y-81417380D02*
X147637619Y-80750714D01*
X147637619Y-80941190D02*
X147685238Y-80845952D01*
X147732857Y-80798333D01*
X147828095Y-80750714D01*
X147923333Y-80750714D01*
X148256666Y-80750714D02*
X148256666Y-81417380D01*
X148256666Y-80845952D02*
X148304285Y-80798333D01*
X148399523Y-80750714D01*
X148542380Y-80750714D01*
X148637619Y-80798333D01*
X148685238Y-80893571D01*
X148685238Y-81417380D01*
X149590000Y-81417380D02*
X149590000Y-80893571D01*
X149542380Y-80798333D01*
X149447142Y-80750714D01*
X149256666Y-80750714D01*
X149161428Y-80798333D01*
X149590000Y-81369761D02*
X149494761Y-81417380D01*
X149256666Y-81417380D01*
X149161428Y-81369761D01*
X149113809Y-81274523D01*
X149113809Y-81179285D01*
X149161428Y-81084047D01*
X149256666Y-81036428D01*
X149494761Y-81036428D01*
X149590000Y-80988809D01*
X150209047Y-81417380D02*
X150113809Y-81369761D01*
X150066190Y-81274523D01*
X150066190Y-80417380D01*
X151304285Y-81369761D02*
X151447142Y-81417380D01*
X151685238Y-81417380D01*
X151780476Y-81369761D01*
X151828095Y-81322142D01*
X151875714Y-81226904D01*
X151875714Y-81131666D01*
X151828095Y-81036428D01*
X151780476Y-80988809D01*
X151685238Y-80941190D01*
X151494761Y-80893571D01*
X151399523Y-80845952D01*
X151351904Y-80798333D01*
X151304285Y-80703095D01*
X151304285Y-80607857D01*
X151351904Y-80512619D01*
X151399523Y-80465000D01*
X151494761Y-80417380D01*
X151732857Y-80417380D01*
X151875714Y-80465000D01*
X152209047Y-80750714D02*
X152399523Y-81417380D01*
X152590000Y-80941190D01*
X152780476Y-81417380D01*
X152970952Y-80750714D01*
X153351904Y-81417380D02*
X153351904Y-80750714D01*
X153351904Y-80417380D02*
X153304285Y-80465000D01*
X153351904Y-80512619D01*
X153399523Y-80465000D01*
X153351904Y-80417380D01*
X153351904Y-80512619D01*
X153685238Y-80750714D02*
X154066190Y-80750714D01*
X153828095Y-80417380D02*
X153828095Y-81274523D01*
X153875714Y-81369761D01*
X153970952Y-81417380D01*
X154066190Y-81417380D01*
X154828095Y-81369761D02*
X154732857Y-81417380D01*
X154542380Y-81417380D01*
X154447142Y-81369761D01*
X154399523Y-81322142D01*
X154351904Y-81226904D01*
X154351904Y-80941190D01*
X154399523Y-80845952D01*
X154447142Y-80798333D01*
X154542380Y-80750714D01*
X154732857Y-80750714D01*
X154828095Y-80798333D01*
X155256666Y-81417380D02*
X155256666Y-80417380D01*
X155685238Y-81417380D02*
X155685238Y-80893571D01*
X155637619Y-80798333D01*
X155542380Y-80750714D01*
X155399523Y-80750714D01*
X155304285Y-80798333D01*
X155256666Y-80845952D01*
D15*
%TO.C,J8*%
X83764523Y-99003333D02*
X84671666Y-99003333D01*
X84853095Y-99063809D01*
X84974047Y-99184761D01*
X85034523Y-99366190D01*
X85034523Y-99487142D01*
X84308809Y-98217142D02*
X84248333Y-98338095D01*
X84187857Y-98398571D01*
X84066904Y-98459047D01*
X84006428Y-98459047D01*
X83885476Y-98398571D01*
X83825000Y-98338095D01*
X83764523Y-98217142D01*
X83764523Y-97975238D01*
X83825000Y-97854285D01*
X83885476Y-97793809D01*
X84006428Y-97733333D01*
X84066904Y-97733333D01*
X84187857Y-97793809D01*
X84248333Y-97854285D01*
X84308809Y-97975238D01*
X84308809Y-98217142D01*
X84369285Y-98338095D01*
X84429761Y-98398571D01*
X84550714Y-98459047D01*
X84792619Y-98459047D01*
X84913571Y-98398571D01*
X84974047Y-98338095D01*
X85034523Y-98217142D01*
X85034523Y-97975238D01*
X84974047Y-97854285D01*
X84913571Y-97793809D01*
X84792619Y-97733333D01*
X84550714Y-97733333D01*
X84429761Y-97793809D01*
X84369285Y-97854285D01*
X84308809Y-97975238D01*
D14*
%TO.C,C1*%
X106450000Y-132192857D02*
X106414285Y-132228571D01*
X106307142Y-132264285D01*
X106235714Y-132264285D01*
X106128571Y-132228571D01*
X106057142Y-132157142D01*
X106021428Y-132085714D01*
X105985714Y-131942857D01*
X105985714Y-131835714D01*
X106021428Y-131692857D01*
X106057142Y-131621428D01*
X106128571Y-131550000D01*
X106235714Y-131514285D01*
X106307142Y-131514285D01*
X106414285Y-131550000D01*
X106450000Y-131585714D01*
X107164285Y-132264285D02*
X106735714Y-132264285D01*
X106950000Y-132264285D02*
X106950000Y-131514285D01*
X106878571Y-131621428D01*
X106807142Y-131692857D01*
X106735714Y-131728571D01*
%TO.C,C2*%
X140050000Y-83892857D02*
X140014285Y-83928571D01*
X139907142Y-83964285D01*
X139835714Y-83964285D01*
X139728571Y-83928571D01*
X139657142Y-83857142D01*
X139621428Y-83785714D01*
X139585714Y-83642857D01*
X139585714Y-83535714D01*
X139621428Y-83392857D01*
X139657142Y-83321428D01*
X139728571Y-83250000D01*
X139835714Y-83214285D01*
X139907142Y-83214285D01*
X140014285Y-83250000D01*
X140050000Y-83285714D01*
X140335714Y-83285714D02*
X140371428Y-83250000D01*
X140442857Y-83214285D01*
X140621428Y-83214285D01*
X140692857Y-83250000D01*
X140728571Y-83285714D01*
X140764285Y-83357142D01*
X140764285Y-83428571D01*
X140728571Y-83535714D01*
X140300000Y-83964285D01*
X140764285Y-83964285D01*
D15*
%TO.C,C3*%
X147088333Y-111078571D02*
X147027857Y-111139047D01*
X146846428Y-111199523D01*
X146725476Y-111199523D01*
X146544047Y-111139047D01*
X146423095Y-111018095D01*
X146362619Y-110897142D01*
X146302142Y-110655238D01*
X146302142Y-110473809D01*
X146362619Y-110231904D01*
X146423095Y-110110952D01*
X146544047Y-109990000D01*
X146725476Y-109929523D01*
X146846428Y-109929523D01*
X147027857Y-109990000D01*
X147088333Y-110050476D01*
X147511666Y-109929523D02*
X148297857Y-109929523D01*
X147874523Y-110413333D01*
X148055952Y-110413333D01*
X148176904Y-110473809D01*
X148237380Y-110534285D01*
X148297857Y-110655238D01*
X148297857Y-110957619D01*
X148237380Y-111078571D01*
X148176904Y-111139047D01*
X148055952Y-111199523D01*
X147693095Y-111199523D01*
X147572142Y-111139047D01*
X147511666Y-111078571D01*
%TO.C,C5*%
X135738333Y-117528571D02*
X135677857Y-117589047D01*
X135496428Y-117649523D01*
X135375476Y-117649523D01*
X135194047Y-117589047D01*
X135073095Y-117468095D01*
X135012619Y-117347142D01*
X134952142Y-117105238D01*
X134952142Y-116923809D01*
X135012619Y-116681904D01*
X135073095Y-116560952D01*
X135194047Y-116440000D01*
X135375476Y-116379523D01*
X135496428Y-116379523D01*
X135677857Y-116440000D01*
X135738333Y-116500476D01*
X136887380Y-116379523D02*
X136282619Y-116379523D01*
X136222142Y-116984285D01*
X136282619Y-116923809D01*
X136403571Y-116863333D01*
X136705952Y-116863333D01*
X136826904Y-116923809D01*
X136887380Y-116984285D01*
X136947857Y-117105238D01*
X136947857Y-117407619D01*
X136887380Y-117528571D01*
X136826904Y-117589047D01*
X136705952Y-117649523D01*
X136403571Y-117649523D01*
X136282619Y-117589047D01*
X136222142Y-117528571D01*
D14*
%TO.C,C17*%
X98367857Y-93457142D02*
X98403571Y-93492857D01*
X98439285Y-93600000D01*
X98439285Y-93671428D01*
X98403571Y-93778571D01*
X98332142Y-93850000D01*
X98260714Y-93885714D01*
X98117857Y-93921428D01*
X98010714Y-93921428D01*
X97867857Y-93885714D01*
X97796428Y-93850000D01*
X97725000Y-93778571D01*
X97689285Y-93671428D01*
X97689285Y-93600000D01*
X97725000Y-93492857D01*
X97760714Y-93457142D01*
X98439285Y-92742857D02*
X98439285Y-93171428D01*
X98439285Y-92957142D02*
X97689285Y-92957142D01*
X97796428Y-93028571D01*
X97867857Y-93100000D01*
X97903571Y-93171428D01*
X97689285Y-92492857D02*
X97689285Y-91992857D01*
X98439285Y-92314285D01*
%TO.C,C18*%
X119052857Y-77907142D02*
X119088571Y-77942857D01*
X119124285Y-78050000D01*
X119124285Y-78121428D01*
X119088571Y-78228571D01*
X119017142Y-78300000D01*
X118945714Y-78335714D01*
X118802857Y-78371428D01*
X118695714Y-78371428D01*
X118552857Y-78335714D01*
X118481428Y-78300000D01*
X118410000Y-78228571D01*
X118374285Y-78121428D01*
X118374285Y-78050000D01*
X118410000Y-77942857D01*
X118445714Y-77907142D01*
X119124285Y-77192857D02*
X119124285Y-77621428D01*
X119124285Y-77407142D02*
X118374285Y-77407142D01*
X118481428Y-77478571D01*
X118552857Y-77550000D01*
X118588571Y-77621428D01*
X118695714Y-76764285D02*
X118660000Y-76835714D01*
X118624285Y-76871428D01*
X118552857Y-76907142D01*
X118517142Y-76907142D01*
X118445714Y-76871428D01*
X118410000Y-76835714D01*
X118374285Y-76764285D01*
X118374285Y-76621428D01*
X118410000Y-76550000D01*
X118445714Y-76514285D01*
X118517142Y-76478571D01*
X118552857Y-76478571D01*
X118624285Y-76514285D01*
X118660000Y-76550000D01*
X118695714Y-76621428D01*
X118695714Y-76764285D01*
X118731428Y-76835714D01*
X118767142Y-76871428D01*
X118838571Y-76907142D01*
X118981428Y-76907142D01*
X119052857Y-76871428D01*
X119088571Y-76835714D01*
X119124285Y-76764285D01*
X119124285Y-76621428D01*
X119088571Y-76550000D01*
X119052857Y-76514285D01*
X118981428Y-76478571D01*
X118838571Y-76478571D01*
X118767142Y-76514285D01*
X118731428Y-76550000D01*
X118695714Y-76621428D01*
%TO.C,C23*%
X96617857Y-89767142D02*
X96653571Y-89802857D01*
X96689285Y-89910000D01*
X96689285Y-89981428D01*
X96653571Y-90088571D01*
X96582142Y-90160000D01*
X96510714Y-90195714D01*
X96367857Y-90231428D01*
X96260714Y-90231428D01*
X96117857Y-90195714D01*
X96046428Y-90160000D01*
X95975000Y-90088571D01*
X95939285Y-89981428D01*
X95939285Y-89910000D01*
X95975000Y-89802857D01*
X96010714Y-89767142D01*
X96010714Y-89481428D02*
X95975000Y-89445714D01*
X95939285Y-89374285D01*
X95939285Y-89195714D01*
X95975000Y-89124285D01*
X96010714Y-89088571D01*
X96082142Y-89052857D01*
X96153571Y-89052857D01*
X96260714Y-89088571D01*
X96689285Y-89517142D01*
X96689285Y-89052857D01*
X95939285Y-88802857D02*
X95939285Y-88338571D01*
X96225000Y-88588571D01*
X96225000Y-88481428D01*
X96260714Y-88410000D01*
X96296428Y-88374285D01*
X96367857Y-88338571D01*
X96546428Y-88338571D01*
X96617857Y-88374285D01*
X96653571Y-88410000D01*
X96689285Y-88481428D01*
X96689285Y-88695714D01*
X96653571Y-88767142D01*
X96617857Y-88802857D01*
D16*
%TO.C,C26*%
X114453571Y-127053571D02*
X114429761Y-127077380D01*
X114358333Y-127101190D01*
X114310714Y-127101190D01*
X114239285Y-127077380D01*
X114191666Y-127029761D01*
X114167857Y-126982142D01*
X114144047Y-126886904D01*
X114144047Y-126815476D01*
X114167857Y-126720238D01*
X114191666Y-126672619D01*
X114239285Y-126625000D01*
X114310714Y-126601190D01*
X114358333Y-126601190D01*
X114429761Y-126625000D01*
X114453571Y-126648809D01*
X114644047Y-126648809D02*
X114667857Y-126625000D01*
X114715476Y-126601190D01*
X114834523Y-126601190D01*
X114882142Y-126625000D01*
X114905952Y-126648809D01*
X114929761Y-126696428D01*
X114929761Y-126744047D01*
X114905952Y-126815476D01*
X114620238Y-127101190D01*
X114929761Y-127101190D01*
X115358333Y-126601190D02*
X115263095Y-126601190D01*
X115215476Y-126625000D01*
X115191666Y-126648809D01*
X115144047Y-126720238D01*
X115120238Y-126815476D01*
X115120238Y-127005952D01*
X115144047Y-127053571D01*
X115167857Y-127077380D01*
X115215476Y-127101190D01*
X115310714Y-127101190D01*
X115358333Y-127077380D01*
X115382142Y-127053571D01*
X115405952Y-127005952D01*
X115405952Y-126886904D01*
X115382142Y-126839285D01*
X115358333Y-126815476D01*
X115310714Y-126791666D01*
X115215476Y-126791666D01*
X115167857Y-126815476D01*
X115144047Y-126839285D01*
X115120238Y-126886904D01*
D14*
%TO.C,C28*%
X96867857Y-111544641D02*
X96903571Y-111580356D01*
X96939285Y-111687499D01*
X96939285Y-111758927D01*
X96903571Y-111866070D01*
X96832142Y-111937499D01*
X96760714Y-111973213D01*
X96617857Y-112008927D01*
X96510714Y-112008927D01*
X96367857Y-111973213D01*
X96296428Y-111937499D01*
X96225000Y-111866070D01*
X96189285Y-111758927D01*
X96189285Y-111687499D01*
X96225000Y-111580356D01*
X96260714Y-111544641D01*
X96260714Y-111258927D02*
X96225000Y-111223213D01*
X96189285Y-111151784D01*
X96189285Y-110973213D01*
X96225000Y-110901784D01*
X96260714Y-110866070D01*
X96332142Y-110830356D01*
X96403571Y-110830356D01*
X96510714Y-110866070D01*
X96939285Y-111294641D01*
X96939285Y-110830356D01*
X96510714Y-110401784D02*
X96475000Y-110473213D01*
X96439285Y-110508927D01*
X96367857Y-110544641D01*
X96332142Y-110544641D01*
X96260714Y-110508927D01*
X96225000Y-110473213D01*
X96189285Y-110401784D01*
X96189285Y-110258927D01*
X96225000Y-110187499D01*
X96260714Y-110151784D01*
X96332142Y-110116070D01*
X96367857Y-110116070D01*
X96439285Y-110151784D01*
X96475000Y-110187499D01*
X96510714Y-110258927D01*
X96510714Y-110401784D01*
X96546428Y-110473213D01*
X96582142Y-110508927D01*
X96653571Y-110544641D01*
X96796428Y-110544641D01*
X96867857Y-110508927D01*
X96903571Y-110473213D01*
X96939285Y-110401784D01*
X96939285Y-110258927D01*
X96903571Y-110187499D01*
X96867857Y-110151784D01*
X96796428Y-110116070D01*
X96653571Y-110116070D01*
X96582142Y-110151784D01*
X96546428Y-110187499D01*
X96510714Y-110258927D01*
%TO.C,C30*%
X118767857Y-124792857D02*
X118732142Y-124828571D01*
X118625000Y-124864285D01*
X118553571Y-124864285D01*
X118446428Y-124828571D01*
X118375000Y-124757142D01*
X118339285Y-124685714D01*
X118303571Y-124542857D01*
X118303571Y-124435714D01*
X118339285Y-124292857D01*
X118375000Y-124221428D01*
X118446428Y-124150000D01*
X118553571Y-124114285D01*
X118625000Y-124114285D01*
X118732142Y-124150000D01*
X118767857Y-124185714D01*
X119017857Y-124114285D02*
X119482142Y-124114285D01*
X119232142Y-124400000D01*
X119339285Y-124400000D01*
X119410714Y-124435714D01*
X119446428Y-124471428D01*
X119482142Y-124542857D01*
X119482142Y-124721428D01*
X119446428Y-124792857D01*
X119410714Y-124828571D01*
X119339285Y-124864285D01*
X119125000Y-124864285D01*
X119053571Y-124828571D01*
X119017857Y-124792857D01*
X119946428Y-124114285D02*
X120017857Y-124114285D01*
X120089285Y-124150000D01*
X120125000Y-124185714D01*
X120160714Y-124257142D01*
X120196428Y-124400000D01*
X120196428Y-124578571D01*
X120160714Y-124721428D01*
X120125000Y-124792857D01*
X120089285Y-124828571D01*
X120017857Y-124864285D01*
X119946428Y-124864285D01*
X119875000Y-124828571D01*
X119839285Y-124792857D01*
X119803571Y-124721428D01*
X119767857Y-124578571D01*
X119767857Y-124400000D01*
X119803571Y-124257142D01*
X119839285Y-124185714D01*
X119875000Y-124150000D01*
X119946428Y-124114285D01*
%TO.C,C33*%
X112017857Y-131317857D02*
X111982142Y-131353571D01*
X111875000Y-131389285D01*
X111803571Y-131389285D01*
X111696428Y-131353571D01*
X111625000Y-131282142D01*
X111589285Y-131210714D01*
X111553571Y-131067857D01*
X111553571Y-130960714D01*
X111589285Y-130817857D01*
X111625000Y-130746428D01*
X111696428Y-130675000D01*
X111803571Y-130639285D01*
X111875000Y-130639285D01*
X111982142Y-130675000D01*
X112017857Y-130710714D01*
X112267857Y-130639285D02*
X112732142Y-130639285D01*
X112482142Y-130925000D01*
X112589285Y-130925000D01*
X112660714Y-130960714D01*
X112696428Y-130996428D01*
X112732142Y-131067857D01*
X112732142Y-131246428D01*
X112696428Y-131317857D01*
X112660714Y-131353571D01*
X112589285Y-131389285D01*
X112375000Y-131389285D01*
X112303571Y-131353571D01*
X112267857Y-131317857D01*
X112982142Y-130639285D02*
X113446428Y-130639285D01*
X113196428Y-130925000D01*
X113303571Y-130925000D01*
X113375000Y-130960714D01*
X113410714Y-130996428D01*
X113446428Y-131067857D01*
X113446428Y-131246428D01*
X113410714Y-131317857D01*
X113375000Y-131353571D01*
X113303571Y-131389285D01*
X113089285Y-131389285D01*
X113017857Y-131353571D01*
X112982142Y-131317857D01*
%TO.C,C35*%
X118467857Y-114732142D02*
X118503571Y-114767857D01*
X118539285Y-114875000D01*
X118539285Y-114946428D01*
X118503571Y-115053571D01*
X118432142Y-115125000D01*
X118360714Y-115160714D01*
X118217857Y-115196428D01*
X118110714Y-115196428D01*
X117967857Y-115160714D01*
X117896428Y-115125000D01*
X117825000Y-115053571D01*
X117789285Y-114946428D01*
X117789285Y-114875000D01*
X117825000Y-114767857D01*
X117860714Y-114732142D01*
X117789285Y-114482142D02*
X117789285Y-114017857D01*
X118075000Y-114267857D01*
X118075000Y-114160714D01*
X118110714Y-114089285D01*
X118146428Y-114053571D01*
X118217857Y-114017857D01*
X118396428Y-114017857D01*
X118467857Y-114053571D01*
X118503571Y-114089285D01*
X118539285Y-114160714D01*
X118539285Y-114375000D01*
X118503571Y-114446428D01*
X118467857Y-114482142D01*
X117789285Y-113339285D02*
X117789285Y-113696428D01*
X118146428Y-113732142D01*
X118110714Y-113696428D01*
X118075000Y-113625000D01*
X118075000Y-113446428D01*
X118110714Y-113375000D01*
X118146428Y-113339285D01*
X118217857Y-113303571D01*
X118396428Y-113303571D01*
X118467857Y-113339285D01*
X118503571Y-113375000D01*
X118539285Y-113446428D01*
X118539285Y-113625000D01*
X118503571Y-113696428D01*
X118467857Y-113732142D01*
%TO.C,D1*%
X152461904Y-118927380D02*
X152461904Y-117927380D01*
X152700000Y-117927380D01*
X152842857Y-117975000D01*
X152938095Y-118070238D01*
X152985714Y-118165476D01*
X153033333Y-118355952D01*
X153033333Y-118498809D01*
X152985714Y-118689285D01*
X152938095Y-118784523D01*
X152842857Y-118879761D01*
X152700000Y-118927380D01*
X152461904Y-118927380D01*
X153985714Y-118927380D02*
X153414285Y-118927380D01*
X153700000Y-118927380D02*
X153700000Y-117927380D01*
X153604761Y-118070238D01*
X153509523Y-118165476D01*
X153414285Y-118213095D01*
%TO.C,D4*%
X126539285Y-79478571D02*
X125789285Y-79478571D01*
X125789285Y-79300000D01*
X125825000Y-79192857D01*
X125896428Y-79121428D01*
X125967857Y-79085714D01*
X126110714Y-79050000D01*
X126217857Y-79050000D01*
X126360714Y-79085714D01*
X126432142Y-79121428D01*
X126503571Y-79192857D01*
X126539285Y-79300000D01*
X126539285Y-79478571D01*
X126039285Y-78407142D02*
X126539285Y-78407142D01*
X125753571Y-78585714D02*
X126289285Y-78764285D01*
X126289285Y-78300000D01*
%TO.C,D5*%
X122139285Y-108503571D02*
X121389285Y-108503571D01*
X121389285Y-108325000D01*
X121425000Y-108217857D01*
X121496428Y-108146428D01*
X121567857Y-108110714D01*
X121710714Y-108075000D01*
X121817857Y-108075000D01*
X121960714Y-108110714D01*
X122032142Y-108146428D01*
X122103571Y-108217857D01*
X122139285Y-108325000D01*
X122139285Y-108503571D01*
X121389285Y-107396428D02*
X121389285Y-107753571D01*
X121746428Y-107789285D01*
X121710714Y-107753571D01*
X121675000Y-107682142D01*
X121675000Y-107503571D01*
X121710714Y-107432142D01*
X121746428Y-107396428D01*
X121817857Y-107360714D01*
X121996428Y-107360714D01*
X122067857Y-107396428D01*
X122103571Y-107432142D01*
X122139285Y-107503571D01*
X122139285Y-107682142D01*
X122103571Y-107753571D01*
X122067857Y-107789285D01*
%TO.C,D6*%
X120639285Y-108578571D02*
X119889285Y-108578571D01*
X119889285Y-108400000D01*
X119925000Y-108292857D01*
X119996428Y-108221428D01*
X120067857Y-108185714D01*
X120210714Y-108150000D01*
X120317857Y-108150000D01*
X120460714Y-108185714D01*
X120532142Y-108221428D01*
X120603571Y-108292857D01*
X120639285Y-108400000D01*
X120639285Y-108578571D01*
X119889285Y-107507142D02*
X119889285Y-107650000D01*
X119925000Y-107721428D01*
X119960714Y-107757142D01*
X120067857Y-107828571D01*
X120210714Y-107864285D01*
X120496428Y-107864285D01*
X120567857Y-107828571D01*
X120603571Y-107792857D01*
X120639285Y-107721428D01*
X120639285Y-107578571D01*
X120603571Y-107507142D01*
X120567857Y-107471428D01*
X120496428Y-107435714D01*
X120317857Y-107435714D01*
X120246428Y-107471428D01*
X120210714Y-107507142D01*
X120175000Y-107578571D01*
X120175000Y-107721428D01*
X120210714Y-107792857D01*
X120246428Y-107828571D01*
X120317857Y-107864285D01*
%TO.C,Q1*%
X115610714Y-86921428D02*
X115575000Y-86992857D01*
X115503571Y-87064285D01*
X115396428Y-87171428D01*
X115360714Y-87242857D01*
X115360714Y-87314285D01*
X115539285Y-87278571D02*
X115503571Y-87350000D01*
X115432142Y-87421428D01*
X115289285Y-87457142D01*
X115039285Y-87457142D01*
X114896428Y-87421428D01*
X114825000Y-87350000D01*
X114789285Y-87278571D01*
X114789285Y-87135714D01*
X114825000Y-87064285D01*
X114896428Y-86992857D01*
X115039285Y-86957142D01*
X115289285Y-86957142D01*
X115432142Y-86992857D01*
X115503571Y-87064285D01*
X115539285Y-87135714D01*
X115539285Y-87278571D01*
X115539285Y-86242857D02*
X115539285Y-86671428D01*
X115539285Y-86457142D02*
X114789285Y-86457142D01*
X114896428Y-86528571D01*
X114967857Y-86600000D01*
X115003571Y-86671428D01*
%TO.C,Q2*%
X122353571Y-76910714D02*
X122282142Y-76875000D01*
X122210714Y-76803571D01*
X122103571Y-76696428D01*
X122032142Y-76660714D01*
X121960714Y-76660714D01*
X121996428Y-76839285D02*
X121925000Y-76803571D01*
X121853571Y-76732142D01*
X121817857Y-76589285D01*
X121817857Y-76339285D01*
X121853571Y-76196428D01*
X121925000Y-76125000D01*
X121996428Y-76089285D01*
X122139285Y-76089285D01*
X122210714Y-76125000D01*
X122282142Y-76196428D01*
X122317857Y-76339285D01*
X122317857Y-76589285D01*
X122282142Y-76732142D01*
X122210714Y-76803571D01*
X122139285Y-76839285D01*
X121996428Y-76839285D01*
X122603571Y-76160714D02*
X122639285Y-76125000D01*
X122710714Y-76089285D01*
X122889285Y-76089285D01*
X122960714Y-76125000D01*
X122996428Y-76160714D01*
X123032142Y-76232142D01*
X123032142Y-76303571D01*
X122996428Y-76410714D01*
X122567857Y-76839285D01*
X123032142Y-76839285D01*
%TO.C,Q3*%
X122428571Y-84635714D02*
X122357142Y-84600000D01*
X122285714Y-84528571D01*
X122178571Y-84421428D01*
X122107142Y-84385714D01*
X122035714Y-84385714D01*
X122071428Y-84564285D02*
X122000000Y-84528571D01*
X121928571Y-84457142D01*
X121892857Y-84314285D01*
X121892857Y-84064285D01*
X121928571Y-83921428D01*
X122000000Y-83850000D01*
X122071428Y-83814285D01*
X122214285Y-83814285D01*
X122285714Y-83850000D01*
X122357142Y-83921428D01*
X122392857Y-84064285D01*
X122392857Y-84314285D01*
X122357142Y-84457142D01*
X122285714Y-84528571D01*
X122214285Y-84564285D01*
X122071428Y-84564285D01*
X122642857Y-83814285D02*
X123107142Y-83814285D01*
X122857142Y-84100000D01*
X122964285Y-84100000D01*
X123035714Y-84135714D01*
X123071428Y-84171428D01*
X123107142Y-84242857D01*
X123107142Y-84421428D01*
X123071428Y-84492857D01*
X123035714Y-84528571D01*
X122964285Y-84564285D01*
X122750000Y-84564285D01*
X122678571Y-84528571D01*
X122642857Y-84492857D01*
%TO.C,R8*%
X117539285Y-77950000D02*
X117182142Y-78200000D01*
X117539285Y-78378571D02*
X116789285Y-78378571D01*
X116789285Y-78092857D01*
X116825000Y-78021428D01*
X116860714Y-77985714D01*
X116932142Y-77950000D01*
X117039285Y-77950000D01*
X117110714Y-77985714D01*
X117146428Y-78021428D01*
X117182142Y-78092857D01*
X117182142Y-78378571D01*
X117110714Y-77521428D02*
X117075000Y-77592857D01*
X117039285Y-77628571D01*
X116967857Y-77664285D01*
X116932142Y-77664285D01*
X116860714Y-77628571D01*
X116825000Y-77592857D01*
X116789285Y-77521428D01*
X116789285Y-77378571D01*
X116825000Y-77307142D01*
X116860714Y-77271428D01*
X116932142Y-77235714D01*
X116967857Y-77235714D01*
X117039285Y-77271428D01*
X117075000Y-77307142D01*
X117110714Y-77378571D01*
X117110714Y-77521428D01*
X117146428Y-77592857D01*
X117182142Y-77628571D01*
X117253571Y-77664285D01*
X117396428Y-77664285D01*
X117467857Y-77628571D01*
X117503571Y-77592857D01*
X117539285Y-77521428D01*
X117539285Y-77378571D01*
X117503571Y-77307142D01*
X117467857Y-77271428D01*
X117396428Y-77235714D01*
X117253571Y-77235714D01*
X117182142Y-77271428D01*
X117146428Y-77307142D01*
X117110714Y-77378571D01*
%TO.C,R16*%
X121942857Y-116139285D02*
X121692857Y-115782142D01*
X121514285Y-116139285D02*
X121514285Y-115389285D01*
X121800000Y-115389285D01*
X121871428Y-115425000D01*
X121907142Y-115460714D01*
X121942857Y-115532142D01*
X121942857Y-115639285D01*
X121907142Y-115710714D01*
X121871428Y-115746428D01*
X121800000Y-115782142D01*
X121514285Y-115782142D01*
X122657142Y-116139285D02*
X122228571Y-116139285D01*
X122442857Y-116139285D02*
X122442857Y-115389285D01*
X122371428Y-115496428D01*
X122300000Y-115567857D01*
X122228571Y-115603571D01*
X123300000Y-115389285D02*
X123157142Y-115389285D01*
X123085714Y-115425000D01*
X123050000Y-115460714D01*
X122978571Y-115567857D01*
X122942857Y-115710714D01*
X122942857Y-115996428D01*
X122978571Y-116067857D01*
X123014285Y-116103571D01*
X123085714Y-116139285D01*
X123228571Y-116139285D01*
X123300000Y-116103571D01*
X123335714Y-116067857D01*
X123371428Y-115996428D01*
X123371428Y-115817857D01*
X123335714Y-115746428D01*
X123300000Y-115710714D01*
X123228571Y-115675000D01*
X123085714Y-115675000D01*
X123014285Y-115710714D01*
X122978571Y-115746428D01*
X122942857Y-115817857D01*
%TO.C,R17*%
X119492857Y-116139285D02*
X119242857Y-115782142D01*
X119064285Y-116139285D02*
X119064285Y-115389285D01*
X119350000Y-115389285D01*
X119421428Y-115425000D01*
X119457142Y-115460714D01*
X119492857Y-115532142D01*
X119492857Y-115639285D01*
X119457142Y-115710714D01*
X119421428Y-115746428D01*
X119350000Y-115782142D01*
X119064285Y-115782142D01*
X120207142Y-116139285D02*
X119778571Y-116139285D01*
X119992857Y-116139285D02*
X119992857Y-115389285D01*
X119921428Y-115496428D01*
X119850000Y-115567857D01*
X119778571Y-115603571D01*
X120457142Y-115389285D02*
X120957142Y-115389285D01*
X120635714Y-116139285D01*
%TO.C,R18*%
X100689285Y-130407142D02*
X100332142Y-130657142D01*
X100689285Y-130835714D02*
X99939285Y-130835714D01*
X99939285Y-130550000D01*
X99975000Y-130478571D01*
X100010714Y-130442857D01*
X100082142Y-130407142D01*
X100189285Y-130407142D01*
X100260714Y-130442857D01*
X100296428Y-130478571D01*
X100332142Y-130550000D01*
X100332142Y-130835714D01*
X100689285Y-129692857D02*
X100689285Y-130121428D01*
X100689285Y-129907142D02*
X99939285Y-129907142D01*
X100046428Y-129978571D01*
X100117857Y-130050000D01*
X100153571Y-130121428D01*
X100260714Y-129264285D02*
X100225000Y-129335714D01*
X100189285Y-129371428D01*
X100117857Y-129407142D01*
X100082142Y-129407142D01*
X100010714Y-129371428D01*
X99975000Y-129335714D01*
X99939285Y-129264285D01*
X99939285Y-129121428D01*
X99975000Y-129050000D01*
X100010714Y-129014285D01*
X100082142Y-128978571D01*
X100117857Y-128978571D01*
X100189285Y-129014285D01*
X100225000Y-129050000D01*
X100260714Y-129121428D01*
X100260714Y-129264285D01*
X100296428Y-129335714D01*
X100332142Y-129371428D01*
X100403571Y-129407142D01*
X100546428Y-129407142D01*
X100617857Y-129371428D01*
X100653571Y-129335714D01*
X100689285Y-129264285D01*
X100689285Y-129121428D01*
X100653571Y-129050000D01*
X100617857Y-129014285D01*
X100546428Y-128978571D01*
X100403571Y-128978571D01*
X100332142Y-129014285D01*
X100296428Y-129050000D01*
X100260714Y-129121428D01*
%TO.C,U3*%
X133488095Y-129402379D02*
X133488095Y-130211903D01*
X133535714Y-130307141D01*
X133583333Y-130354760D01*
X133678571Y-130402379D01*
X133869047Y-130402379D01*
X133964285Y-130354760D01*
X134011904Y-130307141D01*
X134059523Y-130211903D01*
X134059523Y-129402379D01*
X134440476Y-129402379D02*
X135059523Y-129402379D01*
X134726190Y-129783332D01*
X134869047Y-129783332D01*
X134964285Y-129830951D01*
X135011904Y-129878570D01*
X135059523Y-129973808D01*
X135059523Y-130211903D01*
X135011904Y-130307141D01*
X134964285Y-130354760D01*
X134869047Y-130402379D01*
X134583333Y-130402379D01*
X134488095Y-130354760D01*
X134440476Y-130307141D01*
%TO.C,U6*%
X105638095Y-119077380D02*
X105638095Y-119886904D01*
X105685714Y-119982142D01*
X105733333Y-120029761D01*
X105828571Y-120077380D01*
X106019047Y-120077380D01*
X106114285Y-120029761D01*
X106161904Y-119982142D01*
X106209523Y-119886904D01*
X106209523Y-119077380D01*
X107114285Y-119077380D02*
X106923809Y-119077380D01*
X106828571Y-119125000D01*
X106780952Y-119172619D01*
X106685714Y-119315476D01*
X106638095Y-119505952D01*
X106638095Y-119886904D01*
X106685714Y-119982142D01*
X106733333Y-120029761D01*
X106828571Y-120077380D01*
X107019047Y-120077380D01*
X107114285Y-120029761D01*
X107161904Y-119982142D01*
X107209523Y-119886904D01*
X107209523Y-119648809D01*
X107161904Y-119553571D01*
X107114285Y-119505952D01*
X107019047Y-119458333D01*
X106828571Y-119458333D01*
X106733333Y-119505952D01*
X106685714Y-119553571D01*
X106638095Y-119648809D01*
%TO.C,R7*%
X100725000Y-94339285D02*
X100475000Y-93982142D01*
X100296428Y-94339285D02*
X100296428Y-93589285D01*
X100582142Y-93589285D01*
X100653571Y-93625000D01*
X100689285Y-93660714D01*
X100725000Y-93732142D01*
X100725000Y-93839285D01*
X100689285Y-93910714D01*
X100653571Y-93946428D01*
X100582142Y-93982142D01*
X100296428Y-93982142D01*
X100975000Y-93589285D02*
X101475000Y-93589285D01*
X101153571Y-94339285D01*
%TO.C,C21*%
X108517857Y-87357142D02*
X108553571Y-87392857D01*
X108589285Y-87500000D01*
X108589285Y-87571428D01*
X108553571Y-87678571D01*
X108482142Y-87750000D01*
X108410714Y-87785714D01*
X108267857Y-87821428D01*
X108160714Y-87821428D01*
X108017857Y-87785714D01*
X107946428Y-87750000D01*
X107875000Y-87678571D01*
X107839285Y-87571428D01*
X107839285Y-87500000D01*
X107875000Y-87392857D01*
X107910714Y-87357142D01*
X107910714Y-87071428D02*
X107875000Y-87035714D01*
X107839285Y-86964285D01*
X107839285Y-86785714D01*
X107875000Y-86714285D01*
X107910714Y-86678571D01*
X107982142Y-86642857D01*
X108053571Y-86642857D01*
X108160714Y-86678571D01*
X108589285Y-87107142D01*
X108589285Y-86642857D01*
X108589285Y-85928571D02*
X108589285Y-86357142D01*
X108589285Y-86142857D02*
X107839285Y-86142857D01*
X107946428Y-86214285D01*
X108017857Y-86285714D01*
X108053571Y-86357142D01*
%TO.C,R11*%
X111492857Y-88139285D02*
X111242857Y-87782142D01*
X111064285Y-88139285D02*
X111064285Y-87389285D01*
X111350000Y-87389285D01*
X111421428Y-87425000D01*
X111457142Y-87460714D01*
X111492857Y-87532142D01*
X111492857Y-87639285D01*
X111457142Y-87710714D01*
X111421428Y-87746428D01*
X111350000Y-87782142D01*
X111064285Y-87782142D01*
X112207142Y-88139285D02*
X111778571Y-88139285D01*
X111992857Y-88139285D02*
X111992857Y-87389285D01*
X111921428Y-87496428D01*
X111850000Y-87567857D01*
X111778571Y-87603571D01*
X112921428Y-88139285D02*
X112492857Y-88139285D01*
X112707142Y-88139285D02*
X112707142Y-87389285D01*
X112635714Y-87496428D01*
X112564285Y-87567857D01*
X112492857Y-87603571D01*
D11*
%TO.C,J4*%
X120566436Y-62177003D02*
X120566436Y-62891781D01*
X120518784Y-63034737D01*
X120423480Y-63130041D01*
X120280525Y-63177693D01*
X120185221Y-63177693D01*
X121471822Y-62510566D02*
X121471822Y-63177693D01*
X121233563Y-62129351D02*
X120995303Y-62844129D01*
X121614778Y-62844129D01*
%TO.C,J2*%
X139866436Y-62177003D02*
X139866436Y-62891781D01*
X139818784Y-63034737D01*
X139723480Y-63130041D01*
X139580525Y-63177693D01*
X139485221Y-63177693D01*
X140295303Y-62272306D02*
X140342955Y-62224655D01*
X140438259Y-62177003D01*
X140676519Y-62177003D01*
X140771822Y-62224655D01*
X140819474Y-62272306D01*
X140867126Y-62367610D01*
X140867126Y-62462914D01*
X140819474Y-62605870D01*
X140247651Y-63177693D01*
X140867126Y-63177693D01*
%TO.C,J6*%
X101166436Y-62177003D02*
X101166436Y-62891781D01*
X101118784Y-63034737D01*
X101023480Y-63130041D01*
X100880525Y-63177693D01*
X100785221Y-63177693D01*
X102071822Y-62177003D02*
X101881215Y-62177003D01*
X101785911Y-62224655D01*
X101738259Y-62272306D01*
X101642955Y-62415262D01*
X101595303Y-62605870D01*
X101595303Y-62987085D01*
X101642955Y-63082389D01*
X101690607Y-63130041D01*
X101785911Y-63177693D01*
X101976519Y-63177693D01*
X102071822Y-63130041D01*
X102119474Y-63082389D01*
X102167126Y-62987085D01*
X102167126Y-62748825D01*
X102119474Y-62653522D01*
X102071822Y-62605870D01*
X101976519Y-62558218D01*
X101785911Y-62558218D01*
X101690607Y-62605870D01*
X101642955Y-62653522D01*
X101595303Y-62748825D01*
D14*
%TO.C,R3*%
X125675000Y-76664285D02*
X125425000Y-76307142D01*
X125246428Y-76664285D02*
X125246428Y-75914285D01*
X125532142Y-75914285D01*
X125603571Y-75950000D01*
X125639285Y-75985714D01*
X125675000Y-76057142D01*
X125675000Y-76164285D01*
X125639285Y-76235714D01*
X125603571Y-76271428D01*
X125532142Y-76307142D01*
X125246428Y-76307142D01*
X125925000Y-75914285D02*
X126389285Y-75914285D01*
X126139285Y-76200000D01*
X126246428Y-76200000D01*
X126317857Y-76235714D01*
X126353571Y-76271428D01*
X126389285Y-76342857D01*
X126389285Y-76521428D01*
X126353571Y-76592857D01*
X126317857Y-76628571D01*
X126246428Y-76664285D01*
X126032142Y-76664285D01*
X125960714Y-76628571D01*
X125925000Y-76592857D01*
D15*
%TO.C,RV1*%
X134644047Y-78399523D02*
X134220714Y-77794761D01*
X133918333Y-78399523D02*
X133918333Y-77129523D01*
X134402142Y-77129523D01*
X134523095Y-77190000D01*
X134583571Y-77250476D01*
X134644047Y-77371428D01*
X134644047Y-77552857D01*
X134583571Y-77673809D01*
X134523095Y-77734285D01*
X134402142Y-77794761D01*
X133918333Y-77794761D01*
X135006904Y-77129523D02*
X135430238Y-78399523D01*
X135853571Y-77129523D01*
X136942142Y-78399523D02*
X136216428Y-78399523D01*
X136579285Y-78399523D02*
X136579285Y-77129523D01*
X136458333Y-77310952D01*
X136337380Y-77431904D01*
X136216428Y-77492380D01*
D14*
%TO.C,R5*%
X106539285Y-76625000D02*
X106182142Y-76875000D01*
X106539285Y-77053571D02*
X105789285Y-77053571D01*
X105789285Y-76767857D01*
X105825000Y-76696428D01*
X105860714Y-76660714D01*
X105932142Y-76625000D01*
X106039285Y-76625000D01*
X106110714Y-76660714D01*
X106146428Y-76696428D01*
X106182142Y-76767857D01*
X106182142Y-77053571D01*
X105789285Y-75946428D02*
X105789285Y-76303571D01*
X106146428Y-76339285D01*
X106110714Y-76303571D01*
X106075000Y-76232142D01*
X106075000Y-76053571D01*
X106110714Y-75982142D01*
X106146428Y-75946428D01*
X106217857Y-75910714D01*
X106396428Y-75910714D01*
X106467857Y-75946428D01*
X106503571Y-75982142D01*
X106539285Y-76053571D01*
X106539285Y-76232142D01*
X106503571Y-76303571D01*
X106467857Y-76339285D01*
%TO.C,R1*%
X140750000Y-73564285D02*
X140500000Y-73207142D01*
X140321428Y-73564285D02*
X140321428Y-72814285D01*
X140607142Y-72814285D01*
X140678571Y-72850000D01*
X140714285Y-72885714D01*
X140750000Y-72957142D01*
X140750000Y-73064285D01*
X140714285Y-73135714D01*
X140678571Y-73171428D01*
X140607142Y-73207142D01*
X140321428Y-73207142D01*
X141464285Y-73564285D02*
X141035714Y-73564285D01*
X141250000Y-73564285D02*
X141250000Y-72814285D01*
X141178571Y-72921428D01*
X141107142Y-72992857D01*
X141035714Y-73028571D01*
%TO.C,R2*%
X135275000Y-73664285D02*
X135025000Y-73307142D01*
X134846428Y-73664285D02*
X134846428Y-72914285D01*
X135132142Y-72914285D01*
X135203571Y-72950000D01*
X135239285Y-72985714D01*
X135275000Y-73057142D01*
X135275000Y-73164285D01*
X135239285Y-73235714D01*
X135203571Y-73271428D01*
X135132142Y-73307142D01*
X134846428Y-73307142D01*
X135560714Y-72985714D02*
X135596428Y-72950000D01*
X135667857Y-72914285D01*
X135846428Y-72914285D01*
X135917857Y-72950000D01*
X135953571Y-72985714D01*
X135989285Y-73057142D01*
X135989285Y-73128571D01*
X135953571Y-73235714D01*
X135525000Y-73664285D01*
X135989285Y-73664285D01*
%TO.C,R4*%
X114889285Y-74275000D02*
X114532142Y-74525000D01*
X114889285Y-74703571D02*
X114139285Y-74703571D01*
X114139285Y-74417857D01*
X114175000Y-74346428D01*
X114210714Y-74310714D01*
X114282142Y-74275000D01*
X114389285Y-74275000D01*
X114460714Y-74310714D01*
X114496428Y-74346428D01*
X114532142Y-74417857D01*
X114532142Y-74703571D01*
X114389285Y-73632142D02*
X114889285Y-73632142D01*
X114103571Y-73810714D02*
X114639285Y-73989285D01*
X114639285Y-73525000D01*
%TO.C,J1*%
X150616666Y-58327380D02*
X150616666Y-59041666D01*
X150569047Y-59184523D01*
X150473809Y-59279761D01*
X150330952Y-59327380D01*
X150235714Y-59327380D01*
X151616666Y-59327380D02*
X151045238Y-59327380D01*
X151330952Y-59327380D02*
X151330952Y-58327380D01*
X151235714Y-58470238D01*
X151140476Y-58565476D01*
X151045238Y-58613095D01*
%TO.C,C16*%
X99067857Y-77307142D02*
X99103571Y-77342857D01*
X99139285Y-77450000D01*
X99139285Y-77521428D01*
X99103571Y-77628571D01*
X99032142Y-77700000D01*
X98960714Y-77735714D01*
X98817857Y-77771428D01*
X98710714Y-77771428D01*
X98567857Y-77735714D01*
X98496428Y-77700000D01*
X98425000Y-77628571D01*
X98389285Y-77521428D01*
X98389285Y-77450000D01*
X98425000Y-77342857D01*
X98460714Y-77307142D01*
X99139285Y-76592857D02*
X99139285Y-77021428D01*
X99139285Y-76807142D02*
X98389285Y-76807142D01*
X98496428Y-76878571D01*
X98567857Y-76950000D01*
X98603571Y-77021428D01*
X98389285Y-75950000D02*
X98389285Y-76092857D01*
X98425000Y-76164285D01*
X98460714Y-76200000D01*
X98567857Y-76271428D01*
X98710714Y-76307142D01*
X98996428Y-76307142D01*
X99067857Y-76271428D01*
X99103571Y-76235714D01*
X99139285Y-76164285D01*
X99139285Y-76021428D01*
X99103571Y-75950000D01*
X99067857Y-75914285D01*
X98996428Y-75878571D01*
X98817857Y-75878571D01*
X98746428Y-75914285D01*
X98710714Y-75950000D01*
X98675000Y-76021428D01*
X98675000Y-76164285D01*
X98710714Y-76235714D01*
X98746428Y-76271428D01*
X98817857Y-76307142D01*
%TO.C,C15*%
X103867857Y-77257142D02*
X103903571Y-77292857D01*
X103939285Y-77400000D01*
X103939285Y-77471428D01*
X103903571Y-77578571D01*
X103832142Y-77650000D01*
X103760714Y-77685714D01*
X103617857Y-77721428D01*
X103510714Y-77721428D01*
X103367857Y-77685714D01*
X103296428Y-77650000D01*
X103225000Y-77578571D01*
X103189285Y-77471428D01*
X103189285Y-77400000D01*
X103225000Y-77292857D01*
X103260714Y-77257142D01*
X103939285Y-76542857D02*
X103939285Y-76971428D01*
X103939285Y-76757142D02*
X103189285Y-76757142D01*
X103296428Y-76828571D01*
X103367857Y-76900000D01*
X103403571Y-76971428D01*
X103189285Y-75864285D02*
X103189285Y-76221428D01*
X103546428Y-76257142D01*
X103510714Y-76221428D01*
X103475000Y-76150000D01*
X103475000Y-75971428D01*
X103510714Y-75900000D01*
X103546428Y-75864285D01*
X103617857Y-75828571D01*
X103796428Y-75828571D01*
X103867857Y-75864285D01*
X103903571Y-75900000D01*
X103939285Y-75971428D01*
X103939285Y-76150000D01*
X103903571Y-76221428D01*
X103867857Y-76257142D01*
%TO.C,C14*%
X110717857Y-74012857D02*
X110682142Y-74048571D01*
X110575000Y-74084285D01*
X110503571Y-74084285D01*
X110396428Y-74048571D01*
X110325000Y-73977142D01*
X110289285Y-73905714D01*
X110253571Y-73762857D01*
X110253571Y-73655714D01*
X110289285Y-73512857D01*
X110325000Y-73441428D01*
X110396428Y-73370000D01*
X110503571Y-73334285D01*
X110575000Y-73334285D01*
X110682142Y-73370000D01*
X110717857Y-73405714D01*
X111432142Y-74084285D02*
X111003571Y-74084285D01*
X111217857Y-74084285D02*
X111217857Y-73334285D01*
X111146428Y-73441428D01*
X111075000Y-73512857D01*
X111003571Y-73548571D01*
X112075000Y-73584285D02*
X112075000Y-74084285D01*
X111896428Y-73298571D02*
X111717857Y-73834285D01*
X112182142Y-73834285D01*
%TO.C,C13*%
X120517857Y-73917857D02*
X120482142Y-73953571D01*
X120375000Y-73989285D01*
X120303571Y-73989285D01*
X120196428Y-73953571D01*
X120125000Y-73882142D01*
X120089285Y-73810714D01*
X120053571Y-73667857D01*
X120053571Y-73560714D01*
X120089285Y-73417857D01*
X120125000Y-73346428D01*
X120196428Y-73275000D01*
X120303571Y-73239285D01*
X120375000Y-73239285D01*
X120482142Y-73275000D01*
X120517857Y-73310714D01*
X121232142Y-73989285D02*
X120803571Y-73989285D01*
X121017857Y-73989285D02*
X121017857Y-73239285D01*
X120946428Y-73346428D01*
X120875000Y-73417857D01*
X120803571Y-73453571D01*
X121482142Y-73239285D02*
X121946428Y-73239285D01*
X121696428Y-73525000D01*
X121803571Y-73525000D01*
X121875000Y-73560714D01*
X121910714Y-73596428D01*
X121946428Y-73667857D01*
X121946428Y-73846428D01*
X121910714Y-73917857D01*
X121875000Y-73953571D01*
X121803571Y-73989285D01*
X121589285Y-73989285D01*
X121517857Y-73953571D01*
X121482142Y-73917857D01*
%TO.C,C12*%
X130117857Y-73917857D02*
X130082142Y-73953571D01*
X129975000Y-73989285D01*
X129903571Y-73989285D01*
X129796428Y-73953571D01*
X129725000Y-73882142D01*
X129689285Y-73810714D01*
X129653571Y-73667857D01*
X129653571Y-73560714D01*
X129689285Y-73417857D01*
X129725000Y-73346428D01*
X129796428Y-73275000D01*
X129903571Y-73239285D01*
X129975000Y-73239285D01*
X130082142Y-73275000D01*
X130117857Y-73310714D01*
X130832142Y-73989285D02*
X130403571Y-73989285D01*
X130617857Y-73989285D02*
X130617857Y-73239285D01*
X130546428Y-73346428D01*
X130475000Y-73417857D01*
X130403571Y-73453571D01*
X131117857Y-73310714D02*
X131153571Y-73275000D01*
X131225000Y-73239285D01*
X131403571Y-73239285D01*
X131475000Y-73275000D01*
X131510714Y-73310714D01*
X131546428Y-73382142D01*
X131546428Y-73453571D01*
X131510714Y-73560714D01*
X131082142Y-73989285D01*
X131546428Y-73989285D01*
D16*
%TO.C,C11*%
X137453571Y-73467857D02*
X137429761Y-73503571D01*
X137358333Y-73539285D01*
X137310714Y-73539285D01*
X137239285Y-73503571D01*
X137191666Y-73432142D01*
X137167857Y-73360714D01*
X137144047Y-73217857D01*
X137144047Y-73110714D01*
X137167857Y-72967857D01*
X137191666Y-72896428D01*
X137239285Y-72825000D01*
X137310714Y-72789285D01*
X137358333Y-72789285D01*
X137429761Y-72825000D01*
X137453571Y-72860714D01*
X137929761Y-73539285D02*
X137644047Y-73539285D01*
X137786904Y-73539285D02*
X137786904Y-72789285D01*
X137739285Y-72896428D01*
X137691666Y-72967857D01*
X137644047Y-73003571D01*
X138405952Y-73539285D02*
X138120238Y-73539285D01*
X138263095Y-73539285D02*
X138263095Y-72789285D01*
X138215476Y-72896428D01*
X138167857Y-72967857D01*
X138120238Y-73003571D01*
D11*
%TO.C,J5*%
X110766436Y-62277003D02*
X110766436Y-62991781D01*
X110718784Y-63134737D01*
X110623480Y-63230041D01*
X110480525Y-63277693D01*
X110385221Y-63277693D01*
X111719474Y-62277003D02*
X111242955Y-62277003D01*
X111195303Y-62753522D01*
X111242955Y-62705870D01*
X111338259Y-62658218D01*
X111576519Y-62658218D01*
X111671822Y-62705870D01*
X111719474Y-62753522D01*
X111767126Y-62848825D01*
X111767126Y-63087085D01*
X111719474Y-63182389D01*
X111671822Y-63230041D01*
X111576519Y-63277693D01*
X111338259Y-63277693D01*
X111242955Y-63230041D01*
X111195303Y-63182389D01*
%TO.C,J3*%
X130066436Y-62277003D02*
X130066436Y-62991781D01*
X130018784Y-63134737D01*
X129923480Y-63230041D01*
X129780525Y-63277693D01*
X129685221Y-63277693D01*
X130447651Y-62277003D02*
X131067126Y-62277003D01*
X130733563Y-62658218D01*
X130876519Y-62658218D01*
X130971822Y-62705870D01*
X131019474Y-62753522D01*
X131067126Y-62848825D01*
X131067126Y-63087085D01*
X131019474Y-63182389D01*
X130971822Y-63230041D01*
X130876519Y-63277693D01*
X130590607Y-63277693D01*
X130495303Y-63230041D01*
X130447651Y-63182389D01*
D14*
%TO.C,C27*%
X97317857Y-130717857D02*
X97282142Y-130753571D01*
X97175000Y-130789285D01*
X97103571Y-130789285D01*
X96996428Y-130753571D01*
X96925000Y-130682142D01*
X96889285Y-130610714D01*
X96853571Y-130467857D01*
X96853571Y-130360714D01*
X96889285Y-130217857D01*
X96925000Y-130146428D01*
X96996428Y-130075000D01*
X97103571Y-130039285D01*
X97175000Y-130039285D01*
X97282142Y-130075000D01*
X97317857Y-130110714D01*
X97603571Y-130110714D02*
X97639285Y-130075000D01*
X97710714Y-130039285D01*
X97889285Y-130039285D01*
X97960714Y-130075000D01*
X97996428Y-130110714D01*
X98032142Y-130182142D01*
X98032142Y-130253571D01*
X97996428Y-130360714D01*
X97567857Y-130789285D01*
X98032142Y-130789285D01*
X98282142Y-130039285D02*
X98782142Y-130039285D01*
X98460714Y-130789285D01*
%TO.C,R12*%
X116892857Y-83064285D02*
X116642857Y-82707142D01*
X116464285Y-83064285D02*
X116464285Y-82314285D01*
X116750000Y-82314285D01*
X116821428Y-82350000D01*
X116857142Y-82385714D01*
X116892857Y-82457142D01*
X116892857Y-82564285D01*
X116857142Y-82635714D01*
X116821428Y-82671428D01*
X116750000Y-82707142D01*
X116464285Y-82707142D01*
X117607142Y-83064285D02*
X117178571Y-83064285D01*
X117392857Y-83064285D02*
X117392857Y-82314285D01*
X117321428Y-82421428D01*
X117250000Y-82492857D01*
X117178571Y-82528571D01*
X117892857Y-82385714D02*
X117928571Y-82350000D01*
X118000000Y-82314285D01*
X118178571Y-82314285D01*
X118250000Y-82350000D01*
X118285714Y-82385714D01*
X118321428Y-82457142D01*
X118321428Y-82528571D01*
X118285714Y-82635714D01*
X117857142Y-83064285D01*
X118321428Y-83064285D01*
%TO.C,C36*%
X115517857Y-119317857D02*
X115482142Y-119353571D01*
X115375000Y-119389285D01*
X115303571Y-119389285D01*
X115196428Y-119353571D01*
X115125000Y-119282142D01*
X115089285Y-119210714D01*
X115053571Y-119067857D01*
X115053571Y-118960714D01*
X115089285Y-118817857D01*
X115125000Y-118746428D01*
X115196428Y-118675000D01*
X115303571Y-118639285D01*
X115375000Y-118639285D01*
X115482142Y-118675000D01*
X115517857Y-118710714D01*
X115767857Y-118639285D02*
X116232142Y-118639285D01*
X115982142Y-118925000D01*
X116089285Y-118925000D01*
X116160714Y-118960714D01*
X116196428Y-118996428D01*
X116232142Y-119067857D01*
X116232142Y-119246428D01*
X116196428Y-119317857D01*
X116160714Y-119353571D01*
X116089285Y-119389285D01*
X115875000Y-119389285D01*
X115803571Y-119353571D01*
X115767857Y-119317857D01*
X116875000Y-118639285D02*
X116732142Y-118639285D01*
X116660714Y-118675000D01*
X116625000Y-118710714D01*
X116553571Y-118817857D01*
X116517857Y-118960714D01*
X116517857Y-119246428D01*
X116553571Y-119317857D01*
X116589285Y-119353571D01*
X116660714Y-119389285D01*
X116803571Y-119389285D01*
X116875000Y-119353571D01*
X116910714Y-119317857D01*
X116946428Y-119246428D01*
X116946428Y-119067857D01*
X116910714Y-118996428D01*
X116875000Y-118960714D01*
X116803571Y-118925000D01*
X116660714Y-118925000D01*
X116589285Y-118960714D01*
X116553571Y-118996428D01*
X116517857Y-119067857D01*
%TO.C,C32*%
X118097857Y-121707142D02*
X118133571Y-121742857D01*
X118169285Y-121850000D01*
X118169285Y-121921428D01*
X118133571Y-122028571D01*
X118062142Y-122100000D01*
X117990714Y-122135714D01*
X117847857Y-122171428D01*
X117740714Y-122171428D01*
X117597857Y-122135714D01*
X117526428Y-122100000D01*
X117455000Y-122028571D01*
X117419285Y-121921428D01*
X117419285Y-121850000D01*
X117455000Y-121742857D01*
X117490714Y-121707142D01*
X117419285Y-121457142D02*
X117419285Y-120992857D01*
X117705000Y-121242857D01*
X117705000Y-121135714D01*
X117740714Y-121064285D01*
X117776428Y-121028571D01*
X117847857Y-120992857D01*
X118026428Y-120992857D01*
X118097857Y-121028571D01*
X118133571Y-121064285D01*
X118169285Y-121135714D01*
X118169285Y-121350000D01*
X118133571Y-121421428D01*
X118097857Y-121457142D01*
X117490714Y-120707142D02*
X117455000Y-120671428D01*
X117419285Y-120600000D01*
X117419285Y-120421428D01*
X117455000Y-120350000D01*
X117490714Y-120314285D01*
X117562142Y-120278571D01*
X117633571Y-120278571D01*
X117740714Y-120314285D01*
X118169285Y-120742857D01*
X118169285Y-120278571D01*
%TO.C,C34*%
X103217857Y-109244641D02*
X103253571Y-109280356D01*
X103289285Y-109387499D01*
X103289285Y-109458927D01*
X103253571Y-109566070D01*
X103182142Y-109637499D01*
X103110714Y-109673213D01*
X102967857Y-109708927D01*
X102860714Y-109708927D01*
X102717857Y-109673213D01*
X102646428Y-109637499D01*
X102575000Y-109566070D01*
X102539285Y-109458927D01*
X102539285Y-109387499D01*
X102575000Y-109280356D01*
X102610714Y-109244641D01*
X102539285Y-108994641D02*
X102539285Y-108530356D01*
X102825000Y-108780356D01*
X102825000Y-108673213D01*
X102860714Y-108601784D01*
X102896428Y-108566070D01*
X102967857Y-108530356D01*
X103146428Y-108530356D01*
X103217857Y-108566070D01*
X103253571Y-108601784D01*
X103289285Y-108673213D01*
X103289285Y-108887499D01*
X103253571Y-108958927D01*
X103217857Y-108994641D01*
X102789285Y-107887499D02*
X103289285Y-107887499D01*
X102503571Y-108066070D02*
X103039285Y-108244641D01*
X103039285Y-107780356D01*
%TO.C,R9*%
X104475000Y-87414285D02*
X104225000Y-87057142D01*
X104046428Y-87414285D02*
X104046428Y-86664285D01*
X104332142Y-86664285D01*
X104403571Y-86700000D01*
X104439285Y-86735714D01*
X104475000Y-86807142D01*
X104475000Y-86914285D01*
X104439285Y-86985714D01*
X104403571Y-87021428D01*
X104332142Y-87057142D01*
X104046428Y-87057142D01*
X104832142Y-87414285D02*
X104975000Y-87414285D01*
X105046428Y-87378571D01*
X105082142Y-87342857D01*
X105153571Y-87235714D01*
X105189285Y-87092857D01*
X105189285Y-86807142D01*
X105153571Y-86735714D01*
X105117857Y-86700000D01*
X105046428Y-86664285D01*
X104903571Y-86664285D01*
X104832142Y-86700000D01*
X104796428Y-86735714D01*
X104760714Y-86807142D01*
X104760714Y-86985714D01*
X104796428Y-87057142D01*
X104832142Y-87092857D01*
X104903571Y-87128571D01*
X105046428Y-87128571D01*
X105117857Y-87092857D01*
X105153571Y-87057142D01*
X105189285Y-86985714D01*
%TO.C,R19*%
X109542857Y-130239285D02*
X109292857Y-129882142D01*
X109114285Y-130239285D02*
X109114285Y-129489285D01*
X109400000Y-129489285D01*
X109471428Y-129525000D01*
X109507142Y-129560714D01*
X109542857Y-129632142D01*
X109542857Y-129739285D01*
X109507142Y-129810714D01*
X109471428Y-129846428D01*
X109400000Y-129882142D01*
X109114285Y-129882142D01*
X110257142Y-130239285D02*
X109828571Y-130239285D01*
X110042857Y-130239285D02*
X110042857Y-129489285D01*
X109971428Y-129596428D01*
X109900000Y-129667857D01*
X109828571Y-129703571D01*
X110614285Y-130239285D02*
X110757142Y-130239285D01*
X110828571Y-130203571D01*
X110864285Y-130167857D01*
X110935714Y-130060714D01*
X110971428Y-129917857D01*
X110971428Y-129632142D01*
X110935714Y-129560714D01*
X110900000Y-129525000D01*
X110828571Y-129489285D01*
X110685714Y-129489285D01*
X110614285Y-129525000D01*
X110578571Y-129560714D01*
X110542857Y-129632142D01*
X110542857Y-129810714D01*
X110578571Y-129882142D01*
X110614285Y-129917857D01*
X110685714Y-129953571D01*
X110828571Y-129953571D01*
X110900000Y-129917857D01*
X110935714Y-129882142D01*
X110971428Y-129810714D01*
%TO.C,R13*%
X124439285Y-80407142D02*
X124082142Y-80657142D01*
X124439285Y-80835714D02*
X123689285Y-80835714D01*
X123689285Y-80550000D01*
X123725000Y-80478571D01*
X123760714Y-80442857D01*
X123832142Y-80407142D01*
X123939285Y-80407142D01*
X124010714Y-80442857D01*
X124046428Y-80478571D01*
X124082142Y-80550000D01*
X124082142Y-80835714D01*
X124439285Y-79692857D02*
X124439285Y-80121428D01*
X124439285Y-79907142D02*
X123689285Y-79907142D01*
X123796428Y-79978571D01*
X123867857Y-80050000D01*
X123903571Y-80121428D01*
X123689285Y-79442857D02*
X123689285Y-78978571D01*
X123975000Y-79228571D01*
X123975000Y-79121428D01*
X124010714Y-79050000D01*
X124046428Y-79014285D01*
X124117857Y-78978571D01*
X124296428Y-78978571D01*
X124367857Y-79014285D01*
X124403571Y-79050000D01*
X124439285Y-79121428D01*
X124439285Y-79335714D01*
X124403571Y-79407142D01*
X124367857Y-79442857D01*
%TO.C,C31*%
X96967857Y-119307142D02*
X97003571Y-119342857D01*
X97039285Y-119450000D01*
X97039285Y-119521428D01*
X97003571Y-119628571D01*
X96932142Y-119700000D01*
X96860714Y-119735714D01*
X96717857Y-119771428D01*
X96610714Y-119771428D01*
X96467857Y-119735714D01*
X96396428Y-119700000D01*
X96325000Y-119628571D01*
X96289285Y-119521428D01*
X96289285Y-119450000D01*
X96325000Y-119342857D01*
X96360714Y-119307142D01*
X96289285Y-119057142D02*
X96289285Y-118592857D01*
X96575000Y-118842857D01*
X96575000Y-118735714D01*
X96610714Y-118664285D01*
X96646428Y-118628571D01*
X96717857Y-118592857D01*
X96896428Y-118592857D01*
X96967857Y-118628571D01*
X97003571Y-118664285D01*
X97039285Y-118735714D01*
X97039285Y-118950000D01*
X97003571Y-119021428D01*
X96967857Y-119057142D01*
X97039285Y-117878571D02*
X97039285Y-118307142D01*
X97039285Y-118092857D02*
X96289285Y-118092857D01*
X96396428Y-118164285D01*
X96467857Y-118235714D01*
X96503571Y-118307142D01*
%TO.C,C20*%
X97067857Y-75557142D02*
X97103571Y-75592857D01*
X97139285Y-75700000D01*
X97139285Y-75771428D01*
X97103571Y-75878571D01*
X97032142Y-75950000D01*
X96960714Y-75985714D01*
X96817857Y-76021428D01*
X96710714Y-76021428D01*
X96567857Y-75985714D01*
X96496428Y-75950000D01*
X96425000Y-75878571D01*
X96389285Y-75771428D01*
X96389285Y-75700000D01*
X96425000Y-75592857D01*
X96460714Y-75557142D01*
X96460714Y-75271428D02*
X96425000Y-75235714D01*
X96389285Y-75164285D01*
X96389285Y-74985714D01*
X96425000Y-74914285D01*
X96460714Y-74878571D01*
X96532142Y-74842857D01*
X96603571Y-74842857D01*
X96710714Y-74878571D01*
X97139285Y-75307142D01*
X97139285Y-74842857D01*
X96389285Y-74378571D02*
X96389285Y-74307142D01*
X96425000Y-74235714D01*
X96460714Y-74200000D01*
X96532142Y-74164285D01*
X96675000Y-74128571D01*
X96853571Y-74128571D01*
X96996428Y-74164285D01*
X97067857Y-74200000D01*
X97103571Y-74235714D01*
X97139285Y-74307142D01*
X97139285Y-74378571D01*
X97103571Y-74450000D01*
X97067857Y-74485714D01*
X96996428Y-74521428D01*
X96853571Y-74557142D01*
X96675000Y-74557142D01*
X96532142Y-74521428D01*
X96460714Y-74485714D01*
X96425000Y-74450000D01*
X96389285Y-74378571D01*
%TO.C,U5*%
X97363095Y-80277380D02*
X97363095Y-81086904D01*
X97410714Y-81182142D01*
X97458333Y-81229761D01*
X97553571Y-81277380D01*
X97744047Y-81277380D01*
X97839285Y-81229761D01*
X97886904Y-81182142D01*
X97934523Y-81086904D01*
X97934523Y-80277380D01*
X98886904Y-80277380D02*
X98410714Y-80277380D01*
X98363095Y-80753571D01*
X98410714Y-80705952D01*
X98505952Y-80658333D01*
X98744047Y-80658333D01*
X98839285Y-80705952D01*
X98886904Y-80753571D01*
X98934523Y-80848809D01*
X98934523Y-81086904D01*
X98886904Y-81182142D01*
X98839285Y-81229761D01*
X98744047Y-81277380D01*
X98505952Y-81277380D01*
X98410714Y-81229761D01*
X98363095Y-81182142D01*
%TO.C,C22*%
X110995357Y-75467857D02*
X110959642Y-75503571D01*
X110852500Y-75539285D01*
X110781071Y-75539285D01*
X110673928Y-75503571D01*
X110602500Y-75432142D01*
X110566785Y-75360714D01*
X110531071Y-75217857D01*
X110531071Y-75110714D01*
X110566785Y-74967857D01*
X110602500Y-74896428D01*
X110673928Y-74825000D01*
X110781071Y-74789285D01*
X110852500Y-74789285D01*
X110959642Y-74825000D01*
X110995357Y-74860714D01*
X111281071Y-74860714D02*
X111316785Y-74825000D01*
X111388214Y-74789285D01*
X111566785Y-74789285D01*
X111638214Y-74825000D01*
X111673928Y-74860714D01*
X111709642Y-74932142D01*
X111709642Y-75003571D01*
X111673928Y-75110714D01*
X111245357Y-75539285D01*
X111709642Y-75539285D01*
X111995357Y-74860714D02*
X112031071Y-74825000D01*
X112102500Y-74789285D01*
X112281071Y-74789285D01*
X112352500Y-74825000D01*
X112388214Y-74860714D01*
X112423928Y-74932142D01*
X112423928Y-75003571D01*
X112388214Y-75110714D01*
X111959642Y-75539285D01*
X112423928Y-75539285D01*
%TO.C,C19*%
X104087857Y-93017857D02*
X104052142Y-93053571D01*
X103945000Y-93089285D01*
X103873571Y-93089285D01*
X103766428Y-93053571D01*
X103695000Y-92982142D01*
X103659285Y-92910714D01*
X103623571Y-92767857D01*
X103623571Y-92660714D01*
X103659285Y-92517857D01*
X103695000Y-92446428D01*
X103766428Y-92375000D01*
X103873571Y-92339285D01*
X103945000Y-92339285D01*
X104052142Y-92375000D01*
X104087857Y-92410714D01*
X104802142Y-93089285D02*
X104373571Y-93089285D01*
X104587857Y-93089285D02*
X104587857Y-92339285D01*
X104516428Y-92446428D01*
X104445000Y-92517857D01*
X104373571Y-92553571D01*
X105159285Y-93089285D02*
X105302142Y-93089285D01*
X105373571Y-93053571D01*
X105409285Y-93017857D01*
X105480714Y-92910714D01*
X105516428Y-92767857D01*
X105516428Y-92482142D01*
X105480714Y-92410714D01*
X105445000Y-92375000D01*
X105373571Y-92339285D01*
X105230714Y-92339285D01*
X105159285Y-92375000D01*
X105123571Y-92410714D01*
X105087857Y-92482142D01*
X105087857Y-92660714D01*
X105123571Y-92732142D01*
X105159285Y-92767857D01*
X105230714Y-92803571D01*
X105373571Y-92803571D01*
X105445000Y-92767857D01*
X105480714Y-92732142D01*
X105516428Y-92660714D01*
%TO.C,D3*%
X101964285Y-88253571D02*
X101214285Y-88253571D01*
X101214285Y-88075000D01*
X101250000Y-87967857D01*
X101321428Y-87896428D01*
X101392857Y-87860714D01*
X101535714Y-87825000D01*
X101642857Y-87825000D01*
X101785714Y-87860714D01*
X101857142Y-87896428D01*
X101928571Y-87967857D01*
X101964285Y-88075000D01*
X101964285Y-88253571D01*
X101214285Y-87575000D02*
X101214285Y-87110714D01*
X101500000Y-87360714D01*
X101500000Y-87253571D01*
X101535714Y-87182142D01*
X101571428Y-87146428D01*
X101642857Y-87110714D01*
X101821428Y-87110714D01*
X101892857Y-87146428D01*
X101928571Y-87182142D01*
X101964285Y-87253571D01*
X101964285Y-87467857D01*
X101928571Y-87539285D01*
X101892857Y-87575000D01*
%TO.C,R15*%
X128539285Y-82232142D02*
X128182142Y-82482142D01*
X128539285Y-82660714D02*
X127789285Y-82660714D01*
X127789285Y-82375000D01*
X127825000Y-82303571D01*
X127860714Y-82267857D01*
X127932142Y-82232142D01*
X128039285Y-82232142D01*
X128110714Y-82267857D01*
X128146428Y-82303571D01*
X128182142Y-82375000D01*
X128182142Y-82660714D01*
X128539285Y-81517857D02*
X128539285Y-81946428D01*
X128539285Y-81732142D02*
X127789285Y-81732142D01*
X127896428Y-81803571D01*
X127967857Y-81875000D01*
X128003571Y-81946428D01*
X127789285Y-80839285D02*
X127789285Y-81196428D01*
X128146428Y-81232142D01*
X128110714Y-81196428D01*
X128075000Y-81125000D01*
X128075000Y-80946428D01*
X128110714Y-80875000D01*
X128146428Y-80839285D01*
X128217857Y-80803571D01*
X128396428Y-80803571D01*
X128467857Y-80839285D01*
X128503571Y-80875000D01*
X128539285Y-80946428D01*
X128539285Y-81125000D01*
X128503571Y-81196428D01*
X128467857Y-81232142D01*
%TO.C,R14*%
X96962380Y-68302857D02*
X96486190Y-68636190D01*
X96962380Y-68874285D02*
X95962380Y-68874285D01*
X95962380Y-68493333D01*
X96010000Y-68398095D01*
X96057619Y-68350476D01*
X96152857Y-68302857D01*
X96295714Y-68302857D01*
X96390952Y-68350476D01*
X96438571Y-68398095D01*
X96486190Y-68493333D01*
X96486190Y-68874285D01*
X96962380Y-67350476D02*
X96962380Y-67921904D01*
X96962380Y-67636190D02*
X95962380Y-67636190D01*
X96105238Y-67731428D01*
X96200476Y-67826666D01*
X96248095Y-67921904D01*
X96295714Y-66493333D02*
X96962380Y-66493333D01*
X95914761Y-66731428D02*
X96629047Y-66969523D01*
X96629047Y-66350476D01*
%TO.C,C29*%
X114980357Y-109892857D02*
X114944642Y-109928571D01*
X114837500Y-109964285D01*
X114766071Y-109964285D01*
X114658928Y-109928571D01*
X114587500Y-109857142D01*
X114551785Y-109785714D01*
X114516071Y-109642857D01*
X114516071Y-109535714D01*
X114551785Y-109392857D01*
X114587500Y-109321428D01*
X114658928Y-109250000D01*
X114766071Y-109214285D01*
X114837500Y-109214285D01*
X114944642Y-109250000D01*
X114980357Y-109285714D01*
X115266071Y-109285714D02*
X115301785Y-109250000D01*
X115373214Y-109214285D01*
X115551785Y-109214285D01*
X115623214Y-109250000D01*
X115658928Y-109285714D01*
X115694642Y-109357142D01*
X115694642Y-109428571D01*
X115658928Y-109535714D01*
X115230357Y-109964285D01*
X115694642Y-109964285D01*
X116051785Y-109964285D02*
X116194642Y-109964285D01*
X116266071Y-109928571D01*
X116301785Y-109892857D01*
X116373214Y-109785714D01*
X116408928Y-109642857D01*
X116408928Y-109357142D01*
X116373214Y-109285714D01*
X116337500Y-109250000D01*
X116266071Y-109214285D01*
X116123214Y-109214285D01*
X116051785Y-109250000D01*
X116016071Y-109285714D01*
X115980357Y-109357142D01*
X115980357Y-109535714D01*
X116016071Y-109607142D01*
X116051785Y-109642857D01*
X116123214Y-109678571D01*
X116266071Y-109678571D01*
X116337500Y-109642857D01*
X116373214Y-109607142D01*
X116408928Y-109535714D01*
D15*
%TO.C,C10*%
X121433571Y-133853571D02*
X121373095Y-133914047D01*
X121191666Y-133974523D01*
X121070714Y-133974523D01*
X120889285Y-133914047D01*
X120768333Y-133793095D01*
X120707857Y-133672142D01*
X120647380Y-133430238D01*
X120647380Y-133248809D01*
X120707857Y-133006904D01*
X120768333Y-132885952D01*
X120889285Y-132765000D01*
X121070714Y-132704523D01*
X121191666Y-132704523D01*
X121373095Y-132765000D01*
X121433571Y-132825476D01*
X122643095Y-133974523D02*
X121917380Y-133974523D01*
X122280238Y-133974523D02*
X122280238Y-132704523D01*
X122159285Y-132885952D01*
X122038333Y-133006904D01*
X121917380Y-133067380D01*
X123429285Y-132704523D02*
X123550238Y-132704523D01*
X123671190Y-132765000D01*
X123731666Y-132825476D01*
X123792142Y-132946428D01*
X123852619Y-133188333D01*
X123852619Y-133490714D01*
X123792142Y-133732619D01*
X123731666Y-133853571D01*
X123671190Y-133914047D01*
X123550238Y-133974523D01*
X123429285Y-133974523D01*
X123308333Y-133914047D01*
X123247857Y-133853571D01*
X123187380Y-133732619D01*
X123126904Y-133490714D01*
X123126904Y-133188333D01*
X123187380Y-132946428D01*
X123247857Y-132825476D01*
X123308333Y-132765000D01*
X123429285Y-132704523D01*
D14*
%TO.C,R6*%
X101514285Y-76625000D02*
X101157142Y-76875000D01*
X101514285Y-77053571D02*
X100764285Y-77053571D01*
X100764285Y-76767857D01*
X100800000Y-76696428D01*
X100835714Y-76660714D01*
X100907142Y-76625000D01*
X101014285Y-76625000D01*
X101085714Y-76660714D01*
X101121428Y-76696428D01*
X101157142Y-76767857D01*
X101157142Y-77053571D01*
X100764285Y-75982142D02*
X100764285Y-76125000D01*
X100800000Y-76196428D01*
X100835714Y-76232142D01*
X100942857Y-76303571D01*
X101085714Y-76339285D01*
X101371428Y-76339285D01*
X101442857Y-76303571D01*
X101478571Y-76267857D01*
X101514285Y-76196428D01*
X101514285Y-76053571D01*
X101478571Y-75982142D01*
X101442857Y-75946428D01*
X101371428Y-75910714D01*
X101192857Y-75910714D01*
X101121428Y-75946428D01*
X101085714Y-75982142D01*
X101050000Y-76053571D01*
X101050000Y-76196428D01*
X101085714Y-76267857D01*
X101121428Y-76303571D01*
X101192857Y-76339285D01*
D11*
%TO.C,J7*%
X149452003Y-76358563D02*
X150166781Y-76358563D01*
X150309737Y-76406215D01*
X150405041Y-76501519D01*
X150452693Y-76644474D01*
X150452693Y-76739778D01*
X149452003Y-75977348D02*
X149452003Y-75310221D01*
X150452693Y-75739088D01*
D15*
%TO.C,C4*%
X127588333Y-91778571D02*
X127527857Y-91839047D01*
X127346428Y-91899523D01*
X127225476Y-91899523D01*
X127044047Y-91839047D01*
X126923095Y-91718095D01*
X126862619Y-91597142D01*
X126802142Y-91355238D01*
X126802142Y-91173809D01*
X126862619Y-90931904D01*
X126923095Y-90810952D01*
X127044047Y-90690000D01*
X127225476Y-90629523D01*
X127346428Y-90629523D01*
X127527857Y-90690000D01*
X127588333Y-90750476D01*
X128676904Y-91052857D02*
X128676904Y-91899523D01*
X128374523Y-90569047D02*
X128072142Y-91476190D01*
X128858333Y-91476190D01*
%TO.C,C7*%
X139538333Y-121303571D02*
X139477857Y-121364047D01*
X139296428Y-121424523D01*
X139175476Y-121424523D01*
X138994047Y-121364047D01*
X138873095Y-121243095D01*
X138812619Y-121122142D01*
X138752142Y-120880238D01*
X138752142Y-120698809D01*
X138812619Y-120456904D01*
X138873095Y-120335952D01*
X138994047Y-120215000D01*
X139175476Y-120154523D01*
X139296428Y-120154523D01*
X139477857Y-120215000D01*
X139538333Y-120275476D01*
X139961666Y-120154523D02*
X140808333Y-120154523D01*
X140264047Y-121424523D01*
D14*
%TO.C,D2*%
X141521428Y-84564285D02*
X141521428Y-83814285D01*
X141700000Y-83814285D01*
X141807142Y-83850000D01*
X141878571Y-83921428D01*
X141914285Y-83992857D01*
X141950000Y-84135714D01*
X141950000Y-84242857D01*
X141914285Y-84385714D01*
X141878571Y-84457142D01*
X141807142Y-84528571D01*
X141700000Y-84564285D01*
X141521428Y-84564285D01*
X142235714Y-83885714D02*
X142271428Y-83850000D01*
X142342857Y-83814285D01*
X142521428Y-83814285D01*
X142592857Y-83850000D01*
X142628571Y-83885714D01*
X142664285Y-83957142D01*
X142664285Y-84028571D01*
X142628571Y-84135714D01*
X142200000Y-84564285D01*
X142664285Y-84564285D01*
D15*
%TO.C,C9*%
X132253571Y-109036666D02*
X132314047Y-109097142D01*
X132374523Y-109278571D01*
X132374523Y-109399523D01*
X132314047Y-109580952D01*
X132193095Y-109701904D01*
X132072142Y-109762380D01*
X131830238Y-109822857D01*
X131648809Y-109822857D01*
X131406904Y-109762380D01*
X131285952Y-109701904D01*
X131165000Y-109580952D01*
X131104523Y-109399523D01*
X131104523Y-109278571D01*
X131165000Y-109097142D01*
X131225476Y-109036666D01*
X132374523Y-108431904D02*
X132374523Y-108190000D01*
X132314047Y-108069047D01*
X132253571Y-108008571D01*
X132072142Y-107887619D01*
X131830238Y-107827142D01*
X131346428Y-107827142D01*
X131225476Y-107887619D01*
X131165000Y-107948095D01*
X131104523Y-108069047D01*
X131104523Y-108310952D01*
X131165000Y-108431904D01*
X131225476Y-108492380D01*
X131346428Y-108552857D01*
X131648809Y-108552857D01*
X131769761Y-108492380D01*
X131830238Y-108431904D01*
X131890714Y-108310952D01*
X131890714Y-108069047D01*
X131830238Y-107948095D01*
X131769761Y-107887619D01*
X131648809Y-107827142D01*
D17*
%TO.C,C6*%
X136567857Y-98350000D02*
X136603571Y-98385714D01*
X136639285Y-98492857D01*
X136639285Y-98564285D01*
X136603571Y-98671428D01*
X136532142Y-98742857D01*
X136460714Y-98778571D01*
X136317857Y-98814285D01*
X136210714Y-98814285D01*
X136067857Y-98778571D01*
X135996428Y-98742857D01*
X135925000Y-98671428D01*
X135889285Y-98564285D01*
X135889285Y-98492857D01*
X135925000Y-98385714D01*
X135960714Y-98350000D01*
X135889285Y-97707142D02*
X135889285Y-97850000D01*
X135925000Y-97921428D01*
X135960714Y-97957142D01*
X136067857Y-98028571D01*
X136210714Y-98064285D01*
X136496428Y-98064285D01*
X136567857Y-98028571D01*
X136603571Y-97992857D01*
X136639285Y-97921428D01*
X136639285Y-97778571D01*
X136603571Y-97707142D01*
X136567857Y-97671428D01*
X136496428Y-97635714D01*
X136317857Y-97635714D01*
X136246428Y-97671428D01*
X136210714Y-97707142D01*
X136175000Y-97778571D01*
X136175000Y-97921428D01*
X136210714Y-97992857D01*
X136246428Y-98028571D01*
X136317857Y-98064285D01*
%TO.C,C8*%
X137700000Y-97342857D02*
X137664285Y-97378571D01*
X137557142Y-97414285D01*
X137485714Y-97414285D01*
X137378571Y-97378571D01*
X137307142Y-97307142D01*
X137271428Y-97235714D01*
X137235714Y-97092857D01*
X137235714Y-96985714D01*
X137271428Y-96842857D01*
X137307142Y-96771428D01*
X137378571Y-96700000D01*
X137485714Y-96664285D01*
X137557142Y-96664285D01*
X137664285Y-96700000D01*
X137700000Y-96735714D01*
X138128571Y-96985714D02*
X138057142Y-96950000D01*
X138021428Y-96914285D01*
X137985714Y-96842857D01*
X137985714Y-96807142D01*
X138021428Y-96735714D01*
X138057142Y-96700000D01*
X138128571Y-96664285D01*
X138271428Y-96664285D01*
X138342857Y-96700000D01*
X138378571Y-96735714D01*
X138414285Y-96807142D01*
X138414285Y-96842857D01*
X138378571Y-96914285D01*
X138342857Y-96950000D01*
X138271428Y-96985714D01*
X138128571Y-96985714D01*
X138057142Y-97021428D01*
X138021428Y-97057142D01*
X137985714Y-97128571D01*
X137985714Y-97271428D01*
X138021428Y-97342857D01*
X138057142Y-97378571D01*
X138128571Y-97414285D01*
X138271428Y-97414285D01*
X138342857Y-97378571D01*
X138378571Y-97342857D01*
X138414285Y-97271428D01*
X138414285Y-97128571D01*
X138378571Y-97057142D01*
X138342857Y-97021428D01*
X138271428Y-96985714D01*
D15*
%TO.C,L2*%
X150974523Y-88236666D02*
X150974523Y-88841428D01*
X149704523Y-88841428D01*
X149825476Y-87873809D02*
X149765000Y-87813333D01*
X149704523Y-87692380D01*
X149704523Y-87390000D01*
X149765000Y-87269047D01*
X149825476Y-87208571D01*
X149946428Y-87148095D01*
X150067380Y-87148095D01*
X150248809Y-87208571D01*
X150974523Y-87934285D01*
X150974523Y-87148095D01*
D14*
%TO.C,U4*%
X144452380Y-102386904D02*
X145261904Y-102386904D01*
X145357142Y-102339285D01*
X145404761Y-102291666D01*
X145452380Y-102196428D01*
X145452380Y-102005952D01*
X145404761Y-101910714D01*
X145357142Y-101863095D01*
X145261904Y-101815476D01*
X144452380Y-101815476D01*
X144785714Y-100910714D02*
X145452380Y-100910714D01*
X144404761Y-101148809D02*
X145119047Y-101386904D01*
X145119047Y-100767857D01*
%TO.C,C25*%
X126267857Y-118057142D02*
X126303571Y-118092857D01*
X126339285Y-118200000D01*
X126339285Y-118271428D01*
X126303571Y-118378571D01*
X126232142Y-118450000D01*
X126160714Y-118485714D01*
X126017857Y-118521428D01*
X125910714Y-118521428D01*
X125767857Y-118485714D01*
X125696428Y-118450000D01*
X125625000Y-118378571D01*
X125589285Y-118271428D01*
X125589285Y-118200000D01*
X125625000Y-118092857D01*
X125660714Y-118057142D01*
X125660714Y-117771428D02*
X125625000Y-117735714D01*
X125589285Y-117664285D01*
X125589285Y-117485714D01*
X125625000Y-117414285D01*
X125660714Y-117378571D01*
X125732142Y-117342857D01*
X125803571Y-117342857D01*
X125910714Y-117378571D01*
X126339285Y-117807142D01*
X126339285Y-117342857D01*
X125589285Y-116664285D02*
X125589285Y-117021428D01*
X125946428Y-117057142D01*
X125910714Y-117021428D01*
X125875000Y-116950000D01*
X125875000Y-116771428D01*
X125910714Y-116700000D01*
X125946428Y-116664285D01*
X126017857Y-116628571D01*
X126196428Y-116628571D01*
X126267857Y-116664285D01*
X126303571Y-116700000D01*
X126339285Y-116771428D01*
X126339285Y-116950000D01*
X126303571Y-117021428D01*
X126267857Y-117057142D01*
%TO.C,U1*%
X131593695Y-84179880D02*
X131593695Y-84989404D01*
X131641314Y-85084642D01*
X131688933Y-85132261D01*
X131784171Y-85179880D01*
X131974647Y-85179880D01*
X132069885Y-85132261D01*
X132117504Y-85084642D01*
X132165123Y-84989404D01*
X132165123Y-84179880D01*
X133165123Y-85179880D02*
X132593695Y-85179880D01*
X132879409Y-85179880D02*
X132879409Y-84179880D01*
X132784171Y-84322738D01*
X132688933Y-84417976D01*
X132593695Y-84465595D01*
%TO.C,JP1*%
X110716666Y-136002380D02*
X110716666Y-136716666D01*
X110669047Y-136859523D01*
X110573809Y-136954761D01*
X110430952Y-137002380D01*
X110335714Y-137002380D01*
X111192857Y-137002380D02*
X111192857Y-136002380D01*
X111573809Y-136002380D01*
X111669047Y-136050000D01*
X111716666Y-136097619D01*
X111764285Y-136192857D01*
X111764285Y-136335714D01*
X111716666Y-136430952D01*
X111669047Y-136478571D01*
X111573809Y-136526190D01*
X111192857Y-136526190D01*
X112716666Y-137002380D02*
X112145238Y-137002380D01*
X112430952Y-137002380D02*
X112430952Y-136002380D01*
X112335714Y-136145238D01*
X112240476Y-136240476D01*
X112145238Y-136288095D01*
%TO.C,SW1*%
X99204761Y-101883333D02*
X99252380Y-101740476D01*
X99252380Y-101502380D01*
X99204761Y-101407142D01*
X99157142Y-101359523D01*
X99061904Y-101311904D01*
X98966666Y-101311904D01*
X98871428Y-101359523D01*
X98823809Y-101407142D01*
X98776190Y-101502380D01*
X98728571Y-101692857D01*
X98680952Y-101788095D01*
X98633333Y-101835714D01*
X98538095Y-101883333D01*
X98442857Y-101883333D01*
X98347619Y-101835714D01*
X98300000Y-101788095D01*
X98252380Y-101692857D01*
X98252380Y-101454761D01*
X98300000Y-101311904D01*
X98252380Y-100978571D02*
X99252380Y-100740476D01*
X98538095Y-100550000D01*
X99252380Y-100359523D01*
X98252380Y-100121428D01*
X99252380Y-99216666D02*
X99252380Y-99788095D01*
X99252380Y-99502380D02*
X98252380Y-99502380D01*
X98395238Y-99597619D01*
X98490476Y-99692857D01*
X98538095Y-99788095D01*
%TO.C,Y1*%
X121496174Y-120211516D02*
X121972690Y-120211516D01*
X120972005Y-120545078D02*
X121496174Y-120211516D01*
X120972005Y-119877955D01*
X121972690Y-119020225D02*
X121972690Y-119592045D01*
X121972690Y-119306135D02*
X120972005Y-119306135D01*
X121114960Y-119401438D01*
X121210264Y-119496741D01*
X121257915Y-119592045D01*
%TO.C,U2*%
X101503695Y-136227380D02*
X101503695Y-137036904D01*
X101551314Y-137132142D01*
X101598933Y-137179761D01*
X101694171Y-137227380D01*
X101884647Y-137227380D01*
X101979885Y-137179761D01*
X102027504Y-137132142D01*
X102075123Y-137036904D01*
X102075123Y-136227380D01*
X102503695Y-136322619D02*
X102551314Y-136275000D01*
X102646552Y-136227380D01*
X102884647Y-136227380D01*
X102979885Y-136275000D01*
X103027504Y-136322619D01*
X103075123Y-136417857D01*
X103075123Y-136513095D01*
X103027504Y-136655952D01*
X102456076Y-137227380D01*
X103075123Y-137227380D01*
%TO.C,C24*%
X126267857Y-122557142D02*
X126303571Y-122592857D01*
X126339285Y-122700000D01*
X126339285Y-122771428D01*
X126303571Y-122878571D01*
X126232142Y-122950000D01*
X126160714Y-122985714D01*
X126017857Y-123021428D01*
X125910714Y-123021428D01*
X125767857Y-122985714D01*
X125696428Y-122950000D01*
X125625000Y-122878571D01*
X125589285Y-122771428D01*
X125589285Y-122700000D01*
X125625000Y-122592857D01*
X125660714Y-122557142D01*
X125660714Y-122271428D02*
X125625000Y-122235714D01*
X125589285Y-122164285D01*
X125589285Y-121985714D01*
X125625000Y-121914285D01*
X125660714Y-121878571D01*
X125732142Y-121842857D01*
X125803571Y-121842857D01*
X125910714Y-121878571D01*
X126339285Y-122307142D01*
X126339285Y-121842857D01*
X125839285Y-121200000D02*
X126339285Y-121200000D01*
X125553571Y-121378571D02*
X126089285Y-121557142D01*
X126089285Y-121092857D01*
%TO.C,L1*%
X147333333Y-133977380D02*
X146857142Y-133977380D01*
X146857142Y-132977380D01*
X148190476Y-133977380D02*
X147619047Y-133977380D01*
X147904761Y-133977380D02*
X147904761Y-132977380D01*
X147809523Y-133120238D01*
X147714285Y-133215476D01*
X147619047Y-133263095D01*
D15*
%TO.C,IC1*%
X88430238Y-60049523D02*
X88430238Y-58779523D01*
X89760714Y-59928571D02*
X89700238Y-59989047D01*
X89518809Y-60049523D01*
X89397857Y-60049523D01*
X89216428Y-59989047D01*
X89095476Y-59868095D01*
X89035000Y-59747142D01*
X88974523Y-59505238D01*
X88974523Y-59323809D01*
X89035000Y-59081904D01*
X89095476Y-58960952D01*
X89216428Y-58840000D01*
X89397857Y-58779523D01*
X89518809Y-58779523D01*
X89700238Y-58840000D01*
X89760714Y-58900476D01*
X90970238Y-60049523D02*
X90244523Y-60049523D01*
X90607380Y-60049523D02*
X90607380Y-58779523D01*
X90486428Y-58960952D01*
X90365476Y-59081904D01*
X90244523Y-59142380D01*
D18*
%TO.C,J8*%
X74260000Y-70640000D02*
X80060000Y-70640000D01*
X74260000Y-126520000D02*
X74260000Y-131600000D01*
D12*
X95200000Y-73650000D02*
X95200000Y-73650000D01*
D18*
X80060000Y-65560000D02*
X74260000Y-65560000D01*
X80060000Y-126520000D02*
X74260000Y-126520000D01*
X80060000Y-63920000D02*
X88860000Y-63920000D01*
X80060000Y-75720000D02*
X74260000Y-75720000D01*
X94660000Y-63920000D02*
X94660000Y-133240000D01*
X74260000Y-131600000D02*
X80060000Y-131600000D01*
X74260000Y-75720000D02*
X74260000Y-121440000D01*
X74260000Y-121440000D02*
X80060000Y-121440000D01*
X74260000Y-65560000D02*
X74260000Y-70640000D01*
X80060000Y-133240000D02*
X80060000Y-63920000D01*
X88860000Y-133240000D02*
X80060000Y-133240000D01*
D12*
X95100000Y-73650000D02*
X95100000Y-73650000D01*
X95100000Y-73650000D02*
G75*
G03*
X95200000Y-73650000I50000J0D01*
G01*
X95200000Y-73650000D02*
G75*
G03*
X95100000Y-73650000I-50000J0D01*
G01*
D13*
%TO.C,C1*%
X107015000Y-134023733D02*
X107015000Y-134316267D01*
X105995000Y-134023733D02*
X105995000Y-134316267D01*
%TO.C,C2*%
X137516233Y-84135000D02*
X137808767Y-84135000D01*
X137516233Y-83115000D02*
X137808767Y-83115000D01*
D18*
%TO.C,C3*%
X140475000Y-115125000D02*
X140475000Y-116125000D01*
X140475000Y-111085000D02*
X140475000Y-112125000D01*
X138425000Y-113625000D02*
X138425000Y-113625000D01*
X138525000Y-113625000D02*
X138525000Y-113625000D01*
X142085000Y-117775000D02*
X148775000Y-117775000D01*
X148775000Y-109475000D02*
X142125000Y-109475000D01*
X142125000Y-109475000D02*
X140475000Y-111085000D01*
X148775000Y-112125000D02*
X148775000Y-109475000D01*
X140475000Y-116125000D02*
X142085000Y-117775000D01*
X138425000Y-113625000D02*
X138425000Y-113625000D01*
X148775000Y-117775000D02*
X148775000Y-115125000D01*
X138525000Y-113625000D02*
G75*
G03*
X138425000Y-113625000I-50000J0D01*
G01*
X138425000Y-113625000D02*
G75*
G03*
X138525000Y-113625000I50000J0D01*
G01*
X138425000Y-113625000D02*
G75*
G03*
X138525000Y-113625000I50000J0D01*
G01*
D13*
%TO.C,C17*%
X99830000Y-91251267D02*
X99830000Y-90958733D01*
X98810000Y-91251267D02*
X98810000Y-90958733D01*
%TO.C,C18*%
X119295000Y-80048733D02*
X119295000Y-80391267D01*
X118275000Y-80048733D02*
X118275000Y-80391267D01*
%TO.C,C23*%
X98360000Y-89443767D02*
X98360000Y-89151233D01*
X97340000Y-89443767D02*
X97340000Y-89151233D01*
%TO.C,C26*%
X114376234Y-127545000D02*
X114668768Y-127545000D01*
X114376234Y-128565000D02*
X114668768Y-128565000D01*
%TO.C,C28*%
X98410000Y-111208766D02*
X98410000Y-110916232D01*
X97390000Y-111208766D02*
X97390000Y-110916232D01*
%TO.C,C30*%
X115890000Y-125441233D02*
X115890000Y-125733767D01*
X116910000Y-125441233D02*
X116910000Y-125733767D01*
%TO.C,C33*%
X113496233Y-130085000D02*
X113788767Y-130085000D01*
X113496233Y-129065000D02*
X113788767Y-129065000D01*
%TO.C,C35*%
X115890000Y-115478733D02*
X115890000Y-115771267D01*
X116910000Y-115478733D02*
X116910000Y-115771267D01*
%TO.C,D1*%
X151070000Y-125880000D02*
X153900000Y-125880000D01*
X151070000Y-119250000D02*
X151070000Y-119520000D01*
X149570000Y-126150000D02*
X151070000Y-126150000D01*
X151070000Y-126150000D02*
X151070000Y-125880000D01*
X151070000Y-119520000D02*
X152170000Y-119520000D01*
X149570000Y-119250000D02*
X151070000Y-119250000D01*
%TO.C,D4*%
X125200000Y-84225000D02*
X125200000Y-80325000D01*
X125200000Y-84225000D02*
X127200000Y-84225000D01*
X127200000Y-84225000D02*
X127200000Y-80325000D01*
%TO.C,D5*%
X121065000Y-111797501D02*
X122535000Y-111797501D01*
X122535000Y-111797501D02*
X122535000Y-109512501D01*
X121065000Y-109512501D02*
X121065000Y-111797501D01*
%TO.C,D6*%
X121035000Y-111797501D02*
X121035000Y-109512501D01*
X119565000Y-111797501D02*
X121035000Y-111797501D01*
X119565000Y-109512501D02*
X119565000Y-111797501D01*
%TO.C,Q1*%
X119620001Y-85250000D02*
X119620001Y-84955000D01*
X119620001Y-88495000D02*
X119620001Y-88200000D01*
X116780001Y-88200000D02*
X116780001Y-88495000D01*
X116050001Y-85250000D02*
X116780001Y-85250000D01*
X119620001Y-84955000D02*
X116780001Y-84955000D01*
X116780001Y-84955000D02*
X116780001Y-85250000D01*
X116780001Y-88495000D02*
X119620001Y-88495000D01*
%TO.C,Q2*%
X119760000Y-78025000D02*
X119760000Y-80185000D01*
X122920000Y-78025000D02*
X122920000Y-79485000D01*
X122920000Y-78025000D02*
X121990000Y-78025000D01*
X119760000Y-78025000D02*
X120690000Y-78025000D01*
%TO.C,Q3*%
X120880000Y-88494999D02*
X123720000Y-88494999D01*
X123720000Y-85249999D02*
X123720000Y-84954999D01*
X120880000Y-88199999D02*
X120880000Y-88494999D01*
X120880000Y-84954999D02*
X120880000Y-85249999D01*
X124450000Y-88199999D02*
X123720000Y-88199999D01*
X123720000Y-84954999D02*
X120880000Y-84954999D01*
X123720000Y-88494999D02*
X123720000Y-88199999D01*
%TO.C,R8*%
X117695000Y-80048733D02*
X117695000Y-80391267D01*
X116675000Y-80048733D02*
X116675000Y-80391267D01*
%TO.C,R16*%
X121290000Y-113328733D02*
X121290000Y-113671267D01*
X122310000Y-113328733D02*
X122310000Y-113671267D01*
%TO.C,R17*%
X120810000Y-113328733D02*
X120810000Y-113671267D01*
X119790000Y-113328733D02*
X119790000Y-113671267D01*
%TO.C,R18*%
X102428733Y-130435000D02*
X102771267Y-130435000D01*
X102428733Y-129415000D02*
X102771267Y-129415000D01*
%TO.C,U3*%
X138760000Y-129325000D02*
X138760000Y-124200000D01*
X139450000Y-130825000D02*
X139450000Y-129325000D01*
X129740000Y-129325000D02*
X129740000Y-128225000D01*
X139450000Y-129325000D02*
X138760000Y-129325000D01*
X129050000Y-130825000D02*
X129050000Y-129325000D01*
X129050000Y-129325000D02*
X129740000Y-129325000D01*
%TO.C,U6*%
X99290000Y-126735000D02*
X99290000Y-126035000D01*
X99990000Y-112515000D02*
X99290000Y-112515000D01*
X113510000Y-112515000D02*
X113510000Y-113215000D01*
X113510000Y-126735000D02*
X113510000Y-126035000D01*
X113510000Y-126035000D02*
X114875000Y-126035000D01*
X99290000Y-112515000D02*
X99290000Y-113215000D01*
X112810000Y-112515000D02*
X113510000Y-112515000D01*
X112810000Y-126735000D02*
X113510000Y-126735000D01*
X99990000Y-126735000D02*
X99290000Y-126735000D01*
%TO.C,R7*%
X100320000Y-90933733D02*
X100320000Y-91276267D01*
X101340000Y-90933733D02*
X101340000Y-91276267D01*
%TO.C,C21*%
X109030000Y-87571267D02*
X109030000Y-87228733D01*
X110050000Y-87571267D02*
X110050000Y-87228733D01*
%TO.C,R11*%
X111813733Y-86995000D02*
X112156267Y-86995000D01*
X111813733Y-85975000D02*
X112156267Y-85975000D01*
D19*
%TO.C,J4*%
X119450000Y-54975000D02*
X122250000Y-54975000D01*
X124900000Y-70475000D02*
X116800000Y-70475000D01*
X122250000Y-54975000D02*
X123150000Y-55995000D01*
X116800000Y-70475000D02*
X116800000Y-57975000D01*
X116800000Y-57975000D02*
X117800000Y-56845000D01*
X124900000Y-57975000D02*
X124900000Y-70475000D01*
X119450000Y-54975000D02*
X118550000Y-55995000D01*
X124900000Y-57975000D02*
X123900000Y-56845000D01*
D20*
X120900000Y-54325000D02*
G75*
G03*
X120900000Y-54325000I-150000J0D01*
G01*
D19*
%TO.C,J2*%
X138800000Y-54975000D02*
X141600000Y-54975000D01*
X136150000Y-70475000D02*
X136150000Y-57975000D01*
X144250000Y-57975000D02*
X143250000Y-56845000D01*
X136150000Y-57975000D02*
X137150000Y-56845000D01*
X138800000Y-54975000D02*
X137900000Y-55995000D01*
X144250000Y-70475000D02*
X136150000Y-70475000D01*
X141600000Y-54975000D02*
X142500000Y-55995000D01*
X144250000Y-57975000D02*
X144250000Y-70475000D01*
D20*
X140250000Y-54325000D02*
G75*
G03*
X140250000Y-54325000I-150000J0D01*
G01*
D19*
%TO.C,J6*%
X100100000Y-54975000D02*
X99200000Y-55995000D01*
X105550000Y-57975000D02*
X105550000Y-70475000D01*
X105550000Y-57975000D02*
X104550000Y-56845000D01*
X100100000Y-54975000D02*
X102900000Y-54975000D01*
X102900000Y-54975000D02*
X103800000Y-55995000D01*
X105550000Y-70475000D02*
X97450000Y-70475000D01*
X97450000Y-70475000D02*
X97450000Y-57975000D01*
X97450000Y-57975000D02*
X98450000Y-56845000D01*
D20*
X101550000Y-54325000D02*
G75*
G03*
X101550000Y-54325000I-150000J0D01*
G01*
D13*
%TO.C,R3*%
X124890000Y-72610436D02*
X124890000Y-73814564D01*
X126710000Y-72610436D02*
X126710000Y-73814564D01*
D12*
%TO.C,RV1*%
X130550000Y-76725000D02*
X140250000Y-76725000D01*
X130550000Y-81725000D02*
X130550000Y-76725000D01*
X140250000Y-81725000D02*
X130550000Y-81725000D01*
X140250000Y-76725000D02*
X140250000Y-81725000D01*
D13*
%TO.C,R5*%
X105290000Y-72610436D02*
X105290000Y-73814564D01*
X107110000Y-72610436D02*
X107110000Y-73814564D01*
%TO.C,R1*%
X139890000Y-73814564D02*
X139890000Y-72610436D01*
X141710000Y-73814564D02*
X141710000Y-72610436D01*
%TO.C,R2*%
X134490000Y-72610436D02*
X134490000Y-73814564D01*
X136310000Y-72610436D02*
X136310000Y-73814564D01*
%TO.C,R4*%
X115290000Y-72610436D02*
X115290000Y-73814564D01*
X117110000Y-72610436D02*
X117110000Y-73814564D01*
%TO.C,J1*%
X149400000Y-69675000D02*
X146600000Y-69675000D01*
X155800000Y-55075000D02*
X155800000Y-69675000D01*
X146600000Y-64075000D02*
X146600000Y-55075000D01*
X156040000Y-69915000D02*
X154300000Y-69915000D01*
X146600000Y-69675000D02*
X146600000Y-67675000D01*
X146600000Y-55075000D02*
X155800000Y-55075000D01*
X156040000Y-68175000D02*
X156040000Y-69915000D01*
X155800000Y-69675000D02*
X153000000Y-69675000D01*
%TO.C,C16*%
X97890000Y-72635436D02*
X97890000Y-73839564D01*
X99710000Y-72635436D02*
X99710000Y-73839564D01*
%TO.C,C15*%
X102690000Y-73839564D02*
X102690000Y-72635436D01*
X104510000Y-73839564D02*
X104510000Y-72635436D01*
%TO.C,C14*%
X111802064Y-71015000D02*
X110597936Y-71015000D01*
X111802064Y-72835000D02*
X110597936Y-72835000D01*
%TO.C,C13*%
X121602064Y-71015000D02*
X120397936Y-71015000D01*
X121602064Y-72835000D02*
X120397936Y-72835000D01*
%TO.C,C12*%
X131202064Y-71015000D02*
X129997936Y-71015000D01*
X131202064Y-72835000D02*
X129997936Y-72835000D01*
%TO.C,C11*%
X136890000Y-72610436D02*
X136890000Y-73814564D01*
X138710000Y-72610436D02*
X138710000Y-73814564D01*
D19*
%TO.C,J5*%
X115225000Y-54975000D02*
X115225000Y-67475000D01*
X107125000Y-67475000D02*
X107125000Y-54975000D01*
X112575000Y-70475000D02*
X113475000Y-69455000D01*
X107125000Y-54975000D02*
X115225000Y-54975000D01*
X107125000Y-67475000D02*
X108125000Y-68605000D01*
X109775000Y-70475000D02*
X108875000Y-69455000D01*
X112575000Y-70475000D02*
X109775000Y-70475000D01*
X115225000Y-67475000D02*
X114225000Y-68605000D01*
D20*
X111425000Y-71125000D02*
G75*
G03*
X111425000Y-71125000I-150000J0D01*
G01*
D19*
%TO.C,J3*%
X129125000Y-70475000D02*
X128225000Y-69455000D01*
X126475000Y-54975000D02*
X134575000Y-54975000D01*
X131925000Y-70475000D02*
X129125000Y-70475000D01*
X126475000Y-67475000D02*
X127475000Y-68605000D01*
X134575000Y-54975000D02*
X134575000Y-67475000D01*
X134575000Y-67475000D02*
X133575000Y-68605000D01*
X131925000Y-70475000D02*
X132825000Y-69455000D01*
X126475000Y-67475000D02*
X126475000Y-54975000D01*
D20*
X130775000Y-71125000D02*
G75*
G03*
X130775000Y-71125000I-150000J0D01*
G01*
D13*
%TO.C,C27*%
X97290000Y-128041233D02*
X97290000Y-128333767D01*
X98310000Y-128041233D02*
X98310000Y-128333767D01*
%TO.C,R12*%
X117546266Y-84535000D02*
X117203732Y-84535000D01*
X117546266Y-83515000D02*
X117203732Y-83515000D01*
%TO.C,C36*%
X117380000Y-117908766D02*
X117380000Y-117616232D01*
X118400000Y-117908766D02*
X118400000Y-117616232D01*
%TO.C,C32*%
X116910000Y-122041233D02*
X116910000Y-122333767D01*
X115890000Y-122041233D02*
X115890000Y-122333767D01*
%TO.C,C34*%
X102010000Y-108908766D02*
X102010000Y-108616232D01*
X100990000Y-108908766D02*
X100990000Y-108616232D01*
%TO.C,R9*%
X105202064Y-89645000D02*
X103997936Y-89645000D01*
X105202064Y-87825000D02*
X103997936Y-87825000D01*
%TO.C,R19*%
X107396268Y-129415000D02*
X107053734Y-129415000D01*
X107396268Y-130435000D02*
X107053734Y-130435000D01*
%TO.C,R13*%
X124610000Y-82871267D02*
X124610000Y-82528733D01*
X123590000Y-82871267D02*
X123590000Y-82528733D01*
%TO.C,C31*%
X96190000Y-122818766D02*
X96190000Y-122526232D01*
X97210000Y-122818766D02*
X97210000Y-122526232D01*
%TO.C,C20*%
X97310000Y-72083733D02*
X97310000Y-72426267D01*
X96290000Y-72083733D02*
X96290000Y-72426267D01*
%TO.C,U5*%
X95840000Y-81987500D02*
X95840000Y-85587500D01*
X102610000Y-81987500D02*
X102610000Y-79787500D01*
X102610000Y-81987500D02*
X102610000Y-84187500D01*
X95840000Y-81987500D02*
X95840000Y-79787500D01*
%TO.C,C22*%
X110887936Y-77815000D02*
X112092064Y-77815000D01*
X110887936Y-75995000D02*
X112092064Y-75995000D01*
%TO.C,C19*%
X105202064Y-90125000D02*
X103997936Y-90125000D01*
X105202064Y-91945000D02*
X103997936Y-91945000D01*
%TO.C,D3*%
X101015000Y-89180000D02*
X101015000Y-86895000D01*
X99545000Y-86895000D02*
X99545000Y-89180000D01*
X99545000Y-89180000D02*
X101015000Y-89180000D01*
%TO.C,R15*%
X128710000Y-84328733D02*
X128710000Y-84671267D01*
X127690000Y-84328733D02*
X127690000Y-84671267D01*
%TO.C,R14*%
X97020000Y-64706267D02*
X97020000Y-64363733D01*
X96000000Y-64706267D02*
X96000000Y-64363733D01*
%TO.C,C29*%
X115316233Y-110415000D02*
X115608767Y-110415000D01*
X115316233Y-111435000D02*
X115608767Y-111435000D01*
D18*
%TO.C,C10*%
X117100000Y-136525000D02*
X117100000Y-127625000D01*
X118750000Y-137925000D02*
X117100000Y-136525000D01*
X127400000Y-136525000D02*
X125750000Y-137925000D01*
X122250000Y-140475000D02*
X122250000Y-140475000D01*
X127400000Y-127625000D02*
X127400000Y-136525000D01*
X122250000Y-140575000D02*
X122250000Y-140575000D01*
X124000000Y-127625000D02*
X127400000Y-127625000D01*
X122250000Y-140475000D02*
X122250000Y-140475000D01*
X120500000Y-137925000D02*
X118750000Y-137925000D01*
X125750000Y-137925000D02*
X124000000Y-137925000D01*
X117100000Y-127625000D02*
X120500000Y-127625000D01*
X122250000Y-140475000D02*
G75*
G03*
X122250000Y-140575000I0J-50000D01*
G01*
X122250000Y-140475000D02*
G75*
G03*
X122250000Y-140575000I0J-50000D01*
G01*
X122250000Y-140575000D02*
G75*
G03*
X122250000Y-140475000I0J50000D01*
G01*
D13*
%TO.C,R6*%
X102110000Y-72635436D02*
X102110000Y-73839564D01*
X100290000Y-72635436D02*
X100290000Y-73839564D01*
D19*
%TO.C,J7*%
X154750000Y-80075000D02*
X155880000Y-79075000D01*
X142250000Y-71975000D02*
X154750000Y-71975000D01*
X157750000Y-77425000D02*
X156730000Y-78325000D01*
X154750000Y-71975000D02*
X155880000Y-72975000D01*
X157750000Y-74625000D02*
X156730000Y-73725000D01*
X142250000Y-80075000D02*
X142250000Y-71975000D01*
X157750000Y-74625000D02*
X157750000Y-77425000D01*
X154750000Y-80075000D02*
X142250000Y-80075000D01*
D20*
X158550000Y-75925000D02*
G75*
G03*
X158550000Y-75925000I-150000J0D01*
G01*
D18*
%TO.C,C4*%
X133000000Y-98500000D02*
X134650000Y-96890000D01*
X134650000Y-96890000D02*
X134650000Y-90200000D01*
X126350000Y-96850000D02*
X127960000Y-98500000D01*
X130500000Y-100550000D02*
X130500000Y-100550000D01*
X130500000Y-100550000D02*
X130500000Y-100550000D01*
X134650000Y-90200000D02*
X132000000Y-90200000D01*
X127960000Y-98500000D02*
X129000000Y-98500000D01*
X132000000Y-98500000D02*
X133000000Y-98500000D01*
X126350000Y-90200000D02*
X126350000Y-96850000D01*
X129000000Y-90200000D02*
X126350000Y-90200000D01*
X130500000Y-100450000D02*
X130500000Y-100450000D01*
X130500000Y-100550000D02*
G75*
G03*
X130500000Y-100450000I0J50000D01*
G01*
X130500000Y-100450000D02*
G75*
G03*
X130500000Y-100550000I0J-50000D01*
G01*
X130500000Y-100550000D02*
G75*
G03*
X130500000Y-100450000I0J50000D01*
G01*
%TO.C,C7*%
X139750001Y-118500000D02*
X139750001Y-119550000D01*
D13*
%TO.C,D2*%
X142650000Y-87855000D02*
X142380000Y-87855000D01*
X142650000Y-89355000D02*
X142650000Y-87855000D01*
X142380000Y-87855000D02*
X142380000Y-85025000D01*
X136020000Y-87855000D02*
X136020000Y-86755000D01*
X135750000Y-89355000D02*
X135750000Y-87855000D01*
X135750000Y-87855000D02*
X136020000Y-87855000D01*
D18*
%TO.C,C9*%
X134000000Y-101725000D02*
X134000000Y-101725000D01*
X137300000Y-110125000D02*
X137300000Y-105025000D01*
X134000000Y-101625000D02*
X134000000Y-101625000D01*
X134000000Y-101725000D02*
X134000000Y-101725000D01*
X137300000Y-105025000D02*
X135800000Y-103525000D01*
X132200000Y-103525000D02*
X130700000Y-105025000D01*
X130700000Y-105025000D02*
X130700000Y-110125000D01*
X130700000Y-110125000D02*
X132500000Y-110125000D01*
X135500000Y-110125000D02*
X137300000Y-110125000D01*
X132500000Y-103525000D02*
X132200000Y-103525000D01*
X135800000Y-103525000D02*
X135500000Y-103525000D01*
X134000000Y-101625000D02*
G75*
G03*
X134000000Y-101725000I0J-50000D01*
G01*
X134000000Y-101725000D02*
G75*
G03*
X134000000Y-101625000I0J50000D01*
G01*
X134000000Y-101725000D02*
G75*
G03*
X134000000Y-101625000I0J50000D01*
G01*
%TO.C,C8*%
X137300000Y-99125000D02*
X138350000Y-99125000D01*
%TO.C,L2*%
X156850000Y-94875000D02*
X156850000Y-81175000D01*
X143950000Y-81175000D02*
X143950000Y-94875000D01*
D13*
%TO.C,U4*%
X145950000Y-106865000D02*
X144450000Y-106865000D01*
X144450000Y-106865000D02*
X144450000Y-106175000D01*
X144450000Y-106175000D02*
X143350000Y-106175000D01*
X144450000Y-97155000D02*
X139325000Y-97155000D01*
X144450000Y-96465000D02*
X144450000Y-97155000D01*
X145950000Y-96465000D02*
X144450000Y-96465000D01*
%TO.C,C25*%
X123964470Y-117937071D02*
X123964470Y-118229605D01*
X124984470Y-117937071D02*
X124984470Y-118229605D01*
%TO.C,U1*%
X134032000Y-83076500D02*
X130679200Y-83076500D01*
X130679200Y-86378500D02*
X134032000Y-86378500D01*
%TO.C,JP1*%
X109160000Y-135345000D02*
X107830000Y-135345000D01*
X107830000Y-135345000D02*
X107830000Y-134015000D01*
X110430000Y-132685000D02*
X115570000Y-132685000D01*
X110430000Y-135345000D02*
X115570000Y-135345000D01*
X110430000Y-135345000D02*
X110430000Y-132685000D01*
X115570000Y-135345000D02*
X115570000Y-132685000D01*
%TO.C,SW1*%
X106110000Y-102765000D02*
X106110000Y-96305000D01*
X99680000Y-102765000D02*
X99650000Y-102765000D01*
X101580000Y-96305000D02*
X104180000Y-96305000D01*
X99650000Y-102765000D02*
X99650000Y-96305000D01*
X106110000Y-102765000D02*
X106080000Y-102765000D01*
X106110000Y-96305000D02*
X106080000Y-96305000D01*
X99650000Y-96305000D02*
X99680000Y-96305000D01*
X101580000Y-102765000D02*
X104180000Y-102765000D01*
D19*
%TO.C,Y1*%
X119913721Y-122789861D02*
X119913721Y-116789861D01*
X123413721Y-116789861D02*
X123413721Y-122789861D01*
D13*
%TO.C,U2*%
X103942000Y-132543999D02*
X100589200Y-132543999D01*
X100589200Y-135845999D02*
X103942000Y-135845999D01*
%TO.C,C24*%
X123964470Y-121631128D02*
X123964470Y-121338594D01*
X124984470Y-121631128D02*
X124984470Y-121338594D01*
%TO.C,G\u002A\u002A\u002A*%
G36*
X129583233Y-122923506D02*
G01*
X129505224Y-122834932D01*
X129438962Y-122751351D01*
X129411637Y-122712939D01*
X129374222Y-122650539D01*
X129335124Y-122572033D01*
X129295835Y-122481203D01*
X129257848Y-122381833D01*
X129222655Y-122277709D01*
X129191750Y-122172611D01*
X129178850Y-122122823D01*
X129138875Y-121919033D01*
X129118490Y-121711530D01*
X129118105Y-121614406D01*
X129857707Y-121614406D01*
X129867398Y-121742843D01*
X129868211Y-121748827D01*
X129886773Y-121842146D01*
X129917098Y-121945491D01*
X129957274Y-122054098D01*
X130005390Y-122163206D01*
X130059534Y-122268048D01*
X130110589Y-122352906D01*
X130145190Y-122400003D01*
X130190924Y-122453622D01*
X130243014Y-122508862D01*
X130296686Y-122560820D01*
X130347166Y-122604593D01*
X130378778Y-122628239D01*
X130512616Y-122707074D01*
X130656444Y-122768602D01*
X130810411Y-122812867D01*
X130974663Y-122839908D01*
X131149349Y-122849769D01*
X131156413Y-122849805D01*
X131249130Y-122848892D01*
X131326890Y-122845085D01*
X131394744Y-122837816D01*
X131457747Y-122826520D01*
X131520945Y-122810630D01*
X131530574Y-122807869D01*
X131625047Y-122774259D01*
X131726215Y-122727414D01*
X131828833Y-122670322D01*
X131927656Y-122605973D01*
X132017441Y-122537355D01*
X132041502Y-122516674D01*
X132054396Y-122503027D01*
X132075918Y-122478018D01*
X132102250Y-122446124D01*
X132113573Y-122432071D01*
X132142647Y-122393365D01*
X132176920Y-122344154D01*
X132211624Y-122291435D01*
X132235824Y-122252548D01*
X132333703Y-122071009D01*
X132415731Y-121877933D01*
X132481708Y-121674462D01*
X132531436Y-121461741D01*
X132564712Y-121240910D01*
X132581339Y-121013113D01*
X132581115Y-120779494D01*
X132563842Y-120541193D01*
X132552081Y-120444577D01*
X132546308Y-120406022D01*
X132537414Y-120351664D01*
X132526087Y-120285478D01*
X132513019Y-120211441D01*
X132498898Y-120133529D01*
X132486792Y-120068331D01*
X132469589Y-119976190D01*
X132456150Y-119902763D01*
X132446310Y-119847013D01*
X132439911Y-119807896D01*
X132436789Y-119784372D01*
X132436783Y-119775402D01*
X132439731Y-119779942D01*
X132443876Y-119791873D01*
X132455220Y-119816418D01*
X132465593Y-119821360D01*
X132472656Y-119807194D01*
X132474377Y-119785439D01*
X132470969Y-119751514D01*
X132461290Y-119701808D01*
X132446061Y-119638464D01*
X132426001Y-119563626D01*
X132401829Y-119479435D01*
X132374264Y-119388035D01*
X132344025Y-119291568D01*
X132311833Y-119192178D01*
X132278405Y-119092008D01*
X132244462Y-118993200D01*
X132210722Y-118897897D01*
X132177906Y-118808244D01*
X132146731Y-118726381D01*
X132117919Y-118654452D01*
X132092188Y-118594600D01*
X132070257Y-118548968D01*
X132052844Y-118519699D01*
X132047269Y-118513015D01*
X132040148Y-118506987D01*
X132032241Y-118504611D01*
X132021562Y-118507281D01*
X132006121Y-118516387D01*
X131983934Y-118533325D01*
X131953011Y-118559486D01*
X131911366Y-118596263D01*
X131857012Y-118645049D01*
X131850476Y-118650935D01*
X131618327Y-118862876D01*
X131403118Y-119065411D01*
X131204327Y-119259170D01*
X131021430Y-119444786D01*
X130853902Y-119622889D01*
X130701222Y-119794111D01*
X130562867Y-119959081D01*
X130438311Y-120118434D01*
X130327033Y-120272798D01*
X130228510Y-120422806D01*
X130142218Y-120569088D01*
X130067633Y-120712277D01*
X130004232Y-120853002D01*
X129984610Y-120901731D01*
X129937881Y-121038884D01*
X129901215Y-121183163D01*
X129875225Y-121330132D01*
X129860520Y-121475358D01*
X129857707Y-121614406D01*
X129118105Y-121614406D01*
X129117656Y-121501118D01*
X129136332Y-121288600D01*
X129174479Y-121074778D01*
X129232057Y-120860456D01*
X129243146Y-120825938D01*
X129315942Y-120621735D01*
X129396424Y-120430566D01*
X129487054Y-120247599D01*
X129590298Y-120068000D01*
X129708620Y-119886936D01*
X129756594Y-119818770D01*
X129814995Y-119738048D01*
X129870844Y-119662706D01*
X129925572Y-119591131D01*
X129980611Y-119521713D01*
X130037392Y-119452840D01*
X130097349Y-119382902D01*
X130161912Y-119310287D01*
X130232514Y-119233382D01*
X130310585Y-119150576D01*
X130397559Y-119060260D01*
X130494866Y-118960821D01*
X130603939Y-118850646D01*
X130721606Y-118732726D01*
X130812432Y-118642060D01*
X130894419Y-118560481D01*
X130969375Y-118486283D01*
X131039107Y-118417759D01*
X131105420Y-118353204D01*
X131170120Y-118290910D01*
X131235015Y-118229174D01*
X131301911Y-118166287D01*
X131372613Y-118100545D01*
X131448929Y-118030240D01*
X131532664Y-117953667D01*
X131625625Y-117869120D01*
X131729619Y-117774894D01*
X131846452Y-117669279D01*
X131871604Y-117646562D01*
X132080735Y-117456733D01*
X132274169Y-117279141D01*
X132452075Y-117113619D01*
X132614629Y-116959997D01*
X132762001Y-116818110D01*
X132894364Y-116687790D01*
X133011889Y-116568868D01*
X133114749Y-116461179D01*
X133203117Y-116364552D01*
X133277164Y-116278822D01*
X133279027Y-116276585D01*
X133421268Y-116100417D01*
X133546986Y-115933595D01*
X133656793Y-115774876D01*
X133751300Y-115623021D01*
X133831121Y-115476787D01*
X133896868Y-115334930D01*
X133949151Y-115196212D01*
X133988584Y-115059388D01*
X134015778Y-114923218D01*
X134031347Y-114786460D01*
X134033828Y-114745437D01*
X134032289Y-114605753D01*
X134015343Y-114457954D01*
X133984091Y-114305468D01*
X133939633Y-114151722D01*
X133883071Y-114000143D01*
X133815507Y-113854156D01*
X133738041Y-113717191D01*
X133672068Y-113619665D01*
X133584476Y-113514804D01*
X133479733Y-113414157D01*
X133360664Y-113319352D01*
X133230098Y-113232020D01*
X133090857Y-113153788D01*
X132945769Y-113086287D01*
X132797660Y-113031145D01*
X132649354Y-112989993D01*
X132545612Y-112970179D01*
X132423285Y-112958979D01*
X132293128Y-112960527D01*
X132160210Y-112974060D01*
X132029599Y-112998818D01*
X131906365Y-113034037D01*
X131795573Y-113078956D01*
X131783878Y-113084701D01*
X131734232Y-113114697D01*
X131674984Y-113159224D01*
X131608266Y-113216436D01*
X131536209Y-113284492D01*
X131460947Y-113361550D01*
X131450502Y-113372709D01*
X131373292Y-113457940D01*
X131309479Y-113533857D01*
X131256671Y-113603654D01*
X131212476Y-113670528D01*
X131174505Y-113737671D01*
X131168249Y-113749829D01*
X131141516Y-113800422D01*
X131120225Y-113834389D01*
X131102064Y-113853697D01*
X131084724Y-113860310D01*
X131065894Y-113856197D01*
X131051939Y-113848810D01*
X131026527Y-113826453D01*
X131013676Y-113796562D01*
X131013580Y-113757612D01*
X131026433Y-113708081D01*
X131052427Y-113646445D01*
X131085740Y-113582049D01*
X131182902Y-113425307D01*
X131294401Y-113282477D01*
X131419721Y-113154063D01*
X131558345Y-113040564D01*
X131709759Y-112942483D01*
X131785767Y-112901565D01*
X131895750Y-112850180D01*
X131999409Y-112811457D01*
X132104052Y-112783230D01*
X132216988Y-112763330D01*
X132276328Y-112756096D01*
X132324185Y-112748197D01*
X132373036Y-112735725D01*
X132412358Y-112721371D01*
X132412569Y-112721274D01*
X132468421Y-112704290D01*
X132538882Y-112697365D01*
X132621489Y-112699865D01*
X132713778Y-112711165D01*
X132813283Y-112730632D01*
X132917540Y-112757639D01*
X133024085Y-112791554D01*
X133130453Y-112831751D01*
X133234181Y-112877598D01*
X133332803Y-112928465D01*
X133413510Y-112976946D01*
X133571432Y-113091051D01*
X133719486Y-113221747D01*
X133856158Y-113367290D01*
X133979929Y-113525941D01*
X134089285Y-113695961D01*
X134166497Y-113841317D01*
X134188276Y-113888756D01*
X134214338Y-113949287D01*
X134242238Y-114017020D01*
X134269532Y-114086059D01*
X134286841Y-114131655D01*
X134318459Y-114216057D01*
X134344115Y-114283031D01*
X134364484Y-114334168D01*
X134380246Y-114371056D01*
X134392076Y-114395287D01*
X134400652Y-114408449D01*
X134406325Y-114412150D01*
X134412397Y-114402826D01*
X134411915Y-114375623D01*
X134405032Y-114331655D01*
X134391902Y-114272038D01*
X134380880Y-114228418D01*
X134366886Y-114172751D01*
X134352971Y-114113376D01*
X134341220Y-114059349D01*
X134336417Y-114035109D01*
X134305542Y-113914315D01*
X134257483Y-113787166D01*
X134193322Y-113655796D01*
X134114142Y-113522336D01*
X134021026Y-113388920D01*
X133983881Y-113340780D01*
X133947336Y-113297222D01*
X133900336Y-113245087D01*
X133846083Y-113187579D01*
X133787777Y-113127900D01*
X133728619Y-113069253D01*
X133671809Y-113014842D01*
X133620549Y-112967869D01*
X133578037Y-112931538D01*
X133563867Y-112920452D01*
X133464578Y-112853141D01*
X133349998Y-112788271D01*
X133224982Y-112728288D01*
X133094383Y-112675635D01*
X133040257Y-112656703D01*
X132919646Y-112619997D01*
X132801816Y-112591958D01*
X132680610Y-112571469D01*
X132549870Y-112557416D01*
X132458851Y-112551310D01*
X132398004Y-112547375D01*
X132338935Y-112542405D01*
X132286945Y-112536927D01*
X132247337Y-112531467D01*
X132234705Y-112529099D01*
X132177028Y-112523592D01*
X132103975Y-112528236D01*
X132017343Y-112542657D01*
X131918930Y-112566480D01*
X131810535Y-112599331D01*
X131693953Y-112640833D01*
X131688299Y-112642992D01*
X131584624Y-112686688D01*
X131490204Y-112735630D01*
X131400969Y-112792565D01*
X131312852Y-112860241D01*
X131221784Y-112941404D01*
X131166062Y-112995690D01*
X131086653Y-113078041D01*
X131019431Y-113154968D01*
X130960688Y-113231604D01*
X130906717Y-113313079D01*
X130853812Y-113404530D01*
X130808541Y-113490724D01*
X130783573Y-113538364D01*
X130760276Y-113580058D01*
X130740771Y-113612197D01*
X130727184Y-113631177D01*
X130724075Y-113634148D01*
X130716181Y-113634510D01*
X130716966Y-113619634D01*
X130725337Y-113591896D01*
X130740206Y-113553674D01*
X130760481Y-113507345D01*
X130785071Y-113455284D01*
X130812886Y-113399870D01*
X130842834Y-113343479D01*
X130873826Y-113288488D01*
X130904770Y-113237273D01*
X130909947Y-113229113D01*
X130926813Y-113203945D01*
X130945640Y-113178754D01*
X130968502Y-113151242D01*
X130997477Y-113119111D01*
X131034639Y-113080063D01*
X131082068Y-113031800D01*
X131141837Y-112972025D01*
X131145688Y-112968194D01*
X131229319Y-112885996D01*
X131302244Y-112816994D01*
X131367190Y-112759370D01*
X131426882Y-112711306D01*
X131484045Y-112670988D01*
X131541406Y-112636597D01*
X131601689Y-112606316D01*
X131667620Y-112578331D01*
X131741925Y-112550823D01*
X131803124Y-112529965D01*
X131926406Y-112491404D01*
X132038574Y-112461975D01*
X132145818Y-112440496D01*
X132254326Y-112425783D01*
X132370286Y-112416653D01*
X132404480Y-112414956D01*
X132567251Y-112415609D01*
X132736061Y-112430890D01*
X132905981Y-112459809D01*
X133072082Y-112501375D01*
X133229435Y-112554594D01*
X133343803Y-112603977D01*
X133428759Y-112644782D01*
X134323558Y-113539582D01*
X134369262Y-113634127D01*
X134437482Y-113787741D01*
X134499405Y-113951916D01*
X134553191Y-114120755D01*
X134597002Y-114288361D01*
X134629000Y-114448842D01*
X134634580Y-114484707D01*
X134642209Y-114556690D01*
X134646590Y-114642224D01*
X134647702Y-114734979D01*
X134645525Y-114828620D01*
X134640037Y-114916820D01*
X134636146Y-114956009D01*
X134619483Y-115068851D01*
X134594619Y-115192824D01*
X134563167Y-115321897D01*
X134526744Y-115450039D01*
X134486962Y-115571219D01*
X134445435Y-115679407D01*
X134437666Y-115697571D01*
X134421117Y-115733199D01*
X134396866Y-115782231D01*
X134366321Y-115842064D01*
X134330890Y-115910092D01*
X134291980Y-115983714D01*
X134251002Y-116060324D01*
X134209363Y-116137319D01*
X134168471Y-116212096D01*
X134129735Y-116282049D01*
X134094563Y-116344575D01*
X134064363Y-116397071D01*
X134040544Y-116436933D01*
X134024514Y-116461557D01*
X134024242Y-116461932D01*
X134004390Y-116488214D01*
X133980596Y-116517798D01*
X133952127Y-116551452D01*
X133918249Y-116589937D01*
X133878225Y-116634019D01*
X133831323Y-116684461D01*
X133776807Y-116742026D01*
X133713943Y-116807480D01*
X133641997Y-116881585D01*
X133560233Y-116965106D01*
X133467917Y-117058808D01*
X133364316Y-117163453D01*
X133248694Y-117279806D01*
X133120316Y-117408631D01*
X132978448Y-117550693D01*
X132952296Y-117576855D01*
X132146018Y-118383333D01*
X132158550Y-118402849D01*
X132192822Y-118457169D01*
X132226026Y-118511979D01*
X132259535Y-118569802D01*
X132294725Y-118633165D01*
X132332969Y-118704591D01*
X132375645Y-118786604D01*
X132424125Y-118881731D01*
X132479785Y-118992493D01*
X132481197Y-118995318D01*
X132563947Y-119161821D01*
X132640968Y-119318735D01*
X132711866Y-119465201D01*
X132776245Y-119600360D01*
X132833714Y-119723354D01*
X132883875Y-119833322D01*
X132926335Y-119929405D01*
X132960700Y-120010744D01*
X132986574Y-120076479D01*
X133003564Y-120125751D01*
X133008763Y-120144609D01*
X133016775Y-120175653D01*
X133023644Y-120197796D01*
X133026846Y-120204747D01*
X133029453Y-120198232D01*
X133031461Y-120176383D01*
X133032405Y-120145562D01*
X133030549Y-120096847D01*
X133023893Y-120039351D01*
X133012116Y-119971755D01*
X132994894Y-119892742D01*
X132971908Y-119800996D01*
X132942831Y-119695198D01*
X132907344Y-119574031D01*
X132865124Y-119436178D01*
X132836477Y-119345071D01*
X132802022Y-119235727D01*
X132773731Y-119144422D01*
X132751317Y-119070115D01*
X132734492Y-119011762D01*
X132722968Y-118968322D01*
X132716459Y-118938752D01*
X132714674Y-118922011D01*
X132717328Y-118917056D01*
X132718420Y-118917415D01*
X132730831Y-118930503D01*
X132750323Y-118959794D01*
X132775798Y-119003084D01*
X132806160Y-119058169D01*
X132840309Y-119122844D01*
X132877149Y-119194906D01*
X132915582Y-119272149D01*
X132954508Y-119352371D01*
X132992832Y-119433367D01*
X133029455Y-119512932D01*
X133063279Y-119588864D01*
X133093206Y-119658956D01*
X133116326Y-119716318D01*
X133171662Y-119877576D01*
X133219089Y-120054235D01*
X133258299Y-120243046D01*
X133288984Y-120440757D01*
X133310837Y-120644116D01*
X133323550Y-120849872D01*
X133326815Y-121054774D01*
X133320326Y-121255572D01*
X133303774Y-121449012D01*
X133290057Y-121552501D01*
X133251002Y-121754436D01*
X133195493Y-121955680D01*
X133124716Y-122154072D01*
X133039856Y-122347455D01*
X132942100Y-122533667D01*
X132832633Y-122710551D01*
X132712641Y-122875946D01*
X132583309Y-123027694D01*
X132445824Y-123163634D01*
X132369363Y-123229098D01*
X132225435Y-123333150D01*
X132068979Y-123422681D01*
X131901848Y-123497276D01*
X131725893Y-123556523D01*
X131542964Y-123600006D01*
X131354913Y-123627310D01*
X131163594Y-123638024D01*
X130970854Y-123631730D01*
X130778546Y-123608016D01*
X130722191Y-123597636D01*
X130621058Y-123573422D01*
X130511026Y-123539830D01*
X130397119Y-123498891D01*
X130284362Y-123452634D01*
X130177776Y-123403088D01*
X130082388Y-123352283D01*
X130020884Y-123314352D01*
X129939254Y-123255210D01*
X129850998Y-123182927D01*
X129759794Y-123101131D01*
X129704413Y-123047463D01*
X129669314Y-123013448D01*
X129583233Y-122923506D01*
G37*
G36*
X130530349Y-113685175D02*
G01*
X130560344Y-113695490D01*
X130604435Y-113714580D01*
X130661068Y-113741600D01*
X130728687Y-113775702D01*
X130805736Y-113816041D01*
X130890661Y-113861770D01*
X130981905Y-113912042D01*
X131077911Y-113966011D01*
X131177125Y-114022831D01*
X131277992Y-114081654D01*
X131378955Y-114141635D01*
X131478459Y-114201928D01*
X131562917Y-114254154D01*
X131726429Y-114356316D01*
X132072070Y-115133701D01*
X132156393Y-115323490D01*
X132232639Y-115495389D01*
X132301012Y-115649870D01*
X132361718Y-115787404D01*
X132414963Y-115908464D01*
X132460951Y-116013518D01*
X132499888Y-116103041D01*
X132531980Y-116177503D01*
X132557430Y-116237375D01*
X132576446Y-116283128D01*
X132589231Y-116315235D01*
X132595991Y-116334166D01*
X132597252Y-116339687D01*
X132588664Y-116340153D01*
X132565192Y-116333419D01*
X132530276Y-116320652D01*
X132487353Y-116303020D01*
X132480734Y-116300157D01*
X132418652Y-116272053D01*
X132345955Y-116237310D01*
X132264612Y-116197007D01*
X132176590Y-116152224D01*
X132083856Y-116104040D01*
X131988380Y-116053534D01*
X131892127Y-116001785D01*
X131797067Y-115949872D01*
X131705164Y-115898874D01*
X131618389Y-115849872D01*
X131538710Y-115803942D01*
X131468092Y-115762164D01*
X131408504Y-115725620D01*
X131361914Y-115695385D01*
X131330289Y-115672540D01*
X131320133Y-115663662D01*
X131303163Y-115640990D01*
X131279679Y-115600954D01*
X131250315Y-115545019D01*
X131215708Y-115474650D01*
X131176495Y-115391317D01*
X131133309Y-115296482D01*
X131086787Y-115191613D01*
X131037565Y-115078176D01*
X130986278Y-114957637D01*
X130933562Y-114831463D01*
X130880053Y-114701118D01*
X130826386Y-114568070D01*
X130773198Y-114433786D01*
X130721123Y-114299730D01*
X130670798Y-114167368D01*
X130667205Y-114157798D01*
X130636311Y-114074046D01*
X130607422Y-113993069D01*
X130581233Y-113917037D01*
X130558436Y-113848123D01*
X130539726Y-113788497D01*
X130525796Y-113740330D01*
X130517341Y-113705794D01*
X130515051Y-113687060D01*
X130516008Y-113684484D01*
X130530349Y-113685175D01*
G37*
G36*
X129129247Y-114316591D02*
G01*
X129145693Y-114342317D01*
X129169389Y-114383522D01*
X129199661Y-114438840D01*
X129235832Y-114506906D01*
X129277226Y-114586352D01*
X129323167Y-114675811D01*
X129372980Y-114773920D01*
X129425988Y-114879308D01*
X129481515Y-114990612D01*
X129538884Y-115106463D01*
X129597420Y-115225496D01*
X129656448Y-115346345D01*
X129715290Y-115467642D01*
X129773271Y-115588021D01*
X129829715Y-115706116D01*
X129883946Y-115820560D01*
X129935288Y-115929988D01*
X129983064Y-116033030D01*
X130026598Y-116128323D01*
X130065215Y-116214500D01*
X130074513Y-116235575D01*
X130162645Y-116436111D01*
X130040499Y-117054603D01*
X130006319Y-117226551D01*
X129975180Y-117380880D01*
X129947137Y-117517331D01*
X129922249Y-117635639D01*
X129900573Y-117735544D01*
X129882166Y-117816784D01*
X129867087Y-117879096D01*
X129855390Y-117922217D01*
X129847136Y-117945888D01*
X129844551Y-117950132D01*
X129834512Y-117952345D01*
X129833854Y-117951798D01*
X129827199Y-117940143D01*
X129813015Y-117911484D01*
X129791939Y-117867228D01*
X129764603Y-117808788D01*
X129731639Y-117737571D01*
X129693683Y-117654989D01*
X129651368Y-117562450D01*
X129605326Y-117461366D01*
X129556193Y-117353145D01*
X129504600Y-117239199D01*
X129451182Y-117120937D01*
X129396573Y-116999768D01*
X129341404Y-116877103D01*
X129286311Y-116754353D01*
X129231927Y-116632925D01*
X129178885Y-116514232D01*
X129127819Y-116399683D01*
X129079362Y-116290686D01*
X129034149Y-116188654D01*
X128992812Y-116094995D01*
X128955984Y-116011120D01*
X128924300Y-115938438D01*
X128898393Y-115878359D01*
X128878898Y-115832293D01*
X128866445Y-115801651D01*
X128861773Y-115788377D01*
X128861611Y-115771003D01*
X128864435Y-115735959D01*
X128869923Y-115685445D01*
X128877751Y-115621661D01*
X128887595Y-115546807D01*
X128899132Y-115463081D01*
X128912038Y-115372683D01*
X128925988Y-115277812D01*
X128940660Y-115180669D01*
X128955730Y-115083452D01*
X128970874Y-114988361D01*
X128985768Y-114897596D01*
X129000089Y-114813356D01*
X129013514Y-114737840D01*
X129025718Y-114673248D01*
X129026346Y-114670057D01*
X129047923Y-114563506D01*
X129066728Y-114476303D01*
X129082911Y-114407867D01*
X129096627Y-114357616D01*
X129108025Y-114324968D01*
X129117257Y-114309344D01*
X129120730Y-114307713D01*
X129129247Y-114316591D01*
G37*
G36*
X128639038Y-109568726D02*
G01*
X128648263Y-109578326D01*
X128660105Y-109597014D01*
X128676409Y-109627445D01*
X128699019Y-109672278D01*
X128709877Y-109694103D01*
X128744181Y-109764491D01*
X128785717Y-109852007D01*
X128833865Y-109955234D01*
X128887999Y-110072753D01*
X128947500Y-110203145D01*
X129011744Y-110344990D01*
X129080108Y-110496869D01*
X129151972Y-110657365D01*
X129226712Y-110825058D01*
X129303707Y-110998529D01*
X129382334Y-111176359D01*
X129461970Y-111357129D01*
X129541995Y-111539422D01*
X129621784Y-111721816D01*
X129700716Y-111902894D01*
X129778169Y-112081238D01*
X129853520Y-112255427D01*
X129926148Y-112424043D01*
X129995429Y-112585667D01*
X130060743Y-112738881D01*
X130121465Y-112882265D01*
X130176975Y-113014401D01*
X130226650Y-113133870D01*
X130269867Y-113239251D01*
X130306005Y-113329128D01*
X130322878Y-113372056D01*
X130344884Y-113430207D01*
X130359360Y-113472676D01*
X130367025Y-113502160D01*
X130368602Y-113521352D01*
X130365599Y-113531746D01*
X130361885Y-113541761D01*
X130360801Y-113556149D01*
X130362725Y-113575985D01*
X130368035Y-113602344D01*
X130377109Y-113636303D01*
X130390327Y-113678937D01*
X130408066Y-113731322D01*
X130430704Y-113794533D01*
X130458622Y-113869647D01*
X130492195Y-113957738D01*
X130531803Y-114059883D01*
X130577824Y-114177157D01*
X130630637Y-114310635D01*
X130690619Y-114461395D01*
X130707380Y-114503415D01*
X130777589Y-114678673D01*
X130841287Y-114836156D01*
X130898971Y-114976975D01*
X130951135Y-115102238D01*
X130998275Y-115213057D01*
X131040885Y-115310542D01*
X131079462Y-115395802D01*
X131114501Y-115469949D01*
X131146497Y-115534091D01*
X131175945Y-115589340D01*
X131203341Y-115636806D01*
X131229179Y-115677597D01*
X131235301Y-115686662D01*
X131263629Y-115726276D01*
X131287589Y-115754407D01*
X131312858Y-115777031D01*
X131339385Y-115796245D01*
X131376769Y-115825268D01*
X131414254Y-115859862D01*
X131434002Y-115881231D01*
X131461852Y-115918866D01*
X131493076Y-115968284D01*
X131525605Y-116025377D01*
X131557374Y-116086039D01*
X131586313Y-116146161D01*
X131610357Y-116201635D01*
X131627439Y-116248355D01*
X131635401Y-116281441D01*
X131636676Y-116299599D01*
X131633226Y-116313625D01*
X131621955Y-116328297D01*
X131599768Y-116348387D01*
X131582723Y-116362698D01*
X131548999Y-116392705D01*
X131528369Y-116416472D01*
X131516946Y-116438600D01*
X131515869Y-116441799D01*
X131510013Y-116474985D01*
X131507542Y-116523321D01*
X131508130Y-116582161D01*
X131511448Y-116646860D01*
X131517170Y-116712768D01*
X131524967Y-116775242D01*
X131534511Y-116829633D01*
X131545477Y-116871295D01*
X131546317Y-116873692D01*
X131564215Y-116914210D01*
X131590198Y-116956390D01*
X131626396Y-117003043D01*
X131674938Y-117056985D01*
X131719926Y-117103117D01*
X131757685Y-117142153D01*
X131792822Y-117180700D01*
X131821306Y-117214202D01*
X131838580Y-117237277D01*
X131854517Y-117263921D01*
X131859333Y-117280538D01*
X131853932Y-117293268D01*
X131847814Y-117299960D01*
X131832513Y-117310720D01*
X131802554Y-117328134D01*
X131761494Y-117350265D01*
X131712893Y-117375172D01*
X131680346Y-117391249D01*
X131624096Y-117418232D01*
X131551990Y-117452176D01*
X131466603Y-117491895D01*
X131370500Y-117536207D01*
X131266254Y-117583927D01*
X131156432Y-117633874D01*
X131043605Y-117684863D01*
X131009938Y-117700014D01*
X130994013Y-117700617D01*
X130990470Y-117698349D01*
X130985104Y-117686005D01*
X130978819Y-117658224D01*
X130971461Y-117614022D01*
X130962877Y-117552408D01*
X130952915Y-117472397D01*
X130945060Y-117405101D01*
X130935784Y-117327973D01*
X130926544Y-117266892D01*
X130915557Y-117217844D01*
X130901044Y-117176818D01*
X130881225Y-117139799D01*
X130854320Y-117102774D01*
X130818548Y-117061730D01*
X130772130Y-117012653D01*
X130770000Y-117010439D01*
X130717554Y-116956958D01*
X130676365Y-116917389D01*
X130644751Y-116890210D01*
X130621033Y-116873893D01*
X130617147Y-116871829D01*
X130598772Y-116863617D01*
X130581257Y-116859512D01*
X130559948Y-116859731D01*
X130530193Y-116864489D01*
X130487337Y-116874006D01*
X130466961Y-116878841D01*
X130436677Y-116881367D01*
X130412765Y-116875317D01*
X130410643Y-116873913D01*
X130392161Y-116852907D01*
X130369683Y-116816328D01*
X130344824Y-116767946D01*
X130319197Y-116711533D01*
X130294417Y-116650862D01*
X130272095Y-116589706D01*
X130253849Y-116531832D01*
X130241291Y-116481016D01*
X130240295Y-116475845D01*
X130231605Y-116439580D01*
X130218224Y-116394894D01*
X130204374Y-116355092D01*
X130174076Y-116277825D01*
X130137204Y-116188610D01*
X130094461Y-116088875D01*
X130046547Y-115980054D01*
X129994164Y-115863576D01*
X129938014Y-115740873D01*
X129878796Y-115613374D01*
X129817214Y-115482511D01*
X129753969Y-115349715D01*
X129689760Y-115216416D01*
X129625292Y-115084045D01*
X129561264Y-114954032D01*
X129498378Y-114827810D01*
X129437335Y-114706807D01*
X129378838Y-114592455D01*
X129323586Y-114486185D01*
X129272282Y-114389428D01*
X129225627Y-114303614D01*
X129184322Y-114230174D01*
X129149069Y-114170538D01*
X129120569Y-114126138D01*
X129099524Y-114098404D01*
X129096523Y-114095233D01*
X129087001Y-114083889D01*
X129074427Y-114065533D01*
X129058266Y-114039146D01*
X129037980Y-114003713D01*
X129013035Y-113958216D01*
X128982893Y-113901641D01*
X128947018Y-113832970D01*
X128904873Y-113751187D01*
X128855922Y-113655275D01*
X128799630Y-113544219D01*
X128735459Y-113417002D01*
X128671786Y-113290359D01*
X128585414Y-113118063D01*
X128496694Y-112940520D01*
X128406233Y-112758967D01*
X128314635Y-112574644D01*
X128222507Y-112388786D01*
X128130455Y-112202632D01*
X128039083Y-112017420D01*
X127948999Y-111834388D01*
X127860808Y-111654773D01*
X127775113Y-111479814D01*
X127692522Y-111310748D01*
X127613642Y-111148814D01*
X127539076Y-110995248D01*
X127469431Y-110851289D01*
X127405313Y-110718175D01*
X127347326Y-110597144D01*
X127296079Y-110489432D01*
X127252173Y-110396280D01*
X127216218Y-110318922D01*
X127193966Y-110270091D01*
X127180357Y-110238610D01*
X127175326Y-110219825D01*
X127178993Y-110208154D01*
X127191474Y-110198016D01*
X127195559Y-110195342D01*
X127221698Y-110180352D01*
X127263746Y-110158716D01*
X127319849Y-110131250D01*
X127388150Y-110098776D01*
X127466793Y-110062111D01*
X127553921Y-110022076D01*
X127647678Y-109979490D01*
X127746210Y-109935173D01*
X127847657Y-109889942D01*
X127950165Y-109844619D01*
X128051877Y-109800022D01*
X128150937Y-109756970D01*
X128245488Y-109716283D01*
X128333676Y-109678780D01*
X128413641Y-109645280D01*
X128483530Y-109616604D01*
X128541485Y-109593568D01*
X128585651Y-109576995D01*
X128614170Y-109567701D01*
X128621066Y-109566162D01*
X128630587Y-109565556D01*
X128639038Y-109568726D01*
G37*
G36*
X127109719Y-108117339D02*
G01*
X127136410Y-108132250D01*
X127174244Y-108154941D01*
X127220457Y-108183651D01*
X127272289Y-108216610D01*
X127326977Y-108252057D01*
X127381761Y-108288222D01*
X127433878Y-108323342D01*
X127480566Y-108355652D01*
X127502185Y-108371047D01*
X127643268Y-108474158D01*
X127768249Y-108568474D01*
X127878526Y-108655171D01*
X127975496Y-108735431D01*
X128060555Y-108810430D01*
X128135103Y-108881348D01*
X128200536Y-108949363D01*
X128238135Y-108991751D01*
X128299943Y-109065908D01*
X128357124Y-109138599D01*
X128408564Y-109208081D01*
X128453144Y-109272607D01*
X128489750Y-109330431D01*
X128517267Y-109379807D01*
X128534578Y-109418992D01*
X128540569Y-109446238D01*
X128536379Y-109458338D01*
X128526073Y-109463937D01*
X128500287Y-109476945D01*
X128461695Y-109496045D01*
X128412970Y-109519915D01*
X128356786Y-109547237D01*
X128329179Y-109560597D01*
X128188451Y-109628019D01*
X128051267Y-109692604D01*
X127918993Y-109753767D01*
X127792997Y-109810920D01*
X127674644Y-109863476D01*
X127565301Y-109910849D01*
X127466333Y-109952450D01*
X127379107Y-109987693D01*
X127304989Y-110015990D01*
X127245345Y-110036754D01*
X127201542Y-110049399D01*
X127183972Y-110052776D01*
X127171610Y-110053483D01*
X127162675Y-110049300D01*
X127154765Y-110036526D01*
X127145474Y-110011462D01*
X127134207Y-109976174D01*
X127116447Y-109913464D01*
X127097629Y-109836532D01*
X127078934Y-109751173D01*
X127061542Y-109663180D01*
X127046636Y-109578351D01*
X127035393Y-109502479D01*
X127032080Y-109474967D01*
X127017344Y-109288399D01*
X127012298Y-109087554D01*
X127016946Y-108875808D01*
X127031286Y-108656544D01*
X127032030Y-108648011D01*
X127036709Y-108598456D01*
X127042722Y-108540146D01*
X127049707Y-108476062D01*
X127057304Y-108409184D01*
X127065153Y-108342493D01*
X127072890Y-108278969D01*
X127080158Y-108221592D01*
X127086594Y-108173345D01*
X127091837Y-108137206D01*
X127095527Y-108116156D01*
X127096932Y-108111977D01*
X127109719Y-108117339D01*
G37*
%TO.C,R10*%
X104794750Y-85568000D02*
X113425250Y-85568000D01*
X113425250Y-78202000D02*
X104794750Y-78202000D01*
%TO.C,L1*%
X140515000Y-140103600D02*
X154485000Y-140103600D01*
X154485000Y-140103600D02*
X154485000Y-136334240D01*
X154485000Y-126946400D02*
X140515000Y-126946400D01*
X140515000Y-136334240D02*
X140515000Y-140103600D01*
X140515000Y-126946400D02*
X140515000Y-130715760D01*
X154485000Y-130715760D02*
X154485000Y-126946400D01*
X139448200Y-133525000D02*
G75*
G03*
X139448200Y-133525000I-76200J0D01*
G01*
D12*
%TO.C,IC1*%
X86270000Y-62450000D02*
X86270000Y-56450000D01*
D21*
X95670000Y-62450000D02*
X95670000Y-62450000D01*
D12*
X92270000Y-62450000D02*
X86270000Y-62450000D01*
X92270000Y-56450000D02*
X92270000Y-62450000D01*
D21*
X95570000Y-62450000D02*
X95570000Y-62450000D01*
D12*
X86270000Y-56450000D02*
X92270000Y-56450000D01*
D21*
X95670000Y-62450000D02*
G75*
G03*
X95570000Y-62450000I-50000J0D01*
G01*
X95570000Y-62450000D02*
G75*
G03*
X95670000Y-62450000I50000J0D01*
G01*
%TD*%
%LPC*%
D22*
%TO.C,J8*%
X93000000Y-73650000D03*
D23*
X93000000Y-76420000D03*
X93000000Y-79190000D03*
X93000000Y-81960000D03*
X93000000Y-84730000D03*
X93000000Y-87500000D03*
X93000000Y-90270000D03*
X93000000Y-93040000D03*
X93000000Y-95810000D03*
X93000000Y-98580000D03*
X93000000Y-101350000D03*
X93000000Y-104120000D03*
X93000000Y-106890000D03*
X93000000Y-109660000D03*
X93000000Y-112430000D03*
X93000000Y-115200000D03*
X93000000Y-117970000D03*
X93000000Y-120740000D03*
X93000000Y-123510000D03*
X90460000Y-75035000D03*
X90460000Y-77805000D03*
X90460000Y-80575000D03*
X90460000Y-83345000D03*
X90460000Y-86115000D03*
X90460000Y-88885000D03*
X90460000Y-91655000D03*
X90460000Y-94425000D03*
X90460000Y-97195000D03*
X90460000Y-99965000D03*
X90460000Y-102735000D03*
X90460000Y-105505000D03*
X90460000Y-108275000D03*
X90460000Y-111045000D03*
X90460000Y-113815000D03*
X90460000Y-116585000D03*
X90460000Y-119355000D03*
X90460000Y-122125000D03*
D24*
X91730000Y-66830000D03*
X91730000Y-130330000D03*
%TD*%
D25*
%TO.C,C1*%
X106505000Y-133307500D03*
X106505000Y-135032500D03*
%TD*%
D26*
%TO.C,C2*%
X136800000Y-83625000D03*
X138525000Y-83625000D03*
%TD*%
D27*
%TO.C,C3*%
X141150000Y-113625000D03*
X148100000Y-113625000D03*
%TD*%
D28*
%TO.C,C5*%
X139625000Y-117025000D03*
X138025000Y-117025000D03*
%TD*%
D29*
%TO.C,C17*%
X99320000Y-91967500D03*
X99320000Y-90242500D03*
%TD*%
D30*
%TO.C,C18*%
X118785000Y-79345000D03*
X118785000Y-81095000D03*
%TD*%
D29*
%TO.C,C23*%
X97850000Y-90160000D03*
X97850000Y-88435000D03*
%TD*%
D26*
%TO.C,C26*%
X113660001Y-128055000D03*
X115385001Y-128055000D03*
%TD*%
D29*
%TO.C,C28*%
X97900000Y-111924999D03*
X97900000Y-110199999D03*
%TD*%
D25*
%TO.C,C30*%
X116400000Y-124725000D03*
X116400000Y-126450000D03*
%TD*%
D26*
%TO.C,C33*%
X112780000Y-129575000D03*
X114505000Y-129575000D03*
%TD*%
D25*
%TO.C,C35*%
X116400000Y-114762500D03*
X116400000Y-116487500D03*
%TD*%
D31*
%TO.C,D1*%
X152800000Y-124980000D03*
D32*
X146500000Y-122700000D03*
D31*
X152800000Y-120420000D03*
%TD*%
D33*
%TO.C,D4*%
X126200000Y-83625000D03*
X126200000Y-80325000D03*
%TD*%
D34*
%TO.C,D5*%
X121800000Y-111100001D03*
X121800000Y-109525001D03*
%TD*%
%TO.C,D6*%
X120300000Y-111100001D03*
X120300000Y-109525001D03*
%TD*%
D35*
%TO.C,Q1*%
X116465001Y-85750000D03*
X116465001Y-86400000D03*
X116465001Y-87050000D03*
X116465001Y-87700000D03*
D36*
X118405001Y-86725000D03*
%TD*%
D37*
%TO.C,Q2*%
X120390000Y-79785000D03*
X122290000Y-79785000D03*
X121340000Y-77785000D03*
%TD*%
D38*
%TO.C,Q3*%
X124035000Y-87699999D03*
X124035000Y-87049999D03*
X124035000Y-86399999D03*
X124035000Y-85749999D03*
D39*
X122095000Y-86724999D03*
%TD*%
D30*
%TO.C,R8*%
X117185000Y-79345000D03*
X117185000Y-81095000D03*
%TD*%
%TO.C,R16*%
X121800000Y-112625000D03*
X121800000Y-114375000D03*
%TD*%
%TO.C,R17*%
X120300000Y-112625000D03*
X120300000Y-114375000D03*
%TD*%
D40*
%TO.C,R18*%
X101725000Y-129925000D03*
X103475000Y-129925000D03*
%TD*%
D41*
%TO.C,U3*%
X138060000Y-126500000D03*
X136790000Y-126500000D03*
X135520000Y-126500000D03*
X134250000Y-126500000D03*
X132980000Y-126500000D03*
X131710000Y-126500000D03*
X130440000Y-126500000D03*
D42*
X134250000Y-135650000D03*
%TD*%
D43*
%TO.C,U6*%
X114075000Y-125625000D03*
X114075000Y-125125000D03*
X114075000Y-124625000D03*
X114075000Y-124125000D03*
X114075000Y-123625000D03*
X114075000Y-123125000D03*
X114075000Y-122625000D03*
X114075000Y-122125000D03*
X114075000Y-121625000D03*
X114075000Y-121125000D03*
X114075000Y-120625000D03*
X114075000Y-120125000D03*
X114075000Y-119625000D03*
X114075000Y-119125000D03*
X114075000Y-118625000D03*
X114075000Y-118125000D03*
X114075000Y-117625000D03*
X114075000Y-117125000D03*
X114075000Y-116625000D03*
X114075000Y-116125000D03*
X114075000Y-115625000D03*
X114075000Y-115125000D03*
X114075000Y-114625000D03*
X114075000Y-114125000D03*
X114075000Y-113625000D03*
D44*
X112400000Y-111950000D03*
X111900000Y-111950000D03*
X111400000Y-111950000D03*
X110900000Y-111950000D03*
X110400000Y-111950000D03*
X109900000Y-111950000D03*
X109400000Y-111950000D03*
X108900000Y-111950000D03*
X108400000Y-111950000D03*
X107900000Y-111950000D03*
X107400000Y-111950000D03*
X106900000Y-111950000D03*
X106400000Y-111950000D03*
X105900000Y-111950000D03*
X105400000Y-111950000D03*
X104900000Y-111950000D03*
X104400000Y-111950000D03*
X103900000Y-111950000D03*
X103400000Y-111950000D03*
X102900000Y-111950000D03*
X102400000Y-111950000D03*
X101900000Y-111950000D03*
X101400000Y-111950000D03*
X100900000Y-111950000D03*
X100400000Y-111950000D03*
D43*
X98725000Y-113625000D03*
X98725000Y-114125000D03*
X98725000Y-114625000D03*
X98725000Y-115125000D03*
X98725000Y-115625000D03*
X98725000Y-116125000D03*
X98725000Y-116625000D03*
X98725000Y-117125000D03*
X98725000Y-117625000D03*
X98725000Y-118125000D03*
X98725000Y-118625000D03*
X98725000Y-119125000D03*
X98725000Y-119625000D03*
X98725000Y-120125000D03*
X98725000Y-120625000D03*
X98725000Y-121125000D03*
X98725000Y-121625000D03*
X98725000Y-122125000D03*
X98725000Y-122625000D03*
X98725000Y-123125000D03*
X98725000Y-123625000D03*
X98725000Y-124125000D03*
X98725000Y-124625000D03*
X98725000Y-125125000D03*
X98725000Y-125625000D03*
D44*
X100400000Y-127300000D03*
X100900000Y-127300000D03*
X101400000Y-127300000D03*
X101900000Y-127300000D03*
X102400000Y-127300000D03*
X102900000Y-127300000D03*
X103400000Y-127300000D03*
X103900000Y-127300000D03*
X104400000Y-127300000D03*
X104900000Y-127300000D03*
X105400000Y-127300000D03*
X105900000Y-127300000D03*
X106400000Y-127300000D03*
X106900000Y-127300000D03*
X107400000Y-127300000D03*
X107900000Y-127300000D03*
X108400000Y-127300000D03*
X108900000Y-127300000D03*
X109400000Y-127300000D03*
X109900000Y-127300000D03*
X110400000Y-127300000D03*
X110900000Y-127300000D03*
X111400000Y-127300000D03*
X111900000Y-127300000D03*
X112400000Y-127300000D03*
%TD*%
D30*
%TO.C,R7*%
X100830000Y-90230000D03*
X100830000Y-91980000D03*
%TD*%
D45*
%TO.C,C21*%
X109540000Y-88275000D03*
X109540000Y-86525000D03*
%TD*%
D40*
%TO.C,R11*%
X111110000Y-86485000D03*
X112860000Y-86485000D03*
%TD*%
D46*
%TO.C,J4*%
X120850000Y-59125000D03*
D47*
X120850000Y-66325000D03*
%TD*%
D46*
%TO.C,J2*%
X140200000Y-59125000D03*
D47*
X140200000Y-66325000D03*
%TD*%
D46*
%TO.C,J6*%
X101500000Y-59125000D03*
D47*
X101500000Y-66325000D03*
%TD*%
D48*
%TO.C,R3*%
X125800000Y-71725000D03*
X125800000Y-74700000D03*
%TD*%
D49*
%TO.C,RV1*%
X132860000Y-79425000D03*
X135400000Y-79425000D03*
X137940000Y-79425000D03*
%TD*%
D48*
%TO.C,R5*%
X106200000Y-71725000D03*
X106200000Y-74700000D03*
%TD*%
D50*
%TO.C,R1*%
X140800000Y-74700000D03*
X140800000Y-71725000D03*
%TD*%
D48*
%TO.C,R2*%
X135400000Y-71725000D03*
X135400000Y-74700000D03*
%TD*%
%TO.C,R4*%
X116200000Y-71725000D03*
X116200000Y-74700000D03*
%TD*%
D51*
%TO.C,J1*%
X151200000Y-68875000D03*
D52*
X151200000Y-62875000D03*
X146500000Y-65875000D03*
%TD*%
D48*
%TO.C,C16*%
X98800000Y-71750000D03*
X98800000Y-74725000D03*
%TD*%
D50*
%TO.C,C15*%
X103600000Y-74725000D03*
X103600000Y-71750000D03*
%TD*%
D53*
%TO.C,C14*%
X112687500Y-71925000D03*
X109712500Y-71925000D03*
%TD*%
%TO.C,C13*%
X122487500Y-71925000D03*
X119512500Y-71925000D03*
%TD*%
%TO.C,C12*%
X132087500Y-71925000D03*
X129112500Y-71925000D03*
%TD*%
D48*
%TO.C,C11*%
X137800000Y-71725000D03*
X137800000Y-74700000D03*
%TD*%
D54*
%TO.C,J5*%
X111175000Y-66325000D03*
D47*
X111175000Y-59125000D03*
%TD*%
D54*
%TO.C,J3*%
X130525000Y-66325000D03*
D47*
X130525000Y-59125000D03*
%TD*%
D25*
%TO.C,C27*%
X97800000Y-127325000D03*
X97800000Y-129050000D03*
%TD*%
D55*
%TO.C,R12*%
X118249999Y-84025000D03*
X116499999Y-84025000D03*
%TD*%
D29*
%TO.C,C36*%
X117890000Y-118624999D03*
X117890000Y-116899999D03*
%TD*%
D25*
%TO.C,C32*%
X116400000Y-121325000D03*
X116400000Y-123050000D03*
%TD*%
D29*
%TO.C,C34*%
X101500000Y-109624999D03*
X101500000Y-107899999D03*
%TD*%
D53*
%TO.C,R9*%
X106087500Y-88735000D03*
X103112500Y-88735000D03*
%TD*%
D55*
%TO.C,R19*%
X108100001Y-129925000D03*
X106350001Y-129925000D03*
%TD*%
D45*
%TO.C,R13*%
X124100000Y-83575000D03*
X124100000Y-81825000D03*
%TD*%
D29*
%TO.C,C31*%
X96700000Y-123534999D03*
X96700000Y-121809999D03*
%TD*%
D30*
%TO.C,C20*%
X96800000Y-71380000D03*
X96800000Y-73130000D03*
%TD*%
D56*
%TO.C,U5*%
X96300000Y-84850000D03*
X96950000Y-84850000D03*
X97600000Y-84850000D03*
X98250000Y-84850000D03*
X98900000Y-84850000D03*
X99550000Y-84850000D03*
X100200000Y-84850000D03*
X100850000Y-84850000D03*
X101500000Y-84850000D03*
X102150000Y-84850000D03*
X102150000Y-79125000D03*
X101500000Y-79125000D03*
X100850000Y-79125000D03*
X100200000Y-79125000D03*
X99550000Y-79125000D03*
X98900000Y-79125000D03*
X98250000Y-79125000D03*
X97600000Y-79125000D03*
X96950000Y-79125000D03*
X96300000Y-79125000D03*
%TD*%
D57*
%TO.C,C22*%
X110002500Y-76905000D03*
X112977500Y-76905000D03*
%TD*%
D53*
%TO.C,C19*%
X106087500Y-91035000D03*
X103112500Y-91035000D03*
%TD*%
D34*
%TO.C,D3*%
X100280000Y-88482500D03*
X100280000Y-86907500D03*
%TD*%
D30*
%TO.C,R15*%
X128200000Y-83625000D03*
X128200000Y-85375000D03*
%TD*%
D45*
%TO.C,R14*%
X96510000Y-65410000D03*
X96510000Y-63660000D03*
%TD*%
D26*
%TO.C,C29*%
X114600000Y-110925000D03*
X116325000Y-110925000D03*
%TD*%
D58*
%TO.C,C10*%
X122250000Y-137125000D03*
X122250000Y-128425000D03*
%TD*%
D48*
%TO.C,R6*%
X101200000Y-71750000D03*
X101200000Y-74725000D03*
%TD*%
D59*
%TO.C,J7*%
X153600000Y-76025000D03*
D47*
X146400000Y-76025000D03*
%TD*%
D60*
%TO.C,C4*%
X130500000Y-97825000D03*
X130500000Y-90875000D03*
%TD*%
D61*
%TO.C,C7*%
X138750001Y-119025000D03*
X140750001Y-119025000D03*
%TD*%
D62*
%TO.C,D2*%
X141480000Y-86125000D03*
D63*
X139200000Y-92425000D03*
D62*
X136920000Y-86125000D03*
%TD*%
D64*
%TO.C,C9*%
X134000000Y-104025000D03*
X134000000Y-109625000D03*
%TD*%
D65*
%TO.C,C6*%
X135800000Y-99625000D03*
X135800000Y-101225000D03*
%TD*%
D66*
%TO.C,C8*%
X137825000Y-100125000D03*
X137825000Y-98125000D03*
%TD*%
D67*
%TO.C,L2*%
X150400000Y-82375000D03*
X150400000Y-93675000D03*
%TD*%
D68*
%TO.C,U4*%
X141625000Y-97855000D03*
X141625000Y-99125000D03*
X141625000Y-100395000D03*
X141625000Y-101665000D03*
X141625000Y-102935000D03*
X141625000Y-104205000D03*
X141625000Y-105475000D03*
D69*
X150775000Y-101665000D03*
%TD*%
D25*
%TO.C,C25*%
X124474470Y-117220838D03*
X124474470Y-118945838D03*
%TD*%
D70*
%TO.C,U1*%
X130095000Y-83752501D03*
X130095000Y-84402499D03*
X130095000Y-85052501D03*
X130095000Y-85702499D03*
X134616200Y-85702499D03*
X134616200Y-85052501D03*
X134616200Y-84402499D03*
X134616200Y-83752501D03*
%TD*%
D71*
%TO.C,JP1*%
X109160000Y-134015000D03*
D72*
X111700000Y-134015000D03*
X114240000Y-134015000D03*
%TD*%
D73*
%TO.C,SW1*%
X100630000Y-103515000D03*
X100630000Y-95555000D03*
X105130000Y-103515000D03*
X105130000Y-95555000D03*
%TD*%
D74*
%TO.C,Y1*%
X121663721Y-121939861D03*
X121663721Y-117639861D03*
%TD*%
D70*
%TO.C,U2*%
X100005000Y-133220000D03*
X100005000Y-133869998D03*
X100005000Y-134520000D03*
X100005000Y-135169998D03*
X104526200Y-135169998D03*
X104526200Y-134520000D03*
X104526200Y-133869998D03*
X104526200Y-133220000D03*
%TD*%
D29*
%TO.C,C24*%
X124474470Y-122347361D03*
X124474470Y-120622361D03*
%TD*%
D75*
%TO.C,R10*%
X103776000Y-81885000D03*
X114444000Y-81885000D03*
%TD*%
D76*
%TO.C,L1*%
X142102500Y-133525000D03*
X152897500Y-133525000D03*
%TD*%
D77*
%TO.C,IC1*%
X93820000Y-61700000D03*
X84720000Y-61700000D03*
X93820000Y-57200000D03*
%TD*%
M02*
