M48
; DRILL file {KiCad (6.0.1)} date Fri Apr 29 11:40:33 2022
; FORMAT={-:-/ absolute / metric / decimal}
; #@! TF.CreationDate,2022-04-29T11:40:33-05:00
; #@! TF.GenerationSoftware,Kicad,Pcbnew,(6.0.1)
; #@! TF.FileFunction,Plated,1,4,PTH
FMAT,2
METRIC
; #@! TA.AperFunction,Plated,PTH,ViaDrill
T1C0.200
; #@! TA.AperFunction,Plated,PTH,ViaDrill
T2C0.400
; #@! TA.AperFunction,Plated,PTH,ViaDrill
T3C0.500
; #@! TA.AperFunction,Plated,PTH,ComponentDrill
T4C0.700
; #@! TA.AperFunction,Plated,PTH,ComponentDrill
T5C1.000
; #@! TA.AperFunction,Plated,PTH,ComponentDrill
T6C1.100
; #@! TA.AperFunction,Plated,PTH,ComponentDrill
T7C1.600
; #@! TA.AperFunction,Plated,PTH,ComponentDrill
T8C3.200
; #@! TA.AperFunction,Plated,PTH,ComponentDrill
T9C4.500
%
G90
G05
T1
X95.6Y-131.925
X96.29Y-80.575
X97.6Y-131.925
X99.55Y-83.535
X99.6Y-131.925
X101.6Y-131.925
X103.265Y-132.6
X103.29Y-131.225
X103.6Y-131.925
X105.6Y-131.925
X107.6Y-131.925
X107.777Y-99.054
X107.915Y-96.867
X108.188Y-101.206
X108.592Y-94.784
X109.121Y-103.188
X109.6Y-131.925
X109.766Y-92.934
X110.517Y-104.876
X111.363Y-91.434
X111.6Y-131.925
X112.289Y-106.164
X113.283Y-90.379
X113.6Y-131.925
X114.326Y-106.97
X115.35Y-131.925
X115.405Y-89.834
X116.5Y-107.245
X117.595Y-89.834
X117.9Y-131.925
X118.674Y-106.97
X119.717Y-90.379
X119.85Y-131.925
X120.711Y-106.164
X121.637Y-91.434
X122.275Y-131.925
X122.483Y-104.876
X123.0Y-105.925
X123.0Y-107.925
X123.0Y-109.925
X123.0Y-111.925
X123.0Y-114.025
X123.234Y-92.934
X123.5Y-115.125
X123.879Y-103.188
X124.408Y-94.784
X124.475Y-131.925
X124.812Y-101.206
X125.085Y-96.867
X125.223Y-99.054
X125.5Y-115.125
X125.712Y-118.953
X125.712Y-120.615
X126.925Y-131.925
X127.44Y-124.425
X127.44Y-126.425
X127.44Y-128.425
X127.44Y-130.425
X127.5Y-107.125
X127.5Y-109.125
X127.5Y-111.125
X127.5Y-113.125
X127.5Y-115.125
X128.92Y-104.625
X129.5Y-115.125
X130.334Y-103.211
X130.7Y-108.025
X131.5Y-115.125
X131.748Y-101.797
X132.2Y-103.725
X132.7Y-108.025
X133.5Y-115.125
X135.5Y-115.125
X137.5Y-115.125
X138.7Y-108.025
X140.7Y-108.025
X142.7Y-108.025
X143.8Y-93.225
X143.8Y-95.325
X144.7Y-108.025
X145.8Y-109.125
X145.8Y-111.125
X147.1Y-131.925
X149.0Y-88.325
X149.25Y-131.925
X151.0Y-88.325
X153.0Y-88.325
X155.0Y-88.325
X155.475Y-131.925
T2
X87.8Y-83.425
X88.8Y-82.025
X92.0Y-62.825
X95.3Y-123.525
X95.6Y-76.735
X96.0Y-124.825
X96.3Y-86.285
X96.3Y-128.425
X96.65Y-82.915
X96.7Y-120.325
X96.89Y-104.455
X97.5Y-80.725
X97.57Y-76.495
X97.85Y-91.375
X97.9Y-109.025
X97.91Y-73.235
X99.06Y-103.515
X99.3Y-111.725
X99.3Y-129.025
X99.32Y-93.105
X99.39Y-105.455
X100.1Y-107.925
X100.1Y-109.625
X100.41Y-125.745
X100.6Y-124.125
X100.755Y-131.23
X100.83Y-93.175
X104.9Y-129.325
X104.9Y-130.725
X105.355Y-136.27
X106.6Y-131.215
X107.7Y-125.325
X107.9Y-104.425
X108.2Y-70.425
X109.41Y-89.835
X109.5Y-125.325
X111.56Y-129.585
X111.595Y-107.82
X111.9Y-119.125
X113.66Y-126.895
X114.25Y-130.925
X114.6Y-112.325
X115.75Y-129.595
X116.35Y-112.325
X116.4Y-117.925
X116.61Y-128.055
X117.3Y-113.525
X117.57Y-126.465
X117.9Y-115.625
X117.9Y-123.125
X117.9Y-124.725
X119.0Y-89.025
X119.1Y-113.525
X119.7Y-77.975
X121.41Y-80.915
X125.06Y-125.265
X128.46Y-125.335
X129.5Y-87.025
X131.6Y-87.725
X133.1Y-86.925
X137.07Y-101.225
X138.38Y-101.655
X139.2Y-85.025
X140.6Y-83.125
X145.4Y-93.325
T3
X83.25Y-63.55
X83.25Y-68.55
X83.25Y-73.55
X83.25Y-78.55
X83.25Y-83.55
X83.25Y-88.55
X83.25Y-93.55
X83.25Y-98.55
X83.25Y-103.55
X83.25Y-108.55
X83.25Y-113.55
X83.25Y-118.55
X83.25Y-123.55
X83.25Y-128.55
X83.25Y-133.55
X84.18Y-138.3
X85.2Y-56.24
X87.84Y-141.135
X90.12Y-55.0
X92.84Y-141.135
X95.95Y-55.875
X95.95Y-57.455
X95.95Y-59.035
X95.95Y-60.615
X95.95Y-62.195
X97.45Y-55.875
X97.45Y-57.455
X97.45Y-59.035
X97.45Y-60.615
X97.45Y-62.195
X97.84Y-141.135
X97.85Y-83.225
X98.54Y-95.505
X98.79Y-98.525
X98.8Y-70.125
X100.9Y-113.825
X101.2Y-70.125
X101.58Y-88.725
X101.71Y-116.615
X101.71Y-121.615
X102.08Y-82.995
X102.84Y-141.135
X102.88Y-95.555
X102.88Y-103.65
X103.6Y-70.125
X104.81Y-107.715
X105.14Y-78.165
X105.14Y-79.405
X105.14Y-80.615
X105.15Y-83.115
X105.15Y-84.365
X105.154Y-85.595
X105.55Y-55.875
X105.55Y-57.455
X105.55Y-59.035
X105.55Y-60.615
X105.55Y-62.195
X106.525Y-83.115
X106.525Y-84.365
X106.525Y-85.615
X106.53Y-78.165
X106.53Y-79.415
X106.53Y-80.665
X106.7Y-121.615
X106.72Y-116.615
X107.05Y-55.875
X107.05Y-57.455
X107.05Y-59.035
X107.05Y-60.615
X107.05Y-62.195
X107.59Y-91.035
X107.84Y-141.135
X108.25Y-88.265
X108.4Y-55.0
X110.0Y-78.485
X111.4Y-120.625
X111.4Y-125.425
X111.8Y-122.425
X112.0Y-113.825
X112.35Y-80.195
X112.84Y-141.135
X113.9Y-55.0
X113.9Y-69.85
X117.84Y-141.135
X118.0Y-55.0
X118.0Y-69.85
X119.57Y-84.025
X120.0Y-126.525
X120.0Y-127.775
X120.0Y-129.025
X120.0Y-130.275
X120.0Y-135.4
X120.0Y-136.65
X120.0Y-137.9
X120.0Y-139.15
X121.1Y-83.525
X121.34Y-76.615
X121.5Y-125.525
X121.5Y-140.15
X123.0Y-125.525
X123.0Y-140.15
X123.5Y-55.0
X123.5Y-69.85
X124.02Y-89.005
X124.5Y-126.525
X124.5Y-127.775
X124.5Y-129.025
X124.5Y-130.275
X124.5Y-135.4
X124.5Y-136.65
X124.5Y-137.9
X124.5Y-139.15
X125.32Y-86.405
X125.32Y-87.705
X125.32Y-89.005
X126.62Y-86.405
X126.62Y-87.705
X126.62Y-89.005
X126.81Y-94.925
X126.81Y-96.505
X126.81Y-98.085
X126.81Y-99.665
X127.75Y-55.0
X127.75Y-69.85
X127.84Y-141.135
X127.92Y-86.405
X127.92Y-87.705
X127.92Y-89.005
X128.31Y-94.925
X128.31Y-96.505
X128.31Y-98.085
X128.31Y-99.665
X129.0Y-79.025
X129.81Y-94.925
X131.3Y-94.915
X132.1Y-105.325
X132.1Y-106.625
X132.8Y-89.325
X132.8Y-90.925
X132.8Y-92.425
X132.84Y-141.135
X133.25Y-55.0
X133.25Y-69.85
X133.6Y-106.625
X134.2Y-89.325
X134.2Y-90.925
X134.2Y-92.425
X135.1Y-106.625
X136.1Y-108.325
X136.1Y-109.625
X136.1Y-110.925
X136.6Y-102.725
X136.6Y-104.025
X136.6Y-105.325
X136.6Y-106.625
X137.25Y-55.0
X137.4Y-119.025
X137.5Y-69.85
X137.84Y-141.135
X137.9Y-106.625
X139.2Y-86.325
X139.55Y-109.585
X139.55Y-111.085
X141.08Y-136.765
X141.13Y-109.585
X141.13Y-111.085
X142.1Y-79.025
X142.33Y-136.765
X142.71Y-109.585
X142.71Y-111.085
X142.75Y-55.0
X142.84Y-141.135
X143.46Y-115.595
X143.58Y-136.765
X144.29Y-109.585
X144.29Y-111.085
X144.29Y-112.585
X144.3Y-114.075
X144.83Y-132.765
X144.83Y-134.015
X144.83Y-135.265
X144.96Y-115.595
X145.57Y-136.755
X146.27Y-132.765
X146.27Y-134.015
X146.27Y-135.265
X146.56Y-115.595
X147.07Y-92.565
X147.07Y-94.265
X147.1Y-90.875
X147.54Y-55.82
X147.84Y-141.135
X148.45Y-90.875
X149.8Y-90.875
X151.15Y-90.875
X152.5Y-90.875
X152.8Y-122.625
X152.84Y-141.135
X153.05Y-55.52
X153.85Y-90.875
X153.89Y-92.555
X153.89Y-94.255
X155.8Y-138.3
X156.23Y-58.66
X156.75Y-63.55
X156.75Y-68.55
X156.75Y-83.55
X156.75Y-88.55
X156.75Y-93.55
X156.75Y-98.55
X156.75Y-103.55
X156.75Y-108.55
X156.75Y-113.55
X156.75Y-118.55
X156.75Y-123.55
X156.75Y-128.55
X156.75Y-133.55
T4
X132.86Y-79.425
X135.4Y-79.425
X137.94Y-79.425
T5
X109.16Y-134.015
X111.7Y-134.015
X114.24Y-134.015
T6
X90.46Y-75.035
X90.46Y-77.805
X90.46Y-80.575
X90.46Y-83.345
X90.46Y-86.115
X90.46Y-88.885
X90.46Y-91.655
X90.46Y-94.425
X90.46Y-97.195
X90.46Y-99.965
X90.46Y-102.735
X90.46Y-105.505
X90.46Y-108.275
X90.46Y-111.045
X90.46Y-113.815
X90.46Y-116.585
X90.46Y-119.355
X90.46Y-122.125
X93.0Y-73.65
X93.0Y-76.42
X93.0Y-79.19
X93.0Y-81.96
X93.0Y-84.73
X93.0Y-87.5
X93.0Y-90.27
X93.0Y-93.04
X93.0Y-95.81
X93.0Y-98.58
X93.0Y-101.35
X93.0Y-104.12
X93.0Y-106.89
X93.0Y-109.66
X93.0Y-112.43
X93.0Y-115.2
X93.0Y-117.97
X93.0Y-120.74
X93.0Y-123.51
T7
X146.5Y-65.875
X151.2Y-62.875
X151.2Y-68.875
T8
X91.73Y-66.83
X91.73Y-130.33
T9
X101.5Y-59.125
X101.5Y-66.325
X111.175Y-59.125
X111.175Y-66.325
X120.85Y-59.125
X120.85Y-66.325
X130.525Y-59.125
X130.525Y-66.325
X140.2Y-59.125
X140.2Y-66.325
X146.4Y-76.025
X153.6Y-76.025
T0
M30
