%TF.GenerationSoftware,KiCad,Pcbnew,(6.0.1)*%
%TF.CreationDate,2022-04-29T11:40:24-05:00*%
%TF.ProjectId,Power_KiCAD_Project,506f7765-725f-44b6-9943-41445f50726f,rev?*%
%TF.SameCoordinates,Original*%
%TF.FileFunction,Paste,Top*%
%TF.FilePolarity,Positive*%
%FSLAX46Y46*%
G04 Gerber Fmt 4.6, Leading zero omitted, Abs format (unit mm)*
G04 Created by KiCad (PCBNEW (6.0.1)) date 2022-04-29 11:40:24*
%MOMM*%
%LPD*%
G01*
G04 APERTURE LIST*
G04 Aperture macros list*
%AMRoundRect*
0 Rectangle with rounded corners*
0 $1 Rounding radius*
0 $2 $3 $4 $5 $6 $7 $8 $9 X,Y pos of 4 corners*
0 Add a 4 corners polygon primitive as box body*
4,1,4,$2,$3,$4,$5,$6,$7,$8,$9,$2,$3,0*
0 Add four circle primitives for the rounded corners*
1,1,$1+$1,$2,$3*
1,1,$1+$1,$4,$5*
1,1,$1+$1,$6,$7*
1,1,$1+$1,$8,$9*
0 Add four rect primitives between the rounded corners*
20,1,$1+$1,$2,$3,$4,$5,0*
20,1,$1+$1,$4,$5,$6,$7,0*
20,1,$1+$1,$6,$7,$8,$9,0*
20,1,$1+$1,$8,$9,$2,$3,0*%
G04 Aperture macros list end*
%ADD10RoundRect,0.237500X-0.237500X0.300000X-0.237500X-0.300000X0.237500X-0.300000X0.237500X0.300000X0*%
%ADD11RoundRect,0.237500X-0.300000X-0.237500X0.300000X-0.237500X0.300000X0.237500X-0.300000X0.237500X0*%
%ADD12R,4.150000X1.900000*%
%ADD13R,1.020000X1.470000*%
%ADD14RoundRect,0.237500X0.237500X-0.300000X0.237500X0.300000X-0.237500X0.300000X-0.237500X-0.300000X0*%
%ADD15RoundRect,0.237500X-0.237500X0.287500X-0.237500X-0.287500X0.237500X-0.287500X0.237500X0.287500X0*%
%ADD16R,3.050000X2.750000*%
%ADD17R,2.200000X1.200000*%
%ADD18R,1.200000X0.900000*%
%ADD19RoundRect,0.218750X0.256250X-0.218750X0.256250X0.218750X-0.256250X0.218750X-0.256250X-0.218750X0*%
%ADD20R,0.830000X0.300000*%
%ADD21R,0.750000X0.300000*%
%ADD22R,0.510000X0.635000*%
%ADD23R,0.800000X0.900000*%
%ADD24RoundRect,0.237500X-0.287500X-0.237500X0.287500X-0.237500X0.287500X0.237500X-0.287500X0.237500X0*%
%ADD25R,5.250000X4.550000*%
%ADD26R,0.800000X4.600000*%
%ADD27RoundRect,0.075000X0.725000X0.075000X-0.725000X0.075000X-0.725000X-0.075000X0.725000X-0.075000X0*%
%ADD28RoundRect,0.075000X0.075000X0.725000X-0.075000X0.725000X-0.075000X-0.725000X0.075000X-0.725000X0*%
%ADD29RoundRect,0.237500X0.237500X-0.287500X0.237500X0.287500X-0.237500X0.287500X-0.237500X-0.287500X0*%
%ADD30RoundRect,0.250001X-0.624999X0.462499X-0.624999X-0.462499X0.624999X-0.462499X0.624999X0.462499X0*%
%ADD31RoundRect,0.250001X0.624999X-0.462499X0.624999X0.462499X-0.624999X0.462499X-0.624999X-0.462499X0*%
%ADD32RoundRect,0.250001X0.462499X0.624999X-0.462499X0.624999X-0.462499X-0.624999X0.462499X-0.624999X0*%
%ADD33RoundRect,0.237500X0.287500X0.237500X-0.287500X0.237500X-0.287500X-0.237500X0.287500X-0.237500X0*%
%ADD34RoundRect,0.100000X0.100000X-0.637500X0.100000X0.637500X-0.100000X0.637500X-0.100000X-0.637500X0*%
%ADD35RoundRect,0.250001X-0.462499X-0.624999X0.462499X-0.624999X0.462499X0.624999X-0.462499X0.624999X0*%
%ADD36R,1.900000X4.400000*%
%ADD37R,1.900000X4.150000*%
%ADD38R,0.620000X1.470000*%
%ADD39R,2.750000X3.050000*%
%ADD40R,1.200000X2.200000*%
%ADD41R,1.600000X3.500000*%
%ADD42R,1.470000X1.020000*%
%ADD43R,1.470000X0.620000*%
%ADD44R,3.400000X3.600000*%
%ADD45R,4.550000X5.250000*%
%ADD46R,4.600000X0.800000*%
%ADD47R,1.244600X0.355600*%
%ADD48R,1.300000X1.550000*%
%ADD49R,2.600000X1.900000*%
%ADD50R,1.422400X7.112000*%
%ADD51R,3.225800X4.953000*%
%ADD52R,2.100000X1.400000*%
G04 APERTURE END LIST*
D10*
%TO.C,C1*%
X106505000Y-133307500D03*
X106505000Y-135032500D03*
%TD*%
D11*
%TO.C,C2*%
X136800000Y-83625000D03*
X138525000Y-83625000D03*
%TD*%
D12*
%TO.C,C3*%
X141150000Y-113625000D03*
X148100000Y-113625000D03*
%TD*%
D13*
%TO.C,C5*%
X139625000Y-117025000D03*
X138025000Y-117025000D03*
%TD*%
D14*
%TO.C,C17*%
X99320000Y-91967500D03*
X99320000Y-90242500D03*
%TD*%
D15*
%TO.C,C18*%
X118785000Y-79345000D03*
X118785000Y-81095000D03*
%TD*%
D14*
%TO.C,C23*%
X97850000Y-90160000D03*
X97850000Y-88435000D03*
%TD*%
D11*
%TO.C,C26*%
X113660001Y-128055000D03*
X115385001Y-128055000D03*
%TD*%
D14*
%TO.C,C28*%
X97900000Y-111924999D03*
X97900000Y-110199999D03*
%TD*%
D10*
%TO.C,C30*%
X116400000Y-124725000D03*
X116400000Y-126450000D03*
%TD*%
D11*
%TO.C,C33*%
X112780000Y-129575000D03*
X114505000Y-129575000D03*
%TD*%
D10*
%TO.C,C35*%
X116400000Y-114762500D03*
X116400000Y-116487500D03*
%TD*%
D16*
%TO.C,D1*%
X144825000Y-121175000D03*
X144825000Y-124225000D03*
X148175000Y-124225000D03*
X148175000Y-121175000D03*
D17*
X152800000Y-124980000D03*
X152800000Y-120420000D03*
%TD*%
D18*
%TO.C,D4*%
X126200000Y-83625000D03*
X126200000Y-80325000D03*
%TD*%
D19*
%TO.C,D5*%
X121800000Y-111100001D03*
X121800000Y-109525001D03*
%TD*%
%TO.C,D6*%
X120300000Y-111100001D03*
X120300000Y-109525001D03*
%TD*%
D20*
%TO.C,Q1*%
X116465001Y-87050000D03*
X116465001Y-87700000D03*
D21*
X119575001Y-85750000D03*
X119575001Y-87700000D03*
X119575001Y-86400000D03*
D20*
X116465001Y-85750000D03*
D22*
X117785001Y-86099000D03*
D20*
X116465001Y-86400000D03*
D21*
X119575001Y-87050000D03*
D22*
X118645001Y-87351000D03*
X118645001Y-86099000D03*
X117785001Y-87351000D03*
%TD*%
D23*
%TO.C,Q2*%
X120390000Y-79785000D03*
X122290000Y-79785000D03*
X121340000Y-77785000D03*
%TD*%
D20*
%TO.C,Q3*%
X124035000Y-86399999D03*
X124035000Y-85749999D03*
X124035000Y-87049999D03*
D21*
X120925000Y-86399999D03*
D22*
X122715000Y-86098999D03*
X122715000Y-87350999D03*
D21*
X120925000Y-87049999D03*
D20*
X124035000Y-87699999D03*
D22*
X121855000Y-86098999D03*
D21*
X120925000Y-87699999D03*
D22*
X121855000Y-87350999D03*
D21*
X120925000Y-85749999D03*
%TD*%
D15*
%TO.C,R8*%
X117185000Y-79345000D03*
X117185000Y-81095000D03*
%TD*%
%TO.C,R16*%
X121800000Y-112625000D03*
X121800000Y-114375000D03*
%TD*%
%TO.C,R17*%
X120300000Y-112625000D03*
X120300000Y-114375000D03*
%TD*%
D24*
%TO.C,R18*%
X101725000Y-129925000D03*
X103475000Y-129925000D03*
%TD*%
D25*
%TO.C,U3*%
X137025000Y-133225000D03*
X131475000Y-138075000D03*
X137025000Y-138075000D03*
X131475000Y-133225000D03*
D26*
X138060000Y-126500000D03*
X136790000Y-126500000D03*
X135520000Y-126500000D03*
X134250000Y-126500000D03*
X132980000Y-126500000D03*
X131710000Y-126500000D03*
X130440000Y-126500000D03*
%TD*%
D27*
%TO.C,U6*%
X114075000Y-125625000D03*
X114075000Y-125125000D03*
X114075000Y-124625000D03*
X114075000Y-124125000D03*
X114075000Y-123625000D03*
X114075000Y-123125000D03*
X114075000Y-122625000D03*
X114075000Y-122125000D03*
X114075000Y-121625000D03*
X114075000Y-121125000D03*
X114075000Y-120625000D03*
X114075000Y-120125000D03*
X114075000Y-119625000D03*
X114075000Y-119125000D03*
X114075000Y-118625000D03*
X114075000Y-118125000D03*
X114075000Y-117625000D03*
X114075000Y-117125000D03*
X114075000Y-116625000D03*
X114075000Y-116125000D03*
X114075000Y-115625000D03*
X114075000Y-115125000D03*
X114075000Y-114625000D03*
X114075000Y-114125000D03*
X114075000Y-113625000D03*
D28*
X112400000Y-111950000D03*
X111900000Y-111950000D03*
X111400000Y-111950000D03*
X110900000Y-111950000D03*
X110400000Y-111950000D03*
X109900000Y-111950000D03*
X109400000Y-111950000D03*
X108900000Y-111950000D03*
X108400000Y-111950000D03*
X107900000Y-111950000D03*
X107400000Y-111950000D03*
X106900000Y-111950000D03*
X106400000Y-111950000D03*
X105900000Y-111950000D03*
X105400000Y-111950000D03*
X104900000Y-111950000D03*
X104400000Y-111950000D03*
X103900000Y-111950000D03*
X103400000Y-111950000D03*
X102900000Y-111950000D03*
X102400000Y-111950000D03*
X101900000Y-111950000D03*
X101400000Y-111950000D03*
X100900000Y-111950000D03*
X100400000Y-111950000D03*
D27*
X98725000Y-113625000D03*
X98725000Y-114125000D03*
X98725000Y-114625000D03*
X98725000Y-115125000D03*
X98725000Y-115625000D03*
X98725000Y-116125000D03*
X98725000Y-116625000D03*
X98725000Y-117125000D03*
X98725000Y-117625000D03*
X98725000Y-118125000D03*
X98725000Y-118625000D03*
X98725000Y-119125000D03*
X98725000Y-119625000D03*
X98725000Y-120125000D03*
X98725000Y-120625000D03*
X98725000Y-121125000D03*
X98725000Y-121625000D03*
X98725000Y-122125000D03*
X98725000Y-122625000D03*
X98725000Y-123125000D03*
X98725000Y-123625000D03*
X98725000Y-124125000D03*
X98725000Y-124625000D03*
X98725000Y-125125000D03*
X98725000Y-125625000D03*
D28*
X100400000Y-127300000D03*
X100900000Y-127300000D03*
X101400000Y-127300000D03*
X101900000Y-127300000D03*
X102400000Y-127300000D03*
X102900000Y-127300000D03*
X103400000Y-127300000D03*
X103900000Y-127300000D03*
X104400000Y-127300000D03*
X104900000Y-127300000D03*
X105400000Y-127300000D03*
X105900000Y-127300000D03*
X106400000Y-127300000D03*
X106900000Y-127300000D03*
X107400000Y-127300000D03*
X107900000Y-127300000D03*
X108400000Y-127300000D03*
X108900000Y-127300000D03*
X109400000Y-127300000D03*
X109900000Y-127300000D03*
X110400000Y-127300000D03*
X110900000Y-127300000D03*
X111400000Y-127300000D03*
X111900000Y-127300000D03*
X112400000Y-127300000D03*
%TD*%
D15*
%TO.C,R7*%
X100830000Y-90230000D03*
X100830000Y-91980000D03*
%TD*%
D29*
%TO.C,C21*%
X109540000Y-88275000D03*
X109540000Y-86525000D03*
%TD*%
D24*
%TO.C,R11*%
X111110000Y-86485000D03*
X112860000Y-86485000D03*
%TD*%
D30*
%TO.C,R3*%
X125800000Y-71725000D03*
X125800000Y-74700000D03*
%TD*%
%TO.C,R5*%
X106200000Y-71725000D03*
X106200000Y-74700000D03*
%TD*%
D31*
%TO.C,R1*%
X140800000Y-74700000D03*
X140800000Y-71725000D03*
%TD*%
D30*
%TO.C,R2*%
X135400000Y-71725000D03*
X135400000Y-74700000D03*
%TD*%
%TO.C,R4*%
X116200000Y-71725000D03*
X116200000Y-74700000D03*
%TD*%
%TO.C,C16*%
X98800000Y-71750000D03*
X98800000Y-74725000D03*
%TD*%
D31*
%TO.C,C15*%
X103600000Y-74725000D03*
X103600000Y-71750000D03*
%TD*%
D32*
%TO.C,C14*%
X112687500Y-71925000D03*
X109712500Y-71925000D03*
%TD*%
%TO.C,C13*%
X122487500Y-71925000D03*
X119512500Y-71925000D03*
%TD*%
%TO.C,C12*%
X132087500Y-71925000D03*
X129112500Y-71925000D03*
%TD*%
D30*
%TO.C,C11*%
X137800000Y-71725000D03*
X137800000Y-74700000D03*
%TD*%
D10*
%TO.C,C27*%
X97800000Y-127325000D03*
X97800000Y-129050000D03*
%TD*%
D33*
%TO.C,R12*%
X118249999Y-84025000D03*
X116499999Y-84025000D03*
%TD*%
D14*
%TO.C,C36*%
X117890000Y-118624999D03*
X117890000Y-116899999D03*
%TD*%
D10*
%TO.C,C32*%
X116400000Y-121325000D03*
X116400000Y-123050000D03*
%TD*%
D14*
%TO.C,C34*%
X101500000Y-109624999D03*
X101500000Y-107899999D03*
%TD*%
D32*
%TO.C,R9*%
X106087500Y-88735000D03*
X103112500Y-88735000D03*
%TD*%
D33*
%TO.C,R19*%
X108100001Y-129925000D03*
X106350001Y-129925000D03*
%TD*%
D29*
%TO.C,R13*%
X124100000Y-83575000D03*
X124100000Y-81825000D03*
%TD*%
D14*
%TO.C,C31*%
X96700000Y-123534999D03*
X96700000Y-121809999D03*
%TD*%
D15*
%TO.C,C20*%
X96800000Y-71380000D03*
X96800000Y-73130000D03*
%TD*%
D34*
%TO.C,U5*%
X96300000Y-84850000D03*
X96950000Y-84850000D03*
X97600000Y-84850000D03*
X98250000Y-84850000D03*
X98900000Y-84850000D03*
X99550000Y-84850000D03*
X100200000Y-84850000D03*
X100850000Y-84850000D03*
X101500000Y-84850000D03*
X102150000Y-84850000D03*
X102150000Y-79125000D03*
X101500000Y-79125000D03*
X100850000Y-79125000D03*
X100200000Y-79125000D03*
X99550000Y-79125000D03*
X98900000Y-79125000D03*
X98250000Y-79125000D03*
X97600000Y-79125000D03*
X96950000Y-79125000D03*
X96300000Y-79125000D03*
%TD*%
D35*
%TO.C,C22*%
X110002500Y-76905000D03*
X112977500Y-76905000D03*
%TD*%
D32*
%TO.C,C19*%
X106087500Y-91035000D03*
X103112500Y-91035000D03*
%TD*%
D19*
%TO.C,D3*%
X100280000Y-88482500D03*
X100280000Y-86907500D03*
%TD*%
D15*
%TO.C,R15*%
X128200000Y-83625000D03*
X128200000Y-85375000D03*
%TD*%
D29*
%TO.C,R14*%
X96510000Y-65410000D03*
X96510000Y-63660000D03*
%TD*%
D11*
%TO.C,C29*%
X114600000Y-110925000D03*
X116325000Y-110925000D03*
%TD*%
D36*
%TO.C,C10*%
X122250000Y-137125000D03*
X122250000Y-128425000D03*
%TD*%
D30*
%TO.C,R6*%
X101200000Y-71750000D03*
X101200000Y-74725000D03*
%TD*%
D37*
%TO.C,C4*%
X130500000Y-97825000D03*
X130500000Y-90875000D03*
%TD*%
D38*
%TO.C,C7*%
X138750001Y-119025000D03*
X140750001Y-119025000D03*
%TD*%
D39*
%TO.C,D2*%
X140725000Y-90750000D03*
X137675000Y-90750000D03*
X137675000Y-94100000D03*
X140725000Y-94100000D03*
D40*
X141480000Y-86125000D03*
X136920000Y-86125000D03*
%TD*%
D41*
%TO.C,C9*%
X134000000Y-104025000D03*
X134000000Y-109625000D03*
%TD*%
D42*
%TO.C,C6*%
X135800000Y-99625000D03*
X135800000Y-101225000D03*
%TD*%
D43*
%TO.C,C8*%
X137825000Y-100125000D03*
X137825000Y-98125000D03*
%TD*%
D44*
%TO.C,L2*%
X150400000Y-82375000D03*
X150400000Y-93675000D03*
%TD*%
D45*
%TO.C,U4*%
X153200000Y-98890000D03*
X153200000Y-104440000D03*
X148350000Y-98890000D03*
X148350000Y-104440000D03*
D46*
X141625000Y-97855000D03*
X141625000Y-99125000D03*
X141625000Y-100395000D03*
X141625000Y-101665000D03*
X141625000Y-102935000D03*
X141625000Y-104205000D03*
X141625000Y-105475000D03*
%TD*%
D10*
%TO.C,C25*%
X124474470Y-117220838D03*
X124474470Y-118945838D03*
%TD*%
D47*
%TO.C,U1*%
X130095000Y-83752501D03*
X130095000Y-84402499D03*
X130095000Y-85052501D03*
X130095000Y-85702499D03*
X134616200Y-85702499D03*
X134616200Y-85052501D03*
X134616200Y-84402499D03*
X134616200Y-83752501D03*
%TD*%
D48*
%TO.C,SW1*%
X100630000Y-103515000D03*
X100630000Y-95555000D03*
X105130000Y-103515000D03*
X105130000Y-95555000D03*
%TD*%
D49*
%TO.C,Y1*%
X121663721Y-121939861D03*
X121663721Y-117639861D03*
%TD*%
D47*
%TO.C,U2*%
X100005000Y-133220000D03*
X100005000Y-133869998D03*
X100005000Y-134520000D03*
X100005000Y-135169998D03*
X104526200Y-135169998D03*
X104526200Y-134520000D03*
X104526200Y-133869998D03*
X104526200Y-133220000D03*
%TD*%
D14*
%TO.C,C24*%
X124474470Y-122347361D03*
X124474470Y-120622361D03*
%TD*%
D50*
%TO.C,R10*%
X103776000Y-81885000D03*
X114444000Y-81885000D03*
%TD*%
D51*
%TO.C,L1*%
X142102500Y-133525000D03*
X152897500Y-133525000D03*
%TD*%
D52*
%TO.C,IC1*%
X93820000Y-61700000D03*
X84720000Y-61700000D03*
X93820000Y-57200000D03*
%TD*%
M02*
