%FSLAX45Y45*%
G04 Gerber Fmt 4.5, Leading zero omitted, Abs format (unit mm)*
G04 Created by KiCad (PCBNEW (6.0.1)) date 2022-04-29 11:40:35*
%MOMM*%
%LPD*%
G01*
G04 APERTURE LIST*
%TA.AperFunction,Profile*%
%ADD10C,0.050000*%
%TD*%
%TA.AperFunction,Profile*%
%ADD11C,0.100000*%
%TD*%
%ADD12C,0.200000*%
%ADD13C,0.020000*%
%ADD14C,0.040000*%
%ADD15C,0.050000*%
%ADD16C,0.070000*%
%ADD17C,0.100000*%
%ADD18C,0.110000*%
%ADD19C,0.160000*%
%ADD20C,0.320000*%
%ADD21C,0.450000*%
G04 APERTURE END LIST*
D10*
X12450000Y-9850000D02*
G75*
G03*
X12450000Y-9850000I-800000J0D01*
G01*
X9000000Y-5177500D02*
G75*
G03*
X8000000Y-6177500I0J-1000000D01*
G01*
D11*
X8000000Y-13502500D02*
X8000000Y-6177500D01*
X16000000Y-6177500D02*
X16000000Y-13502500D01*
D10*
X16000000Y-6177500D02*
G75*
G03*
X15000000Y-5177500I-1000000J0D01*
G01*
D11*
X9000000Y-5177500D02*
X15000000Y-5177500D01*
D10*
X8000000Y-13502500D02*
G75*
G03*
X9000000Y-14502500I1000000J0D01*
G01*
D11*
X15000000Y-14502500D02*
X9000000Y-14502500D01*
D10*
X15000000Y-14502500D02*
G75*
G03*
X16000000Y-13502500I0J1000000D01*
G01*
D12*
D13*
X9550000Y-13182500D02*
X9570000Y-13202500D01*
X9570000Y-13182500D02*
X9550000Y-13202500D01*
X9619000Y-8047500D02*
X9639000Y-8067500D01*
X9639000Y-8047500D02*
X9619000Y-8067500D01*
X9750000Y-13182500D02*
X9770000Y-13202500D01*
X9770000Y-13182500D02*
X9750000Y-13202500D01*
X9945000Y-8343500D02*
X9965000Y-8363500D01*
X9965000Y-8343500D02*
X9945000Y-8363500D01*
X9950000Y-13182500D02*
X9970000Y-13202500D01*
X9970000Y-13182500D02*
X9950000Y-13202500D01*
X10150000Y-13182500D02*
X10170000Y-13202500D01*
X10170000Y-13182500D02*
X10150000Y-13202500D01*
X10316500Y-13250000D02*
X10336500Y-13270000D01*
X10336500Y-13250000D02*
X10316500Y-13270000D01*
X10319000Y-13112500D02*
X10339000Y-13132500D01*
X10339000Y-13112500D02*
X10319000Y-13132500D01*
X10350000Y-13182500D02*
X10370000Y-13202500D01*
X10370000Y-13182500D02*
X10350000Y-13202500D01*
X10550000Y-13182500D02*
X10570000Y-13202500D01*
X10570000Y-13182500D02*
X10550000Y-13202500D01*
X10750000Y-13182500D02*
X10770000Y-13202500D01*
X10770000Y-13182500D02*
X10750000Y-13202500D01*
X10767725Y-9895379D02*
X10787725Y-9915379D01*
X10787725Y-9895379D02*
X10767725Y-9915379D01*
X10781481Y-9676729D02*
X10801481Y-9696729D01*
X10801481Y-9676729D02*
X10781481Y-9696729D01*
X10808777Y-10110581D02*
X10828777Y-10130581D01*
X10828777Y-10110581D02*
X10808777Y-10130581D01*
X10849181Y-9468369D02*
X10869181Y-9488369D01*
X10869181Y-9468369D02*
X10849181Y-9488369D01*
X10902057Y-10308813D02*
X10922057Y-10328813D01*
X10922057Y-10308813D02*
X10902057Y-10328813D01*
X10950000Y-13182500D02*
X10970000Y-13202500D01*
X10970000Y-13182500D02*
X10950000Y-13202500D01*
X10966571Y-9283391D02*
X10986571Y-9303391D01*
X10986571Y-9283391D02*
X10966571Y-9303391D01*
X11041706Y-10477619D02*
X11061706Y-10497619D01*
X11061706Y-10477619D02*
X11041706Y-10497619D01*
X11126276Y-9133419D02*
X11146276Y-9153419D01*
X11146276Y-9133419D02*
X11126276Y-9153419D01*
X11150000Y-13182500D02*
X11170000Y-13202500D01*
X11170000Y-13182500D02*
X11150000Y-13202500D01*
X11218947Y-10606392D02*
X11238947Y-10626392D01*
X11238947Y-10606392D02*
X11218947Y-10626392D01*
X11318259Y-9027875D02*
X11338259Y-9047875D01*
X11338259Y-9027875D02*
X11318259Y-9047875D01*
X11350000Y-13182500D02*
X11370000Y-13202500D01*
X11370000Y-13182500D02*
X11350000Y-13202500D01*
X11422645Y-10687042D02*
X11442645Y-10707042D01*
X11442645Y-10687042D02*
X11422645Y-10707042D01*
X11525000Y-13182500D02*
X11545000Y-13202500D01*
X11545000Y-13182500D02*
X11525000Y-13202500D01*
X11530459Y-8973392D02*
X11550459Y-8993392D01*
X11550459Y-8973392D02*
X11530459Y-8993392D01*
X11640000Y-10714500D02*
X11660000Y-10734500D01*
X11660000Y-10714500D02*
X11640000Y-10734500D01*
X11749541Y-8973392D02*
X11769541Y-8993392D01*
X11769541Y-8973392D02*
X11749541Y-8993392D01*
X11780000Y-13182500D02*
X11800000Y-13202500D01*
X11800000Y-13182500D02*
X11780000Y-13202500D01*
X11857355Y-10687042D02*
X11877355Y-10707042D01*
X11877355Y-10687042D02*
X11857355Y-10707042D01*
X11961741Y-9027875D02*
X11981741Y-9047875D01*
X11981741Y-9027875D02*
X11961741Y-9047875D01*
X11975000Y-13182500D02*
X11995000Y-13202500D01*
X11995000Y-13182500D02*
X11975000Y-13202500D01*
X12061053Y-10606392D02*
X12081053Y-10626392D01*
X12081053Y-10606392D02*
X12061053Y-10626392D01*
X12153724Y-9133419D02*
X12173724Y-9153419D01*
X12173724Y-9133419D02*
X12153724Y-9153419D01*
X12217500Y-13182500D02*
X12237500Y-13202500D01*
X12237500Y-13182500D02*
X12217500Y-13202500D01*
X12238294Y-10477619D02*
X12258294Y-10497619D01*
X12258294Y-10477619D02*
X12238294Y-10497619D01*
X12290000Y-10582500D02*
X12310000Y-10602500D01*
X12310000Y-10582500D02*
X12290000Y-10602500D01*
X12290000Y-10782500D02*
X12310000Y-10802500D01*
X12310000Y-10782500D02*
X12290000Y-10802500D01*
X12290000Y-10982500D02*
X12310000Y-11002500D01*
X12310000Y-10982500D02*
X12290000Y-11002500D01*
X12290000Y-11182500D02*
X12310000Y-11202500D01*
X12310000Y-11182500D02*
X12290000Y-11202500D01*
X12290000Y-11392500D02*
X12310000Y-11412500D01*
X12310000Y-11392500D02*
X12290000Y-11412500D01*
X12313429Y-9283391D02*
X12333429Y-9303391D01*
X12333429Y-9283391D02*
X12313429Y-9303391D01*
X12340000Y-11502500D02*
X12360000Y-11522500D01*
X12360000Y-11502500D02*
X12340000Y-11522500D01*
X12377943Y-10308813D02*
X12397943Y-10328813D01*
X12397943Y-10308813D02*
X12377943Y-10328813D01*
X12430819Y-9468369D02*
X12450819Y-9488369D01*
X12450819Y-9468369D02*
X12430819Y-9488369D01*
X12437500Y-13182500D02*
X12457500Y-13202500D01*
X12457500Y-13182500D02*
X12437500Y-13202500D01*
X12471223Y-10110581D02*
X12491223Y-10130581D01*
X12491223Y-10110581D02*
X12471223Y-10130581D01*
X12498519Y-9676729D02*
X12518519Y-9696729D01*
X12518519Y-9676729D02*
X12498519Y-9696729D01*
X12512275Y-9895379D02*
X12532275Y-9915379D01*
X12532275Y-9895379D02*
X12512275Y-9915379D01*
X12540000Y-11502500D02*
X12560000Y-11522500D01*
X12560000Y-11502500D02*
X12540000Y-11522500D01*
X12561191Y-11885325D02*
X12581191Y-11905325D01*
X12581191Y-11885325D02*
X12561191Y-11905325D01*
X12561191Y-12051495D02*
X12581191Y-12071495D01*
X12581191Y-12051495D02*
X12561191Y-12071495D01*
X12682500Y-13182500D02*
X12702500Y-13202500D01*
X12702500Y-13182500D02*
X12682500Y-13202500D01*
X12734000Y-12432500D02*
X12754000Y-12452500D01*
X12754000Y-12432500D02*
X12734000Y-12452500D01*
X12734000Y-12632500D02*
X12754000Y-12652500D01*
X12754000Y-12632500D02*
X12734000Y-12652500D01*
X12734000Y-12832500D02*
X12754000Y-12852500D01*
X12754000Y-12832500D02*
X12734000Y-12852500D01*
X12734000Y-13032500D02*
X12754000Y-13052500D01*
X12754000Y-13032500D02*
X12734000Y-13052500D01*
X12740000Y-10702500D02*
X12760000Y-10722500D01*
X12760000Y-10702500D02*
X12740000Y-10722500D01*
X12740000Y-10902500D02*
X12760000Y-10922500D01*
X12760000Y-10902500D02*
X12740000Y-10922500D01*
X12740000Y-11102500D02*
X12760000Y-11122500D01*
X12760000Y-11102500D02*
X12740000Y-11122500D01*
X12740000Y-11302500D02*
X12760000Y-11322500D01*
X12760000Y-11302500D02*
X12740000Y-11322500D01*
X12740000Y-11502500D02*
X12760000Y-11522500D01*
X12760000Y-11502500D02*
X12740000Y-11522500D01*
X12882000Y-10452500D02*
X12902000Y-10472500D01*
X12902000Y-10452500D02*
X12882000Y-10472500D01*
X12940000Y-11502500D02*
X12960000Y-11522500D01*
X12960000Y-11502500D02*
X12940000Y-11522500D01*
X13023421Y-10311079D02*
X13043421Y-10331079D01*
X13043421Y-10311079D02*
X13023421Y-10331079D01*
X13060000Y-10792500D02*
X13080000Y-10812500D01*
X13080000Y-10792500D02*
X13060000Y-10812500D01*
X13140000Y-11502500D02*
X13160000Y-11522500D01*
X13160000Y-11502500D02*
X13140000Y-11522500D01*
X13164843Y-10169657D02*
X13184843Y-10189657D01*
X13184843Y-10169657D02*
X13164843Y-10189657D01*
X13210000Y-10362500D02*
X13230000Y-10382500D01*
X13230000Y-10362500D02*
X13210000Y-10382500D01*
X13260000Y-10792500D02*
X13280000Y-10812500D01*
X13280000Y-10792500D02*
X13260000Y-10812500D01*
X13340000Y-11502500D02*
X13360000Y-11522500D01*
X13360000Y-11502500D02*
X13340000Y-11522500D01*
X13540000Y-11502500D02*
X13560000Y-11522500D01*
X13560000Y-11502500D02*
X13540000Y-11522500D01*
X13740000Y-11502500D02*
X13760000Y-11522500D01*
X13760000Y-11502500D02*
X13740000Y-11522500D01*
X13860000Y-10792500D02*
X13880000Y-10812500D01*
X13880000Y-10792500D02*
X13860000Y-10812500D01*
X14060000Y-10792500D02*
X14080000Y-10812500D01*
X14080000Y-10792500D02*
X14060000Y-10812500D01*
X14260000Y-10792500D02*
X14280000Y-10812500D01*
X14280000Y-10792500D02*
X14260000Y-10812500D01*
X14370000Y-9312500D02*
X14390000Y-9332500D01*
X14390000Y-9312500D02*
X14370000Y-9332500D01*
X14370000Y-9522500D02*
X14390000Y-9542500D01*
X14390000Y-9522500D02*
X14370000Y-9542500D01*
X14460000Y-10792500D02*
X14480000Y-10812500D01*
X14480000Y-10792500D02*
X14460000Y-10812500D01*
X14570000Y-10902500D02*
X14590000Y-10922500D01*
X14590000Y-10902500D02*
X14570000Y-10922500D01*
X14570000Y-11102500D02*
X14590000Y-11122500D01*
X14590000Y-11102500D02*
X14570000Y-11122500D01*
X14700000Y-13182500D02*
X14720000Y-13202500D01*
X14720000Y-13182500D02*
X14700000Y-13202500D01*
X14890000Y-8822500D02*
X14910000Y-8842500D01*
X14910000Y-8822500D02*
X14890000Y-8842500D01*
X14915000Y-13182500D02*
X14935000Y-13202500D01*
X14935000Y-13182500D02*
X14915000Y-13202500D01*
X15090000Y-8822500D02*
X15110000Y-8842500D01*
X15110000Y-8822500D02*
X15090000Y-8842500D01*
X15290000Y-8822500D02*
X15310000Y-8842500D01*
X15310000Y-8822500D02*
X15290000Y-8842500D01*
X15490000Y-8822500D02*
X15510000Y-8842500D01*
X15510000Y-8822500D02*
X15490000Y-8842500D01*
X15537500Y-13182500D02*
X15557500Y-13202500D01*
X15557500Y-13182500D02*
X15537500Y-13202500D01*
D14*
X8800000Y-8342500D02*
G75*
G03*
X8800000Y-8342500I-20000J0D01*
G01*
X8900000Y-8202500D02*
G75*
G03*
X8900000Y-8202500I-20000J0D01*
G01*
X9220000Y-6282500D02*
G75*
G03*
X9220000Y-6282500I-20000J0D01*
G01*
X9550000Y-12352500D02*
G75*
G03*
X9550000Y-12352500I-20000J0D01*
G01*
X9580000Y-7673500D02*
G75*
G03*
X9580000Y-7673500I-20000J0D01*
G01*
X9620000Y-12482500D02*
G75*
G03*
X9620000Y-12482500I-20000J0D01*
G01*
X9650000Y-8628500D02*
G75*
G03*
X9650000Y-8628500I-20000J0D01*
G01*
X9650000Y-12842500D02*
G75*
G03*
X9650000Y-12842500I-20000J0D01*
G01*
X9685000Y-8291500D02*
G75*
G03*
X9685000Y-8291500I-20000J0D01*
G01*
X9690000Y-12032500D02*
G75*
G03*
X9690000Y-12032500I-20000J0D01*
G01*
X9709000Y-10445500D02*
G75*
G03*
X9709000Y-10445500I-20000J0D01*
G01*
X9770000Y-8072500D02*
G75*
G03*
X9770000Y-8072500I-20000J0D01*
G01*
X9777000Y-7649500D02*
G75*
G03*
X9777000Y-7649500I-20000J0D01*
G01*
X9805000Y-9137500D02*
G75*
G03*
X9805000Y-9137500I-20000J0D01*
G01*
X9810000Y-10902500D02*
G75*
G03*
X9810000Y-10902500I-20000J0D01*
G01*
X9811000Y-7323500D02*
G75*
G03*
X9811000Y-7323500I-20000J0D01*
G01*
X9926000Y-10351500D02*
G75*
G03*
X9926000Y-10351500I-20000J0D01*
G01*
X9950000Y-11172500D02*
G75*
G03*
X9950000Y-11172500I-20000J0D01*
G01*
X9950000Y-12902500D02*
G75*
G03*
X9950000Y-12902500I-20000J0D01*
G01*
X9952000Y-9310500D02*
G75*
G03*
X9952000Y-9310500I-20000J0D01*
G01*
X9959000Y-10545500D02*
G75*
G03*
X9959000Y-10545500I-20000J0D01*
G01*
X10030000Y-10792500D02*
G75*
G03*
X10030000Y-10792500I-20000J0D01*
G01*
X10030000Y-10962500D02*
G75*
G03*
X10030000Y-10962500I-20000J0D01*
G01*
X10061000Y-12574500D02*
G75*
G03*
X10061000Y-12574500I-20000J0D01*
G01*
X10080000Y-12412500D02*
G75*
G03*
X10080000Y-12412500I-20000J0D01*
G01*
X10095500Y-13123000D02*
G75*
G03*
X10095500Y-13123000I-20000J0D01*
G01*
X10103000Y-9317500D02*
G75*
G03*
X10103000Y-9317500I-20000J0D01*
G01*
X10510000Y-12932500D02*
G75*
G03*
X10510000Y-12932500I-20000J0D01*
G01*
X10510000Y-13072500D02*
G75*
G03*
X10510000Y-13072500I-20000J0D01*
G01*
X10555500Y-13627000D02*
G75*
G03*
X10555500Y-13627000I-20000J0D01*
G01*
X10680000Y-13121500D02*
G75*
G03*
X10680000Y-13121500I-20000J0D01*
G01*
X10790000Y-12532500D02*
G75*
G03*
X10790000Y-12532500I-20000J0D01*
G01*
X10810000Y-10442500D02*
G75*
G03*
X10810000Y-10442500I-20000J0D01*
G01*
X10840000Y-7042500D02*
G75*
G03*
X10840000Y-7042500I-20000J0D01*
G01*
X10961000Y-8983500D02*
G75*
G03*
X10961000Y-8983500I-20000J0D01*
G01*
X10970000Y-12532500D02*
G75*
G03*
X10970000Y-12532500I-20000J0D01*
G01*
X11176000Y-12958500D02*
G75*
G03*
X11176000Y-12958500I-20000J0D01*
G01*
X11179500Y-10782000D02*
G75*
G03*
X11179500Y-10782000I-20000J0D01*
G01*
X11210000Y-11912500D02*
G75*
G03*
X11210000Y-11912500I-20000J0D01*
G01*
X11386000Y-12689500D02*
G75*
G03*
X11386000Y-12689500I-20000J0D01*
G01*
X11445000Y-13092500D02*
G75*
G03*
X11445000Y-13092500I-20000J0D01*
G01*
X11480000Y-11232500D02*
G75*
G03*
X11480000Y-11232500I-20000J0D01*
G01*
X11595000Y-12959500D02*
G75*
G03*
X11595000Y-12959500I-20000J0D01*
G01*
X11655000Y-11232500D02*
G75*
G03*
X11655000Y-11232500I-20000J0D01*
G01*
X11660000Y-11792500D02*
G75*
G03*
X11660000Y-11792500I-20000J0D01*
G01*
X11681000Y-12805500D02*
G75*
G03*
X11681000Y-12805500I-20000J0D01*
G01*
X11750000Y-11352500D02*
G75*
G03*
X11750000Y-11352500I-20000J0D01*
G01*
X11777000Y-12646500D02*
G75*
G03*
X11777000Y-12646500I-20000J0D01*
G01*
X11810000Y-11562500D02*
G75*
G03*
X11810000Y-11562500I-20000J0D01*
G01*
X11810000Y-12312500D02*
G75*
G03*
X11810000Y-12312500I-20000J0D01*
G01*
X11810000Y-12472500D02*
G75*
G03*
X11810000Y-12472500I-20000J0D01*
G01*
X11920000Y-8902500D02*
G75*
G03*
X11920000Y-8902500I-20000J0D01*
G01*
X11930000Y-11352500D02*
G75*
G03*
X11930000Y-11352500I-20000J0D01*
G01*
X11990000Y-7797500D02*
G75*
G03*
X11990000Y-7797500I-20000J0D01*
G01*
X12161000Y-8091500D02*
G75*
G03*
X12161000Y-8091500I-20000J0D01*
G01*
X12526000Y-12526500D02*
G75*
G03*
X12526000Y-12526500I-20000J0D01*
G01*
X12866000Y-12533500D02*
G75*
G03*
X12866000Y-12533500I-20000J0D01*
G01*
X12970000Y-8702500D02*
G75*
G03*
X12970000Y-8702500I-20000J0D01*
G01*
X13180000Y-8772500D02*
G75*
G03*
X13180000Y-8772500I-20000J0D01*
G01*
X13330000Y-8692500D02*
G75*
G03*
X13330000Y-8692500I-20000J0D01*
G01*
X13727000Y-10122500D02*
G75*
G03*
X13727000Y-10122500I-20000J0D01*
G01*
X13858000Y-10165500D02*
G75*
G03*
X13858000Y-10165500I-20000J0D01*
G01*
X13940000Y-8502500D02*
G75*
G03*
X13940000Y-8502500I-20000J0D01*
G01*
X14080000Y-8312500D02*
G75*
G03*
X14080000Y-8312500I-20000J0D01*
G01*
X14560000Y-9332500D02*
G75*
G03*
X14560000Y-9332500I-20000J0D01*
G01*
D15*
X8325000Y-6330000D02*
X8325000Y-6380000D01*
X8300000Y-6355000D02*
X8350000Y-6355000D01*
X8325000Y-6830000D02*
X8325000Y-6880000D01*
X8300000Y-6855000D02*
X8350000Y-6855000D01*
X8325000Y-7330000D02*
X8325000Y-7380000D01*
X8300000Y-7355000D02*
X8350000Y-7355000D01*
X8325000Y-7830000D02*
X8325000Y-7880000D01*
X8300000Y-7855000D02*
X8350000Y-7855000D01*
X8325000Y-8330000D02*
X8325000Y-8380000D01*
X8300000Y-8355000D02*
X8350000Y-8355000D01*
X8325000Y-8830000D02*
X8325000Y-8880000D01*
X8300000Y-8855000D02*
X8350000Y-8855000D01*
X8325000Y-9330000D02*
X8325000Y-9380000D01*
X8300000Y-9355000D02*
X8350000Y-9355000D01*
X8325000Y-9830000D02*
X8325000Y-9880000D01*
X8300000Y-9855000D02*
X8350000Y-9855000D01*
X8325000Y-10330000D02*
X8325000Y-10380000D01*
X8300000Y-10355000D02*
X8350000Y-10355000D01*
X8325000Y-10830000D02*
X8325000Y-10880000D01*
X8300000Y-10855000D02*
X8350000Y-10855000D01*
X8325000Y-11330000D02*
X8325000Y-11380000D01*
X8300000Y-11355000D02*
X8350000Y-11355000D01*
X8325000Y-11830000D02*
X8325000Y-11880000D01*
X8300000Y-11855000D02*
X8350000Y-11855000D01*
X8325000Y-12330000D02*
X8325000Y-12380000D01*
X8300000Y-12355000D02*
X8350000Y-12355000D01*
X8325000Y-12830000D02*
X8325000Y-12880000D01*
X8300000Y-12855000D02*
X8350000Y-12855000D01*
X8325000Y-13330000D02*
X8325000Y-13380000D01*
X8300000Y-13355000D02*
X8350000Y-13355000D01*
X8418000Y-13805000D02*
X8418000Y-13855000D01*
X8393000Y-13830000D02*
X8443000Y-13830000D01*
X8520000Y-5599000D02*
X8520000Y-5649000D01*
X8495000Y-5624000D02*
X8545000Y-5624000D01*
X8784000Y-14088500D02*
X8784000Y-14138500D01*
X8759000Y-14113500D02*
X8809000Y-14113500D01*
X9012000Y-5475000D02*
X9012000Y-5525000D01*
X8987000Y-5500000D02*
X9037000Y-5500000D01*
X9284000Y-14088500D02*
X9284000Y-14138500D01*
X9259000Y-14113500D02*
X9309000Y-14113500D01*
X9595000Y-5562500D02*
X9595000Y-5612500D01*
X9570000Y-5587500D02*
X9620000Y-5587500D01*
X9595000Y-5720500D02*
X9595000Y-5770500D01*
X9570000Y-5745500D02*
X9620000Y-5745500D01*
X9595000Y-5878500D02*
X9595000Y-5928500D01*
X9570000Y-5903500D02*
X9620000Y-5903500D01*
X9595000Y-6036500D02*
X9595000Y-6086500D01*
X9570000Y-6061500D02*
X9620000Y-6061500D01*
X9595000Y-6194500D02*
X9595000Y-6244500D01*
X9570000Y-6219500D02*
X9620000Y-6219500D01*
X9745000Y-5562500D02*
X9745000Y-5612500D01*
X9720000Y-5587500D02*
X9770000Y-5587500D01*
X9745000Y-5720500D02*
X9745000Y-5770500D01*
X9720000Y-5745500D02*
X9770000Y-5745500D01*
X9745000Y-5878500D02*
X9745000Y-5928500D01*
X9720000Y-5903500D02*
X9770000Y-5903500D01*
X9745000Y-6036500D02*
X9745000Y-6086500D01*
X9720000Y-6061500D02*
X9770000Y-6061500D01*
X9745000Y-6194500D02*
X9745000Y-6244500D01*
X9720000Y-6219500D02*
X9770000Y-6219500D01*
X9784000Y-14088500D02*
X9784000Y-14138500D01*
X9759000Y-14113500D02*
X9809000Y-14113500D01*
X9785000Y-8297500D02*
X9785000Y-8347500D01*
X9760000Y-8322500D02*
X9810000Y-8322500D01*
X9854000Y-9525500D02*
X9854000Y-9575500D01*
X9829000Y-9550500D02*
X9879000Y-9550500D01*
X9879000Y-9827500D02*
X9879000Y-9877500D01*
X9854000Y-9852500D02*
X9904000Y-9852500D01*
X9880000Y-6987500D02*
X9880000Y-7037500D01*
X9855000Y-7012500D02*
X9905000Y-7012500D01*
X10090000Y-11357500D02*
X10090000Y-11407500D01*
X10065000Y-11382500D02*
X10115000Y-11382500D01*
X10120000Y-6987500D02*
X10120000Y-7037500D01*
X10095000Y-7012500D02*
X10145000Y-7012500D01*
X10158000Y-8847500D02*
X10158000Y-8897500D01*
X10133000Y-8872500D02*
X10183000Y-8872500D01*
X10171000Y-11636500D02*
X10171000Y-11686500D01*
X10146000Y-11661500D02*
X10196000Y-11661500D01*
X10171000Y-12136500D02*
X10171000Y-12186500D01*
X10146000Y-12161500D02*
X10196000Y-12161500D01*
X10208000Y-8274500D02*
X10208000Y-8324500D01*
X10183000Y-8299500D02*
X10233000Y-8299500D01*
X10284000Y-14088500D02*
X10284000Y-14138500D01*
X10259000Y-14113500D02*
X10309000Y-14113500D01*
X10288000Y-9530500D02*
X10288000Y-9580500D01*
X10263000Y-9555500D02*
X10313000Y-9555500D01*
X10288000Y-10340000D02*
X10288000Y-10390000D01*
X10263000Y-10365000D02*
X10313000Y-10365000D01*
X10360000Y-6987500D02*
X10360000Y-7037500D01*
X10335000Y-7012500D02*
X10385000Y-7012500D01*
X10481000Y-10746500D02*
X10481000Y-10796500D01*
X10456000Y-10771500D02*
X10506000Y-10771500D01*
X10514000Y-7791500D02*
X10514000Y-7841500D01*
X10489000Y-7816500D02*
X10539000Y-7816500D01*
X10514000Y-7915500D02*
X10514000Y-7965500D01*
X10489000Y-7940500D02*
X10539000Y-7940500D01*
X10514000Y-8036500D02*
X10514000Y-8086500D01*
X10489000Y-8061500D02*
X10539000Y-8061500D01*
X10515000Y-8286500D02*
X10515000Y-8336500D01*
X10490000Y-8311500D02*
X10540000Y-8311500D01*
X10515000Y-8411500D02*
X10515000Y-8461500D01*
X10490000Y-8436500D02*
X10540000Y-8436500D01*
X10515400Y-8534500D02*
X10515400Y-8584500D01*
X10490400Y-8559500D02*
X10540400Y-8559500D01*
X10555000Y-5562500D02*
X10555000Y-5612500D01*
X10530000Y-5587500D02*
X10580000Y-5587500D01*
X10555000Y-5720500D02*
X10555000Y-5770500D01*
X10530000Y-5745500D02*
X10580000Y-5745500D01*
X10555000Y-5878500D02*
X10555000Y-5928500D01*
X10530000Y-5903500D02*
X10580000Y-5903500D01*
X10555000Y-6036500D02*
X10555000Y-6086500D01*
X10530000Y-6061500D02*
X10580000Y-6061500D01*
X10555000Y-6194500D02*
X10555000Y-6244500D01*
X10530000Y-6219500D02*
X10580000Y-6219500D01*
X10652500Y-8286500D02*
X10652500Y-8336500D01*
X10627500Y-8311500D02*
X10677500Y-8311500D01*
X10652500Y-8411500D02*
X10652500Y-8461500D01*
X10627500Y-8436500D02*
X10677500Y-8436500D01*
X10652500Y-8536500D02*
X10652500Y-8586500D01*
X10627500Y-8561500D02*
X10677500Y-8561500D01*
X10653000Y-7791500D02*
X10653000Y-7841500D01*
X10628000Y-7816500D02*
X10678000Y-7816500D01*
X10653000Y-7916500D02*
X10653000Y-7966500D01*
X10628000Y-7941500D02*
X10678000Y-7941500D01*
X10653000Y-8041500D02*
X10653000Y-8091500D01*
X10628000Y-8066500D02*
X10678000Y-8066500D01*
X10670000Y-12136500D02*
X10670000Y-12186500D01*
X10645000Y-12161500D02*
X10695000Y-12161500D01*
X10672000Y-11636500D02*
X10672000Y-11686500D01*
X10647000Y-11661500D02*
X10697000Y-11661500D01*
X10705000Y-5562500D02*
X10705000Y-5612500D01*
X10680000Y-5587500D02*
X10730000Y-5587500D01*
X10705000Y-5720500D02*
X10705000Y-5770500D01*
X10680000Y-5745500D02*
X10730000Y-5745500D01*
X10705000Y-5878500D02*
X10705000Y-5928500D01*
X10680000Y-5903500D02*
X10730000Y-5903500D01*
X10705000Y-6036500D02*
X10705000Y-6086500D01*
X10680000Y-6061500D02*
X10730000Y-6061500D01*
X10705000Y-6194500D02*
X10705000Y-6244500D01*
X10680000Y-6219500D02*
X10730000Y-6219500D01*
X10759000Y-9078500D02*
X10759000Y-9128500D01*
X10734000Y-9103500D02*
X10784000Y-9103500D01*
X10784000Y-14088500D02*
X10784000Y-14138500D01*
X10759000Y-14113500D02*
X10809000Y-14113500D01*
X10825000Y-8801500D02*
X10825000Y-8851500D01*
X10800000Y-8826500D02*
X10850000Y-8826500D01*
X10840000Y-5475000D02*
X10840000Y-5525000D01*
X10815000Y-5500000D02*
X10865000Y-5500000D01*
X11000000Y-7823500D02*
X11000000Y-7873500D01*
X10975000Y-7848500D02*
X11025000Y-7848500D01*
X11140000Y-12037500D02*
X11140000Y-12087500D01*
X11115000Y-12062500D02*
X11165000Y-12062500D01*
X11140000Y-12517500D02*
X11140000Y-12567500D01*
X11115000Y-12542500D02*
X11165000Y-12542500D01*
X11180000Y-12217500D02*
X11180000Y-12267500D01*
X11155000Y-12242500D02*
X11205000Y-12242500D01*
X11200000Y-11357500D02*
X11200000Y-11407500D01*
X11175000Y-11382500D02*
X11225000Y-11382500D01*
X11235000Y-7994500D02*
X11235000Y-8044500D01*
X11210000Y-8019500D02*
X11260000Y-8019500D01*
X11284000Y-14088500D02*
X11284000Y-14138500D01*
X11259000Y-14113500D02*
X11309000Y-14113500D01*
X11390000Y-5475000D02*
X11390000Y-5525000D01*
X11365000Y-5500000D02*
X11415000Y-5500000D01*
X11390000Y-6960000D02*
X11390000Y-7010000D01*
X11365000Y-6985000D02*
X11415000Y-6985000D01*
X11784000Y-14088500D02*
X11784000Y-14138500D01*
X11759000Y-14113500D02*
X11809000Y-14113500D01*
X11800000Y-5475000D02*
X11800000Y-5525000D01*
X11775000Y-5500000D02*
X11825000Y-5500000D01*
X11800000Y-6960000D02*
X11800000Y-7010000D01*
X11775000Y-6985000D02*
X11825000Y-6985000D01*
X11957000Y-8377500D02*
X11957000Y-8427500D01*
X11932000Y-8402500D02*
X11982000Y-8402500D01*
X12000000Y-12627500D02*
X12000000Y-12677500D01*
X11975000Y-12652500D02*
X12025000Y-12652500D01*
X12000000Y-12752500D02*
X12000000Y-12802500D01*
X11975000Y-12777500D02*
X12025000Y-12777500D01*
X12000000Y-12877500D02*
X12000000Y-12927500D01*
X11975000Y-12902500D02*
X12025000Y-12902500D01*
X12000000Y-13002500D02*
X12000000Y-13052500D01*
X11975000Y-13027500D02*
X12025000Y-13027500D01*
X12000000Y-13515000D02*
X12000000Y-13565000D01*
X11975000Y-13540000D02*
X12025000Y-13540000D01*
X12000000Y-13640000D02*
X12000000Y-13690000D01*
X11975000Y-13665000D02*
X12025000Y-13665000D01*
X12000000Y-13765000D02*
X12000000Y-13815000D01*
X11975000Y-13790000D02*
X12025000Y-13790000D01*
X12000000Y-13890000D02*
X12000000Y-13940000D01*
X11975000Y-13915000D02*
X12025000Y-13915000D01*
X12110000Y-8327500D02*
X12110000Y-8377500D01*
X12085000Y-8352500D02*
X12135000Y-8352500D01*
X12134000Y-7636500D02*
X12134000Y-7686500D01*
X12109000Y-7661500D02*
X12159000Y-7661500D01*
X12150000Y-12527500D02*
X12150000Y-12577500D01*
X12125000Y-12552500D02*
X12175000Y-12552500D01*
X12150000Y-13990000D02*
X12150000Y-14040000D01*
X12125000Y-14015000D02*
X12175000Y-14015000D01*
X12300000Y-12527500D02*
X12300000Y-12577500D01*
X12275000Y-12552500D02*
X12325000Y-12552500D01*
X12300000Y-13990000D02*
X12300000Y-14040000D01*
X12275000Y-14015000D02*
X12325000Y-14015000D01*
X12350000Y-5475000D02*
X12350000Y-5525000D01*
X12325000Y-5500000D02*
X12375000Y-5500000D01*
X12350000Y-6960000D02*
X12350000Y-7010000D01*
X12325000Y-6985000D02*
X12375000Y-6985000D01*
X12402000Y-8875500D02*
X12402000Y-8925500D01*
X12377000Y-8900500D02*
X12427000Y-8900500D01*
X12450000Y-12627500D02*
X12450000Y-12677500D01*
X12425000Y-12652500D02*
X12475000Y-12652500D01*
X12450000Y-12752500D02*
X12450000Y-12802500D01*
X12425000Y-12777500D02*
X12475000Y-12777500D01*
X12450000Y-12877500D02*
X12450000Y-12927500D01*
X12425000Y-12902500D02*
X12475000Y-12902500D01*
X12450000Y-13002500D02*
X12450000Y-13052500D01*
X12425000Y-13027500D02*
X12475000Y-13027500D01*
X12450000Y-13515000D02*
X12450000Y-13565000D01*
X12425000Y-13540000D02*
X12475000Y-13540000D01*
X12450000Y-13640000D02*
X12450000Y-13690000D01*
X12425000Y-13665000D02*
X12475000Y-13665000D01*
X12450000Y-13765000D02*
X12450000Y-13815000D01*
X12425000Y-13790000D02*
X12475000Y-13790000D01*
X12450000Y-13890000D02*
X12450000Y-13940000D01*
X12425000Y-13915000D02*
X12475000Y-13915000D01*
X12532000Y-8615500D02*
X12532000Y-8665500D01*
X12507000Y-8640500D02*
X12557000Y-8640500D01*
X12532000Y-8745500D02*
X12532000Y-8795500D01*
X12507000Y-8770500D02*
X12557000Y-8770500D01*
X12532000Y-8875500D02*
X12532000Y-8925500D01*
X12507000Y-8900500D02*
X12557000Y-8900500D01*
X12662000Y-8615500D02*
X12662000Y-8665500D01*
X12637000Y-8640500D02*
X12687000Y-8640500D01*
X12662000Y-8745500D02*
X12662000Y-8795500D01*
X12637000Y-8770500D02*
X12687000Y-8770500D01*
X12662000Y-8875500D02*
X12662000Y-8925500D01*
X12637000Y-8900500D02*
X12687000Y-8900500D01*
X12681000Y-9467500D02*
X12681000Y-9517500D01*
X12656000Y-9492500D02*
X12706000Y-9492500D01*
X12681000Y-9625500D02*
X12681000Y-9675500D01*
X12656000Y-9650500D02*
X12706000Y-9650500D01*
X12681000Y-9783500D02*
X12681000Y-9833500D01*
X12656000Y-9808500D02*
X12706000Y-9808500D01*
X12681000Y-9941500D02*
X12681000Y-9991500D01*
X12656000Y-9966500D02*
X12706000Y-9966500D01*
X12775000Y-5475000D02*
X12775000Y-5525000D01*
X12750000Y-5500000D02*
X12800000Y-5500000D01*
X12775000Y-6960000D02*
X12775000Y-7010000D01*
X12750000Y-6985000D02*
X12800000Y-6985000D01*
X12784000Y-14088500D02*
X12784000Y-14138500D01*
X12759000Y-14113500D02*
X12809000Y-14113500D01*
X12792000Y-8615500D02*
X12792000Y-8665500D01*
X12767000Y-8640500D02*
X12817000Y-8640500D01*
X12792000Y-8745500D02*
X12792000Y-8795500D01*
X12767000Y-8770500D02*
X12817000Y-8770500D01*
X12792000Y-8875500D02*
X12792000Y-8925500D01*
X12767000Y-8900500D02*
X12817000Y-8900500D01*
X12831000Y-9467500D02*
X12831000Y-9517500D01*
X12806000Y-9492500D02*
X12856000Y-9492500D01*
X12831000Y-9625500D02*
X12831000Y-9675500D01*
X12806000Y-9650500D02*
X12856000Y-9650500D01*
X12831000Y-9783500D02*
X12831000Y-9833500D01*
X12806000Y-9808500D02*
X12856000Y-9808500D01*
X12831000Y-9941500D02*
X12831000Y-9991500D01*
X12806000Y-9966500D02*
X12856000Y-9966500D01*
X12900000Y-7877500D02*
X12900000Y-7927500D01*
X12875000Y-7902500D02*
X12925000Y-7902500D01*
X12981000Y-9467500D02*
X12981000Y-9517500D01*
X12956000Y-9492500D02*
X13006000Y-9492500D01*
X13130000Y-9466500D02*
X13130000Y-9516500D01*
X13105000Y-9491500D02*
X13155000Y-9491500D01*
X13210000Y-10507500D02*
X13210000Y-10557500D01*
X13185000Y-10532500D02*
X13235000Y-10532500D01*
X13210000Y-10637500D02*
X13210000Y-10687500D01*
X13185000Y-10662500D02*
X13235000Y-10662500D01*
X13280000Y-8907500D02*
X13280000Y-8957500D01*
X13255000Y-8932500D02*
X13305000Y-8932500D01*
X13280000Y-9067500D02*
X13280000Y-9117500D01*
X13255000Y-9092500D02*
X13305000Y-9092500D01*
X13280000Y-9217500D02*
X13280000Y-9267500D01*
X13255000Y-9242500D02*
X13305000Y-9242500D01*
X13284000Y-14088500D02*
X13284000Y-14138500D01*
X13259000Y-14113500D02*
X13309000Y-14113500D01*
X13325000Y-5475000D02*
X13325000Y-5525000D01*
X13300000Y-5500000D02*
X13350000Y-5500000D01*
X13325000Y-6960000D02*
X13325000Y-7010000D01*
X13300000Y-6985000D02*
X13350000Y-6985000D01*
X13360000Y-10637500D02*
X13360000Y-10687500D01*
X13335000Y-10662500D02*
X13385000Y-10662500D01*
X13420000Y-8907500D02*
X13420000Y-8957500D01*
X13395000Y-8932500D02*
X13445000Y-8932500D01*
X13420000Y-9067500D02*
X13420000Y-9117500D01*
X13395000Y-9092500D02*
X13445000Y-9092500D01*
X13420000Y-9217500D02*
X13420000Y-9267500D01*
X13395000Y-9242500D02*
X13445000Y-9242500D01*
X13510000Y-10637500D02*
X13510000Y-10687500D01*
X13485000Y-10662500D02*
X13535000Y-10662500D01*
X13610000Y-10807500D02*
X13610000Y-10857500D01*
X13585000Y-10832500D02*
X13635000Y-10832500D01*
X13610000Y-10937500D02*
X13610000Y-10987500D01*
X13585000Y-10962500D02*
X13635000Y-10962500D01*
X13610000Y-11067500D02*
X13610000Y-11117500D01*
X13585000Y-11092500D02*
X13635000Y-11092500D01*
X13660000Y-10247500D02*
X13660000Y-10297500D01*
X13635000Y-10272500D02*
X13685000Y-10272500D01*
X13660000Y-10377500D02*
X13660000Y-10427500D01*
X13635000Y-10402500D02*
X13685000Y-10402500D01*
X13660000Y-10507500D02*
X13660000Y-10557500D01*
X13635000Y-10532500D02*
X13685000Y-10532500D01*
X13660000Y-10637500D02*
X13660000Y-10687500D01*
X13635000Y-10662500D02*
X13685000Y-10662500D01*
X13725000Y-5475000D02*
X13725000Y-5525000D01*
X13700000Y-5500000D02*
X13750000Y-5500000D01*
X13740000Y-11877500D02*
X13740000Y-11927500D01*
X13715000Y-11902500D02*
X13765000Y-11902500D01*
X13750000Y-6960000D02*
X13750000Y-7010000D01*
X13725000Y-6985000D02*
X13775000Y-6985000D01*
X13784000Y-14088500D02*
X13784000Y-14138500D01*
X13759000Y-14113500D02*
X13809000Y-14113500D01*
X13790000Y-10637500D02*
X13790000Y-10687500D01*
X13765000Y-10662500D02*
X13815000Y-10662500D01*
X13920000Y-8607500D02*
X13920000Y-8657500D01*
X13895000Y-8632500D02*
X13945000Y-8632500D01*
X13955000Y-10933500D02*
X13955000Y-10983500D01*
X13930000Y-10958500D02*
X13980000Y-10958500D01*
X13955000Y-11083500D02*
X13955000Y-11133500D01*
X13930000Y-11108500D02*
X13980000Y-11108500D01*
X14108000Y-13651500D02*
X14108000Y-13701500D01*
X14083000Y-13676500D02*
X14133000Y-13676500D01*
X14113000Y-10933500D02*
X14113000Y-10983500D01*
X14088000Y-10958500D02*
X14138000Y-10958500D01*
X14113000Y-11083500D02*
X14113000Y-11133500D01*
X14088000Y-11108500D02*
X14138000Y-11108500D01*
X14210000Y-7877500D02*
X14210000Y-7927500D01*
X14185000Y-7902500D02*
X14235000Y-7902500D01*
X14233000Y-13651500D02*
X14233000Y-13701500D01*
X14208000Y-13676500D02*
X14258000Y-13676500D01*
X14271000Y-10933500D02*
X14271000Y-10983500D01*
X14246000Y-10958500D02*
X14296000Y-10958500D01*
X14271000Y-11083500D02*
X14271000Y-11133500D01*
X14246000Y-11108500D02*
X14296000Y-11108500D01*
X14275000Y-5475000D02*
X14275000Y-5525000D01*
X14250000Y-5500000D02*
X14300000Y-5500000D01*
X14284000Y-14088500D02*
X14284000Y-14138500D01*
X14259000Y-14113500D02*
X14309000Y-14113500D01*
X14346000Y-11534500D02*
X14346000Y-11584500D01*
X14321000Y-11559500D02*
X14371000Y-11559500D01*
X14358000Y-13651500D02*
X14358000Y-13701500D01*
X14333000Y-13676500D02*
X14383000Y-13676500D01*
X14429000Y-10933500D02*
X14429000Y-10983500D01*
X14404000Y-10958500D02*
X14454000Y-10958500D01*
X14429000Y-11083500D02*
X14429000Y-11133500D01*
X14404000Y-11108500D02*
X14454000Y-11108500D01*
X14429000Y-11233500D02*
X14429000Y-11283500D01*
X14404000Y-11258500D02*
X14454000Y-11258500D01*
X14430000Y-11382500D02*
X14430000Y-11432500D01*
X14405000Y-11407500D02*
X14455000Y-11407500D01*
X14483000Y-13251500D02*
X14483000Y-13301500D01*
X14458000Y-13276500D02*
X14508000Y-13276500D01*
X14483000Y-13376500D02*
X14483000Y-13426500D01*
X14458000Y-13401500D02*
X14508000Y-13401500D01*
X14483000Y-13501500D02*
X14483000Y-13551500D01*
X14458000Y-13526500D02*
X14508000Y-13526500D01*
X14496000Y-11534500D02*
X14496000Y-11584500D01*
X14471000Y-11559500D02*
X14521000Y-11559500D01*
X14557000Y-13650500D02*
X14557000Y-13700500D01*
X14532000Y-13675500D02*
X14582000Y-13675500D01*
X14627000Y-13251500D02*
X14627000Y-13301500D01*
X14602000Y-13276500D02*
X14652000Y-13276500D01*
X14627000Y-13376500D02*
X14627000Y-13426500D01*
X14602000Y-13401500D02*
X14652000Y-13401500D01*
X14627000Y-13501500D02*
X14627000Y-13551500D01*
X14602000Y-13526500D02*
X14652000Y-13526500D01*
X14656000Y-11534500D02*
X14656000Y-11584500D01*
X14631000Y-11559500D02*
X14681000Y-11559500D01*
X14707000Y-9231500D02*
X14707000Y-9281500D01*
X14682000Y-9256500D02*
X14732000Y-9256500D01*
X14707000Y-9401500D02*
X14707000Y-9451500D01*
X14682000Y-9426500D02*
X14732000Y-9426500D01*
X14710000Y-9062500D02*
X14710000Y-9112500D01*
X14685000Y-9087500D02*
X14735000Y-9087500D01*
X14754000Y-5557000D02*
X14754000Y-5607000D01*
X14729000Y-5582000D02*
X14779000Y-5582000D01*
X14784000Y-14088500D02*
X14784000Y-14138500D01*
X14759000Y-14113500D02*
X14809000Y-14113500D01*
X14845000Y-9062500D02*
X14845000Y-9112500D01*
X14820000Y-9087500D02*
X14870000Y-9087500D01*
X14980000Y-9062500D02*
X14980000Y-9112500D01*
X14955000Y-9087500D02*
X15005000Y-9087500D01*
X15115000Y-9062500D02*
X15115000Y-9112500D01*
X15090000Y-9087500D02*
X15140000Y-9087500D01*
X15250000Y-9062500D02*
X15250000Y-9112500D01*
X15225000Y-9087500D02*
X15275000Y-9087500D01*
X15280000Y-12237500D02*
X15280000Y-12287500D01*
X15255000Y-12262500D02*
X15305000Y-12262500D01*
X15284000Y-14088500D02*
X15284000Y-14138500D01*
X15259000Y-14113500D02*
X15309000Y-14113500D01*
X15305000Y-5527000D02*
X15305000Y-5577000D01*
X15280000Y-5552000D02*
X15330000Y-5552000D01*
X15385000Y-9062500D02*
X15385000Y-9112500D01*
X15360000Y-9087500D02*
X15410000Y-9087500D01*
X15389000Y-9230500D02*
X15389000Y-9280500D01*
X15364000Y-9255500D02*
X15414000Y-9255500D01*
X15389000Y-9400500D02*
X15389000Y-9450500D01*
X15364000Y-9425500D02*
X15414000Y-9425500D01*
X15580000Y-13805000D02*
X15580000Y-13855000D01*
X15555000Y-13830000D02*
X15605000Y-13830000D01*
X15623000Y-5841000D02*
X15623000Y-5891000D01*
X15598000Y-5866000D02*
X15648000Y-5866000D01*
X15675000Y-6330000D02*
X15675000Y-6380000D01*
X15650000Y-6355000D02*
X15700000Y-6355000D01*
X15675000Y-6830000D02*
X15675000Y-6880000D01*
X15650000Y-6855000D02*
X15700000Y-6855000D01*
X15675000Y-8330000D02*
X15675000Y-8380000D01*
X15650000Y-8355000D02*
X15700000Y-8355000D01*
X15675000Y-8830000D02*
X15675000Y-8880000D01*
X15650000Y-8855000D02*
X15700000Y-8855000D01*
X15675000Y-9330000D02*
X15675000Y-9380000D01*
X15650000Y-9355000D02*
X15700000Y-9355000D01*
X15675000Y-9830000D02*
X15675000Y-9880000D01*
X15650000Y-9855000D02*
X15700000Y-9855000D01*
X15675000Y-10330000D02*
X15675000Y-10380000D01*
X15650000Y-10355000D02*
X15700000Y-10355000D01*
X15675000Y-10830000D02*
X15675000Y-10880000D01*
X15650000Y-10855000D02*
X15700000Y-10855000D01*
X15675000Y-11330000D02*
X15675000Y-11380000D01*
X15650000Y-11355000D02*
X15700000Y-11355000D01*
X15675000Y-11830000D02*
X15675000Y-11880000D01*
X15650000Y-11855000D02*
X15700000Y-11855000D01*
X15675000Y-12330000D02*
X15675000Y-12380000D01*
X15650000Y-12355000D02*
X15700000Y-12355000D01*
X15675000Y-12830000D02*
X15675000Y-12880000D01*
X15650000Y-12855000D02*
X15700000Y-12855000D01*
X15675000Y-13330000D02*
X15675000Y-13380000D01*
X15650000Y-13355000D02*
X15700000Y-13355000D01*
D16*
X13310749Y-7967249D02*
X13310749Y-7917751D01*
X13261251Y-7917751D01*
X13261251Y-7967249D01*
X13310749Y-7967249D01*
X13564749Y-7967249D02*
X13564749Y-7917751D01*
X13515251Y-7917751D01*
X13515251Y-7967249D01*
X13564749Y-7967249D01*
X13818749Y-7967249D02*
X13818749Y-7917751D01*
X13769251Y-7917751D01*
X13769251Y-7967249D01*
X13818749Y-7967249D01*
D17*
X10916000Y-13451500D02*
X10966000Y-13401500D01*
X10916000Y-13351500D01*
X10866000Y-13401500D01*
X10916000Y-13451500D01*
X11170000Y-13451500D02*
X11220000Y-13401500D01*
X11170000Y-13351500D01*
X11120000Y-13401500D01*
X11170000Y-13451500D01*
X11424000Y-13451500D02*
X11474000Y-13401500D01*
X11424000Y-13351500D01*
X11374000Y-13401500D01*
X11424000Y-13451500D01*
D18*
X8991000Y-7448500D02*
X9101000Y-7558500D01*
X9101000Y-7448500D02*
X8991000Y-7558500D01*
X9101000Y-7503500D02*
G75*
G03*
X9101000Y-7503500I-55000J0D01*
G01*
X8991000Y-7725500D02*
X9101000Y-7835500D01*
X9101000Y-7725500D02*
X8991000Y-7835500D01*
X9101000Y-7780500D02*
G75*
G03*
X9101000Y-7780500I-55000J0D01*
G01*
X8991000Y-8002500D02*
X9101000Y-8112500D01*
X9101000Y-8002500D02*
X8991000Y-8112500D01*
X9101000Y-8057500D02*
G75*
G03*
X9101000Y-8057500I-55000J0D01*
G01*
X8991000Y-8279500D02*
X9101000Y-8389500D01*
X9101000Y-8279500D02*
X8991000Y-8389500D01*
X9101000Y-8334500D02*
G75*
G03*
X9101000Y-8334500I-55000J0D01*
G01*
X8991000Y-8556500D02*
X9101000Y-8666500D01*
X9101000Y-8556500D02*
X8991000Y-8666500D01*
X9101000Y-8611500D02*
G75*
G03*
X9101000Y-8611500I-55000J0D01*
G01*
X8991000Y-8833500D02*
X9101000Y-8943500D01*
X9101000Y-8833500D02*
X8991000Y-8943500D01*
X9101000Y-8888500D02*
G75*
G03*
X9101000Y-8888500I-55000J0D01*
G01*
X8991000Y-9110500D02*
X9101000Y-9220500D01*
X9101000Y-9110500D02*
X8991000Y-9220500D01*
X9101000Y-9165500D02*
G75*
G03*
X9101000Y-9165500I-55000J0D01*
G01*
X8991000Y-9387500D02*
X9101000Y-9497500D01*
X9101000Y-9387500D02*
X8991000Y-9497500D01*
X9101000Y-9442500D02*
G75*
G03*
X9101000Y-9442500I-55000J0D01*
G01*
X8991000Y-9664500D02*
X9101000Y-9774500D01*
X9101000Y-9664500D02*
X8991000Y-9774500D01*
X9101000Y-9719500D02*
G75*
G03*
X9101000Y-9719500I-55000J0D01*
G01*
X8991000Y-9941500D02*
X9101000Y-10051500D01*
X9101000Y-9941500D02*
X8991000Y-10051500D01*
X9101000Y-9996500D02*
G75*
G03*
X9101000Y-9996500I-55000J0D01*
G01*
X8991000Y-10218500D02*
X9101000Y-10328500D01*
X9101000Y-10218500D02*
X8991000Y-10328500D01*
X9101000Y-10273500D02*
G75*
G03*
X9101000Y-10273500I-55000J0D01*
G01*
X8991000Y-10495500D02*
X9101000Y-10605500D01*
X9101000Y-10495500D02*
X8991000Y-10605500D01*
X9101000Y-10550500D02*
G75*
G03*
X9101000Y-10550500I-55000J0D01*
G01*
X8991000Y-10772500D02*
X9101000Y-10882500D01*
X9101000Y-10772500D02*
X8991000Y-10882500D01*
X9101000Y-10827500D02*
G75*
G03*
X9101000Y-10827500I-55000J0D01*
G01*
X8991000Y-11049500D02*
X9101000Y-11159500D01*
X9101000Y-11049500D02*
X8991000Y-11159500D01*
X9101000Y-11104500D02*
G75*
G03*
X9101000Y-11104500I-55000J0D01*
G01*
X8991000Y-11326500D02*
X9101000Y-11436500D01*
X9101000Y-11326500D02*
X8991000Y-11436500D01*
X9101000Y-11381500D02*
G75*
G03*
X9101000Y-11381500I-55000J0D01*
G01*
X8991000Y-11603500D02*
X9101000Y-11713500D01*
X9101000Y-11603500D02*
X8991000Y-11713500D01*
X9101000Y-11658500D02*
G75*
G03*
X9101000Y-11658500I-55000J0D01*
G01*
X8991000Y-11880500D02*
X9101000Y-11990500D01*
X9101000Y-11880500D02*
X8991000Y-11990500D01*
X9101000Y-11935500D02*
G75*
G03*
X9101000Y-11935500I-55000J0D01*
G01*
X8991000Y-12157500D02*
X9101000Y-12267500D01*
X9101000Y-12157500D02*
X8991000Y-12267500D01*
X9101000Y-12212500D02*
G75*
G03*
X9101000Y-12212500I-55000J0D01*
G01*
X9245000Y-7310000D02*
X9355000Y-7420000D01*
X9355000Y-7310000D02*
X9245000Y-7420000D01*
X9355000Y-7365000D02*
G75*
G03*
X9355000Y-7365000I-55000J0D01*
G01*
X9245000Y-7587000D02*
X9355000Y-7697000D01*
X9355000Y-7587000D02*
X9245000Y-7697000D01*
X9355000Y-7642000D02*
G75*
G03*
X9355000Y-7642000I-55000J0D01*
G01*
X9245000Y-7864000D02*
X9355000Y-7974000D01*
X9355000Y-7864000D02*
X9245000Y-7974000D01*
X9355000Y-7919000D02*
G75*
G03*
X9355000Y-7919000I-55000J0D01*
G01*
X9245000Y-8141000D02*
X9355000Y-8251000D01*
X9355000Y-8141000D02*
X9245000Y-8251000D01*
X9355000Y-8196000D02*
G75*
G03*
X9355000Y-8196000I-55000J0D01*
G01*
X9245000Y-8418000D02*
X9355000Y-8528000D01*
X9355000Y-8418000D02*
X9245000Y-8528000D01*
X9355000Y-8473000D02*
G75*
G03*
X9355000Y-8473000I-55000J0D01*
G01*
X9245000Y-8695000D02*
X9355000Y-8805000D01*
X9355000Y-8695000D02*
X9245000Y-8805000D01*
X9355000Y-8750000D02*
G75*
G03*
X9355000Y-8750000I-55000J0D01*
G01*
X9245000Y-8972000D02*
X9355000Y-9082000D01*
X9355000Y-8972000D02*
X9245000Y-9082000D01*
X9355000Y-9027000D02*
G75*
G03*
X9355000Y-9027000I-55000J0D01*
G01*
X9245000Y-9249000D02*
X9355000Y-9359000D01*
X9355000Y-9249000D02*
X9245000Y-9359000D01*
X9355000Y-9304000D02*
G75*
G03*
X9355000Y-9304000I-55000J0D01*
G01*
X9245000Y-9526000D02*
X9355000Y-9636000D01*
X9355000Y-9526000D02*
X9245000Y-9636000D01*
X9355000Y-9581000D02*
G75*
G03*
X9355000Y-9581000I-55000J0D01*
G01*
X9245000Y-9803000D02*
X9355000Y-9913000D01*
X9355000Y-9803000D02*
X9245000Y-9913000D01*
X9355000Y-9858000D02*
G75*
G03*
X9355000Y-9858000I-55000J0D01*
G01*
X9245000Y-10080000D02*
X9355000Y-10190000D01*
X9355000Y-10080000D02*
X9245000Y-10190000D01*
X9355000Y-10135000D02*
G75*
G03*
X9355000Y-10135000I-55000J0D01*
G01*
X9245000Y-10357000D02*
X9355000Y-10467000D01*
X9355000Y-10357000D02*
X9245000Y-10467000D01*
X9355000Y-10412000D02*
G75*
G03*
X9355000Y-10412000I-55000J0D01*
G01*
X9245000Y-10634000D02*
X9355000Y-10744000D01*
X9355000Y-10634000D02*
X9245000Y-10744000D01*
X9355000Y-10689000D02*
G75*
G03*
X9355000Y-10689000I-55000J0D01*
G01*
X9245000Y-10911000D02*
X9355000Y-11021000D01*
X9355000Y-10911000D02*
X9245000Y-11021000D01*
X9355000Y-10966000D02*
G75*
G03*
X9355000Y-10966000I-55000J0D01*
G01*
X9245000Y-11188000D02*
X9355000Y-11298000D01*
X9355000Y-11188000D02*
X9245000Y-11298000D01*
X9355000Y-11243000D02*
G75*
G03*
X9355000Y-11243000I-55000J0D01*
G01*
X9245000Y-11465000D02*
X9355000Y-11575000D01*
X9355000Y-11465000D02*
X9245000Y-11575000D01*
X9355000Y-11520000D02*
G75*
G03*
X9355000Y-11520000I-55000J0D01*
G01*
X9245000Y-11742000D02*
X9355000Y-11852000D01*
X9355000Y-11742000D02*
X9245000Y-11852000D01*
X9355000Y-11797000D02*
G75*
G03*
X9355000Y-11797000I-55000J0D01*
G01*
X9245000Y-12019000D02*
X9355000Y-12129000D01*
X9355000Y-12019000D02*
X9245000Y-12129000D01*
X9355000Y-12074000D02*
G75*
G03*
X9355000Y-12074000I-55000J0D01*
G01*
X9245000Y-12296000D02*
X9355000Y-12406000D01*
X9355000Y-12296000D02*
X9245000Y-12406000D01*
X9355000Y-12351000D02*
G75*
G03*
X9355000Y-12351000I-55000J0D01*
G01*
D19*
X14570000Y-6507500D02*
X14730000Y-6667500D01*
X14730000Y-6507500D02*
X14570000Y-6667500D01*
X14650000Y-6507500D02*
X14650000Y-6667500D01*
X14570000Y-6587500D02*
X14730000Y-6587500D01*
X15040000Y-6207500D02*
X15200000Y-6367500D01*
X15200000Y-6207500D02*
X15040000Y-6367500D01*
X15120000Y-6207500D02*
X15120000Y-6367500D01*
X15040000Y-6287500D02*
X15200000Y-6287500D01*
X15040000Y-6807500D02*
X15200000Y-6967500D01*
X15200000Y-6807500D02*
X15040000Y-6967500D01*
X15120000Y-6807500D02*
X15120000Y-6967500D01*
X15040000Y-6887500D02*
X15200000Y-6887500D01*
D20*
X9013000Y-6523000D02*
X9333000Y-6843000D01*
X9333000Y-6523000D02*
X9013000Y-6843000D01*
X9286138Y-6796138D02*
X9286138Y-6569862D01*
X9059862Y-6569862D01*
X9059862Y-6796138D01*
X9286138Y-6796138D01*
X9013000Y-12873000D02*
X9333000Y-13193000D01*
X9333000Y-12873000D02*
X9013000Y-13193000D01*
X9286138Y-13146138D02*
X9286138Y-12919862D01*
X9059862Y-12919862D01*
X9059862Y-13146138D01*
X9286138Y-13146138D01*
D21*
X9925000Y-5687500D02*
X10375000Y-6137500D01*
X10375000Y-5687500D02*
X9925000Y-6137500D01*
X10150000Y-6137500D02*
X10375000Y-5912500D01*
X10150000Y-5687500D01*
X9925000Y-5912500D01*
X10150000Y-6137500D01*
X9925000Y-6407500D02*
X10375000Y-6857500D01*
X10375000Y-6407500D02*
X9925000Y-6857500D01*
X10150000Y-6857500D02*
X10375000Y-6632500D01*
X10150000Y-6407500D01*
X9925000Y-6632500D01*
X10150000Y-6857500D01*
X10892500Y-5687500D02*
X11342500Y-6137500D01*
X11342500Y-5687500D02*
X10892500Y-6137500D01*
X11117500Y-6137500D02*
X11342500Y-5912500D01*
X11117500Y-5687500D01*
X10892500Y-5912500D01*
X11117500Y-6137500D01*
X10892500Y-6407500D02*
X11342500Y-6857500D01*
X11342500Y-6407500D02*
X10892500Y-6857500D01*
X11117500Y-6857500D02*
X11342500Y-6632500D01*
X11117500Y-6407500D01*
X10892500Y-6632500D01*
X11117500Y-6857500D01*
X11860000Y-5687500D02*
X12310000Y-6137500D01*
X12310000Y-5687500D02*
X11860000Y-6137500D01*
X12085000Y-6137500D02*
X12310000Y-5912500D01*
X12085000Y-5687500D01*
X11860000Y-5912500D01*
X12085000Y-6137500D01*
X11860000Y-6407500D02*
X12310000Y-6857500D01*
X12310000Y-6407500D02*
X11860000Y-6857500D01*
X12085000Y-6857500D02*
X12310000Y-6632500D01*
X12085000Y-6407500D01*
X11860000Y-6632500D01*
X12085000Y-6857500D01*
X12827500Y-5687500D02*
X13277500Y-6137500D01*
X13277500Y-5687500D02*
X12827500Y-6137500D01*
X13052500Y-6137500D02*
X13277500Y-5912500D01*
X13052500Y-5687500D01*
X12827500Y-5912500D01*
X13052500Y-6137500D01*
X12827500Y-6407500D02*
X13277500Y-6857500D01*
X13277500Y-6407500D02*
X12827500Y-6857500D01*
X13052500Y-6857500D02*
X13277500Y-6632500D01*
X13052500Y-6407500D01*
X12827500Y-6632500D01*
X13052500Y-6857500D01*
X13795000Y-5687500D02*
X14245000Y-6137500D01*
X14245000Y-5687500D02*
X13795000Y-6137500D01*
X14020000Y-6137500D02*
X14245000Y-5912500D01*
X14020000Y-5687500D01*
X13795000Y-5912500D01*
X14020000Y-6137500D01*
X13795000Y-6407500D02*
X14245000Y-6857500D01*
X14245000Y-6407500D02*
X13795000Y-6857500D01*
X14020000Y-6857500D02*
X14245000Y-6632500D01*
X14020000Y-6407500D01*
X13795000Y-6632500D01*
X14020000Y-6857500D01*
X14415000Y-7377500D02*
X14865000Y-7827500D01*
X14865000Y-7377500D02*
X14415000Y-7827500D01*
X14640000Y-7827500D02*
X14865000Y-7602500D01*
X14640000Y-7377500D01*
X14415000Y-7602500D01*
X14640000Y-7827500D01*
X15135000Y-7377500D02*
X15585000Y-7827500D01*
X15585000Y-7377500D02*
X15135000Y-7827500D01*
X15360000Y-7827500D02*
X15585000Y-7602500D01*
X15360000Y-7377500D01*
X15135000Y-7602500D01*
X15360000Y-7827500D01*
D12*
X8252619Y-14817976D02*
X8252619Y-14617976D01*
X8300238Y-14617976D01*
X8328809Y-14627500D01*
X8347857Y-14646548D01*
X8357381Y-14665595D01*
X8366905Y-14703690D01*
X8366905Y-14732262D01*
X8357381Y-14770357D01*
X8347857Y-14789405D01*
X8328809Y-14808452D01*
X8300238Y-14817976D01*
X8252619Y-14817976D01*
X8452619Y-14817976D02*
X8452619Y-14684643D01*
X8452619Y-14722738D02*
X8462143Y-14703690D01*
X8471667Y-14694167D01*
X8490714Y-14684643D01*
X8509762Y-14684643D01*
X8576429Y-14817976D02*
X8576429Y-14684643D01*
X8576429Y-14617976D02*
X8566905Y-14627500D01*
X8576429Y-14637024D01*
X8585952Y-14627500D01*
X8576429Y-14617976D01*
X8576429Y-14637024D01*
X8700238Y-14817976D02*
X8681190Y-14808452D01*
X8671667Y-14789405D01*
X8671667Y-14617976D01*
X8805000Y-14817976D02*
X8785952Y-14808452D01*
X8776429Y-14789405D01*
X8776429Y-14617976D01*
X9033571Y-14817976D02*
X9033571Y-14617976D01*
X9100238Y-14760833D01*
X9166905Y-14617976D01*
X9166905Y-14817976D01*
X9347857Y-14817976D02*
X9347857Y-14713214D01*
X9338333Y-14694167D01*
X9319286Y-14684643D01*
X9281190Y-14684643D01*
X9262143Y-14694167D01*
X9347857Y-14808452D02*
X9328810Y-14817976D01*
X9281190Y-14817976D01*
X9262143Y-14808452D01*
X9252619Y-14789405D01*
X9252619Y-14770357D01*
X9262143Y-14751309D01*
X9281190Y-14741786D01*
X9328810Y-14741786D01*
X9347857Y-14732262D01*
X9443095Y-14684643D02*
X9443095Y-14884643D01*
X9443095Y-14694167D02*
X9462143Y-14684643D01*
X9500238Y-14684643D01*
X9519286Y-14694167D01*
X9528810Y-14703690D01*
X9538333Y-14722738D01*
X9538333Y-14779881D01*
X9528810Y-14798928D01*
X9519286Y-14808452D01*
X9500238Y-14817976D01*
X9462143Y-14817976D01*
X9443095Y-14808452D01*
X9624048Y-14798928D02*
X9633571Y-14808452D01*
X9624048Y-14817976D01*
X9614524Y-14808452D01*
X9624048Y-14798928D01*
X9624048Y-14817976D01*
X9624048Y-14694167D02*
X9633571Y-14703690D01*
X9624048Y-14713214D01*
X9614524Y-14703690D01*
X9624048Y-14694167D01*
X9624048Y-14713214D01*
D13*
X7975000Y-15137500D02*
X7995000Y-15157500D01*
X7995000Y-15137500D02*
X7975000Y-15157500D01*
D12*
X8290714Y-15037976D02*
X8309762Y-15037976D01*
X8328809Y-15047500D01*
X8338333Y-15057024D01*
X8347857Y-15076071D01*
X8357381Y-15114167D01*
X8357381Y-15161786D01*
X8347857Y-15199881D01*
X8338333Y-15218928D01*
X8328809Y-15228452D01*
X8309762Y-15237976D01*
X8290714Y-15237976D01*
X8271667Y-15228452D01*
X8262143Y-15218928D01*
X8252619Y-15199881D01*
X8243095Y-15161786D01*
X8243095Y-15114167D01*
X8252619Y-15076071D01*
X8262143Y-15057024D01*
X8271667Y-15047500D01*
X8290714Y-15037976D01*
X8443095Y-15218928D02*
X8452619Y-15228452D01*
X8443095Y-15237976D01*
X8433571Y-15228452D01*
X8443095Y-15218928D01*
X8443095Y-15237976D01*
X8528810Y-15057024D02*
X8538333Y-15047500D01*
X8557381Y-15037976D01*
X8605000Y-15037976D01*
X8624048Y-15047500D01*
X8633571Y-15057024D01*
X8643095Y-15076071D01*
X8643095Y-15095119D01*
X8633571Y-15123690D01*
X8519286Y-15237976D01*
X8643095Y-15237976D01*
X8766905Y-15037976D02*
X8785952Y-15037976D01*
X8805000Y-15047500D01*
X8814524Y-15057024D01*
X8824048Y-15076071D01*
X8833571Y-15114167D01*
X8833571Y-15161786D01*
X8824048Y-15199881D01*
X8814524Y-15218928D01*
X8805000Y-15228452D01*
X8785952Y-15237976D01*
X8766905Y-15237976D01*
X8747857Y-15228452D01*
X8738333Y-15218928D01*
X8728810Y-15199881D01*
X8719286Y-15161786D01*
X8719286Y-15114167D01*
X8728810Y-15076071D01*
X8738333Y-15057024D01*
X8747857Y-15047500D01*
X8766905Y-15037976D01*
X8957381Y-15037976D02*
X8976429Y-15037976D01*
X8995476Y-15047500D01*
X9005000Y-15057024D01*
X9014524Y-15076071D01*
X9024048Y-15114167D01*
X9024048Y-15161786D01*
X9014524Y-15199881D01*
X9005000Y-15218928D01*
X8995476Y-15228452D01*
X8976429Y-15237976D01*
X8957381Y-15237976D01*
X8938333Y-15228452D01*
X8928810Y-15218928D01*
X8919286Y-15199881D01*
X8909762Y-15161786D01*
X8909762Y-15114167D01*
X8919286Y-15076071D01*
X8928810Y-15057024D01*
X8938333Y-15047500D01*
X8957381Y-15037976D01*
X9109762Y-15237976D02*
X9109762Y-15104643D01*
X9109762Y-15123690D02*
X9119286Y-15114167D01*
X9138333Y-15104643D01*
X9166905Y-15104643D01*
X9185952Y-15114167D01*
X9195476Y-15133214D01*
X9195476Y-15237976D01*
X9195476Y-15133214D02*
X9205000Y-15114167D01*
X9224048Y-15104643D01*
X9252619Y-15104643D01*
X9271667Y-15114167D01*
X9281190Y-15133214D01*
X9281190Y-15237976D01*
X9376429Y-15237976D02*
X9376429Y-15104643D01*
X9376429Y-15123690D02*
X9385952Y-15114167D01*
X9405000Y-15104643D01*
X9433571Y-15104643D01*
X9452619Y-15114167D01*
X9462143Y-15133214D01*
X9462143Y-15237976D01*
X9462143Y-15133214D02*
X9471667Y-15114167D01*
X9490714Y-15104643D01*
X9519286Y-15104643D01*
X9538333Y-15114167D01*
X9547857Y-15133214D01*
X9547857Y-15237976D01*
X9938333Y-15028452D02*
X9766905Y-15285595D01*
X10195476Y-15037976D02*
X10214524Y-15037976D01*
X10233571Y-15047500D01*
X10243095Y-15057024D01*
X10252619Y-15076071D01*
X10262143Y-15114167D01*
X10262143Y-15161786D01*
X10252619Y-15199881D01*
X10243095Y-15218928D01*
X10233571Y-15228452D01*
X10214524Y-15237976D01*
X10195476Y-15237976D01*
X10176429Y-15228452D01*
X10166905Y-15218928D01*
X10157381Y-15199881D01*
X10147857Y-15161786D01*
X10147857Y-15114167D01*
X10157381Y-15076071D01*
X10166905Y-15057024D01*
X10176429Y-15047500D01*
X10195476Y-15037976D01*
X10347857Y-15218928D02*
X10357381Y-15228452D01*
X10347857Y-15237976D01*
X10338333Y-15228452D01*
X10347857Y-15218928D01*
X10347857Y-15237976D01*
X10481190Y-15037976D02*
X10500238Y-15037976D01*
X10519286Y-15047500D01*
X10528810Y-15057024D01*
X10538333Y-15076071D01*
X10547857Y-15114167D01*
X10547857Y-15161786D01*
X10538333Y-15199881D01*
X10528810Y-15218928D01*
X10519286Y-15228452D01*
X10500238Y-15237976D01*
X10481190Y-15237976D01*
X10462143Y-15228452D01*
X10452619Y-15218928D01*
X10443095Y-15199881D01*
X10433571Y-15161786D01*
X10433571Y-15114167D01*
X10443095Y-15076071D01*
X10452619Y-15057024D01*
X10462143Y-15047500D01*
X10481190Y-15037976D01*
X10671667Y-15037976D02*
X10690714Y-15037976D01*
X10709762Y-15047500D01*
X10719286Y-15057024D01*
X10728810Y-15076071D01*
X10738333Y-15114167D01*
X10738333Y-15161786D01*
X10728810Y-15199881D01*
X10719286Y-15218928D01*
X10709762Y-15228452D01*
X10690714Y-15237976D01*
X10671667Y-15237976D01*
X10652619Y-15228452D01*
X10643095Y-15218928D01*
X10633571Y-15199881D01*
X10624048Y-15161786D01*
X10624048Y-15114167D01*
X10633571Y-15076071D01*
X10643095Y-15057024D01*
X10652619Y-15047500D01*
X10671667Y-15037976D01*
X10805000Y-15037976D02*
X10938333Y-15037976D01*
X10852619Y-15237976D01*
X11024048Y-15237976D02*
X11062143Y-15237976D01*
X11081190Y-15228452D01*
X11090714Y-15218928D01*
X11109762Y-15190357D01*
X11119286Y-15152262D01*
X11119286Y-15076071D01*
X11109762Y-15057024D01*
X11100238Y-15047500D01*
X11081190Y-15037976D01*
X11043095Y-15037976D01*
X11024048Y-15047500D01*
X11014524Y-15057024D01*
X11005000Y-15076071D01*
X11005000Y-15123690D01*
X11014524Y-15142738D01*
X11024048Y-15152262D01*
X11043095Y-15161786D01*
X11081190Y-15161786D01*
X11100238Y-15152262D01*
X11109762Y-15142738D01*
X11119286Y-15123690D01*
X11195476Y-15037976D02*
X11195476Y-15076071D01*
X11271667Y-15037976D02*
X11271667Y-15076071D01*
X11566905Y-15314167D02*
X11557381Y-15304643D01*
X11538333Y-15276071D01*
X11528809Y-15257024D01*
X11519286Y-15228452D01*
X11509762Y-15180833D01*
X11509762Y-15142738D01*
X11519286Y-15095119D01*
X11528809Y-15066548D01*
X11538333Y-15047500D01*
X11557381Y-15018928D01*
X11566905Y-15009405D01*
X11671667Y-15123690D02*
X11652619Y-15114167D01*
X11643095Y-15104643D01*
X11633571Y-15085595D01*
X11633571Y-15076071D01*
X11643095Y-15057024D01*
X11652619Y-15047500D01*
X11671667Y-15037976D01*
X11709762Y-15037976D01*
X11728809Y-15047500D01*
X11738333Y-15057024D01*
X11747857Y-15076071D01*
X11747857Y-15085595D01*
X11738333Y-15104643D01*
X11728809Y-15114167D01*
X11709762Y-15123690D01*
X11671667Y-15123690D01*
X11652619Y-15133214D01*
X11643095Y-15142738D01*
X11633571Y-15161786D01*
X11633571Y-15199881D01*
X11643095Y-15218928D01*
X11652619Y-15228452D01*
X11671667Y-15237976D01*
X11709762Y-15237976D01*
X11728809Y-15228452D01*
X11738333Y-15218928D01*
X11747857Y-15199881D01*
X11747857Y-15161786D01*
X11738333Y-15142738D01*
X11728809Y-15133214D01*
X11709762Y-15123690D01*
X11843095Y-15237976D02*
X11881190Y-15237976D01*
X11900238Y-15228452D01*
X11909762Y-15218928D01*
X11928809Y-15190357D01*
X11938333Y-15152262D01*
X11938333Y-15076071D01*
X11928809Y-15057024D01*
X11919286Y-15047500D01*
X11900238Y-15037976D01*
X11862143Y-15037976D01*
X11843095Y-15047500D01*
X11833571Y-15057024D01*
X11824048Y-15076071D01*
X11824048Y-15123690D01*
X11833571Y-15142738D01*
X11843095Y-15152262D01*
X11862143Y-15161786D01*
X11900238Y-15161786D01*
X11919286Y-15152262D01*
X11928809Y-15142738D01*
X11938333Y-15123690D01*
X12176428Y-15237976D02*
X12176428Y-15037976D01*
X12262143Y-15237976D02*
X12262143Y-15133214D01*
X12252619Y-15114167D01*
X12233571Y-15104643D01*
X12205000Y-15104643D01*
X12185952Y-15114167D01*
X12176428Y-15123690D01*
X12385952Y-15237976D02*
X12366905Y-15228452D01*
X12357381Y-15218928D01*
X12347857Y-15199881D01*
X12347857Y-15142738D01*
X12357381Y-15123690D01*
X12366905Y-15114167D01*
X12385952Y-15104643D01*
X12414524Y-15104643D01*
X12433571Y-15114167D01*
X12443095Y-15123690D01*
X12452619Y-15142738D01*
X12452619Y-15199881D01*
X12443095Y-15218928D01*
X12433571Y-15228452D01*
X12414524Y-15237976D01*
X12385952Y-15237976D01*
X12566905Y-15237976D02*
X12547857Y-15228452D01*
X12538333Y-15209405D01*
X12538333Y-15037976D01*
X12719286Y-15228452D02*
X12700238Y-15237976D01*
X12662143Y-15237976D01*
X12643095Y-15228452D01*
X12633571Y-15209405D01*
X12633571Y-15133214D01*
X12643095Y-15114167D01*
X12662143Y-15104643D01*
X12700238Y-15104643D01*
X12719286Y-15114167D01*
X12728809Y-15133214D01*
X12728809Y-15152262D01*
X12633571Y-15171309D01*
X12805000Y-15228452D02*
X12824048Y-15237976D01*
X12862143Y-15237976D01*
X12881190Y-15228452D01*
X12890714Y-15209405D01*
X12890714Y-15199881D01*
X12881190Y-15180833D01*
X12862143Y-15171309D01*
X12833571Y-15171309D01*
X12814524Y-15161786D01*
X12805000Y-15142738D01*
X12805000Y-15133214D01*
X12814524Y-15114167D01*
X12833571Y-15104643D01*
X12862143Y-15104643D01*
X12881190Y-15114167D01*
X12957381Y-15314167D02*
X12966905Y-15304643D01*
X12985952Y-15276071D01*
X12995476Y-15257024D01*
X13005000Y-15228452D01*
X13014524Y-15180833D01*
X13014524Y-15142738D01*
X13005000Y-15095119D01*
X12995476Y-15066548D01*
X12985952Y-15047500D01*
X12966905Y-15018928D01*
X12957381Y-15009405D01*
D14*
X7995000Y-15411500D02*
G75*
G03*
X7995000Y-15411500I-20000J0D01*
G01*
D12*
X8290714Y-15301976D02*
X8309762Y-15301976D01*
X8328809Y-15311500D01*
X8338333Y-15321024D01*
X8347857Y-15340071D01*
X8357381Y-15378167D01*
X8357381Y-15425786D01*
X8347857Y-15463881D01*
X8338333Y-15482928D01*
X8328809Y-15492452D01*
X8309762Y-15501976D01*
X8290714Y-15501976D01*
X8271667Y-15492452D01*
X8262143Y-15482928D01*
X8252619Y-15463881D01*
X8243095Y-15425786D01*
X8243095Y-15378167D01*
X8252619Y-15340071D01*
X8262143Y-15321024D01*
X8271667Y-15311500D01*
X8290714Y-15301976D01*
X8443095Y-15482928D02*
X8452619Y-15492452D01*
X8443095Y-15501976D01*
X8433571Y-15492452D01*
X8443095Y-15482928D01*
X8443095Y-15501976D01*
X8624048Y-15368643D02*
X8624048Y-15501976D01*
X8576429Y-15292452D02*
X8528810Y-15435309D01*
X8652619Y-15435309D01*
X8766905Y-15301976D02*
X8785952Y-15301976D01*
X8805000Y-15311500D01*
X8814524Y-15321024D01*
X8824048Y-15340071D01*
X8833571Y-15378167D01*
X8833571Y-15425786D01*
X8824048Y-15463881D01*
X8814524Y-15482928D01*
X8805000Y-15492452D01*
X8785952Y-15501976D01*
X8766905Y-15501976D01*
X8747857Y-15492452D01*
X8738333Y-15482928D01*
X8728810Y-15463881D01*
X8719286Y-15425786D01*
X8719286Y-15378167D01*
X8728810Y-15340071D01*
X8738333Y-15321024D01*
X8747857Y-15311500D01*
X8766905Y-15301976D01*
X8957381Y-15301976D02*
X8976429Y-15301976D01*
X8995476Y-15311500D01*
X9005000Y-15321024D01*
X9014524Y-15340071D01*
X9024048Y-15378167D01*
X9024048Y-15425786D01*
X9014524Y-15463881D01*
X9005000Y-15482928D01*
X8995476Y-15492452D01*
X8976429Y-15501976D01*
X8957381Y-15501976D01*
X8938333Y-15492452D01*
X8928810Y-15482928D01*
X8919286Y-15463881D01*
X8909762Y-15425786D01*
X8909762Y-15378167D01*
X8919286Y-15340071D01*
X8928810Y-15321024D01*
X8938333Y-15311500D01*
X8957381Y-15301976D01*
X9109762Y-15501976D02*
X9109762Y-15368643D01*
X9109762Y-15387690D02*
X9119286Y-15378167D01*
X9138333Y-15368643D01*
X9166905Y-15368643D01*
X9185952Y-15378167D01*
X9195476Y-15397214D01*
X9195476Y-15501976D01*
X9195476Y-15397214D02*
X9205000Y-15378167D01*
X9224048Y-15368643D01*
X9252619Y-15368643D01*
X9271667Y-15378167D01*
X9281190Y-15397214D01*
X9281190Y-15501976D01*
X9376429Y-15501976D02*
X9376429Y-15368643D01*
X9376429Y-15387690D02*
X9385952Y-15378167D01*
X9405000Y-15368643D01*
X9433571Y-15368643D01*
X9452619Y-15378167D01*
X9462143Y-15397214D01*
X9462143Y-15501976D01*
X9462143Y-15397214D02*
X9471667Y-15378167D01*
X9490714Y-15368643D01*
X9519286Y-15368643D01*
X9538333Y-15378167D01*
X9547857Y-15397214D01*
X9547857Y-15501976D01*
X9938333Y-15292452D02*
X9766905Y-15549595D01*
X10195476Y-15301976D02*
X10214524Y-15301976D01*
X10233571Y-15311500D01*
X10243095Y-15321024D01*
X10252619Y-15340071D01*
X10262143Y-15378167D01*
X10262143Y-15425786D01*
X10252619Y-15463881D01*
X10243095Y-15482928D01*
X10233571Y-15492452D01*
X10214524Y-15501976D01*
X10195476Y-15501976D01*
X10176429Y-15492452D01*
X10166905Y-15482928D01*
X10157381Y-15463881D01*
X10147857Y-15425786D01*
X10147857Y-15378167D01*
X10157381Y-15340071D01*
X10166905Y-15321024D01*
X10176429Y-15311500D01*
X10195476Y-15301976D01*
X10347857Y-15482928D02*
X10357381Y-15492452D01*
X10347857Y-15501976D01*
X10338333Y-15492452D01*
X10347857Y-15482928D01*
X10347857Y-15501976D01*
X10481190Y-15301976D02*
X10500238Y-15301976D01*
X10519286Y-15311500D01*
X10528810Y-15321024D01*
X10538333Y-15340071D01*
X10547857Y-15378167D01*
X10547857Y-15425786D01*
X10538333Y-15463881D01*
X10528810Y-15482928D01*
X10519286Y-15492452D01*
X10500238Y-15501976D01*
X10481190Y-15501976D01*
X10462143Y-15492452D01*
X10452619Y-15482928D01*
X10443095Y-15463881D01*
X10433571Y-15425786D01*
X10433571Y-15378167D01*
X10443095Y-15340071D01*
X10452619Y-15321024D01*
X10462143Y-15311500D01*
X10481190Y-15301976D01*
X10738333Y-15501976D02*
X10624048Y-15501976D01*
X10681190Y-15501976D02*
X10681190Y-15301976D01*
X10662143Y-15330548D01*
X10643095Y-15349595D01*
X10624048Y-15359119D01*
X10919286Y-15301976D02*
X10824048Y-15301976D01*
X10814524Y-15397214D01*
X10824048Y-15387690D01*
X10843095Y-15378167D01*
X10890714Y-15378167D01*
X10909762Y-15387690D01*
X10919286Y-15397214D01*
X10928810Y-15416262D01*
X10928810Y-15463881D01*
X10919286Y-15482928D01*
X10909762Y-15492452D01*
X10890714Y-15501976D01*
X10843095Y-15501976D01*
X10824048Y-15492452D01*
X10814524Y-15482928D01*
X10995476Y-15301976D02*
X11128810Y-15301976D01*
X11043095Y-15501976D01*
X11195476Y-15301976D02*
X11195476Y-15340071D01*
X11271667Y-15301976D02*
X11271667Y-15340071D01*
X11566905Y-15578167D02*
X11557381Y-15568643D01*
X11538333Y-15540071D01*
X11528809Y-15521024D01*
X11519286Y-15492452D01*
X11509762Y-15444833D01*
X11509762Y-15406738D01*
X11519286Y-15359119D01*
X11528809Y-15330548D01*
X11538333Y-15311500D01*
X11557381Y-15282928D01*
X11566905Y-15273405D01*
X11728809Y-15301976D02*
X11690714Y-15301976D01*
X11671667Y-15311500D01*
X11662143Y-15321024D01*
X11643095Y-15349595D01*
X11633571Y-15387690D01*
X11633571Y-15463881D01*
X11643095Y-15482928D01*
X11652619Y-15492452D01*
X11671667Y-15501976D01*
X11709762Y-15501976D01*
X11728809Y-15492452D01*
X11738333Y-15482928D01*
X11747857Y-15463881D01*
X11747857Y-15416262D01*
X11738333Y-15397214D01*
X11728809Y-15387690D01*
X11709762Y-15378167D01*
X11671667Y-15378167D01*
X11652619Y-15387690D01*
X11643095Y-15397214D01*
X11633571Y-15416262D01*
X11928809Y-15301976D02*
X11833571Y-15301976D01*
X11824048Y-15397214D01*
X11833571Y-15387690D01*
X11852619Y-15378167D01*
X11900238Y-15378167D01*
X11919286Y-15387690D01*
X11928809Y-15397214D01*
X11938333Y-15416262D01*
X11938333Y-15463881D01*
X11928809Y-15482928D01*
X11919286Y-15492452D01*
X11900238Y-15501976D01*
X11852619Y-15501976D01*
X11833571Y-15492452D01*
X11824048Y-15482928D01*
X12176428Y-15501976D02*
X12176428Y-15301976D01*
X12262143Y-15501976D02*
X12262143Y-15397214D01*
X12252619Y-15378167D01*
X12233571Y-15368643D01*
X12205000Y-15368643D01*
X12185952Y-15378167D01*
X12176428Y-15387690D01*
X12385952Y-15501976D02*
X12366905Y-15492452D01*
X12357381Y-15482928D01*
X12347857Y-15463881D01*
X12347857Y-15406738D01*
X12357381Y-15387690D01*
X12366905Y-15378167D01*
X12385952Y-15368643D01*
X12414524Y-15368643D01*
X12433571Y-15378167D01*
X12443095Y-15387690D01*
X12452619Y-15406738D01*
X12452619Y-15463881D01*
X12443095Y-15482928D01*
X12433571Y-15492452D01*
X12414524Y-15501976D01*
X12385952Y-15501976D01*
X12566905Y-15501976D02*
X12547857Y-15492452D01*
X12538333Y-15473405D01*
X12538333Y-15301976D01*
X12719286Y-15492452D02*
X12700238Y-15501976D01*
X12662143Y-15501976D01*
X12643095Y-15492452D01*
X12633571Y-15473405D01*
X12633571Y-15397214D01*
X12643095Y-15378167D01*
X12662143Y-15368643D01*
X12700238Y-15368643D01*
X12719286Y-15378167D01*
X12728809Y-15397214D01*
X12728809Y-15416262D01*
X12633571Y-15435309D01*
X12805000Y-15492452D02*
X12824048Y-15501976D01*
X12862143Y-15501976D01*
X12881190Y-15492452D01*
X12890714Y-15473405D01*
X12890714Y-15463881D01*
X12881190Y-15444833D01*
X12862143Y-15435309D01*
X12833571Y-15435309D01*
X12814524Y-15425786D01*
X12805000Y-15406738D01*
X12805000Y-15397214D01*
X12814524Y-15378167D01*
X12833571Y-15368643D01*
X12862143Y-15368643D01*
X12881190Y-15378167D01*
X12957381Y-15578167D02*
X12966905Y-15568643D01*
X12985952Y-15540071D01*
X12995476Y-15521024D01*
X13005000Y-15492452D01*
X13014524Y-15444833D01*
X13014524Y-15406738D01*
X13005000Y-15359119D01*
X12995476Y-15330548D01*
X12985952Y-15311500D01*
X12966905Y-15282928D01*
X12957381Y-15273405D01*
D15*
X7970000Y-15650500D02*
X7970000Y-15700500D01*
X7945000Y-15675500D02*
X7995000Y-15675500D01*
D12*
X8290714Y-15565976D02*
X8309762Y-15565976D01*
X8328809Y-15575500D01*
X8338333Y-15585024D01*
X8347857Y-15604071D01*
X8357381Y-15642167D01*
X8357381Y-15689786D01*
X8347857Y-15727881D01*
X8338333Y-15746928D01*
X8328809Y-15756452D01*
X8309762Y-15765976D01*
X8290714Y-15765976D01*
X8271667Y-15756452D01*
X8262143Y-15746928D01*
X8252619Y-15727881D01*
X8243095Y-15689786D01*
X8243095Y-15642167D01*
X8252619Y-15604071D01*
X8262143Y-15585024D01*
X8271667Y-15575500D01*
X8290714Y-15565976D01*
X8443095Y-15746928D02*
X8452619Y-15756452D01*
X8443095Y-15765976D01*
X8433571Y-15756452D01*
X8443095Y-15746928D01*
X8443095Y-15765976D01*
X8633571Y-15565976D02*
X8538333Y-15565976D01*
X8528810Y-15661214D01*
X8538333Y-15651690D01*
X8557381Y-15642167D01*
X8605000Y-15642167D01*
X8624048Y-15651690D01*
X8633571Y-15661214D01*
X8643095Y-15680262D01*
X8643095Y-15727881D01*
X8633571Y-15746928D01*
X8624048Y-15756452D01*
X8605000Y-15765976D01*
X8557381Y-15765976D01*
X8538333Y-15756452D01*
X8528810Y-15746928D01*
X8766905Y-15565976D02*
X8785952Y-15565976D01*
X8805000Y-15575500D01*
X8814524Y-15585024D01*
X8824048Y-15604071D01*
X8833571Y-15642167D01*
X8833571Y-15689786D01*
X8824048Y-15727881D01*
X8814524Y-15746928D01*
X8805000Y-15756452D01*
X8785952Y-15765976D01*
X8766905Y-15765976D01*
X8747857Y-15756452D01*
X8738333Y-15746928D01*
X8728810Y-15727881D01*
X8719286Y-15689786D01*
X8719286Y-15642167D01*
X8728810Y-15604071D01*
X8738333Y-15585024D01*
X8747857Y-15575500D01*
X8766905Y-15565976D01*
X8957381Y-15565976D02*
X8976429Y-15565976D01*
X8995476Y-15575500D01*
X9005000Y-15585024D01*
X9014524Y-15604071D01*
X9024048Y-15642167D01*
X9024048Y-15689786D01*
X9014524Y-15727881D01*
X9005000Y-15746928D01*
X8995476Y-15756452D01*
X8976429Y-15765976D01*
X8957381Y-15765976D01*
X8938333Y-15756452D01*
X8928810Y-15746928D01*
X8919286Y-15727881D01*
X8909762Y-15689786D01*
X8909762Y-15642167D01*
X8919286Y-15604071D01*
X8928810Y-15585024D01*
X8938333Y-15575500D01*
X8957381Y-15565976D01*
X9109762Y-15765976D02*
X9109762Y-15632643D01*
X9109762Y-15651690D02*
X9119286Y-15642167D01*
X9138333Y-15632643D01*
X9166905Y-15632643D01*
X9185952Y-15642167D01*
X9195476Y-15661214D01*
X9195476Y-15765976D01*
X9195476Y-15661214D02*
X9205000Y-15642167D01*
X9224048Y-15632643D01*
X9252619Y-15632643D01*
X9271667Y-15642167D01*
X9281190Y-15661214D01*
X9281190Y-15765976D01*
X9376429Y-15765976D02*
X9376429Y-15632643D01*
X9376429Y-15651690D02*
X9385952Y-15642167D01*
X9405000Y-15632643D01*
X9433571Y-15632643D01*
X9452619Y-15642167D01*
X9462143Y-15661214D01*
X9462143Y-15765976D01*
X9462143Y-15661214D02*
X9471667Y-15642167D01*
X9490714Y-15632643D01*
X9519286Y-15632643D01*
X9538333Y-15642167D01*
X9547857Y-15661214D01*
X9547857Y-15765976D01*
X9938333Y-15556452D02*
X9766905Y-15813595D01*
X10195476Y-15565976D02*
X10214524Y-15565976D01*
X10233571Y-15575500D01*
X10243095Y-15585024D01*
X10252619Y-15604071D01*
X10262143Y-15642167D01*
X10262143Y-15689786D01*
X10252619Y-15727881D01*
X10243095Y-15746928D01*
X10233571Y-15756452D01*
X10214524Y-15765976D01*
X10195476Y-15765976D01*
X10176429Y-15756452D01*
X10166905Y-15746928D01*
X10157381Y-15727881D01*
X10147857Y-15689786D01*
X10147857Y-15642167D01*
X10157381Y-15604071D01*
X10166905Y-15585024D01*
X10176429Y-15575500D01*
X10195476Y-15565976D01*
X10347857Y-15746928D02*
X10357381Y-15756452D01*
X10347857Y-15765976D01*
X10338333Y-15756452D01*
X10347857Y-15746928D01*
X10347857Y-15765976D01*
X10481190Y-15565976D02*
X10500238Y-15565976D01*
X10519286Y-15575500D01*
X10528810Y-15585024D01*
X10538333Y-15604071D01*
X10547857Y-15642167D01*
X10547857Y-15689786D01*
X10538333Y-15727881D01*
X10528810Y-15746928D01*
X10519286Y-15756452D01*
X10500238Y-15765976D01*
X10481190Y-15765976D01*
X10462143Y-15756452D01*
X10452619Y-15746928D01*
X10443095Y-15727881D01*
X10433571Y-15689786D01*
X10433571Y-15642167D01*
X10443095Y-15604071D01*
X10452619Y-15585024D01*
X10462143Y-15575500D01*
X10481190Y-15565976D01*
X10738333Y-15765976D02*
X10624048Y-15765976D01*
X10681190Y-15765976D02*
X10681190Y-15565976D01*
X10662143Y-15594548D01*
X10643095Y-15613595D01*
X10624048Y-15623119D01*
X10833571Y-15765976D02*
X10871667Y-15765976D01*
X10890714Y-15756452D01*
X10900238Y-15746928D01*
X10919286Y-15718357D01*
X10928810Y-15680262D01*
X10928810Y-15604071D01*
X10919286Y-15585024D01*
X10909762Y-15575500D01*
X10890714Y-15565976D01*
X10852619Y-15565976D01*
X10833571Y-15575500D01*
X10824048Y-15585024D01*
X10814524Y-15604071D01*
X10814524Y-15651690D01*
X10824048Y-15670738D01*
X10833571Y-15680262D01*
X10852619Y-15689786D01*
X10890714Y-15689786D01*
X10909762Y-15680262D01*
X10919286Y-15670738D01*
X10928810Y-15651690D01*
X10995476Y-15565976D02*
X11128810Y-15565976D01*
X11043095Y-15765976D01*
X11195476Y-15565976D02*
X11195476Y-15604071D01*
X11271667Y-15565976D02*
X11271667Y-15604071D01*
X11566905Y-15842167D02*
X11557381Y-15832643D01*
X11538333Y-15804071D01*
X11528809Y-15785024D01*
X11519286Y-15756452D01*
X11509762Y-15708833D01*
X11509762Y-15670738D01*
X11519286Y-15623119D01*
X11528809Y-15594548D01*
X11538333Y-15575500D01*
X11557381Y-15546928D01*
X11566905Y-15537405D01*
X11633571Y-15585024D02*
X11643095Y-15575500D01*
X11662143Y-15565976D01*
X11709762Y-15565976D01*
X11728809Y-15575500D01*
X11738333Y-15585024D01*
X11747857Y-15604071D01*
X11747857Y-15623119D01*
X11738333Y-15651690D01*
X11624048Y-15765976D01*
X11747857Y-15765976D01*
X11938333Y-15765976D02*
X11824048Y-15765976D01*
X11881190Y-15765976D02*
X11881190Y-15565976D01*
X11862143Y-15594548D01*
X11843095Y-15613595D01*
X11824048Y-15623119D01*
X12005000Y-15565976D02*
X12138333Y-15565976D01*
X12052619Y-15765976D01*
X12366905Y-15765976D02*
X12366905Y-15565976D01*
X12452619Y-15765976D02*
X12452619Y-15661214D01*
X12443095Y-15642167D01*
X12424048Y-15632643D01*
X12395476Y-15632643D01*
X12376428Y-15642167D01*
X12366905Y-15651690D01*
X12576428Y-15765976D02*
X12557381Y-15756452D01*
X12547857Y-15746928D01*
X12538333Y-15727881D01*
X12538333Y-15670738D01*
X12547857Y-15651690D01*
X12557381Y-15642167D01*
X12576428Y-15632643D01*
X12605000Y-15632643D01*
X12624048Y-15642167D01*
X12633571Y-15651690D01*
X12643095Y-15670738D01*
X12643095Y-15727881D01*
X12633571Y-15746928D01*
X12624048Y-15756452D01*
X12605000Y-15765976D01*
X12576428Y-15765976D01*
X12757381Y-15765976D02*
X12738333Y-15756452D01*
X12728809Y-15737405D01*
X12728809Y-15565976D01*
X12909762Y-15756452D02*
X12890714Y-15765976D01*
X12852619Y-15765976D01*
X12833571Y-15756452D01*
X12824048Y-15737405D01*
X12824048Y-15661214D01*
X12833571Y-15642167D01*
X12852619Y-15632643D01*
X12890714Y-15632643D01*
X12909762Y-15642167D01*
X12919286Y-15661214D01*
X12919286Y-15680262D01*
X12824048Y-15699309D01*
X12995476Y-15756452D02*
X13014524Y-15765976D01*
X13052619Y-15765976D01*
X13071667Y-15756452D01*
X13081190Y-15737405D01*
X13081190Y-15727881D01*
X13071667Y-15708833D01*
X13052619Y-15699309D01*
X13024048Y-15699309D01*
X13005000Y-15689786D01*
X12995476Y-15670738D01*
X12995476Y-15661214D01*
X13005000Y-15642167D01*
X13024048Y-15632643D01*
X13052619Y-15632643D01*
X13071667Y-15642167D01*
X13147857Y-15842167D02*
X13157381Y-15832643D01*
X13176428Y-15804071D01*
X13185952Y-15785024D01*
X13195476Y-15756452D01*
X13205000Y-15708833D01*
X13205000Y-15670738D01*
X13195476Y-15623119D01*
X13185952Y-15594548D01*
X13176428Y-15575500D01*
X13157381Y-15546928D01*
X13147857Y-15537405D01*
D16*
X7984749Y-15964249D02*
X7984749Y-15914751D01*
X7935251Y-15914751D01*
X7935251Y-15964249D01*
X7984749Y-15964249D01*
D12*
X8290714Y-15829976D02*
X8309762Y-15829976D01*
X8328809Y-15839500D01*
X8338333Y-15849024D01*
X8347857Y-15868071D01*
X8357381Y-15906167D01*
X8357381Y-15953786D01*
X8347857Y-15991881D01*
X8338333Y-16010928D01*
X8328809Y-16020452D01*
X8309762Y-16029976D01*
X8290714Y-16029976D01*
X8271667Y-16020452D01*
X8262143Y-16010928D01*
X8252619Y-15991881D01*
X8243095Y-15953786D01*
X8243095Y-15906167D01*
X8252619Y-15868071D01*
X8262143Y-15849024D01*
X8271667Y-15839500D01*
X8290714Y-15829976D01*
X8443095Y-16010928D02*
X8452619Y-16020452D01*
X8443095Y-16029976D01*
X8433571Y-16020452D01*
X8443095Y-16010928D01*
X8443095Y-16029976D01*
X8519286Y-15829976D02*
X8652619Y-15829976D01*
X8566905Y-16029976D01*
X8766905Y-15829976D02*
X8785952Y-15829976D01*
X8805000Y-15839500D01*
X8814524Y-15849024D01*
X8824048Y-15868071D01*
X8833571Y-15906167D01*
X8833571Y-15953786D01*
X8824048Y-15991881D01*
X8814524Y-16010928D01*
X8805000Y-16020452D01*
X8785952Y-16029976D01*
X8766905Y-16029976D01*
X8747857Y-16020452D01*
X8738333Y-16010928D01*
X8728810Y-15991881D01*
X8719286Y-15953786D01*
X8719286Y-15906167D01*
X8728810Y-15868071D01*
X8738333Y-15849024D01*
X8747857Y-15839500D01*
X8766905Y-15829976D01*
X8957381Y-15829976D02*
X8976429Y-15829976D01*
X8995476Y-15839500D01*
X9005000Y-15849024D01*
X9014524Y-15868071D01*
X9024048Y-15906167D01*
X9024048Y-15953786D01*
X9014524Y-15991881D01*
X9005000Y-16010928D01*
X8995476Y-16020452D01*
X8976429Y-16029976D01*
X8957381Y-16029976D01*
X8938333Y-16020452D01*
X8928810Y-16010928D01*
X8919286Y-15991881D01*
X8909762Y-15953786D01*
X8909762Y-15906167D01*
X8919286Y-15868071D01*
X8928810Y-15849024D01*
X8938333Y-15839500D01*
X8957381Y-15829976D01*
X9109762Y-16029976D02*
X9109762Y-15896643D01*
X9109762Y-15915690D02*
X9119286Y-15906167D01*
X9138333Y-15896643D01*
X9166905Y-15896643D01*
X9185952Y-15906167D01*
X9195476Y-15925214D01*
X9195476Y-16029976D01*
X9195476Y-15925214D02*
X9205000Y-15906167D01*
X9224048Y-15896643D01*
X9252619Y-15896643D01*
X9271667Y-15906167D01*
X9281190Y-15925214D01*
X9281190Y-16029976D01*
X9376429Y-16029976D02*
X9376429Y-15896643D01*
X9376429Y-15915690D02*
X9385952Y-15906167D01*
X9405000Y-15896643D01*
X9433571Y-15896643D01*
X9452619Y-15906167D01*
X9462143Y-15925214D01*
X9462143Y-16029976D01*
X9462143Y-15925214D02*
X9471667Y-15906167D01*
X9490714Y-15896643D01*
X9519286Y-15896643D01*
X9538333Y-15906167D01*
X9547857Y-15925214D01*
X9547857Y-16029976D01*
X9938333Y-15820452D02*
X9766905Y-16077595D01*
X10195476Y-15829976D02*
X10214524Y-15829976D01*
X10233571Y-15839500D01*
X10243095Y-15849024D01*
X10252619Y-15868071D01*
X10262143Y-15906167D01*
X10262143Y-15953786D01*
X10252619Y-15991881D01*
X10243095Y-16010928D01*
X10233571Y-16020452D01*
X10214524Y-16029976D01*
X10195476Y-16029976D01*
X10176429Y-16020452D01*
X10166905Y-16010928D01*
X10157381Y-15991881D01*
X10147857Y-15953786D01*
X10147857Y-15906167D01*
X10157381Y-15868071D01*
X10166905Y-15849024D01*
X10176429Y-15839500D01*
X10195476Y-15829976D01*
X10347857Y-16010928D02*
X10357381Y-16020452D01*
X10347857Y-16029976D01*
X10338333Y-16020452D01*
X10347857Y-16010928D01*
X10347857Y-16029976D01*
X10481190Y-15829976D02*
X10500238Y-15829976D01*
X10519286Y-15839500D01*
X10528810Y-15849024D01*
X10538333Y-15868071D01*
X10547857Y-15906167D01*
X10547857Y-15953786D01*
X10538333Y-15991881D01*
X10528810Y-16010928D01*
X10519286Y-16020452D01*
X10500238Y-16029976D01*
X10481190Y-16029976D01*
X10462143Y-16020452D01*
X10452619Y-16010928D01*
X10443095Y-15991881D01*
X10433571Y-15953786D01*
X10433571Y-15906167D01*
X10443095Y-15868071D01*
X10452619Y-15849024D01*
X10462143Y-15839500D01*
X10481190Y-15829976D01*
X10624048Y-15849024D02*
X10633571Y-15839500D01*
X10652619Y-15829976D01*
X10700238Y-15829976D01*
X10719286Y-15839500D01*
X10728810Y-15849024D01*
X10738333Y-15868071D01*
X10738333Y-15887119D01*
X10728810Y-15915690D01*
X10614524Y-16029976D01*
X10738333Y-16029976D01*
X10805000Y-15829976D02*
X10938333Y-15829976D01*
X10852619Y-16029976D01*
X11100238Y-15829976D02*
X11062143Y-15829976D01*
X11043095Y-15839500D01*
X11033571Y-15849024D01*
X11014524Y-15877595D01*
X11005000Y-15915690D01*
X11005000Y-15991881D01*
X11014524Y-16010928D01*
X11024048Y-16020452D01*
X11043095Y-16029976D01*
X11081190Y-16029976D01*
X11100238Y-16020452D01*
X11109762Y-16010928D01*
X11119286Y-15991881D01*
X11119286Y-15944262D01*
X11109762Y-15925214D01*
X11100238Y-15915690D01*
X11081190Y-15906167D01*
X11043095Y-15906167D01*
X11024048Y-15915690D01*
X11014524Y-15925214D01*
X11005000Y-15944262D01*
X11195476Y-15829976D02*
X11195476Y-15868071D01*
X11271667Y-15829976D02*
X11271667Y-15868071D01*
X11566905Y-16106167D02*
X11557381Y-16096643D01*
X11538333Y-16068071D01*
X11528809Y-16049024D01*
X11519286Y-16020452D01*
X11509762Y-15972833D01*
X11509762Y-15934738D01*
X11519286Y-15887119D01*
X11528809Y-15858548D01*
X11538333Y-15839500D01*
X11557381Y-15810928D01*
X11566905Y-15801405D01*
X11624048Y-15829976D02*
X11747857Y-15829976D01*
X11681190Y-15906167D01*
X11709762Y-15906167D01*
X11728809Y-15915690D01*
X11738333Y-15925214D01*
X11747857Y-15944262D01*
X11747857Y-15991881D01*
X11738333Y-16010928D01*
X11728809Y-16020452D01*
X11709762Y-16029976D01*
X11652619Y-16029976D01*
X11633571Y-16020452D01*
X11624048Y-16010928D01*
X11985952Y-16029976D02*
X11985952Y-15829976D01*
X12071667Y-16029976D02*
X12071667Y-15925214D01*
X12062143Y-15906167D01*
X12043095Y-15896643D01*
X12014524Y-15896643D01*
X11995476Y-15906167D01*
X11985952Y-15915690D01*
X12195476Y-16029976D02*
X12176428Y-16020452D01*
X12166905Y-16010928D01*
X12157381Y-15991881D01*
X12157381Y-15934738D01*
X12166905Y-15915690D01*
X12176428Y-15906167D01*
X12195476Y-15896643D01*
X12224048Y-15896643D01*
X12243095Y-15906167D01*
X12252619Y-15915690D01*
X12262143Y-15934738D01*
X12262143Y-15991881D01*
X12252619Y-16010928D01*
X12243095Y-16020452D01*
X12224048Y-16029976D01*
X12195476Y-16029976D01*
X12376428Y-16029976D02*
X12357381Y-16020452D01*
X12347857Y-16001405D01*
X12347857Y-15829976D01*
X12528809Y-16020452D02*
X12509762Y-16029976D01*
X12471667Y-16029976D01*
X12452619Y-16020452D01*
X12443095Y-16001405D01*
X12443095Y-15925214D01*
X12452619Y-15906167D01*
X12471667Y-15896643D01*
X12509762Y-15896643D01*
X12528809Y-15906167D01*
X12538333Y-15925214D01*
X12538333Y-15944262D01*
X12443095Y-15963309D01*
X12614524Y-16020452D02*
X12633571Y-16029976D01*
X12671667Y-16029976D01*
X12690714Y-16020452D01*
X12700238Y-16001405D01*
X12700238Y-15991881D01*
X12690714Y-15972833D01*
X12671667Y-15963309D01*
X12643095Y-15963309D01*
X12624048Y-15953786D01*
X12614524Y-15934738D01*
X12614524Y-15925214D01*
X12624048Y-15906167D01*
X12643095Y-15896643D01*
X12671667Y-15896643D01*
X12690714Y-15906167D01*
X12766905Y-16106167D02*
X12776428Y-16096643D01*
X12795476Y-16068071D01*
X12805000Y-16049024D01*
X12814524Y-16020452D01*
X12824048Y-15972833D01*
X12824048Y-15934738D01*
X12814524Y-15887119D01*
X12805000Y-15858548D01*
X12795476Y-15839500D01*
X12776428Y-15810928D01*
X12766905Y-15801405D01*
D17*
X7945000Y-16253500D02*
X7995000Y-16203500D01*
X7945000Y-16153500D01*
X7895000Y-16203500D01*
X7945000Y-16253500D01*
D12*
X8357381Y-16293976D02*
X8243095Y-16293976D01*
X8300238Y-16293976D02*
X8300238Y-16093976D01*
X8281190Y-16122548D01*
X8262143Y-16141595D01*
X8243095Y-16151119D01*
X8443095Y-16274928D02*
X8452619Y-16284452D01*
X8443095Y-16293976D01*
X8433571Y-16284452D01*
X8443095Y-16274928D01*
X8443095Y-16293976D01*
X8576429Y-16093976D02*
X8595476Y-16093976D01*
X8614524Y-16103500D01*
X8624048Y-16113024D01*
X8633571Y-16132071D01*
X8643095Y-16170167D01*
X8643095Y-16217786D01*
X8633571Y-16255881D01*
X8624048Y-16274928D01*
X8614524Y-16284452D01*
X8595476Y-16293976D01*
X8576429Y-16293976D01*
X8557381Y-16284452D01*
X8547857Y-16274928D01*
X8538333Y-16255881D01*
X8528810Y-16217786D01*
X8528810Y-16170167D01*
X8538333Y-16132071D01*
X8547857Y-16113024D01*
X8557381Y-16103500D01*
X8576429Y-16093976D01*
X8766905Y-16093976D02*
X8785952Y-16093976D01*
X8805000Y-16103500D01*
X8814524Y-16113024D01*
X8824048Y-16132071D01*
X8833571Y-16170167D01*
X8833571Y-16217786D01*
X8824048Y-16255881D01*
X8814524Y-16274928D01*
X8805000Y-16284452D01*
X8785952Y-16293976D01*
X8766905Y-16293976D01*
X8747857Y-16284452D01*
X8738333Y-16274928D01*
X8728810Y-16255881D01*
X8719286Y-16217786D01*
X8719286Y-16170167D01*
X8728810Y-16132071D01*
X8738333Y-16113024D01*
X8747857Y-16103500D01*
X8766905Y-16093976D01*
X8957381Y-16093976D02*
X8976429Y-16093976D01*
X8995476Y-16103500D01*
X9005000Y-16113024D01*
X9014524Y-16132071D01*
X9024048Y-16170167D01*
X9024048Y-16217786D01*
X9014524Y-16255881D01*
X9005000Y-16274928D01*
X8995476Y-16284452D01*
X8976429Y-16293976D01*
X8957381Y-16293976D01*
X8938333Y-16284452D01*
X8928810Y-16274928D01*
X8919286Y-16255881D01*
X8909762Y-16217786D01*
X8909762Y-16170167D01*
X8919286Y-16132071D01*
X8928810Y-16113024D01*
X8938333Y-16103500D01*
X8957381Y-16093976D01*
X9109762Y-16293976D02*
X9109762Y-16160643D01*
X9109762Y-16179690D02*
X9119286Y-16170167D01*
X9138333Y-16160643D01*
X9166905Y-16160643D01*
X9185952Y-16170167D01*
X9195476Y-16189214D01*
X9195476Y-16293976D01*
X9195476Y-16189214D02*
X9205000Y-16170167D01*
X9224048Y-16160643D01*
X9252619Y-16160643D01*
X9271667Y-16170167D01*
X9281190Y-16189214D01*
X9281190Y-16293976D01*
X9376429Y-16293976D02*
X9376429Y-16160643D01*
X9376429Y-16179690D02*
X9385952Y-16170167D01*
X9405000Y-16160643D01*
X9433571Y-16160643D01*
X9452619Y-16170167D01*
X9462143Y-16189214D01*
X9462143Y-16293976D01*
X9462143Y-16189214D02*
X9471667Y-16170167D01*
X9490714Y-16160643D01*
X9519286Y-16160643D01*
X9538333Y-16170167D01*
X9547857Y-16189214D01*
X9547857Y-16293976D01*
X9938333Y-16084452D02*
X9766905Y-16341595D01*
X10195476Y-16093976D02*
X10214524Y-16093976D01*
X10233571Y-16103500D01*
X10243095Y-16113024D01*
X10252619Y-16132071D01*
X10262143Y-16170167D01*
X10262143Y-16217786D01*
X10252619Y-16255881D01*
X10243095Y-16274928D01*
X10233571Y-16284452D01*
X10214524Y-16293976D01*
X10195476Y-16293976D01*
X10176429Y-16284452D01*
X10166905Y-16274928D01*
X10157381Y-16255881D01*
X10147857Y-16217786D01*
X10147857Y-16170167D01*
X10157381Y-16132071D01*
X10166905Y-16113024D01*
X10176429Y-16103500D01*
X10195476Y-16093976D01*
X10347857Y-16274928D02*
X10357381Y-16284452D01*
X10347857Y-16293976D01*
X10338333Y-16284452D01*
X10347857Y-16274928D01*
X10347857Y-16293976D01*
X10481190Y-16093976D02*
X10500238Y-16093976D01*
X10519286Y-16103500D01*
X10528810Y-16113024D01*
X10538333Y-16132071D01*
X10547857Y-16170167D01*
X10547857Y-16217786D01*
X10538333Y-16255881D01*
X10528810Y-16274928D01*
X10519286Y-16284452D01*
X10500238Y-16293976D01*
X10481190Y-16293976D01*
X10462143Y-16284452D01*
X10452619Y-16274928D01*
X10443095Y-16255881D01*
X10433571Y-16217786D01*
X10433571Y-16170167D01*
X10443095Y-16132071D01*
X10452619Y-16113024D01*
X10462143Y-16103500D01*
X10481190Y-16093976D01*
X10614524Y-16093976D02*
X10738333Y-16093976D01*
X10671667Y-16170167D01*
X10700238Y-16170167D01*
X10719286Y-16179690D01*
X10728810Y-16189214D01*
X10738333Y-16208262D01*
X10738333Y-16255881D01*
X10728810Y-16274928D01*
X10719286Y-16284452D01*
X10700238Y-16293976D01*
X10643095Y-16293976D01*
X10624048Y-16284452D01*
X10614524Y-16274928D01*
X10833571Y-16293976D02*
X10871667Y-16293976D01*
X10890714Y-16284452D01*
X10900238Y-16274928D01*
X10919286Y-16246357D01*
X10928810Y-16208262D01*
X10928810Y-16132071D01*
X10919286Y-16113024D01*
X10909762Y-16103500D01*
X10890714Y-16093976D01*
X10852619Y-16093976D01*
X10833571Y-16103500D01*
X10824048Y-16113024D01*
X10814524Y-16132071D01*
X10814524Y-16179690D01*
X10824048Y-16198738D01*
X10833571Y-16208262D01*
X10852619Y-16217786D01*
X10890714Y-16217786D01*
X10909762Y-16208262D01*
X10919286Y-16198738D01*
X10928810Y-16179690D01*
X11100238Y-16160643D02*
X11100238Y-16293976D01*
X11052619Y-16084452D02*
X11005000Y-16227309D01*
X11128810Y-16227309D01*
X11195476Y-16093976D02*
X11195476Y-16132071D01*
X11271667Y-16093976D02*
X11271667Y-16132071D01*
X11566905Y-16370167D02*
X11557381Y-16360643D01*
X11538333Y-16332071D01*
X11528809Y-16313024D01*
X11519286Y-16284452D01*
X11509762Y-16236833D01*
X11509762Y-16198738D01*
X11519286Y-16151119D01*
X11528809Y-16122548D01*
X11538333Y-16103500D01*
X11557381Y-16074928D01*
X11566905Y-16065405D01*
X11624048Y-16093976D02*
X11747857Y-16093976D01*
X11681190Y-16170167D01*
X11709762Y-16170167D01*
X11728809Y-16179690D01*
X11738333Y-16189214D01*
X11747857Y-16208262D01*
X11747857Y-16255881D01*
X11738333Y-16274928D01*
X11728809Y-16284452D01*
X11709762Y-16293976D01*
X11652619Y-16293976D01*
X11633571Y-16284452D01*
X11624048Y-16274928D01*
X11985952Y-16293976D02*
X11985952Y-16093976D01*
X12071667Y-16293976D02*
X12071667Y-16189214D01*
X12062143Y-16170167D01*
X12043095Y-16160643D01*
X12014524Y-16160643D01*
X11995476Y-16170167D01*
X11985952Y-16179690D01*
X12195476Y-16293976D02*
X12176428Y-16284452D01*
X12166905Y-16274928D01*
X12157381Y-16255881D01*
X12157381Y-16198738D01*
X12166905Y-16179690D01*
X12176428Y-16170167D01*
X12195476Y-16160643D01*
X12224048Y-16160643D01*
X12243095Y-16170167D01*
X12252619Y-16179690D01*
X12262143Y-16198738D01*
X12262143Y-16255881D01*
X12252619Y-16274928D01*
X12243095Y-16284452D01*
X12224048Y-16293976D01*
X12195476Y-16293976D01*
X12376428Y-16293976D02*
X12357381Y-16284452D01*
X12347857Y-16265405D01*
X12347857Y-16093976D01*
X12528809Y-16284452D02*
X12509762Y-16293976D01*
X12471667Y-16293976D01*
X12452619Y-16284452D01*
X12443095Y-16265405D01*
X12443095Y-16189214D01*
X12452619Y-16170167D01*
X12471667Y-16160643D01*
X12509762Y-16160643D01*
X12528809Y-16170167D01*
X12538333Y-16189214D01*
X12538333Y-16208262D01*
X12443095Y-16227309D01*
X12614524Y-16284452D02*
X12633571Y-16293976D01*
X12671667Y-16293976D01*
X12690714Y-16284452D01*
X12700238Y-16265405D01*
X12700238Y-16255881D01*
X12690714Y-16236833D01*
X12671667Y-16227309D01*
X12643095Y-16227309D01*
X12624048Y-16217786D01*
X12614524Y-16198738D01*
X12614524Y-16189214D01*
X12624048Y-16170167D01*
X12643095Y-16160643D01*
X12671667Y-16160643D01*
X12690714Y-16170167D01*
X12766905Y-16370167D02*
X12776428Y-16360643D01*
X12795476Y-16332071D01*
X12805000Y-16313024D01*
X12814524Y-16284452D01*
X12824048Y-16236833D01*
X12824048Y-16198738D01*
X12814524Y-16151119D01*
X12805000Y-16122548D01*
X12795476Y-16103500D01*
X12776428Y-16074928D01*
X12766905Y-16065405D01*
D18*
X7885000Y-16412500D02*
X7995000Y-16522500D01*
X7995000Y-16412500D02*
X7885000Y-16522500D01*
X7995000Y-16467500D02*
G75*
G03*
X7995000Y-16467500I-55000J0D01*
G01*
D12*
X8357381Y-16557976D02*
X8243095Y-16557976D01*
X8300238Y-16557976D02*
X8300238Y-16357976D01*
X8281190Y-16386548D01*
X8262143Y-16405595D01*
X8243095Y-16415119D01*
X8443095Y-16538928D02*
X8452619Y-16548452D01*
X8443095Y-16557976D01*
X8433571Y-16548452D01*
X8443095Y-16538928D01*
X8443095Y-16557976D01*
X8643095Y-16557976D02*
X8528810Y-16557976D01*
X8585952Y-16557976D02*
X8585952Y-16357976D01*
X8566905Y-16386548D01*
X8547857Y-16405595D01*
X8528810Y-16415119D01*
X8766905Y-16357976D02*
X8785952Y-16357976D01*
X8805000Y-16367500D01*
X8814524Y-16377024D01*
X8824048Y-16396071D01*
X8833571Y-16434167D01*
X8833571Y-16481786D01*
X8824048Y-16519881D01*
X8814524Y-16538928D01*
X8805000Y-16548452D01*
X8785952Y-16557976D01*
X8766905Y-16557976D01*
X8747857Y-16548452D01*
X8738333Y-16538928D01*
X8728810Y-16519881D01*
X8719286Y-16481786D01*
X8719286Y-16434167D01*
X8728810Y-16396071D01*
X8738333Y-16377024D01*
X8747857Y-16367500D01*
X8766905Y-16357976D01*
X8957381Y-16357976D02*
X8976429Y-16357976D01*
X8995476Y-16367500D01*
X9005000Y-16377024D01*
X9014524Y-16396071D01*
X9024048Y-16434167D01*
X9024048Y-16481786D01*
X9014524Y-16519881D01*
X9005000Y-16538928D01*
X8995476Y-16548452D01*
X8976429Y-16557976D01*
X8957381Y-16557976D01*
X8938333Y-16548452D01*
X8928810Y-16538928D01*
X8919286Y-16519881D01*
X8909762Y-16481786D01*
X8909762Y-16434167D01*
X8919286Y-16396071D01*
X8928810Y-16377024D01*
X8938333Y-16367500D01*
X8957381Y-16357976D01*
X9109762Y-16557976D02*
X9109762Y-16424643D01*
X9109762Y-16443690D02*
X9119286Y-16434167D01*
X9138333Y-16424643D01*
X9166905Y-16424643D01*
X9185952Y-16434167D01*
X9195476Y-16453214D01*
X9195476Y-16557976D01*
X9195476Y-16453214D02*
X9205000Y-16434167D01*
X9224048Y-16424643D01*
X9252619Y-16424643D01*
X9271667Y-16434167D01*
X9281190Y-16453214D01*
X9281190Y-16557976D01*
X9376429Y-16557976D02*
X9376429Y-16424643D01*
X9376429Y-16443690D02*
X9385952Y-16434167D01*
X9405000Y-16424643D01*
X9433571Y-16424643D01*
X9452619Y-16434167D01*
X9462143Y-16453214D01*
X9462143Y-16557976D01*
X9462143Y-16453214D02*
X9471667Y-16434167D01*
X9490714Y-16424643D01*
X9519286Y-16424643D01*
X9538333Y-16434167D01*
X9547857Y-16453214D01*
X9547857Y-16557976D01*
X9938333Y-16348452D02*
X9766905Y-16605595D01*
X10195476Y-16357976D02*
X10214524Y-16357976D01*
X10233571Y-16367500D01*
X10243095Y-16377024D01*
X10252619Y-16396071D01*
X10262143Y-16434167D01*
X10262143Y-16481786D01*
X10252619Y-16519881D01*
X10243095Y-16538928D01*
X10233571Y-16548452D01*
X10214524Y-16557976D01*
X10195476Y-16557976D01*
X10176429Y-16548452D01*
X10166905Y-16538928D01*
X10157381Y-16519881D01*
X10147857Y-16481786D01*
X10147857Y-16434167D01*
X10157381Y-16396071D01*
X10166905Y-16377024D01*
X10176429Y-16367500D01*
X10195476Y-16357976D01*
X10347857Y-16538928D02*
X10357381Y-16548452D01*
X10347857Y-16557976D01*
X10338333Y-16548452D01*
X10347857Y-16538928D01*
X10347857Y-16557976D01*
X10481190Y-16357976D02*
X10500238Y-16357976D01*
X10519286Y-16367500D01*
X10528810Y-16377024D01*
X10538333Y-16396071D01*
X10547857Y-16434167D01*
X10547857Y-16481786D01*
X10538333Y-16519881D01*
X10528810Y-16538928D01*
X10519286Y-16548452D01*
X10500238Y-16557976D01*
X10481190Y-16557976D01*
X10462143Y-16548452D01*
X10452619Y-16538928D01*
X10443095Y-16519881D01*
X10433571Y-16481786D01*
X10433571Y-16434167D01*
X10443095Y-16396071D01*
X10452619Y-16377024D01*
X10462143Y-16367500D01*
X10481190Y-16357976D01*
X10719286Y-16424643D02*
X10719286Y-16557976D01*
X10671667Y-16348452D02*
X10624048Y-16491309D01*
X10747857Y-16491309D01*
X10805000Y-16357976D02*
X10928810Y-16357976D01*
X10862143Y-16434167D01*
X10890714Y-16434167D01*
X10909762Y-16443690D01*
X10919286Y-16453214D01*
X10928810Y-16472262D01*
X10928810Y-16519881D01*
X10919286Y-16538928D01*
X10909762Y-16548452D01*
X10890714Y-16557976D01*
X10833571Y-16557976D01*
X10814524Y-16548452D01*
X10805000Y-16538928D01*
X10995476Y-16357976D02*
X11119286Y-16357976D01*
X11052619Y-16434167D01*
X11081190Y-16434167D01*
X11100238Y-16443690D01*
X11109762Y-16453214D01*
X11119286Y-16472262D01*
X11119286Y-16519881D01*
X11109762Y-16538928D01*
X11100238Y-16548452D01*
X11081190Y-16557976D01*
X11024048Y-16557976D01*
X11005000Y-16548452D01*
X10995476Y-16538928D01*
X11195476Y-16357976D02*
X11195476Y-16396071D01*
X11271667Y-16357976D02*
X11271667Y-16396071D01*
X11566905Y-16634167D02*
X11557381Y-16624643D01*
X11538333Y-16596071D01*
X11528809Y-16577024D01*
X11519286Y-16548452D01*
X11509762Y-16500833D01*
X11509762Y-16462738D01*
X11519286Y-16415119D01*
X11528809Y-16386548D01*
X11538333Y-16367500D01*
X11557381Y-16338928D01*
X11566905Y-16329405D01*
X11624048Y-16357976D02*
X11747857Y-16357976D01*
X11681190Y-16434167D01*
X11709762Y-16434167D01*
X11728809Y-16443690D01*
X11738333Y-16453214D01*
X11747857Y-16472262D01*
X11747857Y-16519881D01*
X11738333Y-16538928D01*
X11728809Y-16548452D01*
X11709762Y-16557976D01*
X11652619Y-16557976D01*
X11633571Y-16548452D01*
X11624048Y-16538928D01*
X11814524Y-16357976D02*
X11947857Y-16357976D01*
X11862143Y-16557976D01*
X12176428Y-16557976D02*
X12176428Y-16357976D01*
X12262143Y-16557976D02*
X12262143Y-16453214D01*
X12252619Y-16434167D01*
X12233571Y-16424643D01*
X12205000Y-16424643D01*
X12185952Y-16434167D01*
X12176428Y-16443690D01*
X12385952Y-16557976D02*
X12366905Y-16548452D01*
X12357381Y-16538928D01*
X12347857Y-16519881D01*
X12347857Y-16462738D01*
X12357381Y-16443690D01*
X12366905Y-16434167D01*
X12385952Y-16424643D01*
X12414524Y-16424643D01*
X12433571Y-16434167D01*
X12443095Y-16443690D01*
X12452619Y-16462738D01*
X12452619Y-16519881D01*
X12443095Y-16538928D01*
X12433571Y-16548452D01*
X12414524Y-16557976D01*
X12385952Y-16557976D01*
X12566905Y-16557976D02*
X12547857Y-16548452D01*
X12538333Y-16529405D01*
X12538333Y-16357976D01*
X12719286Y-16548452D02*
X12700238Y-16557976D01*
X12662143Y-16557976D01*
X12643095Y-16548452D01*
X12633571Y-16529405D01*
X12633571Y-16453214D01*
X12643095Y-16434167D01*
X12662143Y-16424643D01*
X12700238Y-16424643D01*
X12719286Y-16434167D01*
X12728809Y-16453214D01*
X12728809Y-16472262D01*
X12633571Y-16491309D01*
X12805000Y-16548452D02*
X12824048Y-16557976D01*
X12862143Y-16557976D01*
X12881190Y-16548452D01*
X12890714Y-16529405D01*
X12890714Y-16519881D01*
X12881190Y-16500833D01*
X12862143Y-16491309D01*
X12833571Y-16491309D01*
X12814524Y-16481786D01*
X12805000Y-16462738D01*
X12805000Y-16453214D01*
X12814524Y-16434167D01*
X12833571Y-16424643D01*
X12862143Y-16424643D01*
X12881190Y-16434167D01*
X12957381Y-16634167D02*
X12966905Y-16624643D01*
X12985952Y-16596071D01*
X12995476Y-16577024D01*
X13005000Y-16548452D01*
X13014524Y-16500833D01*
X13014524Y-16462738D01*
X13005000Y-16415119D01*
X12995476Y-16386548D01*
X12985952Y-16367500D01*
X12966905Y-16338928D01*
X12957381Y-16329405D01*
D19*
X7835000Y-16651500D02*
X7995000Y-16811500D01*
X7995000Y-16651500D02*
X7835000Y-16811500D01*
X7915000Y-16651500D02*
X7915000Y-16811500D01*
X7835000Y-16731500D02*
X7995000Y-16731500D01*
D12*
X8357381Y-16821976D02*
X8243095Y-16821976D01*
X8300238Y-16821976D02*
X8300238Y-16621976D01*
X8281190Y-16650548D01*
X8262143Y-16669595D01*
X8243095Y-16679119D01*
X8443095Y-16802929D02*
X8452619Y-16812452D01*
X8443095Y-16821976D01*
X8433571Y-16812452D01*
X8443095Y-16802929D01*
X8443095Y-16821976D01*
X8624048Y-16621976D02*
X8585952Y-16621976D01*
X8566905Y-16631500D01*
X8557381Y-16641024D01*
X8538333Y-16669595D01*
X8528810Y-16707690D01*
X8528810Y-16783881D01*
X8538333Y-16802929D01*
X8547857Y-16812452D01*
X8566905Y-16821976D01*
X8605000Y-16821976D01*
X8624048Y-16812452D01*
X8633571Y-16802929D01*
X8643095Y-16783881D01*
X8643095Y-16736262D01*
X8633571Y-16717214D01*
X8624048Y-16707690D01*
X8605000Y-16698167D01*
X8566905Y-16698167D01*
X8547857Y-16707690D01*
X8538333Y-16717214D01*
X8528810Y-16736262D01*
X8766905Y-16621976D02*
X8785952Y-16621976D01*
X8805000Y-16631500D01*
X8814524Y-16641024D01*
X8824048Y-16660071D01*
X8833571Y-16698167D01*
X8833571Y-16745786D01*
X8824048Y-16783881D01*
X8814524Y-16802929D01*
X8805000Y-16812452D01*
X8785952Y-16821976D01*
X8766905Y-16821976D01*
X8747857Y-16812452D01*
X8738333Y-16802929D01*
X8728810Y-16783881D01*
X8719286Y-16745786D01*
X8719286Y-16698167D01*
X8728810Y-16660071D01*
X8738333Y-16641024D01*
X8747857Y-16631500D01*
X8766905Y-16621976D01*
X8957381Y-16621976D02*
X8976429Y-16621976D01*
X8995476Y-16631500D01*
X9005000Y-16641024D01*
X9014524Y-16660071D01*
X9024048Y-16698167D01*
X9024048Y-16745786D01*
X9014524Y-16783881D01*
X9005000Y-16802929D01*
X8995476Y-16812452D01*
X8976429Y-16821976D01*
X8957381Y-16821976D01*
X8938333Y-16812452D01*
X8928810Y-16802929D01*
X8919286Y-16783881D01*
X8909762Y-16745786D01*
X8909762Y-16698167D01*
X8919286Y-16660071D01*
X8928810Y-16641024D01*
X8938333Y-16631500D01*
X8957381Y-16621976D01*
X9109762Y-16821976D02*
X9109762Y-16688643D01*
X9109762Y-16707690D02*
X9119286Y-16698167D01*
X9138333Y-16688643D01*
X9166905Y-16688643D01*
X9185952Y-16698167D01*
X9195476Y-16717214D01*
X9195476Y-16821976D01*
X9195476Y-16717214D02*
X9205000Y-16698167D01*
X9224048Y-16688643D01*
X9252619Y-16688643D01*
X9271667Y-16698167D01*
X9281190Y-16717214D01*
X9281190Y-16821976D01*
X9376429Y-16821976D02*
X9376429Y-16688643D01*
X9376429Y-16707690D02*
X9385952Y-16698167D01*
X9405000Y-16688643D01*
X9433571Y-16688643D01*
X9452619Y-16698167D01*
X9462143Y-16717214D01*
X9462143Y-16821976D01*
X9462143Y-16717214D02*
X9471667Y-16698167D01*
X9490714Y-16688643D01*
X9519286Y-16688643D01*
X9538333Y-16698167D01*
X9547857Y-16717214D01*
X9547857Y-16821976D01*
X9938333Y-16612452D02*
X9766905Y-16869595D01*
X10195476Y-16621976D02*
X10214524Y-16621976D01*
X10233571Y-16631500D01*
X10243095Y-16641024D01*
X10252619Y-16660071D01*
X10262143Y-16698167D01*
X10262143Y-16745786D01*
X10252619Y-16783881D01*
X10243095Y-16802929D01*
X10233571Y-16812452D01*
X10214524Y-16821976D01*
X10195476Y-16821976D01*
X10176429Y-16812452D01*
X10166905Y-16802929D01*
X10157381Y-16783881D01*
X10147857Y-16745786D01*
X10147857Y-16698167D01*
X10157381Y-16660071D01*
X10166905Y-16641024D01*
X10176429Y-16631500D01*
X10195476Y-16621976D01*
X10347857Y-16802929D02*
X10357381Y-16812452D01*
X10347857Y-16821976D01*
X10338333Y-16812452D01*
X10347857Y-16802929D01*
X10347857Y-16821976D01*
X10481190Y-16621976D02*
X10500238Y-16621976D01*
X10519286Y-16631500D01*
X10528810Y-16641024D01*
X10538333Y-16660071D01*
X10547857Y-16698167D01*
X10547857Y-16745786D01*
X10538333Y-16783881D01*
X10528810Y-16802929D01*
X10519286Y-16812452D01*
X10500238Y-16821976D01*
X10481190Y-16821976D01*
X10462143Y-16812452D01*
X10452619Y-16802929D01*
X10443095Y-16783881D01*
X10433571Y-16745786D01*
X10433571Y-16698167D01*
X10443095Y-16660071D01*
X10452619Y-16641024D01*
X10462143Y-16631500D01*
X10481190Y-16621976D01*
X10719286Y-16621976D02*
X10681190Y-16621976D01*
X10662143Y-16631500D01*
X10652619Y-16641024D01*
X10633571Y-16669595D01*
X10624048Y-16707690D01*
X10624048Y-16783881D01*
X10633571Y-16802929D01*
X10643095Y-16812452D01*
X10662143Y-16821976D01*
X10700238Y-16821976D01*
X10719286Y-16812452D01*
X10728810Y-16802929D01*
X10738333Y-16783881D01*
X10738333Y-16736262D01*
X10728810Y-16717214D01*
X10719286Y-16707690D01*
X10700238Y-16698167D01*
X10662143Y-16698167D01*
X10643095Y-16707690D01*
X10633571Y-16717214D01*
X10624048Y-16736262D01*
X10805000Y-16621976D02*
X10928810Y-16621976D01*
X10862143Y-16698167D01*
X10890714Y-16698167D01*
X10909762Y-16707690D01*
X10919286Y-16717214D01*
X10928810Y-16736262D01*
X10928810Y-16783881D01*
X10919286Y-16802929D01*
X10909762Y-16812452D01*
X10890714Y-16821976D01*
X10833571Y-16821976D01*
X10814524Y-16812452D01*
X10805000Y-16802929D01*
X11052619Y-16621976D02*
X11071667Y-16621976D01*
X11090714Y-16631500D01*
X11100238Y-16641024D01*
X11109762Y-16660071D01*
X11119286Y-16698167D01*
X11119286Y-16745786D01*
X11109762Y-16783881D01*
X11100238Y-16802929D01*
X11090714Y-16812452D01*
X11071667Y-16821976D01*
X11052619Y-16821976D01*
X11033571Y-16812452D01*
X11024048Y-16802929D01*
X11014524Y-16783881D01*
X11005000Y-16745786D01*
X11005000Y-16698167D01*
X11014524Y-16660071D01*
X11024048Y-16641024D01*
X11033571Y-16631500D01*
X11052619Y-16621976D01*
X11195476Y-16621976D02*
X11195476Y-16660071D01*
X11271667Y-16621976D02*
X11271667Y-16660071D01*
X11566905Y-16898167D02*
X11557381Y-16888643D01*
X11538333Y-16860071D01*
X11528809Y-16841024D01*
X11519286Y-16812452D01*
X11509762Y-16764833D01*
X11509762Y-16726738D01*
X11519286Y-16679119D01*
X11528809Y-16650548D01*
X11538333Y-16631500D01*
X11557381Y-16602928D01*
X11566905Y-16593405D01*
X11624048Y-16621976D02*
X11747857Y-16621976D01*
X11681190Y-16698167D01*
X11709762Y-16698167D01*
X11728809Y-16707690D01*
X11738333Y-16717214D01*
X11747857Y-16736262D01*
X11747857Y-16783881D01*
X11738333Y-16802929D01*
X11728809Y-16812452D01*
X11709762Y-16821976D01*
X11652619Y-16821976D01*
X11633571Y-16812452D01*
X11624048Y-16802929D01*
X11985952Y-16821976D02*
X11985952Y-16621976D01*
X12071667Y-16821976D02*
X12071667Y-16717214D01*
X12062143Y-16698167D01*
X12043095Y-16688643D01*
X12014524Y-16688643D01*
X11995476Y-16698167D01*
X11985952Y-16707690D01*
X12195476Y-16821976D02*
X12176428Y-16812452D01*
X12166905Y-16802929D01*
X12157381Y-16783881D01*
X12157381Y-16726738D01*
X12166905Y-16707690D01*
X12176428Y-16698167D01*
X12195476Y-16688643D01*
X12224048Y-16688643D01*
X12243095Y-16698167D01*
X12252619Y-16707690D01*
X12262143Y-16726738D01*
X12262143Y-16783881D01*
X12252619Y-16802929D01*
X12243095Y-16812452D01*
X12224048Y-16821976D01*
X12195476Y-16821976D01*
X12376428Y-16821976D02*
X12357381Y-16812452D01*
X12347857Y-16793405D01*
X12347857Y-16621976D01*
X12528809Y-16812452D02*
X12509762Y-16821976D01*
X12471667Y-16821976D01*
X12452619Y-16812452D01*
X12443095Y-16793405D01*
X12443095Y-16717214D01*
X12452619Y-16698167D01*
X12471667Y-16688643D01*
X12509762Y-16688643D01*
X12528809Y-16698167D01*
X12538333Y-16717214D01*
X12538333Y-16736262D01*
X12443095Y-16755309D01*
X12614524Y-16812452D02*
X12633571Y-16821976D01*
X12671667Y-16821976D01*
X12690714Y-16812452D01*
X12700238Y-16793405D01*
X12700238Y-16783881D01*
X12690714Y-16764833D01*
X12671667Y-16755309D01*
X12643095Y-16755309D01*
X12624048Y-16745786D01*
X12614524Y-16726738D01*
X12614524Y-16717214D01*
X12624048Y-16698167D01*
X12643095Y-16688643D01*
X12671667Y-16688643D01*
X12690714Y-16698167D01*
X12766905Y-16898167D02*
X12776428Y-16888643D01*
X12795476Y-16860071D01*
X12805000Y-16841024D01*
X12814524Y-16812452D01*
X12824048Y-16764833D01*
X12824048Y-16726738D01*
X12814524Y-16679119D01*
X12805000Y-16650548D01*
X12795476Y-16631500D01*
X12776428Y-16602928D01*
X12766905Y-16593405D01*
X7795000Y-16911500D02*
X7995000Y-17111500D01*
X7995000Y-16911500D02*
X7795000Y-17111500D01*
X7965711Y-17082211D02*
X7965711Y-16940789D01*
X7824289Y-16940789D01*
X7824289Y-17082211D01*
X7965711Y-17082211D01*
X8233571Y-16901976D02*
X8357381Y-16901976D01*
X8290714Y-16978167D01*
X8319286Y-16978167D01*
X8338333Y-16987690D01*
X8347857Y-16997214D01*
X8357381Y-17016262D01*
X8357381Y-17063881D01*
X8347857Y-17082929D01*
X8338333Y-17092452D01*
X8319286Y-17101976D01*
X8262143Y-17101976D01*
X8243095Y-17092452D01*
X8233571Y-17082929D01*
X8443095Y-17082929D02*
X8452619Y-17092452D01*
X8443095Y-17101976D01*
X8433571Y-17092452D01*
X8443095Y-17082929D01*
X8443095Y-17101976D01*
X8528810Y-16921024D02*
X8538333Y-16911500D01*
X8557381Y-16901976D01*
X8605000Y-16901976D01*
X8624048Y-16911500D01*
X8633571Y-16921024D01*
X8643095Y-16940071D01*
X8643095Y-16959119D01*
X8633571Y-16987690D01*
X8519286Y-17101976D01*
X8643095Y-17101976D01*
X8766905Y-16901976D02*
X8785952Y-16901976D01*
X8805000Y-16911500D01*
X8814524Y-16921024D01*
X8824048Y-16940071D01*
X8833571Y-16978167D01*
X8833571Y-17025786D01*
X8824048Y-17063881D01*
X8814524Y-17082929D01*
X8805000Y-17092452D01*
X8785952Y-17101976D01*
X8766905Y-17101976D01*
X8747857Y-17092452D01*
X8738333Y-17082929D01*
X8728810Y-17063881D01*
X8719286Y-17025786D01*
X8719286Y-16978167D01*
X8728810Y-16940071D01*
X8738333Y-16921024D01*
X8747857Y-16911500D01*
X8766905Y-16901976D01*
X8957381Y-16901976D02*
X8976429Y-16901976D01*
X8995476Y-16911500D01*
X9005000Y-16921024D01*
X9014524Y-16940071D01*
X9024048Y-16978167D01*
X9024048Y-17025786D01*
X9014524Y-17063881D01*
X9005000Y-17082929D01*
X8995476Y-17092452D01*
X8976429Y-17101976D01*
X8957381Y-17101976D01*
X8938333Y-17092452D01*
X8928810Y-17082929D01*
X8919286Y-17063881D01*
X8909762Y-17025786D01*
X8909762Y-16978167D01*
X8919286Y-16940071D01*
X8928810Y-16921024D01*
X8938333Y-16911500D01*
X8957381Y-16901976D01*
X9109762Y-17101976D02*
X9109762Y-16968643D01*
X9109762Y-16987690D02*
X9119286Y-16978167D01*
X9138333Y-16968643D01*
X9166905Y-16968643D01*
X9185952Y-16978167D01*
X9195476Y-16997214D01*
X9195476Y-17101976D01*
X9195476Y-16997214D02*
X9205000Y-16978167D01*
X9224048Y-16968643D01*
X9252619Y-16968643D01*
X9271667Y-16978167D01*
X9281190Y-16997214D01*
X9281190Y-17101976D01*
X9376429Y-17101976D02*
X9376429Y-16968643D01*
X9376429Y-16987690D02*
X9385952Y-16978167D01*
X9405000Y-16968643D01*
X9433571Y-16968643D01*
X9452619Y-16978167D01*
X9462143Y-16997214D01*
X9462143Y-17101976D01*
X9462143Y-16997214D02*
X9471667Y-16978167D01*
X9490714Y-16968643D01*
X9519286Y-16968643D01*
X9538333Y-16978167D01*
X9547857Y-16997214D01*
X9547857Y-17101976D01*
X9938333Y-16892452D02*
X9766905Y-17149595D01*
X10195476Y-16901976D02*
X10214524Y-16901976D01*
X10233571Y-16911500D01*
X10243095Y-16921024D01*
X10252619Y-16940071D01*
X10262143Y-16978167D01*
X10262143Y-17025786D01*
X10252619Y-17063881D01*
X10243095Y-17082929D01*
X10233571Y-17092452D01*
X10214524Y-17101976D01*
X10195476Y-17101976D01*
X10176429Y-17092452D01*
X10166905Y-17082929D01*
X10157381Y-17063881D01*
X10147857Y-17025786D01*
X10147857Y-16978167D01*
X10157381Y-16940071D01*
X10166905Y-16921024D01*
X10176429Y-16911500D01*
X10195476Y-16901976D01*
X10347857Y-17082929D02*
X10357381Y-17092452D01*
X10347857Y-17101976D01*
X10338333Y-17092452D01*
X10347857Y-17082929D01*
X10347857Y-17101976D01*
X10547857Y-17101976D02*
X10433571Y-17101976D01*
X10490714Y-17101976D02*
X10490714Y-16901976D01*
X10471667Y-16930548D01*
X10452619Y-16949595D01*
X10433571Y-16959119D01*
X10624048Y-16921024D02*
X10633571Y-16911500D01*
X10652619Y-16901976D01*
X10700238Y-16901976D01*
X10719286Y-16911500D01*
X10728810Y-16921024D01*
X10738333Y-16940071D01*
X10738333Y-16959119D01*
X10728810Y-16987690D01*
X10614524Y-17101976D01*
X10738333Y-17101976D01*
X10909762Y-16901976D02*
X10871667Y-16901976D01*
X10852619Y-16911500D01*
X10843095Y-16921024D01*
X10824048Y-16949595D01*
X10814524Y-16987690D01*
X10814524Y-17063881D01*
X10824048Y-17082929D01*
X10833571Y-17092452D01*
X10852619Y-17101976D01*
X10890714Y-17101976D01*
X10909762Y-17092452D01*
X10919286Y-17082929D01*
X10928810Y-17063881D01*
X10928810Y-17016262D01*
X10919286Y-16997214D01*
X10909762Y-16987690D01*
X10890714Y-16978167D01*
X10852619Y-16978167D01*
X10833571Y-16987690D01*
X10824048Y-16997214D01*
X10814524Y-17016262D01*
X11052619Y-16901976D02*
X11071667Y-16901976D01*
X11090714Y-16911500D01*
X11100238Y-16921024D01*
X11109762Y-16940071D01*
X11119286Y-16978167D01*
X11119286Y-17025786D01*
X11109762Y-17063881D01*
X11100238Y-17082929D01*
X11090714Y-17092452D01*
X11071667Y-17101976D01*
X11052619Y-17101976D01*
X11033571Y-17092452D01*
X11024048Y-17082929D01*
X11014524Y-17063881D01*
X11005000Y-17025786D01*
X11005000Y-16978167D01*
X11014524Y-16940071D01*
X11024048Y-16921024D01*
X11033571Y-16911500D01*
X11052619Y-16901976D01*
X11195476Y-16901976D02*
X11195476Y-16940071D01*
X11271667Y-16901976D02*
X11271667Y-16940071D01*
X11566905Y-17178167D02*
X11557381Y-17168643D01*
X11538333Y-17140071D01*
X11528809Y-17121024D01*
X11519286Y-17092452D01*
X11509762Y-17044833D01*
X11509762Y-17006738D01*
X11519286Y-16959119D01*
X11528809Y-16930548D01*
X11538333Y-16911500D01*
X11557381Y-16882929D01*
X11566905Y-16873405D01*
X11633571Y-16921024D02*
X11643095Y-16911500D01*
X11662143Y-16901976D01*
X11709762Y-16901976D01*
X11728809Y-16911500D01*
X11738333Y-16921024D01*
X11747857Y-16940071D01*
X11747857Y-16959119D01*
X11738333Y-16987690D01*
X11624048Y-17101976D01*
X11747857Y-17101976D01*
X11985952Y-17101976D02*
X11985952Y-16901976D01*
X12071667Y-17101976D02*
X12071667Y-16997214D01*
X12062143Y-16978167D01*
X12043095Y-16968643D01*
X12014524Y-16968643D01*
X11995476Y-16978167D01*
X11985952Y-16987690D01*
X12195476Y-17101976D02*
X12176428Y-17092452D01*
X12166905Y-17082929D01*
X12157381Y-17063881D01*
X12157381Y-17006738D01*
X12166905Y-16987690D01*
X12176428Y-16978167D01*
X12195476Y-16968643D01*
X12224048Y-16968643D01*
X12243095Y-16978167D01*
X12252619Y-16987690D01*
X12262143Y-17006738D01*
X12262143Y-17063881D01*
X12252619Y-17082929D01*
X12243095Y-17092452D01*
X12224048Y-17101976D01*
X12195476Y-17101976D01*
X12376428Y-17101976D02*
X12357381Y-17092452D01*
X12347857Y-17073405D01*
X12347857Y-16901976D01*
X12528809Y-17092452D02*
X12509762Y-17101976D01*
X12471667Y-17101976D01*
X12452619Y-17092452D01*
X12443095Y-17073405D01*
X12443095Y-16997214D01*
X12452619Y-16978167D01*
X12471667Y-16968643D01*
X12509762Y-16968643D01*
X12528809Y-16978167D01*
X12538333Y-16997214D01*
X12538333Y-17016262D01*
X12443095Y-17035310D01*
X12614524Y-17092452D02*
X12633571Y-17101976D01*
X12671667Y-17101976D01*
X12690714Y-17092452D01*
X12700238Y-17073405D01*
X12700238Y-17063881D01*
X12690714Y-17044833D01*
X12671667Y-17035310D01*
X12643095Y-17035310D01*
X12624048Y-17025786D01*
X12614524Y-17006738D01*
X12614524Y-16997214D01*
X12624048Y-16978167D01*
X12643095Y-16968643D01*
X12671667Y-16968643D01*
X12690714Y-16978167D01*
X12766905Y-17178167D02*
X12776428Y-17168643D01*
X12795476Y-17140071D01*
X12805000Y-17121024D01*
X12814524Y-17092452D01*
X12824048Y-17044833D01*
X12824048Y-17006738D01*
X12814524Y-16959119D01*
X12805000Y-16930548D01*
X12795476Y-16911500D01*
X12776428Y-16882929D01*
X12766905Y-16873405D01*
X7795000Y-17231500D02*
X7995000Y-17431500D01*
X7995000Y-17231500D02*
X7795000Y-17431500D01*
X7895000Y-17431500D02*
X7995000Y-17331500D01*
X7895000Y-17231500D01*
X7795000Y-17331500D01*
X7895000Y-17431500D01*
X8338333Y-17288643D02*
X8338333Y-17421976D01*
X8290714Y-17212452D02*
X8243095Y-17355310D01*
X8366905Y-17355310D01*
X8443095Y-17402929D02*
X8452619Y-17412452D01*
X8443095Y-17421976D01*
X8433571Y-17412452D01*
X8443095Y-17402929D01*
X8443095Y-17421976D01*
X8633571Y-17221976D02*
X8538333Y-17221976D01*
X8528810Y-17317214D01*
X8538333Y-17307690D01*
X8557381Y-17298167D01*
X8605000Y-17298167D01*
X8624048Y-17307690D01*
X8633571Y-17317214D01*
X8643095Y-17336262D01*
X8643095Y-17383881D01*
X8633571Y-17402929D01*
X8624048Y-17412452D01*
X8605000Y-17421976D01*
X8557381Y-17421976D01*
X8538333Y-17412452D01*
X8528810Y-17402929D01*
X8766905Y-17221976D02*
X8785952Y-17221976D01*
X8805000Y-17231500D01*
X8814524Y-17241024D01*
X8824048Y-17260071D01*
X8833571Y-17298167D01*
X8833571Y-17345786D01*
X8824048Y-17383881D01*
X8814524Y-17402929D01*
X8805000Y-17412452D01*
X8785952Y-17421976D01*
X8766905Y-17421976D01*
X8747857Y-17412452D01*
X8738333Y-17402929D01*
X8728810Y-17383881D01*
X8719286Y-17345786D01*
X8719286Y-17298167D01*
X8728810Y-17260071D01*
X8738333Y-17241024D01*
X8747857Y-17231500D01*
X8766905Y-17221976D01*
X8957381Y-17221976D02*
X8976429Y-17221976D01*
X8995476Y-17231500D01*
X9005000Y-17241024D01*
X9014524Y-17260071D01*
X9024048Y-17298167D01*
X9024048Y-17345786D01*
X9014524Y-17383881D01*
X9005000Y-17402929D01*
X8995476Y-17412452D01*
X8976429Y-17421976D01*
X8957381Y-17421976D01*
X8938333Y-17412452D01*
X8928810Y-17402929D01*
X8919286Y-17383881D01*
X8909762Y-17345786D01*
X8909762Y-17298167D01*
X8919286Y-17260071D01*
X8928810Y-17241024D01*
X8938333Y-17231500D01*
X8957381Y-17221976D01*
X9109762Y-17421976D02*
X9109762Y-17288643D01*
X9109762Y-17307690D02*
X9119286Y-17298167D01*
X9138333Y-17288643D01*
X9166905Y-17288643D01*
X9185952Y-17298167D01*
X9195476Y-17317214D01*
X9195476Y-17421976D01*
X9195476Y-17317214D02*
X9205000Y-17298167D01*
X9224048Y-17288643D01*
X9252619Y-17288643D01*
X9271667Y-17298167D01*
X9281190Y-17317214D01*
X9281190Y-17421976D01*
X9376429Y-17421976D02*
X9376429Y-17288643D01*
X9376429Y-17307690D02*
X9385952Y-17298167D01*
X9405000Y-17288643D01*
X9433571Y-17288643D01*
X9452619Y-17298167D01*
X9462143Y-17317214D01*
X9462143Y-17421976D01*
X9462143Y-17317214D02*
X9471667Y-17298167D01*
X9490714Y-17288643D01*
X9519286Y-17288643D01*
X9538333Y-17298167D01*
X9547857Y-17317214D01*
X9547857Y-17421976D01*
X9938333Y-17212452D02*
X9766905Y-17469595D01*
X10195476Y-17221976D02*
X10214524Y-17221976D01*
X10233571Y-17231500D01*
X10243095Y-17241024D01*
X10252619Y-17260071D01*
X10262143Y-17298167D01*
X10262143Y-17345786D01*
X10252619Y-17383881D01*
X10243095Y-17402929D01*
X10233571Y-17412452D01*
X10214524Y-17421976D01*
X10195476Y-17421976D01*
X10176429Y-17412452D01*
X10166905Y-17402929D01*
X10157381Y-17383881D01*
X10147857Y-17345786D01*
X10147857Y-17298167D01*
X10157381Y-17260071D01*
X10166905Y-17241024D01*
X10176429Y-17231500D01*
X10195476Y-17221976D01*
X10347857Y-17402929D02*
X10357381Y-17412452D01*
X10347857Y-17421976D01*
X10338333Y-17412452D01*
X10347857Y-17402929D01*
X10347857Y-17421976D01*
X10547857Y-17421976D02*
X10433571Y-17421976D01*
X10490714Y-17421976D02*
X10490714Y-17221976D01*
X10471667Y-17250548D01*
X10452619Y-17269595D01*
X10433571Y-17279119D01*
X10614524Y-17221976D02*
X10747857Y-17221976D01*
X10662143Y-17421976D01*
X10805000Y-17221976D02*
X10938333Y-17221976D01*
X10852619Y-17421976D01*
X11005000Y-17241024D02*
X11014524Y-17231500D01*
X11033571Y-17221976D01*
X11081190Y-17221976D01*
X11100238Y-17231500D01*
X11109762Y-17241024D01*
X11119286Y-17260071D01*
X11119286Y-17279119D01*
X11109762Y-17307690D01*
X10995476Y-17421976D01*
X11119286Y-17421976D01*
X11195476Y-17221976D02*
X11195476Y-17260071D01*
X11271667Y-17221976D02*
X11271667Y-17260071D01*
X11566905Y-17498167D02*
X11557381Y-17488643D01*
X11538333Y-17460071D01*
X11528809Y-17441024D01*
X11519286Y-17412452D01*
X11509762Y-17364833D01*
X11509762Y-17326738D01*
X11519286Y-17279119D01*
X11528809Y-17250548D01*
X11538333Y-17231500D01*
X11557381Y-17202929D01*
X11566905Y-17193405D01*
X11747857Y-17421976D02*
X11633571Y-17421976D01*
X11690714Y-17421976D02*
X11690714Y-17221976D01*
X11671667Y-17250548D01*
X11652619Y-17269595D01*
X11633571Y-17279119D01*
X11824048Y-17241024D02*
X11833571Y-17231500D01*
X11852619Y-17221976D01*
X11900238Y-17221976D01*
X11919286Y-17231500D01*
X11928809Y-17241024D01*
X11938333Y-17260071D01*
X11938333Y-17279119D01*
X11928809Y-17307690D01*
X11814524Y-17421976D01*
X11938333Y-17421976D01*
X12176428Y-17421976D02*
X12176428Y-17221976D01*
X12262143Y-17421976D02*
X12262143Y-17317214D01*
X12252619Y-17298167D01*
X12233571Y-17288643D01*
X12205000Y-17288643D01*
X12185952Y-17298167D01*
X12176428Y-17307690D01*
X12385952Y-17421976D02*
X12366905Y-17412452D01*
X12357381Y-17402929D01*
X12347857Y-17383881D01*
X12347857Y-17326738D01*
X12357381Y-17307690D01*
X12366905Y-17298167D01*
X12385952Y-17288643D01*
X12414524Y-17288643D01*
X12433571Y-17298167D01*
X12443095Y-17307690D01*
X12452619Y-17326738D01*
X12452619Y-17383881D01*
X12443095Y-17402929D01*
X12433571Y-17412452D01*
X12414524Y-17421976D01*
X12385952Y-17421976D01*
X12566905Y-17421976D02*
X12547857Y-17412452D01*
X12538333Y-17393405D01*
X12538333Y-17221976D01*
X12719286Y-17412452D02*
X12700238Y-17421976D01*
X12662143Y-17421976D01*
X12643095Y-17412452D01*
X12633571Y-17393405D01*
X12633571Y-17317214D01*
X12643095Y-17298167D01*
X12662143Y-17288643D01*
X12700238Y-17288643D01*
X12719286Y-17298167D01*
X12728809Y-17317214D01*
X12728809Y-17336262D01*
X12633571Y-17355310D01*
X12805000Y-17412452D02*
X12824048Y-17421976D01*
X12862143Y-17421976D01*
X12881190Y-17412452D01*
X12890714Y-17393405D01*
X12890714Y-17383881D01*
X12881190Y-17364833D01*
X12862143Y-17355310D01*
X12833571Y-17355310D01*
X12814524Y-17345786D01*
X12805000Y-17326738D01*
X12805000Y-17317214D01*
X12814524Y-17298167D01*
X12833571Y-17288643D01*
X12862143Y-17288643D01*
X12881190Y-17298167D01*
X12957381Y-17498167D02*
X12966905Y-17488643D01*
X12985952Y-17460071D01*
X12995476Y-17441024D01*
X13005000Y-17412452D01*
X13014524Y-17364833D01*
X13014524Y-17326738D01*
X13005000Y-17279119D01*
X12995476Y-17250548D01*
X12985952Y-17231500D01*
X12966905Y-17202929D01*
X12957381Y-17193405D01*
M02*
